<svg version="1.1" xmlns="http://www.w3.org/2000/svg" xmlns:xlink="http://www.w3.org/1999/xlink" width="754.4599609375" height="699"><defs/><g><g transform="translate(-78,-14) scale(1,1)"><path fill="#ffffff" stroke="none" d="M 625.6298093039773 273.68 C 625.6298093039773 268.886167936 629.5156516289227 265 634.30908203125 265 C 639.1025124335773 265 642.9883547585227 268.886167936 642.9883547585227 273.68 C 642.9883547585227 278.473832064 639.1025124335773 282.36 634.30908203125 282.36 C 629.5156516289227 282.36 625.6298093039773 278.473832064 625.6298093039773 273.68 Z"/></g><g transform="translate(-78,-14) scale(1,1)"><path fill="none" stroke="#000000" d="M 625.6298093039773 273.68 C 625.6298093039773 268.886167936 629.5156516289227 265 634.30908203125 265 C 639.1025124335773 265 642.9883547585227 268.886167936 642.9883547585227 273.68 C 642.9883547585227 278.473832064 639.1025124335773 282.36 634.30908203125 282.36 C 629.5156516289227 282.36 625.6298093039773 278.473832064 625.6298093039773 273.68 Z" stroke-miterlimit="10"/></g><g transform="translate(-78,-14) scale(1,1)"><path fill="none" stroke="#000000" d="M 634.30908203125 282.36 L 634.30908203125 299.64" stroke-miterlimit="10"/></g><g transform="translate(-78,-14) scale(1,1)"><path fill="none" stroke="#000000" d="M 625.1192638494318 288.84 L 643.4989002130682 288.84" stroke-miterlimit="10"/></g><g transform="translate(-78,-14) scale(1,1)"><path fill="none" stroke="#000000" d="M 634.30908203125 299.64 L 621.5454456676136 317" stroke-miterlimit="10"/></g><g transform="translate(-78,-14) scale(1,1)"><path fill="none" stroke="#000000" d="M 634.30908203125 299.64 L 647.0727183948864 317" stroke-miterlimit="10"/></g><g transform="translate(-78,-14) scale(1,1)"><g><path fill="none" stroke="none"/><text fill="#000000" stroke="none" font-family="Arial" font-size="13px" font-style="normal" font-weight="bold" text-decoration="none" x="584.825927734375" y="337.5">HR Administrator</text></g></g><g transform="translate(-78,-14) scale(1,1)"><rect fill="#C0C0C0" stroke="none" x="183" y="599" width="46.370507812499994" height="15" opacity="0.2"/></g><g transform="translate(-78,-14) scale(1,1)"><rect fill="#C0C0C0" stroke="none" x="183" y="613" width="115.92626953125" height="25" opacity="0.2"/></g><g transform="translate(-78,-14) scale(1,1)"><rect fill="#ffffff" stroke="none" x="176" y="607" width="115.92626953125" height="24"/></g><g transform="translate(-78,-14) scale(1,1)"><path fill="none" stroke="#000000" d="M 176 607 L 291.92626953125 607 L 291.92626953125 631 L 176 631 L 176 607 Z Z" stroke-miterlimit="10"/></g><g transform="translate(-78,-14) scale(1,1)"><rect fill="#ffffff" stroke="none" x="176" y="592" width="46.370507812499994" height="15"/></g><g transform="translate(-78,-14) scale(1,1)"><path fill="none" stroke="#000000" d="M 176 592 L 222.3705078125 592 L 222.3705078125 607 L 176 607 L 176 592 Z Z" stroke-miterlimit="10"/></g><g transform="translate(-78,-14) scale(1,1)"><rect fill="#ffffff" stroke="none" x="176" y="606" width="115.92626953125" height="25"/></g><g transform="translate(-78,-14) scale(1,1)"><path fill="none" stroke="#000000" d="M 176 606 L 291.92626953125 606 L 291.92626953125 631 L 176 631 L 176 606 Z Z" stroke-miterlimit="10"/></g><g transform="translate(-78,-14) scale(1,1)"><g><path fill="none" stroke="none"/><text fill="#000000" stroke="none" font-family="Arial" font-size="13px" font-style="normal" font-weight="bold" text-decoration="none" x="183.372314453125" y="626.5">OnboardPackage</text></g></g><g transform="translate(-78,-14) scale(1,1)"><path fill="#ffffff" stroke="none" d="M 706.8207272727273 153.68 C 706.8207272727273 148.886167936 710.7065695976727 145 715.5 145 C 720.2934304023273 145 724.1792727272727 148.886167936 724.1792727272727 153.68 C 724.1792727272727 158.47383206400002 720.2934304023273 162.36 715.5 162.36 C 710.7065695976727 162.36 706.8207272727273 158.47383206400002 706.8207272727273 153.68 Z"/></g><g transform="translate(-78,-14) scale(1,1)"><path fill="none" stroke="#000000" d="M 706.8207272727273 153.68 C 706.8207272727273 148.886167936 710.7065695976727 145 715.5 145 C 720.2934304023273 145 724.1792727272727 148.886167936 724.1792727272727 153.68 C 724.1792727272727 158.47383206400002 720.2934304023273 162.36 715.5 162.36 C 710.7065695976727 162.36 706.8207272727273 158.47383206400002 706.8207272727273 153.68 Z" stroke-miterlimit="10"/></g><g transform="translate(-78,-14) scale(1,1)"><path fill="none" stroke="#000000" d="M 715.5 162.36 L 715.5 179.64" stroke-miterlimit="10"/></g><g transform="translate(-78,-14) scale(1,1)"><path fill="none" stroke="#000000" d="M 706.3101818181818 168.84 L 724.6898181818182 168.84" stroke-miterlimit="10"/></g><g transform="translate(-78,-14) scale(1,1)"><path fill="none" stroke="#000000" d="M 715.5 179.64 L 702.7363636363636 197" stroke-miterlimit="10"/></g><g transform="translate(-78,-14) scale(1,1)"><path fill="none" stroke="#000000" d="M 715.5 179.64 L 728.2636363636364 197" stroke-miterlimit="10"/></g><g transform="translate(-78,-14) scale(1,1)"><g><path fill="none" stroke="none"/><text fill="#000000" stroke="none" font-family="Arial" font-size="13px" font-style="normal" font-weight="bold" text-decoration="none" x="686.595947265625" y="217.5">Employee</text></g></g><g transform="translate(-78,-14) scale(1,1)"><rect fill="#C0C0C0" stroke="none" x="151" y="535" width="83.9359375" height="15" opacity="0.2"/></g><g transform="translate(-78,-14) scale(1,1)"><rect fill="#C0C0C0" stroke="none" x="151" y="549" width="209.83984375" height="25" opacity="0.2"/></g><g transform="translate(-78,-14) scale(1,1)"><rect fill="#ffffff" stroke="none" x="144" y="543" width="209.83984375" height="24"/></g><g transform="translate(-78,-14) scale(1,1)"><path fill="none" stroke="#000000" d="M 144 543 L 353.83984375 543 L 353.83984375 567 L 144 567 L 144 543 Z Z" stroke-miterlimit="10"/></g><g transform="translate(-78,-14) scale(1,1)"><rect fill="#ffffff" stroke="none" x="144" y="528" width="83.9359375" height="15"/></g><g transform="translate(-78,-14) scale(1,1)"><path fill="none" stroke="#000000" d="M 144 528 L 227.9359375 528 L 227.9359375 543 L 144 543 L 144 528 Z Z" stroke-miterlimit="10"/></g><g transform="translate(-78,-14) scale(1,1)"><rect fill="#ffffff" stroke="none" x="144" y="542" width="209.83984375" height="25"/></g><g transform="translate(-78,-14) scale(1,1)"><path fill="none" stroke="#000000" d="M 144 542 L 353.83984375 542 L 353.83984375 567 L 144 567 L 144 542 Z Z" stroke-miterlimit="10"/></g><g transform="translate(-78,-14) scale(1,1)"><g><path fill="none" stroke="none"/><text fill="#000000" stroke="none" font-family="Arial" font-size="13px" font-style="normal" font-weight="bold" text-decoration="none" x="155.339599609375" y="562.5">OrganizationalStructurePackage</text></g></g><g transform="translate(-78,-14) scale(1,1)"><rect fill="#C0C0C0" stroke="none" x="151" y="471" width="81.63046875" height="15" opacity="0.2"/></g><g transform="translate(-78,-14) scale(1,1)"><rect fill="#C0C0C0" stroke="none" x="151" y="485" width="204.076171875" height="25" opacity="0.2"/></g><g transform="translate(-78,-14) scale(1,1)"><rect fill="#ffffff" stroke="none" x="144" y="479" width="204.076171875" height="24"/></g><g transform="translate(-78,-14) scale(1,1)"><path fill="none" stroke="#000000" d="M 144 479 L 348.076171875 479 L 348.076171875 503 L 144 503 L 144 479 Z Z" stroke-miterlimit="10"/></g><g transform="translate(-78,-14) scale(1,1)"><rect fill="#ffffff" stroke="none" x="144" y="464" width="81.63046875" height="15"/></g><g transform="translate(-78,-14) scale(1,1)"><path fill="none" stroke="#000000" d="M 144 464 L 225.63046875 464 L 225.63046875 479 L 144 479 L 144 464 Z Z" stroke-miterlimit="10"/></g><g transform="translate(-78,-14) scale(1,1)"><rect fill="#ffffff" stroke="none" x="144" y="478" width="204.076171875" height="25"/></g><g transform="translate(-78,-14) scale(1,1)"><path fill="none" stroke="#000000" d="M 144 478 L 348.076171875 478 L 348.076171875 503 L 144 503 L 144 478 Z Z" stroke-miterlimit="10"/></g><g transform="translate(-78,-14) scale(1,1)"><g><path fill="none" stroke="none"/><text fill="#000000" stroke="none" font-family="Arial" font-size="13px" font-style="normal" font-weight="bold" text-decoration="none" x="153.53369140625" y="498.5">PersonnelManagementPackage</text></g></g><g transform="translate(-78,-14) scale(1,1)"><path fill="#ffffff" stroke="none" d="M 782.5507077414773 281.68 C 782.5507077414773 276.886167936 786.4365500664227 273 791.22998046875 273 C 796.0234108710773 273 799.9092531960227 276.886167936 799.9092531960227 281.68 C 799.9092531960227 286.473832064 796.0234108710773 290.36 791.22998046875 290.36 C 786.4365500664227 290.36 782.5507077414773 286.473832064 782.5507077414773 281.68 Z"/></g><g transform="translate(-78,-14) scale(1,1)"><path fill="none" stroke="#000000" d="M 782.5507077414773 281.68 C 782.5507077414773 276.886167936 786.4365500664227 273 791.22998046875 273 C 796.0234108710773 273 799.9092531960227 276.886167936 799.9092531960227 281.68 C 799.9092531960227 286.473832064 796.0234108710773 290.36 791.22998046875 290.36 C 786.4365500664227 290.36 782.5507077414773 286.473832064 782.5507077414773 281.68 Z" stroke-miterlimit="10"/></g><g transform="translate(-78,-14) scale(1,1)"><path fill="none" stroke="#000000" d="M 791.22998046875 290.36 L 791.22998046875 307.64" stroke-miterlimit="10"/></g><g transform="translate(-78,-14) scale(1,1)"><path fill="none" stroke="#000000" d="M 782.0401622869318 296.84 L 800.4197986505682 296.84" stroke-miterlimit="10"/></g><g transform="translate(-78,-14) scale(1,1)"><path fill="none" stroke="#000000" d="M 791.22998046875 307.64 L 778.4663441051136 325" stroke-miterlimit="10"/></g><g transform="translate(-78,-14) scale(1,1)"><path fill="none" stroke="#000000" d="M 791.22998046875 307.64 L 803.9936168323864 325" stroke-miterlimit="10"/></g><g transform="translate(-78,-14) scale(1,1)"><g><path fill="none" stroke="none"/><text fill="#000000" stroke="none" font-family="Arial" font-size="13px" font-style="normal" font-weight="bold" text-decoration="none" x="765.575927734375" y="345.5">Manager</text></g></g><g transform="translate(-78,-14) scale(1,1)"><path fill="none" stroke="#000000" d="M 767 271 L 739 224" stroke-miterlimit="10"/></g><g transform="translate(-78,-14) scale(1,1)"><path fill="#FFFFFF" stroke="none" d="M 756.6354255764805 237.15263337649222 L 739 224 L 742.1698127632619 245.7704452652182"/></g><g transform="translate(-78,-14) scale(1,1)"><path fill="none" stroke="#000000" d="M 756.6354255764805 237.15263337649222 L 739 224 L 742.1698127632619 245.7704452652182 L 756.6354255764805 237.15263337649222" stroke-miterlimit="10"/></g><g transform="translate(-78,-14) scale(1,1)"><rect fill="#C0C0C0" stroke="none" x="199" y="671" width="42.046484375000006" height="15" opacity="0.2"/></g><g transform="translate(-78,-14) scale(1,1)"><rect fill="#C0C0C0" stroke="none" x="199" y="685" width="105.1162109375" height="25" opacity="0.2"/></g><g transform="translate(-78,-14) scale(1,1)"><rect fill="#ffffff" stroke="none" x="192" y="679" width="105.1162109375" height="24"/></g><g transform="translate(-78,-14) scale(1,1)"><path fill="none" stroke="#000000" d="M 192 679 L 297.1162109375 679 L 297.1162109375 703 L 192 703 L 192 679 Z Z" stroke-miterlimit="10"/></g><g transform="translate(-78,-14) scale(1,1)"><rect fill="#ffffff" stroke="none" x="192" y="664" width="42.046484375000006" height="15"/></g><g transform="translate(-78,-14) scale(1,1)"><path fill="none" stroke="#000000" d="M 192 664 L 234.046484375 664 L 234.046484375 679 L 192 679 L 192 664 Z Z" stroke-miterlimit="10"/></g><g transform="translate(-78,-14) scale(1,1)"><rect fill="#ffffff" stroke="none" x="192" y="678" width="105.1162109375" height="25"/></g><g transform="translate(-78,-14) scale(1,1)"><path fill="none" stroke="#000000" d="M 192 678 L 297.1162109375 678 L 297.1162109375 703 L 192 703 L 192 678 Z Z" stroke-miterlimit="10"/></g><g transform="translate(-78,-14) scale(1,1)"><g><path fill="none" stroke="none"/><text fill="#000000" stroke="none" font-family="Arial" font-size="13px" font-style="normal" font-weight="bold" text-decoration="none" x="199.39453125" y="698.5">PayrollPackage</text></g></g><g transform="translate(-78,-14) scale(1,1)"><path fill="#ffffff" stroke="none" d="M 516.8397702414773 153.68 C 516.8397702414773 148.886167936 520.7256125664227 145 525.51904296875 145 C 530.3124733710773 145 534.1983156960227 148.886167936 534.1983156960227 153.68 C 534.1983156960227 158.47383206400002 530.3124733710773 162.36 525.51904296875 162.36 C 520.7256125664227 162.36 516.8397702414773 158.47383206400002 516.8397702414773 153.68 Z"/></g><g transform="translate(-78,-14) scale(1,1)"><path fill="none" stroke="#000000" d="M 516.8397702414773 153.68 C 516.8397702414773 148.886167936 520.7256125664227 145 525.51904296875 145 C 530.3124733710773 145 534.1983156960227 148.886167936 534.1983156960227 153.68 C 534.1983156960227 158.47383206400002 530.3124733710773 162.36 525.51904296875 162.36 C 520.7256125664227 162.36 516.8397702414773 158.47383206400002 516.8397702414773 153.68 Z" stroke-miterlimit="10"/></g><g transform="translate(-78,-14) scale(1,1)"><path fill="none" stroke="#000000" d="M 525.51904296875 162.36 L 525.51904296875 179.64" stroke-miterlimit="10"/></g><g transform="translate(-78,-14) scale(1,1)"><path fill="none" stroke="#000000" d="M 516.3292247869318 168.84 L 534.7088611505682 168.84" stroke-miterlimit="10"/></g><g transform="translate(-78,-14) scale(1,1)"><path fill="none" stroke="#000000" d="M 525.51904296875 179.64 L 512.7554066051136 197" stroke-miterlimit="10"/></g><g transform="translate(-78,-14) scale(1,1)"><path fill="none" stroke="#000000" d="M 525.51904296875 179.64 L 538.2826793323864 197" stroke-miterlimit="10"/></g><g transform="translate(-78,-14) scale(1,1)"><g><path fill="none" stroke="none"/><text fill="#000000" stroke="none" font-family="Arial" font-size="13px" font-style="normal" font-weight="bold" text-decoration="none" x="498.779541015625" y="217.5">Applicant</text></g></g><g transform="translate(-78,-14) scale(1,1)"><g><path fill="none" stroke="none"/><text fill="#000000" stroke="none" font-family="Arial" font-size="13px" font-style="normal" font-weight="normal" text-decoration="none" x="460.5" y="232.5">(from RecruitPackage)</text></g></g><g transform="translate(-78,-14) scale(1,1)"><path fill="none" stroke="#000000" d="M 562 143 L 599 95" stroke-miterlimit="10"/></g><g transform="translate(-78,-14) scale(1,1)"><path fill="#FFFFFF" stroke="none" d="M 593.2591762107882 116.2377715926417 L 599 95 L 579.9232522586033 105.9579968794992"/></g><g transform="translate(-78,-14) scale(1,1)"><path fill="none" stroke="#000000" d="M 593.2591762107882 116.2377715926417 L 599 95 L 579.9232522586033 105.9579968794992 L 593.2591762107882 116.2377715926417" stroke-miterlimit="10"/></g><g transform="translate(-78,-14) scale(1,1)"><path fill="none" stroke="#000000" d="M 685 143 L 650 97" stroke-miterlimit="10"/></g><g transform="translate(-78,-14) scale(1,1)"><path fill="#FFFFFF" stroke="none" d="M 669.0075530427379 108.07758671044857 L 650 97 L 655.6073329681427 118.2734063324231"/></g><g transform="translate(-78,-14) scale(1,1)"><path fill="none" stroke="#000000" d="M 669.0075530427379 108.07758671044857 L 650 97 L 655.6073329681427 118.2734063324231 L 669.0075530427379 108.07758671044857" stroke-miterlimit="10"/></g><g transform="translate(-78,-14) scale(1,1)"><path fill="#ffffff" stroke="none" d="M 615.8207272727273 33.68 C 615.8207272727273 28.886167936 619.7065695976727 25 624.5 25 C 629.2934304023273 25 633.1792727272727 28.886167936 633.1792727272727 33.68 C 633.1792727272727 38.473832064 629.2934304023273 42.36 624.5 42.36 C 619.7065695976727 42.36 615.8207272727273 38.473832064 615.8207272727273 33.68 Z"/></g><g transform="translate(-78,-14) scale(1,1)"><path fill="none" stroke="#000000" d="M 615.8207272727273 33.68 C 615.8207272727273 28.886167936 619.7065695976727 25 624.5 25 C 629.2934304023273 25 633.1792727272727 28.886167936 633.1792727272727 33.68 C 633.1792727272727 38.473832064 629.2934304023273 42.36 624.5 42.36 C 619.7065695976727 42.36 615.8207272727273 38.473832064 615.8207272727273 33.68 Z" stroke-miterlimit="10"/></g><g transform="translate(-78,-14) scale(1,1)"><path fill="none" stroke="#000000" d="M 624.5 42.36 L 624.5 59.64" stroke-miterlimit="10"/></g><g transform="translate(-78,-14) scale(1,1)"><path fill="none" stroke="#000000" d="M 615.3101818181818 48.84 L 633.6898181818182 48.84" stroke-miterlimit="10"/></g><g transform="translate(-78,-14) scale(1,1)"><path fill="none" stroke="#000000" d="M 624.5 59.64 L 611.7363636363636 77" stroke-miterlimit="10"/></g><g transform="translate(-78,-14) scale(1,1)"><path fill="none" stroke="#000000" d="M 624.5 59.64 L 637.2636363636364 77" stroke-miterlimit="10"/></g><g transform="translate(-78,-14) scale(1,1)"><g><path fill="none" stroke="none"/><text fill="#000000" stroke="none" font-family="Arial" font-size="13px" font-style="normal" font-weight="bold" text-decoration="none" x="607.158203125" y="97.5">Guest</text></g></g><g transform="translate(-78,-14) scale(1,1)"><path fill="#C0C0C0" stroke="none" d="M 135 368 C 135 358.6111584 183.3532416 351 243 351 C 302.6467584 351 351 358.6111584 351 368 C 351 377.3888416 302.6467584 385 243 385 C 183.3532416 385 135 377.3888416 135 368 Z" opacity="0.2"/></g><g transform="translate(-78,-14) scale(1,1)"><path fill="#a3e0ff" stroke="none" d="M 128 361 C 128 351.6111584 176.3532416 344 236 344 C 295.6467584 344 344 351.6111584 344 361 C 344 370.3888416 295.6467584 378 236 378 C 176.3532416 378 128 370.3888416 128 361 Z"/></g><g transform="translate(-78,-14) scale(1,1)"><path fill="none" stroke="#000000" d="M 128 361 C 128 351.6111584 176.3532416 344 236 344 C 295.6467584 344 344 351.6111584 344 361 C 344 370.3888416 295.6467584 378 236 378 C 176.3532416 378 128 370.3888416 128 361 Z" stroke-miterlimit="10"/></g><g transform="translate(-78,-14) scale(1,1)"><g><path fill="none" stroke="none"/><text fill="#000000" stroke="none" font-family="Arial" font-size="13px" font-style="normal" font-weight="bold" text-decoration="none" x="169.517822265625" y="368">create action on record</text></g></g><g transform="translate(-78,-14) scale(1,1)"><path fill="#C0C0C0" stroke="none" d="M 175 72 C 175 62.6111584 205.8923488 55 244 55 C 282.1076512 55 313 62.6111584 313 72 C 313 81.3888416 282.1076512 89 244 89 C 205.8923488 89 175 81.3888416 175 72 Z" opacity="0.2"/></g><g transform="translate(-78,-14) scale(1,1)"><path fill="#ffffff" stroke="none" d="M 168 65 C 168 55.6111584 198.8923488 48 237 48 C 275.1076512 48 306 55.6111584 306 65 C 306 74.3888416 275.1076512 82 237 82 C 198.8923488 82 168 74.3888416 168 65 Z"/></g><g transform="translate(-78,-14) scale(1,1)"><path fill="none" stroke="#000000" d="M 168 65 C 168 55.6111584 198.8923488 48 237 48 C 275.1076512 48 306 55.6111584 306 65 C 306 74.3888416 275.1076512 82 237 82 C 198.8923488 82 168 74.3888416 168 65 Z" stroke-miterlimit="10"/></g><g transform="translate(-78,-14) scale(1,1)"><g><path fill="none" stroke="none"/><text fill="#000000" stroke="none" font-family="Arial" font-size="13px" font-style="normal" font-weight="bold" text-decoration="none" x="195.095947265625" y="72">login to HRMS</text></g></g><g transform="translate(-78,-14) scale(1,1)"><path fill="#C0C0C0" stroke="none" d="M 167 208 C 167 198.6111584 200.57864 191 242 191 C 283.42136 191 317 198.6111584 317 208 C 317 217.3888416 283.42136 225 242 225 C 200.57864 225 167 217.3888416 167 208 Z" opacity="0.2"/></g><g transform="translate(-78,-14) scale(1,1)"><path fill="#ffffff" stroke="none" d="M 160 201 C 160 191.6111584 193.57864 184 235 184 C 276.42136 184 310 191.6111584 310 201 C 310 210.3888416 276.42136 218 235 218 C 193.57864 218 160 210.3888416 160 201 Z"/></g><g transform="translate(-78,-14) scale(1,1)"><path fill="none" stroke="#000000" d="M 160 201 C 160 191.6111584 193.57864 184 235 184 C 276.42136 184 310 191.6111584 310 201 C 310 210.3888416 276.42136 218 235 218 C 193.57864 218 160 210.3888416 160 201 Z" stroke-miterlimit="10"/></g><g transform="translate(-78,-14) scale(1,1)"><g><path fill="none" stroke="none"/><text fill="#000000" stroke="none" font-family="Arial" font-size="13px" font-style="normal" font-weight="bold" text-decoration="none" x="189.119140625" y="208">logout of HRMS</text></g></g><g transform="translate(-78,-14) scale(1,1)"><path fill="none" stroke="#000000" d="M 661 263 L 687 224" stroke-miterlimit="10"/></g><g transform="translate(-78,-14) scale(1,1)"><path fill="#FFFFFF" stroke="none" d="M 682.7305855004323 245.58175386364326 L 687 224 L 668.7204635487784 236.24167256254066"/></g><g transform="translate(-78,-14) scale(1,1)"><path fill="none" stroke="#000000" d="M 682.7305855004323 245.58175386364326 L 687 224 L 668.7204635487784 236.24167256254066 L 682.7305855004323 245.58175386364326" stroke-miterlimit="10"/></g><g transform="translate(-78,-14) scale(1,1)"><path fill="none" stroke="#000000" d="M 599 63 L 416 64 L 307 65" stroke-miterlimit="10"/></g><g transform="translate(-78,-14) scale(1,1)"><path fill="none" stroke="#000000" d="M 317.12362939481824 60.697427760470276 L 307 65 L 317.2008650024119 69.116108988179" stroke-miterlimit="10"/></g><g transform="translate(-78,-14) scale(1,1)"><path fill="none" stroke="#000000" d="M 599 72 L 286 183" stroke-miterlimit="10"/></g><g transform="translate(-78,-14) scale(1,1)"><path fill="none" stroke="#000000" d="M 294.1712309650497 175.6358310369864 L 286 183 L 296.9851866375786 183.57067901447772" stroke-miterlimit="10"/></g><g transform="translate(-78,-14) scale(1,1)"><path fill="none" stroke="#000000" d="M 575 312 L 345 345" stroke-miterlimit="10"/></g><g transform="translate(-78,-14) scale(1,1)"><path fill="none" stroke="#000000" d="M 354.4618062717537 339.38981086987235 L 345 345 L 355.65751015468277 347.7235045993781" stroke-miterlimit="10"/></g><g transform="translate(-78,-14) scale(1,1)"><path fill="none" stroke="#000000" d="M 575 303 L 88 304 L 88 64 L 167 65" stroke-miterlimit="10"/></g><g transform="translate(-78,-14) scale(1,1)"><path fill="none" stroke="#000000" d="M 156.78485846451355 69.08054940050718 L 167 65 L 156.89141999741184 60.6621883015425" stroke-miterlimit="10"/></g><g transform="translate(-78,-14) scale(1,1)"><path fill="none" stroke="#000000" d="M 575 288 L 305 219" stroke-miterlimit="10"/></g><g transform="translate(-78,-14) scale(1,1)"><path fill="none" stroke="#000000" d="M 315.8885067783238 217.4378155875837 L 305 219 L 313.80396817143196 225.59470578846498" stroke-miterlimit="10"/></g><g transform="translate(-78,-14) scale(1,1)"><rect fill="#C0C0C0" stroke="none" x="175" y="407" width="54.400000000000006" height="15" opacity="0.2"/></g><g transform="translate(-78,-14) scale(1,1)"><rect fill="#C0C0C0" stroke="none" x="175" y="421" width="136" height="25" opacity="0.2"/></g><g transform="translate(-78,-14) scale(1,1)"><rect fill="#ffffff" stroke="none" x="168" y="415" width="136" height="24"/></g><g transform="translate(-78,-14) scale(1,1)"><path fill="none" stroke="#000000" d="M 168 415 L 304 415 L 304 439 L 168 439 L 168 415 Z Z" stroke-miterlimit="10"/></g><g transform="translate(-78,-14) scale(1,1)"><rect fill="#ffffff" stroke="none" x="168" y="400" width="54.400000000000006" height="15"/></g><g transform="translate(-78,-14) scale(1,1)"><path fill="none" stroke="#000000" d="M 168 400 L 222.4 400 L 222.4 415 L 168 415 L 168 400 Z Z" stroke-miterlimit="10"/></g><g transform="translate(-78,-14) scale(1,1)"><rect fill="#ffffff" stroke="none" x="168" y="414" width="136" height="25"/></g><g transform="translate(-78,-14) scale(1,1)"><path fill="none" stroke="#000000" d="M 168 414 L 304 414 L 304 439 L 168 439 L 168 414 Z Z" stroke-miterlimit="10"/></g><g transform="translate(-78,-14) scale(1,1)"><g><path fill="none" stroke="none"/><text fill="#000000" stroke="none" font-family="Arial" font-size="13px" font-style="normal" font-weight="bold" text-decoration="none" x="190.115966796875" y="434.5">RecruitPackage</text></g></g><g transform="translate(-78,-14) scale(1,1)"><path fill="none" stroke="#000000" d="M 575 337 L 440 416 L 305 418" stroke-miterlimit="10" stroke-dasharray="3"/></g><g transform="translate(-78,-14) scale(1,1)"><path fill="none" stroke="#000000" d="M 315.09920341220356 413.640402491177 L 305 418 L 315.2239161790842 422.0585142556187" stroke-miterlimit="10"/></g><g transform="translate(-78,-14) scale(1,1)"><path fill="none" stroke="#000000" d="M 598 344 L 480 480 L 349 482" stroke-miterlimit="10" stroke-dasharray="3"/></g><g transform="translate(-78,-14) scale(1,1)"><path fill="none" stroke="#000000" d="M 359.0972307146909 477.63583548725495 L 349 482 L 359.22575063073873 486.0538899883873" stroke-miterlimit="10"/></g><g transform="translate(-78,-14) scale(1,1)"><path fill="none" stroke="#000000" d="M 611 344 L 496 544 L 355 546" stroke-miterlimit="10" stroke-dasharray="3"/></g><g transform="translate(-78,-14) scale(1,1)"><path fill="none" stroke="#000000" d="M 365.1019491954619 541.6467687343414 L 355 546 L 365.22135612733354 550.0649574312927" stroke-miterlimit="10"/></g><g transform="translate(-78,-14) scale(1,1)"><path fill="none" stroke="#000000" d="M 618 344 L 512 608 L 293 610" stroke-miterlimit="10" stroke-dasharray="3"/></g><g transform="translate(-78,-14) scale(1,1)"><path fill="none" stroke="#000000" d="M 303.1238096134839 605.6978518261302 L 293 610 L 303.20069257654865 614.1165362817234" stroke-miterlimit="10"/></g><g transform="translate(-78,-14) scale(1,1)"><path fill="none" stroke="#000000" d="M 627 344 L 568 680 L 298 682" stroke-miterlimit="10" stroke-dasharray="3"/></g><g transform="translate(-78,-14) scale(1,1)"><path fill="none" stroke="#000000" d="M 308.1312153001357 677.7153207188524 L 298 682 L 308.1935768152959 686.1341252654778" stroke-miterlimit="10"/></g></g></svg>