<svg version="1.1" xmlns="http://www.w3.org/2000/svg" xmlns:xlink="http://www.w3.org/1999/xlink" width="870.4599609375" height="666"><defs/><g><g transform="translate(-42,-110) scale(1,1)"><path fill="#ffffff" stroke="none" d="M 129.62980930397728 345.68 C 129.62980930397728 340.886167936 133.51565162892274 337 138.30908203125 337 C 143.10251243357726 337 146.98835475852272 340.886167936 146.98835475852272 345.68 C 146.98835475852272 350.473832064 143.10251243357726 354.36 138.30908203125 354.36 C 133.51565162892274 354.36 129.62980930397728 350.473832064 129.62980930397728 345.68 Z"/></g><g transform="translate(-42,-110) scale(1,1)"><path fill="none" stroke="#000000" d="M 129.62980930397728 345.68 C 129.62980930397728 340.886167936 133.51565162892274 337 138.30908203125 337 C 143.10251243357726 337 146.98835475852272 340.886167936 146.98835475852272 345.68 C 146.98835475852272 350.473832064 143.10251243357726 354.36 138.30908203125 354.36 C 133.51565162892274 354.36 129.62980930397728 350.473832064 129.62980930397728 345.68 Z" stroke-miterlimit="10"/></g><g transform="translate(-42,-110) scale(1,1)"><path fill="none" stroke="#000000" d="M 138.30908203125 354.36 L 138.30908203125 371.64" stroke-miterlimit="10"/></g><g transform="translate(-42,-110) scale(1,1)"><path fill="none" stroke="#000000" d="M 129.11926384943183 360.84 L 147.49890021306817 360.84" stroke-miterlimit="10"/></g><g transform="translate(-42,-110) scale(1,1)"><path fill="none" stroke="#000000" d="M 138.30908203125 371.64 L 125.54544566761365 389" stroke-miterlimit="10"/></g><g transform="translate(-42,-110) scale(1,1)"><path fill="none" stroke="#000000" d="M 138.30908203125 371.64 L 151.07271839488635 389" stroke-miterlimit="10"/></g><g transform="translate(-42,-110) scale(1,1)"><g><path fill="none" stroke="none"/><text fill="#000000" stroke="none" font-family="Arial" font-size="13px" font-style="normal" font-weight="bold" text-decoration="none" x="88.825927734375" y="409.5">HR Administrator</text></g></g><g transform="translate(-42,-110) scale(1,1)"><rect fill="#C0C0C0" stroke="none" x="151" y="127" width="54.400000000000006" height="15" opacity="0.2"/></g><g transform="translate(-42,-110) scale(1,1)"><rect fill="#C0C0C0" stroke="none" x="151" y="141" width="136" height="25" opacity="0.2"/></g><g transform="translate(-42,-110) scale(1,1)"><rect fill="#ffffff" stroke="none" x="144" y="135" width="136" height="24"/></g><g transform="translate(-42,-110) scale(1,1)"><path fill="none" stroke="#000000" d="M 144 135 L 280 135 L 280 159 L 144 159 L 144 135 Z Z" stroke-miterlimit="10"/></g><g transform="translate(-42,-110) scale(1,1)"><rect fill="#ffffff" stroke="none" x="144" y="120" width="54.400000000000006" height="15"/></g><g transform="translate(-42,-110) scale(1,1)"><path fill="none" stroke="#000000" d="M 144 120 L 198.4 120 L 198.4 135 L 144 135 L 144 120 Z Z" stroke-miterlimit="10"/></g><g transform="translate(-42,-110) scale(1,1)"><rect fill="#ffffff" stroke="none" x="144" y="134" width="136" height="25"/></g><g transform="translate(-42,-110) scale(1,1)"><path fill="none" stroke="#000000" d="M 144 134 L 280 134 L 280 159 L 144 159 L 144 134 Z Z" stroke-miterlimit="10"/></g><g transform="translate(-42,-110) scale(1,1)"><g><path fill="none" stroke="none"/><text fill="#000000" stroke="none" font-family="Arial" font-size="13px" font-style="normal" font-weight="bold" text-decoration="none" x="166.115966796875" y="154.5">RecruitPackage</text></g></g><g transform="translate(-42,-110) scale(1,1)"><path fill="none" stroke="#000000" d="M 151 335 L 205 160" stroke-miterlimit="10" stroke-dasharray="3"/></g><g transform="translate(-42,-110) scale(1,1)"><path fill="none" stroke="#000000" d="M 206.02587687720057 170.95205810032184 L 205 160 L 197.98112994584437 168.46967904721765" stroke-miterlimit="10"/></g><g transform="translate(-42,-110) scale(1,1)"><rect fill="#C0C0C0" stroke="none" x="383" y="385" width="46.37050781250002" height="15" opacity="0.2"/></g><g transform="translate(-42,-110) scale(1,1)"><rect fill="#C0C0C0" stroke="none" x="383" y="399" width="115.92626953125" height="25" opacity="0.2"/></g><g transform="translate(-42,-110) scale(1,1)"><rect fill="#ffffff" stroke="none" x="376" y="393" width="115.92626953125" height="24"/></g><g transform="translate(-42,-110) scale(1,1)"><path fill="none" stroke="#000000" d="M 376 393 L 491.92626953125 393 L 491.92626953125 417 L 376 417 L 376 393 Z Z" stroke-miterlimit="10"/></g><g transform="translate(-42,-110) scale(1,1)"><rect fill="#ffffff" stroke="none" x="376" y="378" width="46.37050781250002" height="15"/></g><g transform="translate(-42,-110) scale(1,1)"><path fill="none" stroke="#000000" d="M 376 378 L 422.3705078125 378 L 422.3705078125 393 L 376 393 L 376 378 Z Z" stroke-miterlimit="10"/></g><g transform="translate(-42,-110) scale(1,1)"><rect fill="#ffffff" stroke="none" x="376" y="392" width="115.92626953125" height="25"/></g><g transform="translate(-42,-110) scale(1,1)"><path fill="none" stroke="#000000" d="M 376 392 L 491.92626953125 392 L 491.92626953125 417 L 376 417 L 376 392 Z Z" stroke-miterlimit="10"/></g><g transform="translate(-42,-110) scale(1,1)"><g><path fill="none" stroke="none"/><text fill="#000000" stroke="none" font-family="Arial" font-size="13px" font-style="normal" font-weight="bold" text-decoration="none" x="383.372314453125" y="412.5">OnboardPackage</text></g></g><g transform="translate(-42,-110) scale(1,1)"><path fill="none" stroke="#000000" d="M 198 379 L 375 393" stroke-miterlimit="10" stroke-dasharray="3"/></g><g transform="translate(-42,-110) scale(1,1)"><path fill="none" stroke="#000000" d="M 364.5370469869272 396.39508678036805 L 375 393 L 365.20088608810494 388.002263858335" stroke-miterlimit="10"/></g><g transform="translate(-42,-110) scale(1,1)"><path fill="#ffffff" stroke="none" d="M 786.8207272727273 449.68 C 786.8207272727273 444.886167936 790.7065695976727 441 795.5 441 C 800.2934304023273 441 804.1792727272727 444.886167936 804.1792727272727 449.68 C 804.1792727272727 454.473832064 800.2934304023273 458.36 795.5 458.36 C 790.7065695976727 458.36 786.8207272727273 454.473832064 786.8207272727273 449.68 Z"/></g><g transform="translate(-42,-110) scale(1,1)"><path fill="none" stroke="#000000" d="M 786.8207272727273 449.68 C 786.8207272727273 444.886167936 790.7065695976727 441 795.5 441 C 800.2934304023273 441 804.1792727272727 444.886167936 804.1792727272727 449.68 C 804.1792727272727 454.473832064 800.2934304023273 458.36 795.5 458.36 C 790.7065695976727 458.36 786.8207272727273 454.473832064 786.8207272727273 449.68 Z" stroke-miterlimit="10"/></g><g transform="translate(-42,-110) scale(1,1)"><path fill="none" stroke="#000000" d="M 795.5 458.36 L 795.5 475.64" stroke-miterlimit="10"/></g><g transform="translate(-42,-110) scale(1,1)"><path fill="none" stroke="#000000" d="M 786.3101818181818 464.84 L 804.6898181818182 464.84" stroke-miterlimit="10"/></g><g transform="translate(-42,-110) scale(1,1)"><path fill="none" stroke="#000000" d="M 795.5 475.64 L 782.7363636363636 493" stroke-miterlimit="10"/></g><g transform="translate(-42,-110) scale(1,1)"><path fill="none" stroke="#000000" d="M 795.5 475.64 L 808.2636363636364 493" stroke-miterlimit="10"/></g><g transform="translate(-42,-110) scale(1,1)"><g><path fill="none" stroke="none"/><text fill="#000000" stroke="none" font-family="Arial" font-size="13px" font-style="normal" font-weight="bold" text-decoration="none" x="766.595947265625" y="513.5">Employee</text></g></g><g transform="translate(-42,-110) scale(1,1)"><rect fill="#C0C0C0" stroke="none" x="271" y="231" width="83.93593750000002" height="15" opacity="0.2"/></g><g transform="translate(-42,-110) scale(1,1)"><rect fill="#C0C0C0" stroke="none" x="271" y="245" width="209.83984375" height="25" opacity="0.2"/></g><g transform="translate(-42,-110) scale(1,1)"><rect fill="#ffffff" stroke="none" x="264" y="239" width="209.83984375" height="24"/></g><g transform="translate(-42,-110) scale(1,1)"><path fill="none" stroke="#000000" d="M 264 239 L 473.83984375 239 L 473.83984375 263 L 264 263 L 264 239 Z Z" stroke-miterlimit="10"/></g><g transform="translate(-42,-110) scale(1,1)"><rect fill="#ffffff" stroke="none" x="264" y="224" width="83.93593750000002" height="15"/></g><g transform="translate(-42,-110) scale(1,1)"><path fill="none" stroke="#000000" d="M 264 224 L 347.9359375 224 L 347.9359375 239 L 264 239 L 264 224 Z Z" stroke-miterlimit="10"/></g><g transform="translate(-42,-110) scale(1,1)"><rect fill="#ffffff" stroke="none" x="264" y="238" width="209.83984375" height="25"/></g><g transform="translate(-42,-110) scale(1,1)"><path fill="none" stroke="#000000" d="M 264 238 L 473.83984375 238 L 473.83984375 263 L 264 263 L 264 238 Z Z" stroke-miterlimit="10"/></g><g transform="translate(-42,-110) scale(1,1)"><g><path fill="none" stroke="none"/><text fill="#000000" stroke="none" font-family="Arial" font-size="13px" font-style="normal" font-weight="bold" text-decoration="none" x="275.339599609375" y="258.5">OrganizationalStructurePackage</text></g></g><g transform="translate(-42,-110) scale(1,1)"><rect fill="#C0C0C0" stroke="none" x="319" y="543" width="81.63046874999998" height="15" opacity="0.2"/></g><g transform="translate(-42,-110) scale(1,1)"><rect fill="#C0C0C0" stroke="none" x="319" y="557" width="204.076171875" height="25" opacity="0.2"/></g><g transform="translate(-42,-110) scale(1,1)"><rect fill="#ffffff" stroke="none" x="312" y="551" width="204.076171875" height="24"/></g><g transform="translate(-42,-110) scale(1,1)"><path fill="none" stroke="#000000" d="M 312 551 L 516.076171875 551 L 516.076171875 575 L 312 575 L 312 551 Z Z" stroke-miterlimit="10"/></g><g transform="translate(-42,-110) scale(1,1)"><rect fill="#ffffff" stroke="none" x="312" y="536" width="81.63046874999998" height="15"/></g><g transform="translate(-42,-110) scale(1,1)"><path fill="none" stroke="#000000" d="M 312 536 L 393.63046875 536 L 393.63046875 551 L 312 551 L 312 536 Z Z" stroke-miterlimit="10"/></g><g transform="translate(-42,-110) scale(1,1)"><rect fill="#ffffff" stroke="none" x="312" y="550" width="204.076171875" height="25"/></g><g transform="translate(-42,-110) scale(1,1)"><path fill="none" stroke="#000000" d="M 312 550 L 516.076171875 550 L 516.076171875 575 L 312 575 L 312 550 Z Z" stroke-miterlimit="10"/></g><g transform="translate(-42,-110) scale(1,1)"><g><path fill="none" stroke="none"/><text fill="#000000" stroke="none" font-family="Arial" font-size="13px" font-style="normal" font-weight="bold" text-decoration="none" x="321.53369140625" y="570.5">PersonnelManagementPackage</text></g></g><g transform="translate(-42,-110) scale(1,1)"><path fill="none" stroke="#000000" d="M 198 414 L 383 535" stroke-miterlimit="10" stroke-dasharray="3"/></g><g transform="translate(-42,-110) scale(1,1)"><path fill="none" stroke="#000000" d="M 372.1907909739663 532.9601470073775 L 383 535 L 376.79912888213573 525.9143411147217" stroke-miterlimit="10"/></g><g transform="translate(-42,-110) scale(1,1)"><path fill="#ffffff" stroke="none" d="M 862.5507077414773 585.6800000000001 C 862.5507077414773 580.8861679360001 866.4365500664227 577 871.22998046875 577 C 876.0234108710773 577 879.9092531960227 580.8861679360001 879.9092531960227 585.6800000000001 C 879.9092531960227 590.473832064 876.0234108710773 594.36 871.22998046875 594.36 C 866.4365500664227 594.36 862.5507077414773 590.473832064 862.5507077414773 585.6800000000001 Z"/></g><g transform="translate(-42,-110) scale(1,1)"><path fill="none" stroke="#000000" d="M 862.5507077414773 585.6800000000001 C 862.5507077414773 580.8861679360001 866.4365500664227 577 871.22998046875 577 C 876.0234108710773 577 879.9092531960227 580.8861679360001 879.9092531960227 585.6800000000001 C 879.9092531960227 590.473832064 876.0234108710773 594.36 871.22998046875 594.36 C 866.4365500664227 594.36 862.5507077414773 590.473832064 862.5507077414773 585.6800000000001 Z" stroke-miterlimit="10"/></g><g transform="translate(-42,-110) scale(1,1)"><path fill="none" stroke="#000000" d="M 871.22998046875 594.36 L 871.22998046875 611.64" stroke-miterlimit="10"/></g><g transform="translate(-42,-110) scale(1,1)"><path fill="none" stroke="#000000" d="M 862.0401622869318 600.84 L 880.4197986505682 600.84" stroke-miterlimit="10"/></g><g transform="translate(-42,-110) scale(1,1)"><path fill="none" stroke="#000000" d="M 871.22998046875 611.64 L 858.4663441051136 629" stroke-miterlimit="10"/></g><g transform="translate(-42,-110) scale(1,1)"><path fill="none" stroke="#000000" d="M 871.22998046875 611.64 L 883.9936168323864 629" stroke-miterlimit="10"/></g><g transform="translate(-42,-110) scale(1,1)"><g><path fill="none" stroke="none"/><text fill="#000000" stroke="none" font-family="Arial" font-size="13px" font-style="normal" font-weight="bold" text-decoration="none" x="845.575927734375" y="649.5">Manager</text></g></g><g transform="translate(-42,-110) scale(1,1)"><path fill="none" stroke="#000000" d="M 849 575 L 818 520" stroke-miterlimit="10"/></g><g transform="translate(-42,-110) scale(1,1)"><path fill="#FFFFFF" stroke="none" d="M 835.3142736134099 533.5726168898991 L 818 520 L 820.6457508420667 541.8403297246563"/></g><g transform="translate(-42,-110) scale(1,1)"><path fill="none" stroke="#000000" d="M 835.3142736134099 533.5726168898991 L 818 520 L 820.6457508420667 541.8403297246563 L 835.3142736134099 533.5726168898991" stroke-miterlimit="10"/></g><g transform="translate(-42,-110) scale(1,1)"><rect fill="#C0C0C0" stroke="none" x="239" y="695" width="42.04648437499998" height="15" opacity="0.2"/></g><g transform="translate(-42,-110) scale(1,1)"><rect fill="#C0C0C0" stroke="none" x="239" y="709" width="105.1162109375" height="25" opacity="0.2"/></g><g transform="translate(-42,-110) scale(1,1)"><rect fill="#ffffff" stroke="none" x="232" y="703" width="105.1162109375" height="24"/></g><g transform="translate(-42,-110) scale(1,1)"><path fill="none" stroke="#000000" d="M 232 703 L 337.1162109375 703 L 337.1162109375 727 L 232 727 L 232 703 Z Z" stroke-miterlimit="10"/></g><g transform="translate(-42,-110) scale(1,1)"><rect fill="#ffffff" stroke="none" x="232" y="688" width="42.04648437499998" height="15"/></g><g transform="translate(-42,-110) scale(1,1)"><path fill="none" stroke="#000000" d="M 232 688 L 274.046484375 688 L 274.046484375 703 L 232 703 L 232 688 Z Z" stroke-miterlimit="10"/></g><g transform="translate(-42,-110) scale(1,1)"><rect fill="#ffffff" stroke="none" x="232" y="702" width="105.1162109375" height="25"/></g><g transform="translate(-42,-110) scale(1,1)"><path fill="none" stroke="#000000" d="M 232 702 L 337.1162109375 702 L 337.1162109375 727 L 232 727 L 232 702 Z Z" stroke-miterlimit="10"/></g><g transform="translate(-42,-110) scale(1,1)"><g><path fill="none" stroke="none"/><text fill="#000000" stroke="none" font-family="Arial" font-size="13px" font-style="normal" font-weight="bold" text-decoration="none" x="239.39453125" y="722.5">PayrollPackage</text></g></g><g transform="translate(-42,-110) scale(1,1)"><path fill="none" stroke="#000000" d="M 156 416 L 275 687" stroke-miterlimit="10" stroke-dasharray="3"/></g><g transform="translate(-42,-110) scale(1,1)"><path fill="none" stroke="#000000" d="M 267.05971147117253 679.3873908494544 L 275 687 L 274.7682956895619 676.0024405838147" stroke-miterlimit="10"/></g><g transform="translate(-42,-110) scale(1,1)"><rect fill="#C0C0C0" stroke="none" x="59" y="734" width="98.9697265625" height="15" opacity="0.2"/></g><g transform="translate(-42,-110) scale(1,1)"><rect fill="#C0C0C0" stroke="none" x="59" y="748" width="247.42431640625" height="25" opacity="0.2"/></g><g transform="translate(-42,-110) scale(1,1)"><rect fill="#ffffff" stroke="none" x="52" y="742" width="247.42431640625" height="24"/></g><g transform="translate(-42,-110) scale(1,1)"><path fill="none" stroke="#000000" d="M 52 742 L 299.42431640625 742 L 299.42431640625 766 L 52 766 L 52 742 Z Z" stroke-miterlimit="10"/></g><g transform="translate(-42,-110) scale(1,1)"><rect fill="#ffffff" stroke="none" x="52" y="727" width="98.9697265625" height="15"/></g><g transform="translate(-42,-110) scale(1,1)"><path fill="none" stroke="#000000" d="M 52 727 L 150.9697265625 727 L 150.9697265625 742 L 52 742 L 52 727 Z Z" stroke-miterlimit="10"/></g><g transform="translate(-42,-110) scale(1,1)"><rect fill="#ffffff" stroke="none" x="52" y="741" width="247.42431640625" height="25"/></g><g transform="translate(-42,-110) scale(1,1)"><path fill="none" stroke="#000000" d="M 52 741 L 299.42431640625 741 L 299.42431640625 766 L 52 766 L 52 741 Z Z" stroke-miterlimit="10"/></g><g transform="translate(-42,-110) scale(1,1)"><g><path fill="none" stroke="none"/><text fill="#000000" stroke="none" font-family="Arial" font-size="13px" font-style="normal" font-weight="bold" text-decoration="none" x="62.619140625" y="761.5">EmployeeRecordManagementPackage</text></g></g><g transform="translate(-42,-110) scale(1,1)"><path fill="none" stroke="#000000" d="M 142 416 L 173 726" stroke-miterlimit="10" stroke-dasharray="3"/></g><g transform="translate(-42,-110) scale(1,1)"><path fill="none" stroke="#000000" d="M 167.80014933638 716.3066232366605 L 173 726 L 176.1774027765504 715.4688978926434" stroke-miterlimit="10"/></g><g transform="translate(-42,-110) scale(1,1)"><path fill="#ffffff" stroke="none" d="M 604.8397702414773 489.68 C 604.8397702414773 484.886167936 608.7256125664227 481 613.51904296875 481 C 618.3124733710773 481 622.1983156960227 484.886167936 622.1983156960227 489.68 C 622.1983156960227 494.473832064 618.3124733710773 498.36 613.51904296875 498.36 C 608.7256125664227 498.36 604.8397702414773 494.473832064 604.8397702414773 489.68 Z"/></g><g transform="translate(-42,-110) scale(1,1)"><path fill="none" stroke="#000000" d="M 604.8397702414773 489.68 C 604.8397702414773 484.886167936 608.7256125664227 481 613.51904296875 481 C 618.3124733710773 481 622.1983156960227 484.886167936 622.1983156960227 489.68 C 622.1983156960227 494.473832064 618.3124733710773 498.36 613.51904296875 498.36 C 608.7256125664227 498.36 604.8397702414773 494.473832064 604.8397702414773 489.68 Z" stroke-miterlimit="10"/></g><g transform="translate(-42,-110) scale(1,1)"><path fill="none" stroke="#000000" d="M 613.51904296875 498.36 L 613.51904296875 515.64" stroke-miterlimit="10"/></g><g transform="translate(-42,-110) scale(1,1)"><path fill="none" stroke="#000000" d="M 604.3292247869318 504.84 L 622.7088611505682 504.84" stroke-miterlimit="10"/></g><g transform="translate(-42,-110) scale(1,1)"><path fill="none" stroke="#000000" d="M 613.51904296875 515.64 L 600.7554066051136 533" stroke-miterlimit="10"/></g><g transform="translate(-42,-110) scale(1,1)"><path fill="none" stroke="#000000" d="M 613.51904296875 515.64 L 626.2826793323864 533" stroke-miterlimit="10"/></g><g transform="translate(-42,-110) scale(1,1)"><g><path fill="none" stroke="none"/><text fill="#000000" stroke="none" font-family="Arial" font-size="13px" font-style="normal" font-weight="bold" text-decoration="none" x="586.779541015625" y="553.5">Applicant</text></g></g><g transform="translate(-42,-110) scale(1,1)"><g><path fill="none" stroke="none"/><text fill="#000000" stroke="none" font-family="Arial" font-size="13px" font-style="normal" font-weight="normal" text-decoration="none" x="548.5" y="568.5">(from RecruitPackage)</text></g></g><g transform="translate(-42,-110) scale(1,1)"><path fill="#ffffff" stroke="none" d="M 681.5465573508523 593.6800000000001 C 681.5465573508523 588.8861679360001 685.4323996757977 585 690.225830078125 585 C 695.0192604804523 585 698.9051028053977 588.8861679360001 698.9051028053977 593.6800000000001 C 698.9051028053977 598.473832064 695.0192604804523 602.36 690.225830078125 602.36 C 685.4323996757977 602.36 681.5465573508523 598.473832064 681.5465573508523 593.6800000000001 Z"/></g><g transform="translate(-42,-110) scale(1,1)"><path fill="none" stroke="#000000" d="M 681.5465573508523 593.6800000000001 C 681.5465573508523 588.8861679360001 685.4323996757977 585 690.225830078125 585 C 695.0192604804523 585 698.9051028053977 588.8861679360001 698.9051028053977 593.6800000000001 C 698.9051028053977 598.473832064 695.0192604804523 602.36 690.225830078125 602.36 C 685.4323996757977 602.36 681.5465573508523 598.473832064 681.5465573508523 593.6800000000001 Z" stroke-miterlimit="10"/></g><g transform="translate(-42,-110) scale(1,1)"><path fill="none" stroke="#000000" d="M 690.225830078125 602.36 L 690.225830078125 619.64" stroke-miterlimit="10"/></g><g transform="translate(-42,-110) scale(1,1)"><path fill="none" stroke="#000000" d="M 681.0360118963068 608.84 L 699.4156482599432 608.84" stroke-miterlimit="10"/></g><g transform="translate(-42,-110) scale(1,1)"><path fill="none" stroke="#000000" d="M 690.225830078125 619.64 L 677.4621937144886 637" stroke-miterlimit="10"/></g><g transform="translate(-42,-110) scale(1,1)"><path fill="none" stroke="#000000" d="M 690.225830078125 619.64 L 702.9894664417614 637" stroke-miterlimit="10"/></g><g transform="translate(-42,-110) scale(1,1)"><g><path fill="none" stroke="none"/><text fill="#000000" stroke="none" font-family="Arial" font-size="13px" font-style="normal" font-weight="bold" text-decoration="none" x="663.4990234375" y="657.5">New Hire</text></g></g><g transform="translate(-42,-110) scale(1,1)"><g><path fill="none" stroke="none"/><text fill="#000000" stroke="none" font-family="Arial" font-size="13px" font-style="normal" font-weight="normal" text-decoration="none" x="620.5" y="672.5">(from OnboardPackage)</text></g></g><g transform="translate(-42,-110) scale(1,1)"><path fill="none" stroke="#000000" d="M 633 479 L 671 392" stroke-miterlimit="10"/></g><g transform="translate(-42,-110) scale(1,1)"><path fill="#FFFFFF" stroke="none" d="M 670.5796446608225 413.99598375587743 L 671 392 L 655.1492546165096 407.2562731618097"/></g><g transform="translate(-42,-110) scale(1,1)"><path fill="none" stroke="#000000" d="M 670.5796446608225 413.99598375587743 L 671 392 L 655.1492546165096 407.2562731618097 L 670.5796446608225 413.99598375587743" stroke-miterlimit="10"/></g><g transform="translate(-42,-110) scale(1,1)"><path fill="none" stroke="#000000" d="M 762 439 L 714 382" stroke-miterlimit="10"/></g><g transform="translate(-42,-110) scale(1,1)"><path fill="#FFFFFF" stroke="none" d="M 733.5320988376257 392.1240858845242 L 714 382 L 720.6524697566289 402.97008932115307"/></g><g transform="translate(-42,-110) scale(1,1)"><path fill="none" stroke="#000000" d="M 733.5320988376257 392.1240858845242 L 714 382 L 720.6524697566289 402.97008932115307 L 733.5320988376257 392.1240858845242" stroke-miterlimit="10"/></g><g transform="translate(-42,-110) scale(1,1)"><path fill="none" stroke="#000000" d="M 723 583 L 767 520" stroke-miterlimit="10"/></g><g transform="translate(-42,-110) scale(1,1)"><path fill="#FFFFFF" stroke="none" d="M 762.2642215323708 541.4842361350256 L 767 520 L 748.4596498716526 531.8429479910319"/></g><g transform="translate(-42,-110) scale(1,1)"><path fill="none" stroke="#000000" d="M 762.2642215323708 541.4842361350256 L 767 520 L 748.4596498716526 531.8429479910319 L 762.2642215323708 541.4842361350256" stroke-miterlimit="10"/></g><g transform="translate(-42,-110) scale(1,1)"><path fill="#ffffff" stroke="none" d="M 679.8207272727273 321.68 C 679.8207272727273 316.886167936 683.7065695976727 313 688.5 313 C 693.2934304023273 313 697.1792727272727 316.886167936 697.1792727272727 321.68 C 697.1792727272727 326.473832064 693.2934304023273 330.36 688.5 330.36 C 683.7065695976727 330.36 679.8207272727273 326.473832064 679.8207272727273 321.68 Z"/></g><g transform="translate(-42,-110) scale(1,1)"><path fill="none" stroke="#000000" d="M 679.8207272727273 321.68 C 679.8207272727273 316.886167936 683.7065695976727 313 688.5 313 C 693.2934304023273 313 697.1792727272727 316.886167936 697.1792727272727 321.68 C 697.1792727272727 326.473832064 693.2934304023273 330.36 688.5 330.36 C 683.7065695976727 330.36 679.8207272727273 326.473832064 679.8207272727273 321.68 Z" stroke-miterlimit="10"/></g><g transform="translate(-42,-110) scale(1,1)"><path fill="none" stroke="#000000" d="M 688.5 330.36 L 688.5 347.64" stroke-miterlimit="10"/></g><g transform="translate(-42,-110) scale(1,1)"><path fill="none" stroke="#000000" d="M 679.3101818181818 336.84 L 697.6898181818182 336.84" stroke-miterlimit="10"/></g><g transform="translate(-42,-110) scale(1,1)"><path fill="none" stroke="#000000" d="M 688.5 347.64 L 675.7363636363636 365" stroke-miterlimit="10"/></g><g transform="translate(-42,-110) scale(1,1)"><path fill="none" stroke="#000000" d="M 688.5 347.64 L 701.2636363636364 365" stroke-miterlimit="10"/></g><g transform="translate(-42,-110) scale(1,1)"><g><path fill="none" stroke="none"/><text fill="#000000" stroke="none" font-family="Arial" font-size="13px" font-style="normal" font-weight="bold" text-decoration="none" x="671.158203125" y="385.5">Guest</text></g></g><g transform="translate(-42,-110) scale(1,1)"><path fill="none" stroke="#000000" d="M 198 341 L 331 264" stroke-miterlimit="10" stroke-dasharray="3"/></g><g transform="translate(-42,-110) scale(1,1)"><path fill="none" stroke="#000000" d="M 324.3140751246672 272.7348960246477 L 331 264 L 320.0958329701606 265.4488413941362" stroke-miterlimit="10"/></g><g transform="translate(-42,-110) scale(1,1)"><path fill="#C0C0C0" stroke="none" d="M 343 328 C 343 318.6111584 391.3532416 311 451 311 C 510.6467584 311 559 318.6111584 559 328 C 559 337.3888416 510.6467584 345 451 345 C 391.3532416 345 343 337.3888416 343 328 Z" opacity="0.2"/></g><g transform="translate(-42,-110) scale(1,1)"><path fill="#2b2bff" stroke="none" d="M 336 321 C 336 311.6111584 384.3532416 304 444 304 C 503.6467584 304 552 311.6111584 552 321 C 552 330.3888416 503.6467584 338 444 338 C 384.3532416 338 336 330.3888416 336 321 Z"/></g><g transform="translate(-42,-110) scale(1,1)"><path fill="none" stroke="#000000" d="M 336 321 C 336 311.6111584 384.3532416 304 444 304 C 503.6467584 304 552 311.6111584 552 321 C 552 330.3888416 503.6467584 338 444 338 C 384.3532416 338 336 330.3888416 336 321 Z" stroke-miterlimit="10"/></g><g transform="translate(-42,-110) scale(1,1)"><g><path fill="none" stroke="none"/><text fill="#000000" stroke="none" font-family="Arial" font-size="13px" font-style="normal" font-weight="bold" text-decoration="none" x="377.517822265625" y="328">create action on record</text></g></g><g transform="translate(-42,-110) scale(1,1)"><path fill="none" stroke="#000000" d="M 198 364 L 342 339" stroke-miterlimit="10"/></g><g transform="translate(-42,-110) scale(1,1)"><path fill="none" stroke="#000000" d="M 332.70715155084054 344.8858276988843 L 342 339 L 331.2670551662837 336.59087252383716" stroke-miterlimit="10"/></g></g></svg>