<svg version="1.1" xmlns="http://www.w3.org/2000/svg" xmlns:xlink="http://www.w3.org/1999/xlink" width="803" height="507"><defs/><g><g transform="translate(-46,-54) scale(1,1)"><path fill="#ffffff" stroke="none" d="M 105.62980930397727 161.68 C 105.62980930397727 156.886167936 109.51565162892273 153 114.30908203125 153 C 119.10251243357727 153 122.98835475852273 156.886167936 122.98835475852273 161.68 C 122.98835475852273 166.47383206400002 119.10251243357727 170.36 114.30908203125 170.36 C 109.51565162892273 170.36 105.62980930397727 166.47383206400002 105.62980930397727 161.68 Z"/></g><g transform="translate(-46,-54) scale(1,1)"><path fill="none" stroke="#000000" d="M 105.62980930397727 161.68 C 105.62980930397727 156.886167936 109.51565162892273 153 114.30908203125 153 C 119.10251243357727 153 122.98835475852273 156.886167936 122.98835475852273 161.68 C 122.98835475852273 166.47383206400002 119.10251243357727 170.36 114.30908203125 170.36 C 109.51565162892273 170.36 105.62980930397727 166.47383206400002 105.62980930397727 161.68 Z" stroke-miterlimit="10"/></g><g transform="translate(-46,-54) scale(1,1)"><path fill="none" stroke="#000000" d="M 114.30908203125 170.36 L 114.30908203125 187.64" stroke-miterlimit="10"/></g><g transform="translate(-46,-54) scale(1,1)"><path fill="none" stroke="#000000" d="M 105.11926384943182 176.84 L 123.49890021306818 176.84" stroke-miterlimit="10"/></g><g transform="translate(-46,-54) scale(1,1)"><path fill="none" stroke="#000000" d="M 114.30908203125 187.64 L 101.54544566761363 205" stroke-miterlimit="10"/></g><g transform="translate(-46,-54) scale(1,1)"><path fill="none" stroke="#000000" d="M 114.30908203125 187.64 L 127.07271839488637 205" stroke-miterlimit="10"/></g><g transform="translate(-46,-54) scale(1,1)"><g><path fill="none" stroke="none"/><text fill="#000000" stroke="none" font-family="Arial" font-size="13px" font-style="normal" font-weight="bold" text-decoration="none" x="64.825927734375" y="225.5">HR Administrator</text></g></g><g transform="translate(-46,-54) scale(1,1)"><rect fill="#C0C0C0" stroke="none" x="319" y="175" width="54.39999999999998" height="15" opacity="0.2"/></g><g transform="translate(-46,-54) scale(1,1)"><rect fill="#C0C0C0" stroke="none" x="319" y="189" width="136" height="25" opacity="0.2"/></g><g transform="translate(-46,-54) scale(1,1)"><rect fill="#ffffff" stroke="none" x="312" y="183" width="136" height="24"/></g><g transform="translate(-46,-54) scale(1,1)"><path fill="none" stroke="#000000" d="M 312 183 L 448 183 L 448 207 L 312 207 L 312 183 Z Z" stroke-miterlimit="10"/></g><g transform="translate(-46,-54) scale(1,1)"><rect fill="#ffffff" stroke="none" x="312" y="168" width="54.39999999999998" height="15"/></g><g transform="translate(-46,-54) scale(1,1)"><path fill="none" stroke="#000000" d="M 312 168 L 366.4 168 L 366.4 183 L 312 183 L 312 168 Z Z" stroke-miterlimit="10"/></g><g transform="translate(-46,-54) scale(1,1)"><rect fill="#ffffff" stroke="none" x="312" y="182" width="136" height="25"/></g><g transform="translate(-46,-54) scale(1,1)"><path fill="none" stroke="#000000" d="M 312 182 L 448 182 L 448 207 L 312 207 L 312 182 Z Z" stroke-miterlimit="10"/></g><g transform="translate(-46,-54) scale(1,1)"><g><path fill="none" stroke="none"/><text fill="#000000" stroke="none" font-family="Arial" font-size="13px" font-style="normal" font-weight="bold" text-decoration="none" x="334.115966796875" y="202.5">RecruitPackage</text></g></g><g transform="translate(-46,-54) scale(1,1)"><rect fill="#C0C0C0" stroke="none" x="327" y="359" width="46.37050781250002" height="15" opacity="0.2"/></g><g transform="translate(-46,-54) scale(1,1)"><rect fill="#C0C0C0" stroke="none" x="327" y="373" width="115.92626953125" height="25" opacity="0.2"/></g><g transform="translate(-46,-54) scale(1,1)"><rect fill="#ffffff" stroke="none" x="320" y="367" width="115.92626953125" height="24"/></g><g transform="translate(-46,-54) scale(1,1)"><path fill="none" stroke="#000000" d="M 320 367 L 435.92626953125 367 L 435.92626953125 391 L 320 391 L 320 367 Z Z" stroke-miterlimit="10"/></g><g transform="translate(-46,-54) scale(1,1)"><rect fill="#ffffff" stroke="none" x="320" y="352" width="46.37050781250002" height="15"/></g><g transform="translate(-46,-54) scale(1,1)"><path fill="none" stroke="#000000" d="M 320 352 L 366.3705078125 352 L 366.3705078125 367 L 320 367 L 320 352 Z Z" stroke-miterlimit="10"/></g><g transform="translate(-46,-54) scale(1,1)"><rect fill="#ffffff" stroke="none" x="320" y="366" width="115.92626953125" height="25"/></g><g transform="translate(-46,-54) scale(1,1)"><path fill="none" stroke="#000000" d="M 320 366 L 435.92626953125 366 L 435.92626953125 391 L 320 391 L 320 366 Z Z" stroke-miterlimit="10"/></g><g transform="translate(-46,-54) scale(1,1)"><g><path fill="none" stroke="none"/><text fill="#000000" stroke="none" font-family="Arial" font-size="13px" font-style="normal" font-weight="bold" text-decoration="none" x="327.372314453125" y="386.5">OnboardPackage</text></g></g><g transform="translate(-46,-54) scale(1,1)"><path fill="#ffffff" stroke="none" d="M 794.8207272727273 281.68 C 794.8207272727273 276.886167936 798.7065695976727 273 803.5 273 C 808.2934304023273 273 812.1792727272727 276.886167936 812.1792727272727 281.68 C 812.1792727272727 286.473832064 808.2934304023273 290.36 803.5 290.36 C 798.7065695976727 290.36 794.8207272727273 286.473832064 794.8207272727273 281.68 Z"/></g><g transform="translate(-46,-54) scale(1,1)"><path fill="none" stroke="#000000" d="M 794.8207272727273 281.68 C 794.8207272727273 276.886167936 798.7065695976727 273 803.5 273 C 808.2934304023273 273 812.1792727272727 276.886167936 812.1792727272727 281.68 C 812.1792727272727 286.473832064 808.2934304023273 290.36 803.5 290.36 C 798.7065695976727 290.36 794.8207272727273 286.473832064 794.8207272727273 281.68 Z" stroke-miterlimit="10"/></g><g transform="translate(-46,-54) scale(1,1)"><path fill="none" stroke="#000000" d="M 803.5 290.36 L 803.5 307.64" stroke-miterlimit="10"/></g><g transform="translate(-46,-54) scale(1,1)"><path fill="none" stroke="#000000" d="M 794.3101818181818 296.84 L 812.6898181818182 296.84" stroke-miterlimit="10"/></g><g transform="translate(-46,-54) scale(1,1)"><path fill="none" stroke="#000000" d="M 803.5 307.64 L 790.7363636363636 325" stroke-miterlimit="10"/></g><g transform="translate(-46,-54) scale(1,1)"><path fill="none" stroke="#000000" d="M 803.5 307.64 L 816.2636363636364 325" stroke-miterlimit="10"/></g><g transform="translate(-46,-54) scale(1,1)"><g><path fill="none" stroke="none"/><text fill="#000000" stroke="none" font-family="Arial" font-size="13px" font-style="normal" font-weight="bold" text-decoration="none" x="774.595947265625" y="345.5">Employee</text></g></g><g transform="translate(-46,-54) scale(1,1)"><rect fill="#C0C0C0" stroke="none" x="327" y="263" width="83.93593750000002" height="15" opacity="0.2"/></g><g transform="translate(-46,-54) scale(1,1)"><rect fill="#C0C0C0" stroke="none" x="327" y="277" width="209.83984375" height="25" opacity="0.2"/></g><g transform="translate(-46,-54) scale(1,1)"><rect fill="#ffffff" stroke="none" x="320" y="271" width="209.83984375" height="24"/></g><g transform="translate(-46,-54) scale(1,1)"><path fill="none" stroke="#000000" d="M 320 271 L 529.83984375 271 L 529.83984375 295 L 320 295 L 320 271 Z Z" stroke-miterlimit="10"/></g><g transform="translate(-46,-54) scale(1,1)"><rect fill="#ffffff" stroke="none" x="320" y="256" width="83.93593750000002" height="15"/></g><g transform="translate(-46,-54) scale(1,1)"><path fill="none" stroke="#000000" d="M 320 256 L 403.9359375 256 L 403.9359375 271 L 320 271 L 320 256 Z Z" stroke-miterlimit="10"/></g><g transform="translate(-46,-54) scale(1,1)"><rect fill="#ffffff" stroke="none" x="320" y="270" width="209.83984375" height="25"/></g><g transform="translate(-46,-54) scale(1,1)"><path fill="none" stroke="#000000" d="M 320 270 L 529.83984375 270 L 529.83984375 295 L 320 295 L 320 270 Z Z" stroke-miterlimit="10"/></g><g transform="translate(-46,-54) scale(1,1)"><g><path fill="none" stroke="none"/><text fill="#000000" stroke="none" font-family="Arial" font-size="13px" font-style="normal" font-weight="bold" text-decoration="none" x="331.339599609375" y="290.5">OrganizationalStructurePackage</text></g></g><g transform="translate(-46,-54) scale(1,1)"><rect fill="#C0C0C0" stroke="none" x="327" y="439" width="81.63046874999998" height="15" opacity="0.2"/></g><g transform="translate(-46,-54) scale(1,1)"><rect fill="#C0C0C0" stroke="none" x="327" y="453" width="204.076171875" height="25" opacity="0.2"/></g><g transform="translate(-46,-54) scale(1,1)"><rect fill="#ffffff" stroke="none" x="320" y="447" width="204.076171875" height="24"/></g><g transform="translate(-46,-54) scale(1,1)"><path fill="none" stroke="#000000" d="M 320 447 L 524.076171875 447 L 524.076171875 471 L 320 471 L 320 447 Z Z" stroke-miterlimit="10"/></g><g transform="translate(-46,-54) scale(1,1)"><rect fill="#ffffff" stroke="none" x="320" y="432" width="81.63046874999998" height="15"/></g><g transform="translate(-46,-54) scale(1,1)"><path fill="none" stroke="#000000" d="M 320 432 L 401.63046875 432 L 401.63046875 447 L 320 447 L 320 432 Z Z" stroke-miterlimit="10"/></g><g transform="translate(-46,-54) scale(1,1)"><rect fill="#ffffff" stroke="none" x="320" y="446" width="204.076171875" height="25"/></g><g transform="translate(-46,-54) scale(1,1)"><path fill="none" stroke="#000000" d="M 320 446 L 524.076171875 446 L 524.076171875 471 L 320 471 L 320 446 Z Z" stroke-miterlimit="10"/></g><g transform="translate(-46,-54) scale(1,1)"><g><path fill="none" stroke="none"/><text fill="#000000" stroke="none" font-family="Arial" font-size="13px" font-style="normal" font-weight="bold" text-decoration="none" x="329.53369140625" y="466.5">PersonnelManagementPackage</text></g></g><g transform="translate(-46,-54) scale(1,1)"><path fill="#ffffff" stroke="none" d="M 798.5507077414773 417.68 C 798.5507077414773 412.886167936 802.4365500664227 409 807.22998046875 409 C 812.0234108710773 409 815.9092531960227 412.886167936 815.9092531960227 417.68 C 815.9092531960227 422.473832064 812.0234108710773 426.36 807.22998046875 426.36 C 802.4365500664227 426.36 798.5507077414773 422.473832064 798.5507077414773 417.68 Z"/></g><g transform="translate(-46,-54) scale(1,1)"><path fill="none" stroke="#000000" d="M 798.5507077414773 417.68 C 798.5507077414773 412.886167936 802.4365500664227 409 807.22998046875 409 C 812.0234108710773 409 815.9092531960227 412.886167936 815.9092531960227 417.68 C 815.9092531960227 422.473832064 812.0234108710773 426.36 807.22998046875 426.36 C 802.4365500664227 426.36 798.5507077414773 422.473832064 798.5507077414773 417.68 Z" stroke-miterlimit="10"/></g><g transform="translate(-46,-54) scale(1,1)"><path fill="none" stroke="#000000" d="M 807.22998046875 426.36 L 807.22998046875 443.64" stroke-miterlimit="10"/></g><g transform="translate(-46,-54) scale(1,1)"><path fill="none" stroke="#000000" d="M 798.0401622869318 432.84 L 816.4197986505682 432.84" stroke-miterlimit="10"/></g><g transform="translate(-46,-54) scale(1,1)"><path fill="none" stroke="#000000" d="M 807.22998046875 443.64 L 794.4663441051136 461" stroke-miterlimit="10"/></g><g transform="translate(-46,-54) scale(1,1)"><path fill="none" stroke="#000000" d="M 807.22998046875 443.64 L 819.9936168323864 461" stroke-miterlimit="10"/></g><g transform="translate(-46,-54) scale(1,1)"><g><path fill="none" stroke="none"/><text fill="#000000" stroke="none" font-family="Arial" font-size="13px" font-style="normal" font-weight="bold" text-decoration="none" x="781.575927734375" y="481.5">Manager</text></g></g><g transform="translate(-46,-54) scale(1,1)"><path fill="none" stroke="#000000" d="M 806 407 L 804 352" stroke-miterlimit="10"/></g><g transform="translate(-46,-54) scale(1,1)"><path fill="#FFFFFF" stroke="none" d="M 813.1520901683334 372.00598024468417 L 804 352 L 796.3251407247591 372.6178693153596"/></g><g transform="translate(-46,-54) scale(1,1)"><path fill="none" stroke="#000000" d="M 813.1520901683334 372.00598024468417 L 804 352 L 796.3251407247591 372.6178693153596 L 813.1520901683334 372.00598024468417" stroke-miterlimit="10"/></g><g transform="translate(-46,-54) scale(1,1)"><rect fill="#C0C0C0" stroke="none" x="327" y="519" width="42.04648437499998" height="15" opacity="0.2"/></g><g transform="translate(-46,-54) scale(1,1)"><rect fill="#C0C0C0" stroke="none" x="327" y="533" width="105.1162109375" height="25" opacity="0.2"/></g><g transform="translate(-46,-54) scale(1,1)"><rect fill="#ffffff" stroke="none" x="320" y="527" width="105.1162109375" height="24"/></g><g transform="translate(-46,-54) scale(1,1)"><path fill="none" stroke="#000000" d="M 320 527 L 425.1162109375 527 L 425.1162109375 551 L 320 551 L 320 527 Z Z" stroke-miterlimit="10"/></g><g transform="translate(-46,-54) scale(1,1)"><rect fill="#ffffff" stroke="none" x="320" y="512" width="42.04648437499998" height="15"/></g><g transform="translate(-46,-54) scale(1,1)"><path fill="none" stroke="#000000" d="M 320 512 L 362.046484375 512 L 362.046484375 527 L 320 527 L 320 512 Z Z" stroke-miterlimit="10"/></g><g transform="translate(-46,-54) scale(1,1)"><rect fill="#ffffff" stroke="none" x="320" y="526" width="105.1162109375" height="25"/></g><g transform="translate(-46,-54) scale(1,1)"><path fill="none" stroke="#000000" d="M 320 526 L 425.1162109375 526 L 425.1162109375 551 L 320 551 L 320 526 Z Z" stroke-miterlimit="10"/></g><g transform="translate(-46,-54) scale(1,1)"><g><path fill="none" stroke="none"/><text fill="#000000" stroke="none" font-family="Arial" font-size="13px" font-style="normal" font-weight="bold" text-decoration="none" x="327.39453125" y="546.5">PayrollPackage</text></g></g><g transform="translate(-46,-54) scale(1,1)"><path fill="#ffffff" stroke="none" d="M 628.8397702414773 289.68 C 628.8397702414773 284.886167936 632.7256125664227 281 637.51904296875 281 C 642.3124733710773 281 646.1983156960227 284.886167936 646.1983156960227 289.68 C 646.1983156960227 294.473832064 642.3124733710773 298.36 637.51904296875 298.36 C 632.7256125664227 298.36 628.8397702414773 294.473832064 628.8397702414773 289.68 Z"/></g><g transform="translate(-46,-54) scale(1,1)"><path fill="none" stroke="#000000" d="M 628.8397702414773 289.68 C 628.8397702414773 284.886167936 632.7256125664227 281 637.51904296875 281 C 642.3124733710773 281 646.1983156960227 284.886167936 646.1983156960227 289.68 C 646.1983156960227 294.473832064 642.3124733710773 298.36 637.51904296875 298.36 C 632.7256125664227 298.36 628.8397702414773 294.473832064 628.8397702414773 289.68 Z" stroke-miterlimit="10"/></g><g transform="translate(-46,-54) scale(1,1)"><path fill="none" stroke="#000000" d="M 637.51904296875 298.36 L 637.51904296875 315.64" stroke-miterlimit="10"/></g><g transform="translate(-46,-54) scale(1,1)"><path fill="none" stroke="#000000" d="M 628.3292247869318 304.84 L 646.7088611505682 304.84" stroke-miterlimit="10"/></g><g transform="translate(-46,-54) scale(1,1)"><path fill="none" stroke="#000000" d="M 637.51904296875 315.64 L 624.7554066051136 333" stroke-miterlimit="10"/></g><g transform="translate(-46,-54) scale(1,1)"><path fill="none" stroke="#000000" d="M 637.51904296875 315.64 L 650.2826793323864 333" stroke-miterlimit="10"/></g><g transform="translate(-46,-54) scale(1,1)"><g><path fill="none" stroke="none"/><text fill="#000000" stroke="none" font-family="Arial" font-size="13px" font-style="normal" font-weight="bold" text-decoration="none" x="610.779541015625" y="353.5">Applicant</text></g></g><g transform="translate(-46,-54) scale(1,1)"><g><path fill="none" stroke="none"/><text fill="#000000" stroke="none" font-family="Arial" font-size="13px" font-style="normal" font-weight="normal" text-decoration="none" x="572.5" y="368.5">(from RecruitPackage)</text></g></g><g transform="translate(-46,-54) scale(1,1)"><path fill="none" stroke="#000000" d="M 667 279 L 703 223" stroke-miterlimit="10"/></g><g transform="translate(-46,-54) scale(1,1)"><path fill="#FFFFFF" stroke="none" d="M 699.0908243015299 244.64990404963706 L 703 223 L 684.9270013892257 235.54458932029863"/></g><g transform="translate(-46,-54) scale(1,1)"><path fill="none" stroke="#000000" d="M 699.0908243015299 244.64990404963706 L 703 223 L 684.9270013892257 235.54458932029863 L 699.0908243015299 244.64990404963706" stroke-miterlimit="10"/></g><g transform="translate(-46,-54) scale(1,1)"><path fill="none" stroke="#000000" d="M 780 271 L 752 224" stroke-miterlimit="10"/></g><g transform="translate(-46,-54) scale(1,1)"><path fill="#FFFFFF" stroke="none" d="M 769.6354255764805 237.15263337649222 L 752 224 L 755.1698127632619 245.7704452652182"/></g><g transform="translate(-46,-54) scale(1,1)"><path fill="none" stroke="#000000" d="M 769.6354255764805 237.15263337649222 L 752 224 L 755.1698127632619 245.7704452652182 L 769.6354255764805 237.15263337649222" stroke-miterlimit="10"/></g><g transform="translate(-46,-54) scale(1,1)"><path fill="#ffffff" stroke="none" d="M 719.8207272727273 153.68 C 719.8207272727273 148.886167936 723.7065695976727 145 728.5 145 C 733.2934304023273 145 737.1792727272727 148.886167936 737.1792727272727 153.68 C 737.1792727272727 158.47383206400002 733.2934304023273 162.36 728.5 162.36 C 723.7065695976727 162.36 719.8207272727273 158.47383206400002 719.8207272727273 153.68 Z"/></g><g transform="translate(-46,-54) scale(1,1)"><path fill="none" stroke="#000000" d="M 719.8207272727273 153.68 C 719.8207272727273 148.886167936 723.7065695976727 145 728.5 145 C 733.2934304023273 145 737.1792727272727 148.886167936 737.1792727272727 153.68 C 737.1792727272727 158.47383206400002 733.2934304023273 162.36 728.5 162.36 C 723.7065695976727 162.36 719.8207272727273 158.47383206400002 719.8207272727273 153.68 Z" stroke-miterlimit="10"/></g><g transform="translate(-46,-54) scale(1,1)"><path fill="none" stroke="#000000" d="M 728.5 162.36 L 728.5 179.64" stroke-miterlimit="10"/></g><g transform="translate(-46,-54) scale(1,1)"><path fill="none" stroke="#000000" d="M 719.3101818181818 168.84 L 737.6898181818182 168.84" stroke-miterlimit="10"/></g><g transform="translate(-46,-54) scale(1,1)"><path fill="none" stroke="#000000" d="M 728.5 179.64 L 715.7363636363636 197" stroke-miterlimit="10"/></g><g transform="translate(-46,-54) scale(1,1)"><path fill="none" stroke="#000000" d="M 728.5 179.64 L 741.2636363636364 197" stroke-miterlimit="10"/></g><g transform="translate(-46,-54) scale(1,1)"><g><path fill="none" stroke="none"/><text fill="#000000" stroke="none" font-family="Arial" font-size="13px" font-style="normal" font-weight="bold" text-decoration="none" x="711.158203125" y="217.5">Guest</text></g></g><g transform="translate(-46,-54) scale(1,1)"><path fill="#C0C0C0" stroke="none" d="M 279 88 C 279 78.6111584 327.3532416 71 387 71 C 446.6467584 71 495 78.6111584 495 88 C 495 97.3888416 446.6467584 105 387 105 C 327.3532416 105 279 97.3888416 279 88 Z" opacity="0.2"/></g><g transform="translate(-46,-54) scale(1,1)"><path fill="#a3e0ff" stroke="none" d="M 272 81 C 272 71.6111584 320.3532416 64 380 64 C 439.6467584 64 488 71.6111584 488 81 C 488 90.3888416 439.6467584 98 380 98 C 320.3532416 98 272 90.3888416 272 81 Z"/></g><g transform="translate(-46,-54) scale(1,1)"><path fill="none" stroke="#000000" d="M 272 81 C 272 71.6111584 320.3532416 64 380 64 C 439.6467584 64 488 71.6111584 488 81 C 488 90.3888416 439.6467584 98 380 98 C 320.3532416 98 272 90.3888416 272 81 Z" stroke-miterlimit="10"/></g><g transform="translate(-46,-54) scale(1,1)"><g><path fill="none" stroke="none"/><text fill="#000000" stroke="none" font-family="Arial" font-size="13px" font-style="normal" font-weight="bold" text-decoration="none" x="313.517822265625" y="88">create action on record</text></g></g><g transform="translate(-46,-54) scale(1,1)"><path fill="none" stroke="#000000" d="M 174 190 L 311 188" stroke-miterlimit="10" stroke-dasharray="3"/></g><g transform="translate(-46,-54) scale(1,1)"><path fill="none" stroke="#000000" d="M 300.89985415727756 192.35741367737063 L 311 188 L 300.7769616239341 183.93927514334163" stroke-miterlimit="10"/></g><g transform="translate(-46,-54) scale(1,1)"><path fill="none" stroke="#000000" d="M 153 232 L 192 272 L 319 274" stroke-miterlimit="10" stroke-dasharray="3"/></g><g transform="translate(-46,-54) scale(1,1)"><path fill="none" stroke="#000000" d="M 308.7723016826776 278.0489735896694 L 319 274 L 308.90486848179063 269.6309818459915" stroke-miterlimit="10"/></g><g transform="translate(-46,-54) scale(1,1)"><path fill="none" stroke="#000000" d="M 128 232 L 176 368 L 319 370" stroke-miterlimit="10" stroke-dasharray="3"/></g><g transform="translate(-46,-54) scale(1,1)"><path fill="none" stroke="#000000" d="M 308.7794503329278 374.06698469420667 L 319 370 L 308.89718756670396 365.64877247921476" stroke-miterlimit="10"/></g><g transform="translate(-46,-54) scale(1,1)"><path fill="none" stroke="#000000" d="M 119 232 L 144 448 L 319 450" stroke-miterlimit="10" stroke-dasharray="3"/></g><g transform="translate(-46,-54) scale(1,1)"><path fill="none" stroke="#000000" d="M 308.7898831293929 454.0931056043722 L 319 450 L 308.88609439512226 445.6746198530508" stroke-miterlimit="10"/></g><g transform="translate(-46,-54) scale(1,1)"><path fill="none" stroke="#000000" d="M 114 232 L 112 528 L 319 530" stroke-miterlimit="10" stroke-dasharray="3"/></g><g transform="translate(-46,-54) scale(1,1)"><path fill="none" stroke="#000000" d="M 308.7971296865527 534.1111357757894 L 319 530 L 308.8784692283552 525.6924931992338" stroke-miterlimit="10"/></g><g transform="translate(-46,-54) scale(1,1)"><path fill="none" stroke="#000000" d="M 174 166 L 336 99" stroke-miterlimit="10"/></g><g transform="translate(-46,-54) scale(1,1)"><path fill="none" stroke="#000000" d="M 328.2176209662223 106.77396787841427 L 336 99 L 325.00000160789864 98.99405241500487" stroke-miterlimit="10"/></g></g></svg>