<svg version="1.1" xmlns="http://www.w3.org/2000/svg" xmlns:xlink="http://www.w3.org/1999/xlink" width="740" height="627"><defs/><g><g transform="translate(-62,-6) scale(1,1)"><path fill="#ffffff" stroke="none" d="M 121.62980930397728 81.68 C 121.62980930397728 76.886167936 125.51565162892274 73 130.30908203125 73 C 135.10251243357726 73 138.98835475852272 76.886167936 138.98835475852272 81.68 C 138.98835475852272 86.473832064 135.10251243357726 90.36 130.30908203125 90.36 C 125.51565162892274 90.36 121.62980930397728 86.473832064 121.62980930397728 81.68 Z"/></g><g transform="translate(-62,-6) scale(1,1)"><path fill="none" stroke="#000000" d="M 121.62980930397728 81.68 C 121.62980930397728 76.886167936 125.51565162892274 73 130.30908203125 73 C 135.10251243357726 73 138.98835475852272 76.886167936 138.98835475852272 81.68 C 138.98835475852272 86.473832064 135.10251243357726 90.36 130.30908203125 90.36 C 125.51565162892274 90.36 121.62980930397728 86.473832064 121.62980930397728 81.68 Z" stroke-miterlimit="10"/></g><g transform="translate(-62,-6) scale(1,1)"><path fill="none" stroke="#000000" d="M 130.30908203125 90.36 L 130.30908203125 107.64" stroke-miterlimit="10"/></g><g transform="translate(-62,-6) scale(1,1)"><path fill="none" stroke="#000000" d="M 121.11926384943183 96.84 L 139.49890021306817 96.84" stroke-miterlimit="10"/></g><g transform="translate(-62,-6) scale(1,1)"><path fill="none" stroke="#000000" d="M 130.30908203125 107.64 L 117.54544566761365 125" stroke-miterlimit="10"/></g><g transform="translate(-62,-6) scale(1,1)"><path fill="none" stroke="#000000" d="M 130.30908203125 107.64 L 143.07271839488635 125" stroke-miterlimit="10"/></g><g transform="translate(-62,-6) scale(1,1)"><g><path fill="none" stroke="none"/><text fill="#000000" stroke="none" font-family="Arial" font-size="13px" font-style="normal" font-weight="bold" text-decoration="none" x="80.825927734375" y="145.5">HR Administrator</text></g></g><g transform="translate(-62,-6) scale(1,1)"><g><path fill="none" stroke="none"/><text fill="#000000" stroke="none" font-family="Arial" font-size="13px" font-style="normal" font-weight="normal" text-decoration="none" x="92.035888671875" y="160.5">(from HRMS)</text></g></g><g transform="translate(-62,-6) scale(1,1)"><path fill="#C0C0C0" stroke="none" d="M 311 353 C 311 338.6405952 353.9806592 327 407 327 C 460.0193408 327 503 338.6405952 503 353 C 503 367.3594048 460.0193408 379 407 379 C 353.9806592 379 311 367.3594048 311 353 Z" opacity="0.2"/></g><g transform="translate(-62,-6) scale(1,1)"><path fill="#ffffff" stroke="none" d="M 304 346 C 304 331.6405952 346.9806592 320 400 320 C 453.0193408 320 496 331.6405952 496 346 C 496 360.3594048 453.0193408 372 400 372 C 346.9806592 372 304 360.3594048 304 346 Z"/></g><g transform="translate(-62,-6) scale(1,1)"><path fill="none" stroke="#000000" d="M 304 346 C 304 331.6405952 346.9806592 320 400 320 C 453.0193408 320 496 331.6405952 496 346 C 496 360.3594048 453.0193408 372 400 372 C 346.9806592 372 304 360.3594048 304 346 Z" stroke-miterlimit="10"/></g><g transform="translate(-62,-6) scale(1,1)"><g><path fill="none" stroke="none"/><text fill="#000000" stroke="none" font-family="Arial" font-size="13px" font-style="normal" font-weight="bold" text-decoration="none" x="348.67919921875" y="346.5">assign dependent</text><text fill="#000000" stroke="none" font-family="Arial" font-size="13px" font-style="normal" font-weight="bold" text-decoration="none" x="373.260498046875" y="359.5">coverage</text></g></g><g transform="translate(-62,-6) scale(1,1)"><path fill="#C0C0C0" stroke="none" d="M 295 272 C 295 262.6111584 343.3532416 255 403 255 C 462.6467584 255 511 262.6111584 511 272 C 511 281.3888416 462.6467584 289 403 289 C 343.3532416 289 295 281.3888416 295 272 Z" opacity="0.2"/></g><g transform="translate(-62,-6) scale(1,1)"><path fill="#a3e0ff" stroke="none" d="M 288 265 C 288 255.6111584 336.3532416 248 396 248 C 455.6467584 248 504 255.6111584 504 265 C 504 274.3888416 455.6467584 282 396 282 C 336.3532416 282 288 274.3888416 288 265 Z"/></g><g transform="translate(-62,-6) scale(1,1)"><path fill="none" stroke="#000000" d="M 288 265 C 288 255.6111584 336.3532416 248 396 248 C 455.6467584 248 504 255.6111584 504 265 C 504 274.3888416 455.6467584 282 396 282 C 336.3532416 282 288 274.3888416 288 265 Z" stroke-miterlimit="10"/></g><g transform="translate(-62,-6) scale(1,1)"><g><path fill="none" stroke="none"/><text fill="#000000" stroke="none" font-family="Arial" font-size="13px" font-style="normal" font-weight="bold" text-decoration="none" x="334.570556640625" y="272">enroll in benefit plans</text></g></g><g transform="translate(-62,-6) scale(1,1)"><path fill="#C0C0C0" stroke="none" d="M 295 424 C 295 414.6111584 344.02481439999997 407 404.5 407 C 464.97518560000003 407 514 414.6111584 514 424 C 514 433.3888416 464.97518560000003 441 404.5 441 C 344.02481439999997 441 295 433.3888416 295 424 Z" opacity="0.2"/></g><g transform="translate(-62,-6) scale(1,1)"><path fill="#a3e0ff" stroke="none" d="M 288 417 C 288 407.6111584 337.02481439999997 400 397.5 400 C 457.97518560000003 400 507 407.6111584 507 417 C 507 426.3888416 457.97518560000003 434 397.5 434 C 337.02481439999997 434 288 426.3888416 288 417 Z"/></g><g transform="translate(-62,-6) scale(1,1)"><path fill="none" stroke="#000000" d="M 288 417 C 288 407.6111584 337.02481439999997 400 397.5 400 C 457.97518560000003 400 507 407.6111584 507 417 C 507 426.3888416 457.97518560000003 434 397.5 434 C 337.02481439999997 434 288 426.3888416 288 417 Z" stroke-miterlimit="10"/></g><g transform="translate(-62,-6) scale(1,1)"><g><path fill="none" stroke="none"/><text fill="#000000" stroke="none" font-family="Arial" font-size="13px" font-style="normal" font-weight="bold" text-decoration="none" x="330.671875" y="424">Complete payroll forms</text></g></g><g transform="translate(-62,-6) scale(1,1)"><path fill="#C0C0C0" stroke="none" d="M 319 505 C 319 490.6405952 360.1897984 479 411 479 C 461.8102016 479 503 490.6405952 503 505 C 503 519.3594048 461.8102016 531 411 531 C 360.1897984 531 319 519.3594048 319 505 Z" opacity="0.2"/></g><g transform="translate(-62,-6) scale(1,1)"><path fill="#ffffff" stroke="none" d="M 312 498 C 312 483.6405952 353.1897984 472 404 472 C 454.8102016 472 496 483.6405952 496 498 C 496 512.3594048 454.8102016 524 404 524 C 353.1897984 524 312 512.3594048 312 498 Z"/></g><g transform="translate(-62,-6) scale(1,1)"><path fill="none" stroke="#000000" d="M 312 498 C 312 483.6405952 353.1897984 472 404 472 C 454.8102016 472 496 483.6405952 496 498 C 496 512.3594048 454.8102016 524 404 524 C 353.1897984 524 312 512.3594048 312 498 Z" stroke-miterlimit="10"/></g><g transform="translate(-62,-6) scale(1,1)"><g><path fill="none" stroke="none"/><text fill="#000000" stroke="none" font-family="Arial" font-size="13px" font-style="normal" font-weight="bold" text-decoration="none" x="368.23095703125" y="498.5">Submit legal</text><text fill="#000000" stroke="none" font-family="Arial" font-size="13px" font-style="normal" font-weight="bold" text-decoration="none" x="367.865966796875" y="511.5">identification</text></g></g><g transform="translate(-62,-6) scale(1,1)"><path fill="#C0C0C0" stroke="none" d="M 311 594.5 C 311 574.8938896 353.9806592 559 407 559 C 460.0193408 559 503 574.8938896 503 594.5 C 503 614.1061104 460.0193408 630 407 630 C 353.9806592 630 311 614.1061104 311 594.5 Z" opacity="0.2"/></g><g transform="translate(-62,-6) scale(1,1)"><path fill="#ffffff" stroke="none" d="M 304 587.5 C 304 567.8938896 346.9806592 552 400 552 C 453.0193408 552 496 567.8938896 496 587.5 C 496 607.1061104 453.0193408 623 400 623 C 346.9806592 623 304 607.1061104 304 587.5 Z"/></g><g transform="translate(-62,-6) scale(1,1)"><path fill="none" stroke="#000000" d="M 304 587.5 C 304 567.8938896 346.9806592 552 400 552 C 453.0193408 552 496 567.8938896 496 587.5 C 496 607.1061104 453.0193408 623 400 623 C 346.9806592 623 304 607.1061104 304 587.5 Z" stroke-miterlimit="10"/></g><g transform="translate(-62,-6) scale(1,1)"><g><path fill="none" stroke="none"/><text fill="#000000" stroke="none" font-family="Arial" font-size="13px" font-style="normal" font-weight="bold" text-decoration="none" x="379.77001953125" y="581.5">Submit</text><text fill="#000000" stroke="none" font-family="Arial" font-size="13px" font-style="normal" font-weight="bold" text-decoration="none" x="359.892333984375" y="594.5">nondisclosure</text><text fill="#000000" stroke="none" font-family="Arial" font-size="13px" font-style="normal" font-weight="bold" text-decoration="none" x="368.925048828125" y="607.5">agreement</text></g></g><g transform="translate(-62,-6) scale(1,1)"><path fill="#C0C0C0" stroke="none" d="M 295 128 C 295 118.6111584 344.02481439999997 111 404.5 111 C 464.97518560000003 111 514 118.6111584 514 128 C 514 137.3888416 464.97518560000003 145 404.5 145 C 344.02481439999997 145 295 137.3888416 295 128 Z" opacity="0.2"/></g><g transform="translate(-62,-6) scale(1,1)"><path fill="#a3e0ff" stroke="none" d="M 288 121 C 288 111.6111584 337.02481439999997 104 397.5 104 C 457.97518560000003 104 507 111.6111584 507 121 C 507 130.3888416 457.97518560000003 138 397.5 138 C 337.02481439999997 138 288 130.3888416 288 121 Z"/></g><g transform="translate(-62,-6) scale(1,1)"><path fill="none" stroke="#000000" d="M 288 121 C 288 111.6111584 337.02481439999997 104 397.5 104 C 457.97518560000003 104 507 111.6111584 507 121 C 507 130.3888416 457.97518560000003 138 397.5 138 C 337.02481439999997 138 288 130.3888416 288 121 Z" stroke-miterlimit="10"/></g><g transform="translate(-62,-6) scale(1,1)"><g><path fill="none" stroke="none"/><text fill="#000000" stroke="none" font-family="Arial" font-size="13px" font-style="normal" font-weight="bold" text-decoration="none" x="329.215087890625" y="128">create employee record</text></g></g><g transform="translate(-62,-6) scale(1,1)"><path fill="#C0C0C0" stroke="none" d="M 615 129 C 615 114.6405952 654.3989376 103 703 103 C 751.6010624 103 791 114.6405952 791 129 C 791 143.3594048 751.6010624 155 703 155 C 654.3989376 155 615 143.3594048 615 129 Z" opacity="0.2"/></g><g transform="translate(-62,-6) scale(1,1)"><path fill="#ffffff" stroke="none" d="M 608 122 C 608 107.6405952 647.3989376 96 696 96 C 744.6010624 96 784 107.6405952 784 122 C 784 136.3594048 744.6010624 148 696 148 C 647.3989376 148 608 136.3594048 608 122 Z"/></g><g transform="translate(-62,-6) scale(1,1)"><path fill="none" stroke="#000000" d="M 608 122 C 608 107.6405952 647.3989376 96 696 96 C 744.6010624 96 784 107.6405952 784 122 C 784 136.3594048 744.6010624 148 696 148 C 647.3989376 148 608 136.3594048 608 122 Z" stroke-miterlimit="10"/></g><g transform="translate(-62,-6) scale(1,1)"><g><path fill="none" stroke="none"/><text fill="#000000" stroke="none" font-family="Arial" font-size="13px" font-style="normal" font-weight="bold" text-decoration="none" x="647.945068359375" y="122.5">create employee</text><text fill="#000000" stroke="none" font-family="Arial" font-size="13px" font-style="normal" font-weight="bold" text-decoration="none" x="678.29638671875" y="135.5">profile</text></g></g><g transform="translate(-62,-6) scale(1,1)"><path fill="#ffffff" stroke="none" d="M 716.2743405539773 361.68 C 716.2743405539773 356.886167936 720.1601828789227 353 724.95361328125 353 C 729.7470436835773 353 733.6328860085227 356.886167936 733.6328860085227 361.68 C 733.6328860085227 366.473832064 729.7470436835773 370.36 724.95361328125 370.36 C 720.1601828789227 370.36 716.2743405539773 366.473832064 716.2743405539773 361.68 Z"/></g><g transform="translate(-62,-6) scale(1,1)"><path fill="none" stroke="#000000" d="M 716.2743405539773 361.68 C 716.2743405539773 356.886167936 720.1601828789227 353 724.95361328125 353 C 729.7470436835773 353 733.6328860085227 356.886167936 733.6328860085227 361.68 C 733.6328860085227 366.473832064 729.7470436835773 370.36 724.95361328125 370.36 C 720.1601828789227 370.36 716.2743405539773 366.473832064 716.2743405539773 361.68 Z" stroke-miterlimit="10"/></g><g transform="translate(-62,-6) scale(1,1)"><path fill="none" stroke="#000000" d="M 724.95361328125 370.36 L 724.95361328125 387.64" stroke-miterlimit="10"/></g><g transform="translate(-62,-6) scale(1,1)"><path fill="none" stroke="#000000" d="M 715.7637950994318 376.84 L 734.1434314630682 376.84" stroke-miterlimit="10"/></g><g transform="translate(-62,-6) scale(1,1)"><path fill="none" stroke="#000000" d="M 724.95361328125 387.64 L 712.1899769176136 405" stroke-miterlimit="10"/></g><g transform="translate(-62,-6) scale(1,1)"><path fill="none" stroke="#000000" d="M 724.95361328125 387.64 L 737.7172496448864 405" stroke-miterlimit="10"/></g><g transform="translate(-62,-6) scale(1,1)"><g><path fill="none" stroke="none"/><text fill="#000000" stroke="none" font-family="Arial" font-size="13px" font-style="normal" font-weight="bold" text-decoration="none" x="696.049560546875" y="425.5">Employee</text></g></g><g transform="translate(-62,-6) scale(1,1)"><g><path fill="none" stroke="none"/><text fill="#000000" stroke="none" font-family="Arial" font-size="13px" font-style="normal" font-weight="normal" text-decoration="none" x="686.680419921875" y="440.5">(from HRMS)</text></g></g><g transform="translate(-62,-6) scale(1,1)"><path fill="none" stroke="#000000" d="M 397 283 L 399 319" stroke-miterlimit="10" stroke-dasharray="3"/></g><g transform="translate(-62,-6) scale(1,1)"><path fill="none" stroke="#000000" d="M 394.2332396407341 309.0864741046724 L 399 319 L 402.6393128117264 308.6194700396173" stroke-miterlimit="10"/></g><g transform="translate(-62,-6) scale(1,1)"><g><path fill="none" stroke="none"/><text fill="#000000" stroke="none" font-family="Arial" font-size="13px" font-style="normal" font-weight="normal" text-decoration="none" x="400" y="306">«include»</text></g></g><g transform="translate(-62,-6) scale(1,1)"><path fill="none" stroke="#000000" d="M 508 121 L 607 122" stroke-miterlimit="10" stroke-dasharray="3"/></g><g transform="translate(-62,-6) scale(1,1)"><path fill="none" stroke="#000000" d="M 596.795325341268 126.10665497813403 L 607 122 L 596.880361765976 117.68804893204015" stroke-miterlimit="10"/></g><g transform="translate(-62,-6) scale(1,1)"><g><path fill="none" stroke="none"/><text fill="#000000" stroke="none" font-family="Arial" font-size="13px" font-style="normal" font-weight="normal" text-decoration="none" x="544" y="117">«include»</text></g></g><g transform="translate(-62,-6) scale(1,1)"><path fill="#C0C0C0" stroke="none" d="M 599 56 C 599 46.6111584 641.532944 39 694 39 C 746.467056 39 789 46.6111584 789 56 C 789 65.3888416 746.467056 73 694 73 C 641.532944 73 599 65.3888416 599 56 Z" opacity="0.2"/></g><g transform="translate(-62,-6) scale(1,1)"><path fill="#ffffff" stroke="none" d="M 592 49 C 592 39.6111584 634.532944 32 687 32 C 739.467056 32 782 39.6111584 782 49 C 782 58.3888416 739.467056 66 687 66 C 634.532944 66 592 58.3888416 592 49 Z"/></g><g transform="translate(-62,-6) scale(1,1)"><path fill="none" stroke="#000000" d="M 592 49 C 592 39.6111584 634.532944 32 687 32 C 739.467056 32 782 39.6111584 782 49 C 782 58.3888416 739.467056 66 687 66 C 634.532944 66 592 58.3888416 592 49 Z" stroke-miterlimit="10"/></g><g transform="translate(-62,-6) scale(1,1)"><g><path fill="none" stroke="none"/><text fill="#000000" stroke="none" font-family="Arial" font-size="13px" font-style="normal" font-weight="bold" text-decoration="none" x="628.826904296875" y="56">provide employee id</text></g></g><g transform="translate(-62,-6) scale(1,1)"><path fill="none" stroke="#000000" d="M 470 103 L 615 67" stroke-miterlimit="10" stroke-dasharray="3"/></g><g transform="translate(-62,-6) scale(1,1)"><path fill="none" stroke="#000000" d="M 606.1510959718945 73.53428630390331 L 615 67 L 604.1224417999532 65.36331811136208" stroke-miterlimit="10"/></g><g transform="translate(-62,-6) scale(1,1)"><g><path fill="none" stroke="none"/><text fill="#000000" stroke="none" font-family="Arial" font-size="13px" font-style="normal" font-weight="normal" text-decoration="none" x="530" y="65">«include»</text></g></g><g transform="translate(-62,-6) scale(1,1)"><path fill="none" stroke="#000000" d="M 190 119 L 287 120" stroke-miterlimit="10"/></g><g transform="translate(-62,-6) scale(1,1)"><path fill="none" stroke="#000000" d="M 276.79447036576926 124.10452980070049 L 287 120 L 276.8812599343776 115.68594164569278" stroke-miterlimit="10"/></g><g transform="translate(-62,-6) scale(1,1)"><path fill="#ffffff" stroke="none" d="M 656 512 L 781 512 L 791 522 L 791 587 L 656 587 L 656 512"/></g><g transform="translate(-62,-6) scale(1,1)"><path fill="none" stroke="#000000" d="M 656 512 L 781 512 L 791 522 L 791 587 L 656 587 L 656 512 L 656 512" stroke-miterlimit="10"/></g><g transform="translate(-62,-6) scale(1,1)"><path fill="none" stroke="#000000" d="M 781 512 L 781 522 L 791 522 L 781 512" stroke-miterlimit="10"/></g><g transform="translate(-62,-6) scale(1,1)"><g><path fill="none" stroke="none"/><text fill="#000000" stroke="none" font-family="Arial" font-size="13px" font-style="normal" font-weight="normal" text-decoration="none" x="661" y="530">The employee should</text><text fill="#000000" stroke="none" font-family="Arial" font-size="13px" font-style="normal" font-weight="normal" text-decoration="none" x="661" y="543">be a new hire to</text><text fill="#000000" stroke="none" font-family="Arial" font-size="13px" font-style="normal" font-weight="normal" text-decoration="none" x="661" y="556">operate on the use</text><text fill="#000000" stroke="none" font-family="Arial" font-size="13px" font-style="normal" font-weight="normal" text-decoration="none" x="661" y="569">cases in this</text><text fill="#000000" stroke="none" font-family="Arial" font-size="13px" font-style="normal" font-weight="normal" text-decoration="none" x="661" y="582">package. </text></g></g><g transform="translate(-62,-6) scale(1,1)"><path fill="none" stroke="#000000" d="M 724 511 L 724 447" stroke-miterlimit="10" stroke-dasharray="3"/></g><g transform="translate(-62,-6) scale(1,1)"><path fill="#C0C0C0" stroke="none" d="M 295 50.5 C 295 35.312168 343.3532416 23 403 23 C 462.6467584 23 511 35.312168 511 50.5 C 511 65.687832 462.6467584 78 403 78 C 343.3532416 78 295 65.687832 295 50.5 Z" opacity="0.2"/></g><g transform="translate(-62,-6) scale(1,1)"><path fill="#ffffff" stroke="none" d="M 288 43.5 C 288 28.312168 336.3532416 16 396 16 C 455.6467584 16 504 28.312168 504 43.5 C 504 58.687832 455.6467584 71 396 71 C 336.3532416 71 288 58.687832 288 43.5 Z"/></g><g transform="translate(-62,-6) scale(1,1)"><path fill="none" stroke="#000000" d="M 288 43.5 C 288 28.312168 336.3532416 16 396 16 C 455.6467584 16 504 28.312168 504 43.5 C 504 58.687832 455.6467584 71 396 71 C 336.3532416 71 288 58.687832 288 43.5 Z" stroke-miterlimit="10"/></g><g transform="translate(-62,-6) scale(1,1)"><g><path fill="none" stroke="none"/><text fill="#000000" stroke="none" font-family="Arial" font-size="13px" font-style="normal" font-weight="bold" text-decoration="none" x="329.517822265625" y="43">create action on record</text></g></g><g transform="translate(-62,-6) scale(1,1)"><g><path fill="none" stroke="none"/><text fill="#000000" stroke="none" font-family="Arial" font-size="13px" font-style="normal" font-weight="normal" text-decoration="none" x="357.726806640625" y="58">(from HRMS)</text></g></g><g transform="translate(-62,-6) scale(1,1)"><path fill="none" stroke="#000000" d="M 397 103 L 396 72" stroke-miterlimit="10" stroke-dasharray="3"/></g><g transform="translate(-62,-6) scale(1,1)"><path fill="none" stroke="#000000" d="M 400.5349870761203 82.02167112907932 L 396 72 L 392.1203284999246 82.29311172831144" stroke-miterlimit="10"/></g><g transform="translate(-62,-6) scale(1,1)"><g><path fill="none" stroke="none"/><text fill="#000000" stroke="none" font-family="Arial" font-size="13px" font-style="normal" font-weight="normal" text-decoration="none" x="339" y="93">«include»</text></g></g><g transform="translate(-62,-6) scale(1,1)"><path fill="#C0C0C0" stroke="none" d="M 607 200 C 607 190.6111584 647.7420832 183 698 183 C 748.2579168 183 789 190.6111584 789 200 C 789 209.3888416 748.2579168 217 698 217 C 647.7420832 217 607 209.3888416 607 200 Z" opacity="0.2"/></g><g transform="translate(-62,-6) scale(1,1)"><path fill="#ffffff" stroke="none" d="M 600 193 C 600 183.6111584 640.7420832 176 691 176 C 741.2579168 176 782 183.6111584 782 193 C 782 202.3888416 741.2579168 210 691 210 C 640.7420832 210 600 202.3888416 600 193 Z"/></g><g transform="translate(-62,-6) scale(1,1)"><path fill="none" stroke="#000000" d="M 600 193 C 600 183.6111584 640.7420832 176 691 176 C 741.2579168 176 782 183.6111584 782 193 C 782 202.3888416 741.2579168 210 691 210 C 640.7420832 210 600 202.3888416 600 193 Z" stroke-miterlimit="10"/></g><g transform="translate(-62,-6) scale(1,1)"><g><path fill="none" stroke="none"/><text fill="#000000" stroke="none" font-family="Arial" font-size="13px" font-style="normal" font-weight="bold" text-decoration="none" x="635.33740234375" y="200">add dependent info</text></g></g><g transform="translate(-62,-6) scale(1,1)"><path fill="none" stroke="#000000" d="M 471 139 L 618 175" stroke-miterlimit="10" stroke-dasharray="3"/></g><g transform="translate(-62,-6) scale(1,1)"><path fill="none" stroke="#000000" d="M 607.1277085918769 176.67131072420779 L 618 175 L 609.1303338717228 168.493924164837" stroke-miterlimit="10"/></g><g transform="translate(-62,-6) scale(1,1)"><g><path fill="none" stroke="none"/><text fill="#000000" stroke="none" font-family="Arial" font-size="13px" font-style="normal" font-weight="normal" text-decoration="none" x="536" y="188">«include»</text></g></g><g transform="translate(-62,-6) scale(1,1)"><path fill="none" stroke="#000000" d="M 679 381 L 440 283" stroke-miterlimit="10"/></g><g transform="translate(-62,-6) scale(1,1)"><path fill="none" stroke="#000000" d="M 450.9999300588821 282.9607737370917 L 440 283 L 447.80586229371636 290.75038798071023" stroke-miterlimit="10"/></g><g transform="translate(-62,-6) scale(1,1)"><path fill="none" stroke="#000000" d="M 679 401 L 508 411" stroke-miterlimit="10"/></g><g transform="translate(-62,-6) scale(1,1)"><path fill="none" stroke="#000000" d="M 517.8995910899791 406.20436696032687 L 508 411 L 518.3910926331333 414.60904334826307" stroke-miterlimit="10"/></g><g transform="translate(-62,-6) scale(1,1)"><path fill="none" stroke="#000000" d="M 679 413 L 491 471" stroke-miterlimit="10"/></g><g transform="translate(-62,-6) scale(1,1)"><path fill="none" stroke="#000000" d="M 499.4700686250919 463.98160007649653 L 491 471 L 501.95200114090636 472.0264847829295" stroke-miterlimit="10"/></g><g transform="translate(-62,-6) scale(1,1)"><path fill="none" stroke="#000000" d="M 679 425 L 462 551" stroke-miterlimit="10"/></g><g transform="translate(-62,-6) scale(1,1)"><path fill="none" stroke="#000000" d="M 468.6748205085009 542.2566155763745 L 462 551 L 472.9023172612304 549.5373044282976" stroke-miterlimit="10"/></g></g></svg>