<svg version="1.1" xmlns="http://www.w3.org/2000/svg" xmlns:xlink="http://www.w3.org/1999/xlink" width="940" height="675"><defs/><g><g transform="translate(-102,2) scale(1,1)"><path fill="#ffffff" stroke="none" d="M 161.62980930397728 81.68 C 161.62980930397728 76.886167936 165.51565162892274 73 170.30908203125 73 C 175.10251243357726 73 178.98835475852272 76.886167936 178.98835475852272 81.68 C 178.98835475852272 86.473832064 175.10251243357726 90.36 170.30908203125 90.36 C 165.51565162892274 90.36 161.62980930397728 86.473832064 161.62980930397728 81.68 Z"/></g><g transform="translate(-102,2) scale(1,1)"><path fill="none" stroke="#000000" d="M 161.62980930397728 81.68 C 161.62980930397728 76.886167936 165.51565162892274 73 170.30908203125 73 C 175.10251243357726 73 178.98835475852272 76.886167936 178.98835475852272 81.68 C 178.98835475852272 86.473832064 175.10251243357726 90.36 170.30908203125 90.36 C 165.51565162892274 90.36 161.62980930397728 86.473832064 161.62980930397728 81.68 Z" stroke-miterlimit="10"/></g><g transform="translate(-102,2) scale(1,1)"><path fill="none" stroke="#000000" d="M 170.30908203125 90.36 L 170.30908203125 107.64" stroke-miterlimit="10"/></g><g transform="translate(-102,2) scale(1,1)"><path fill="none" stroke="#000000" d="M 161.11926384943183 96.84 L 179.49890021306817 96.84" stroke-miterlimit="10"/></g><g transform="translate(-102,2) scale(1,1)"><path fill="none" stroke="#000000" d="M 170.30908203125 107.64 L 157.54544566761365 125" stroke-miterlimit="10"/></g><g transform="translate(-102,2) scale(1,1)"><path fill="none" stroke="#000000" d="M 170.30908203125 107.64 L 183.07271839488635 125" stroke-miterlimit="10"/></g><g transform="translate(-102,2) scale(1,1)"><g><path fill="none" stroke="none"/><text fill="#000000" stroke="none" font-family="Arial" font-size="13px" font-style="normal" font-weight="bold" text-decoration="none" x="120.825927734375" y="145.5">HR Administrator</text></g></g><g transform="translate(-102,2) scale(1,1)"><g><path fill="none" stroke="none"/><text fill="#000000" stroke="none" font-family="Arial" font-size="13px" font-style="normal" font-weight="normal" text-decoration="none" x="129.85546875" y="160.5">(from Model1)</text></g></g><g transform="translate(-102,2) scale(1,1)"><path fill="#C0C0C0" stroke="none" d="M 359 361 C 359 346.6405952 401.9806592 335 455 335 C 508.0193408 335 551 346.6405952 551 361 C 551 375.3594048 508.0193408 387 455 387 C 401.9806592 387 359 375.3594048 359 361 Z" opacity="0.2"/></g><g transform="translate(-102,2) scale(1,1)"><path fill="#ffffff" stroke="none" d="M 352 354 C 352 339.6405952 394.9806592 328 448 328 C 501.0193408 328 544 339.6405952 544 354 C 544 368.3594048 501.0193408 380 448 380 C 394.9806592 380 352 368.3594048 352 354 Z"/></g><g transform="translate(-102,2) scale(1,1)"><path fill="none" stroke="#000000" d="M 352 354 C 352 339.6405952 394.9806592 328 448 328 C 501.0193408 328 544 339.6405952 544 354 C 544 368.3594048 501.0193408 380 448 380 C 394.9806592 380 352 368.3594048 352 354 Z" stroke-miterlimit="10"/></g><g transform="translate(-102,2) scale(1,1)"><g><path fill="none" stroke="none"/><text fill="#000000" stroke="none" font-family="Arial" font-size="13px" font-style="normal" font-weight="bold" text-decoration="none" x="396.67919921875" y="354.5">assign dependent</text><text fill="#000000" stroke="none" font-family="Arial" font-size="13px" font-style="normal" font-weight="bold" text-decoration="none" x="421.260498046875" y="367.5">coverage</text></g></g><g transform="translate(-102,2) scale(1,1)"><path fill="#C0C0C0" stroke="none" d="M 639 234.5 C 639 214.8938896 676.6080768 199 723 199 C 769.3919232 199 807 214.8938896 807 234.5 C 807 254.1061104 769.3919232 270 723 270 C 676.6080768 270 639 254.1061104 639 234.5 Z" opacity="0.2"/></g><g transform="translate(-102,2) scale(1,1)"><path fill="#ffffff" stroke="none" d="M 632 227.5 C 632 207.8938896 669.6080768 192 716 192 C 762.3919232 192 800 207.8938896 800 227.5 C 800 247.1061104 762.3919232 263 716 263 C 669.6080768 263 632 247.1061104 632 227.5 Z"/></g><g transform="translate(-102,2) scale(1,1)"><path fill="none" stroke="#000000" d="M 632 227.5 C 632 207.8938896 669.6080768 192 716 192 C 762.3919232 192 800 207.8938896 800 227.5 C 800 247.1061104 762.3919232 263 716 263 C 669.6080768 263 632 247.1061104 632 227.5 Z" stroke-miterlimit="10"/></g><g transform="translate(-102,2) scale(1,1)"><g><path fill="none" stroke="none"/><text fill="#000000" stroke="none" font-family="Arial" font-size="13px" font-style="normal" font-weight="bold" text-decoration="none" x="678.06640625" y="228">list employee</text><text fill="#000000" stroke="none" font-family="Arial" font-size="13px" font-style="normal" font-weight="bold" text-decoration="none" x="679.13916015625" y="241">benefit plans</text></g></g><g transform="translate(-102,2) scale(1,1)"><path fill="#C0C0C0" stroke="none" d="M 351 264 C 351 254.6111584 399.3532416 247 459 247 C 518.6467584 247 567 254.6111584 567 264 C 567 273.3888416 518.6467584 281 459 281 C 399.3532416 281 351 273.3888416 351 264 Z" opacity="0.2"/></g><g transform="translate(-102,2) scale(1,1)"><path fill="#a3e0ff" stroke="none" d="M 344 257 C 344 247.6111584 392.3532416 240 452 240 C 511.6467584 240 560 247.6111584 560 257 C 560 266.3888416 511.6467584 274 452 274 C 392.3532416 274 344 266.3888416 344 257 Z"/></g><g transform="translate(-102,2) scale(1,1)"><path fill="none" stroke="#000000" d="M 344 257 C 344 247.6111584 392.3532416 240 452 240 C 511.6467584 240 560 247.6111584 560 257 C 560 266.3888416 511.6467584 274 452 274 C 392.3532416 274 344 266.3888416 344 257 Z" stroke-miterlimit="10"/></g><g transform="translate(-102,2) scale(1,1)"><g><path fill="none" stroke="none"/><text fill="#000000" stroke="none" font-family="Arial" font-size="13px" font-style="normal" font-weight="bold" text-decoration="none" x="390.570556640625" y="264">enroll in benefit plans</text></g></g><g transform="translate(-102,2) scale(1,1)"><path fill="#C0C0C0" stroke="none" d="M 351 456 C 351 446.6111584 400.02481439999997 439 460.5 439 C 520.9751856 439 570 446.6111584 570 456 C 570 465.3888416 520.9751856 473 460.5 473 C 400.02481439999997 473 351 465.3888416 351 456 Z" opacity="0.2"/></g><g transform="translate(-102,2) scale(1,1)"><path fill="#a3e0ff" stroke="none" d="M 344 449 C 344 439.6111584 393.02481439999997 432 453.5 432 C 513.9751856 432 563 439.6111584 563 449 C 563 458.3888416 513.9751856 466 453.5 466 C 393.02481439999997 466 344 458.3888416 344 449 Z"/></g><g transform="translate(-102,2) scale(1,1)"><path fill="none" stroke="#000000" d="M 344 449 C 344 439.6111584 393.02481439999997 432 453.5 432 C 513.9751856 432 563 439.6111584 563 449 C 563 458.3888416 513.9751856 466 453.5 466 C 393.02481439999997 466 344 458.3888416 344 449 Z" stroke-miterlimit="10"/></g><g transform="translate(-102,2) scale(1,1)"><g><path fill="none" stroke="none"/><text fill="#000000" stroke="none" font-family="Arial" font-size="13px" font-style="normal" font-weight="bold" text-decoration="none" x="386.671875" y="456">Complete payroll forms</text></g></g><g transform="translate(-102,2) scale(1,1)"><path fill="#C0C0C0" stroke="none" d="M 367 537 C 367 522.6405952 408.1897984 511 459 511 C 509.8102016 511 551 522.6405952 551 537 C 551 551.3594048 509.8102016 563 459 563 C 408.1897984 563 367 551.3594048 367 537 Z" opacity="0.2"/></g><g transform="translate(-102,2) scale(1,1)"><path fill="#ffffff" stroke="none" d="M 360 530 C 360 515.6405952 401.1897984 504 452 504 C 502.8102016 504 544 515.6405952 544 530 C 544 544.3594048 502.8102016 556 452 556 C 401.1897984 556 360 544.3594048 360 530 Z"/></g><g transform="translate(-102,2) scale(1,1)"><path fill="none" stroke="#000000" d="M 360 530 C 360 515.6405952 401.1897984 504 452 504 C 502.8102016 504 544 515.6405952 544 530 C 544 544.3594048 502.8102016 556 452 556 C 401.1897984 556 360 544.3594048 360 530 Z" stroke-miterlimit="10"/></g><g transform="translate(-102,2) scale(1,1)"><g><path fill="none" stroke="none"/><text fill="#000000" stroke="none" font-family="Arial" font-size="13px" font-style="normal" font-weight="bold" text-decoration="none" x="416.23095703125" y="530.5">Submit legal</text><text fill="#000000" stroke="none" font-family="Arial" font-size="13px" font-style="normal" font-weight="bold" text-decoration="none" x="415.865966796875" y="543.5">identification</text></g></g><g transform="translate(-102,2) scale(1,1)"><path fill="#C0C0C0" stroke="none" d="M 359 634.5 C 359 614.8938896 401.9806592 599 455 599 C 508.0193408 599 551 614.8938896 551 634.5 C 551 654.1061104 508.0193408 670 455 670 C 401.9806592 670 359 654.1061104 359 634.5 Z" opacity="0.2"/></g><g transform="translate(-102,2) scale(1,1)"><path fill="#ffffff" stroke="none" d="M 352 627.5 C 352 607.8938896 394.9806592 592 448 592 C 501.0193408 592 544 607.8938896 544 627.5 C 544 647.1061104 501.0193408 663 448 663 C 394.9806592 663 352 647.1061104 352 627.5 Z"/></g><g transform="translate(-102,2) scale(1,1)"><path fill="none" stroke="#000000" d="M 352 627.5 C 352 607.8938896 394.9806592 592 448 592 C 501.0193408 592 544 607.8938896 544 627.5 C 544 647.1061104 501.0193408 663 448 663 C 394.9806592 663 352 647.1061104 352 627.5 Z" stroke-miterlimit="10"/></g><g transform="translate(-102,2) scale(1,1)"><g><path fill="none" stroke="none"/><text fill="#000000" stroke="none" font-family="Arial" font-size="13px" font-style="normal" font-weight="bold" text-decoration="none" x="427.77001953125" y="621.5">Submit</text><text fill="#000000" stroke="none" font-family="Arial" font-size="13px" font-style="normal" font-weight="bold" text-decoration="none" x="407.892333984375" y="634.5">nondisclosure</text><text fill="#000000" stroke="none" font-family="Arial" font-size="13px" font-style="normal" font-weight="bold" text-decoration="none" x="416.925048828125" y="647.5">agreement</text></g></g><g transform="translate(-102,2) scale(1,1)"><path fill="#C0C0C0" stroke="none" d="M 343 128 C 343 118.6111584 392.02481439999997 111 452.5 111 C 512.9751856 111 562 118.6111584 562 128 C 562 137.3888416 512.9751856 145 452.5 145 C 392.02481439999997 145 343 137.3888416 343 128 Z" opacity="0.2"/></g><g transform="translate(-102,2) scale(1,1)"><path fill="#a3e0ff" stroke="none" d="M 336 121 C 336 111.6111584 385.02481439999997 104 445.5 104 C 505.97518560000003 104 555 111.6111584 555 121 C 555 130.3888416 505.97518560000003 138 445.5 138 C 385.02481439999997 138 336 130.3888416 336 121 Z"/></g><g transform="translate(-102,2) scale(1,1)"><path fill="none" stroke="#000000" d="M 336 121 C 336 111.6111584 385.02481439999997 104 445.5 104 C 505.97518560000003 104 555 111.6111584 555 121 C 555 130.3888416 505.97518560000003 138 445.5 138 C 385.02481439999997 138 336 130.3888416 336 121 Z" stroke-miterlimit="10"/></g><g transform="translate(-102,2) scale(1,1)"><g><path fill="none" stroke="none"/><text fill="#000000" stroke="none" font-family="Arial" font-size="13px" font-style="normal" font-weight="bold" text-decoration="none" x="377.215087890625" y="128">create employee record</text></g></g><g transform="translate(-102,2) scale(1,1)"><path fill="#C0C0C0" stroke="none" d="M 639 137 C 639 122.6405952 678.3989376 111 727 111 C 775.6010624 111 815 122.6405952 815 137 C 815 151.3594048 775.6010624 163 727 163 C 678.3989376 163 639 151.3594048 639 137 Z" opacity="0.2"/></g><g transform="translate(-102,2) scale(1,1)"><path fill="#ffffff" stroke="none" d="M 632 130 C 632 115.6405952 671.3989376 104 720 104 C 768.6010624 104 808 115.6405952 808 130 C 808 144.3594048 768.6010624 156 720 156 C 671.3989376 156 632 144.3594048 632 130 Z"/></g><g transform="translate(-102,2) scale(1,1)"><path fill="none" stroke="#000000" d="M 632 130 C 632 115.6405952 671.3989376 104 720 104 C 768.6010624 104 808 115.6405952 808 130 C 808 144.3594048 768.6010624 156 720 156 C 671.3989376 156 632 144.3594048 632 130 Z" stroke-miterlimit="10"/></g><g transform="translate(-102,2) scale(1,1)"><g><path fill="none" stroke="none"/><text fill="#000000" stroke="none" font-family="Arial" font-size="13px" font-style="normal" font-weight="bold" text-decoration="none" x="671.945068359375" y="130.5">create employee</text><text fill="#000000" stroke="none" font-family="Arial" font-size="13px" font-style="normal" font-weight="bold" text-decoration="none" x="702.29638671875" y="143.5">profile</text></g></g><g transform="translate(-102,2) scale(1,1)"><path fill="#ffffff" stroke="none" d="M 772.2743405539773 417.68 C 772.2743405539773 412.886167936 776.1601828789227 409 780.95361328125 409 C 785.7470436835773 409 789.6328860085227 412.886167936 789.6328860085227 417.68 C 789.6328860085227 422.473832064 785.7470436835773 426.36 780.95361328125 426.36 C 776.1601828789227 426.36 772.2743405539773 422.473832064 772.2743405539773 417.68 Z"/></g><g transform="translate(-102,2) scale(1,1)"><path fill="none" stroke="#000000" d="M 772.2743405539773 417.68 C 772.2743405539773 412.886167936 776.1601828789227 409 780.95361328125 409 C 785.7470436835773 409 789.6328860085227 412.886167936 789.6328860085227 417.68 C 789.6328860085227 422.473832064 785.7470436835773 426.36 780.95361328125 426.36 C 776.1601828789227 426.36 772.2743405539773 422.473832064 772.2743405539773 417.68 Z" stroke-miterlimit="10"/></g><g transform="translate(-102,2) scale(1,1)"><path fill="none" stroke="#000000" d="M 780.95361328125 426.36 L 780.95361328125 443.64" stroke-miterlimit="10"/></g><g transform="translate(-102,2) scale(1,1)"><path fill="none" stroke="#000000" d="M 771.7637950994318 432.84 L 790.1434314630682 432.84" stroke-miterlimit="10"/></g><g transform="translate(-102,2) scale(1,1)"><path fill="none" stroke="#000000" d="M 780.95361328125 443.64 L 768.1899769176136 461" stroke-miterlimit="10"/></g><g transform="translate(-102,2) scale(1,1)"><path fill="none" stroke="#000000" d="M 780.95361328125 443.64 L 793.7172496448864 461" stroke-miterlimit="10"/></g><g transform="translate(-102,2) scale(1,1)"><g><path fill="none" stroke="none"/><text fill="#000000" stroke="none" font-family="Arial" font-size="13px" font-style="normal" font-weight="bold" text-decoration="none" x="752.049560546875" y="481.5">Employee</text></g></g><g transform="translate(-102,2) scale(1,1)"><g><path fill="none" stroke="none"/><text fill="#000000" stroke="none" font-family="Arial" font-size="13px" font-style="normal" font-weight="normal" text-decoration="none" x="740.5" y="496.5">(from Model1)</text></g></g><g transform="translate(-102,2) scale(1,1)"><path fill="none" stroke="#000000" d="M 451 275 L 449 327" stroke-miterlimit="10" stroke-dasharray="3"/></g><g transform="translate(-102,2) scale(1,1)"><path fill="none" stroke="#000000" d="M 445.18417566617 316.68304867447023 L 449 327 L 453.5969909811858 317.00661849427854" stroke-miterlimit="10"/></g><g transform="translate(-102,2) scale(1,1)"><g><path fill="none" stroke="none"/><text fill="#000000" stroke="none" font-family="Arial" font-size="13px" font-style="normal" font-weight="normal" text-decoration="none" x="452" y="309">«include»</text></g></g><g transform="translate(-102,2) scale(1,1)"><path fill="none" stroke="#000000" d="M 556 125 L 631 127" stroke-miterlimit="10" stroke-dasharray="3"/></g><g transform="translate(-102,2) scale(1,1)"><path fill="none" stroke="#000000" d="M 620.7287226962413 130.93711347935158 L 631 127 L 620.9531505275143 122.52106980661523" stroke-miterlimit="10"/></g><g transform="translate(-102,2) scale(1,1)"><g><path fill="none" stroke="none"/><text fill="#000000" stroke="none" font-family="Arial" font-size="13px" font-style="normal" font-weight="normal" text-decoration="none" x="567" y="113">«include»</text></g></g><g transform="translate(-102,2) scale(1,1)"><path fill="none" stroke="#000000" d="M 491 139 L 631 194" stroke-miterlimit="10" stroke-dasharray="3"/></g><g transform="translate(-102,2) scale(1,1)"><path fill="none" stroke="#000000" d="M 620.0018550446737 194.20200876622175 L 631 194 L 623.0802953531617 186.3659788900707" stroke-miterlimit="10"/></g><g transform="translate(-102,2) scale(1,1)"><g><path fill="none" stroke="none"/><text fill="#000000" stroke="none" font-family="Arial" font-size="13px" font-style="normal" font-weight="normal" text-decoration="none" x="560" y="165">«include»</text></g></g><g transform="translate(-102,2) scale(1,1)"><path fill="#C0C0C0" stroke="none" d="M 631 48 C 631 38.6111584 673.532944 31 726 31 C 778.467056 31 821 38.6111584 821 48 C 821 57.3888416 778.467056 65 726 65 C 673.532944 65 631 57.3888416 631 48 Z" opacity="0.2"/></g><g transform="translate(-102,2) scale(1,1)"><path fill="#ffffff" stroke="none" d="M 624 41 C 624 31.6111584 666.532944 24 719 24 C 771.467056 24 814 31.6111584 814 41 C 814 50.3888416 771.467056 58 719 58 C 666.532944 58 624 50.3888416 624 41 Z"/></g><g transform="translate(-102,2) scale(1,1)"><path fill="none" stroke="#000000" d="M 624 41 C 624 31.6111584 666.532944 24 719 24 C 771.467056 24 814 31.6111584 814 41 C 814 50.3888416 771.467056 58 719 58 C 666.532944 58 624 50.3888416 624 41 Z" stroke-miterlimit="10"/></g><g transform="translate(-102,2) scale(1,1)"><g><path fill="none" stroke="none"/><text fill="#000000" stroke="none" font-family="Arial" font-size="13px" font-style="normal" font-weight="bold" text-decoration="none" x="660.826904296875" y="48">provide employee id</text></g></g><g transform="translate(-102,2) scale(1,1)"><path fill="none" stroke="#000000" d="M 507 103 L 657 59" stroke-miterlimit="10" stroke-dasharray="3"/></g><g transform="translate(-102,2) scale(1,1)"><path fill="none" stroke="#000000" d="M 648.4330804181658 65.8998470184769 L 657 59 L 646.0633444538904 57.82120168571997" stroke-miterlimit="10"/></g><g transform="translate(-102,2) scale(1,1)"><g><path fill="none" stroke="none"/><text fill="#000000" stroke="none" font-family="Arial" font-size="13px" font-style="normal" font-weight="normal" text-decoration="none" x="569" y="61">«include»</text></g></g><g transform="translate(-102,2) scale(1,1)"><path fill="none" stroke="#000000" d="M 230 119 L 335 120" stroke-miterlimit="10"/></g><g transform="translate(-102,2) scale(1,1)"><path fill="none" stroke="#000000" d="M 324.79769717605956 124.11254387072252 L 335 120 L 324.877874830558 115.69389014838814" stroke-miterlimit="10"/></g><g transform="translate(-102,2) scale(1,1)"><path fill="none" stroke="#000000" d="M 739 407 L 608 256 L 561 256" stroke-miterlimit="10"/></g><g transform="translate(-102,2) scale(1,1)"><path fill="none" stroke="#000000" d="M 571.1626748576241 251.790482243984 L 561 256 L 571.1626748576241 260.209517756016" stroke-miterlimit="10"/></g><g transform="translate(-102,2) scale(1,1)"><path fill="none" stroke="#000000" d="M 735 425 L 624 352 L 545 353" stroke-miterlimit="10"/></g><g transform="translate(-102,2) scale(1,1)"><path fill="none" stroke="#000000" d="M 555.1085800025882 348.6621883015425 L 545 353 L 555.2151415354864 357.0805494005072" stroke-miterlimit="10"/></g><g transform="translate(-102,2) scale(1,1)"><path fill="none" stroke="#000000" d="M 735 454 L 564 451" stroke-miterlimit="10"/></g><g transform="translate(-102,2) scale(1,1)"><path fill="none" stroke="#000000" d="M 574.2349510750042 446.96939502155453 L 564 451 L 574.0872714227911 455.387135197705" stroke-miterlimit="10"/></g><g transform="translate(-102,2) scale(1,1)"><path fill="none" stroke="#000000" d="M 735 478 L 638 528 L 545 529" stroke-miterlimit="10"/></g><g transform="translate(-102,2) scale(1,1)"><path fill="none" stroke="#000000" d="M 555.1168263874775 524.6814558187234 L 545 529 L 555.2073484181068 533.1000046672381" stroke-miterlimit="10"/></g><g transform="translate(-102,2) scale(1,1)"><path fill="none" stroke="#000000" d="M 745 503 L 656 624 L 545 626" stroke-miterlimit="10"/></g><g transform="translate(-102,2) scale(1,1)"><path fill="none" stroke="#000000" d="M 555.0851907502848 621.6080838429713 L 545 626 L 555.236860466124 630.0257530720485" stroke-miterlimit="10"/></g><g transform="translate(-102,2) scale(1,1)"><path fill="#ffffff" stroke="none" d="M 896 416 L 1021 416 L 1031 426 L 1031 491 L 896 491 L 896 416"/></g><g transform="translate(-102,2) scale(1,1)"><path fill="none" stroke="#000000" d="M 896 416 L 1021 416 L 1031 426 L 1031 491 L 896 491 L 896 416 L 896 416" stroke-miterlimit="10"/></g><g transform="translate(-102,2) scale(1,1)"><path fill="none" stroke="#000000" d="M 1021 416 L 1021 426 L 1031 426 L 1021 416" stroke-miterlimit="10"/></g><g transform="translate(-102,2) scale(1,1)"><g><path fill="none" stroke="none"/><text fill="#000000" stroke="none" font-family="Arial" font-size="13px" font-style="normal" font-weight="normal" text-decoration="none" x="901" y="434">The employee should</text><text fill="#000000" stroke="none" font-family="Arial" font-size="13px" font-style="normal" font-weight="normal" text-decoration="none" x="901" y="447">be a new hire to</text><text fill="#000000" stroke="none" font-family="Arial" font-size="13px" font-style="normal" font-weight="normal" text-decoration="none" x="901" y="460">operate on the use</text><text fill="#000000" stroke="none" font-family="Arial" font-size="13px" font-style="normal" font-weight="normal" text-decoration="none" x="901" y="473">cases in this</text><text fill="#000000" stroke="none" font-family="Arial" font-size="13px" font-style="normal" font-weight="normal" text-decoration="none" x="901" y="486">package. </text></g></g><g transform="translate(-102,2) scale(1,1)"><path fill="none" stroke="#000000" d="M 895 454 L 827 455" stroke-miterlimit="10" stroke-dasharray="3"/></g><g transform="translate(-102,2) scale(1,1)"><path fill="#C0C0C0" stroke="none" d="M 335 42.5 C 335 27.312168 383.3532416 15 443 15 C 502.6467584 15 551 27.312168 551 42.5 C 551 57.687832 502.6467584 70 443 70 C 383.3532416 70 335 57.687832 335 42.5 Z" opacity="0.2"/></g><g transform="translate(-102,2) scale(1,1)"><path fill="#ffffff" stroke="none" d="M 328 35.5 C 328 20.312168 376.3532416 8 436 8 C 495.6467584 8 544 20.312168 544 35.5 C 544 50.687832 495.6467584 63 436 63 C 376.3532416 63 328 50.687832 328 35.5 Z"/></g><g transform="translate(-102,2) scale(1,1)"><path fill="none" stroke="#000000" d="M 328 35.5 C 328 20.312168 376.3532416 8 436 8 C 495.6467584 8 544 20.312168 544 35.5 C 544 50.687832 495.6467584 63 436 63 C 376.3532416 63 328 50.687832 328 35.5 Z" stroke-miterlimit="10"/></g><g transform="translate(-102,2) scale(1,1)"><g><path fill="none" stroke="none"/><text fill="#000000" stroke="none" font-family="Arial" font-size="13px" font-style="normal" font-weight="bold" text-decoration="none" x="369.517822265625" y="35">create action on record</text></g></g><g transform="translate(-102,2) scale(1,1)"><g><path fill="none" stroke="none"/><text fill="#000000" stroke="none" font-family="Arial" font-size="13px" font-style="normal" font-weight="normal" text-decoration="none" x="395.54638671875" y="50">(from Model1)</text></g></g><g transform="translate(-102,2) scale(1,1)"><path fill="none" stroke="#000000" d="M 443 103 L 439 64" stroke-miterlimit="10" stroke-dasharray="3"/></g><g transform="translate(-102,2) scale(1,1)"><path fill="none" stroke="#000000" d="M 444.2244363153426 73.68014799406133 L 439 64 L 435.84933605696585 74.53913263594612" stroke-miterlimit="10"/></g><g transform="translate(-102,2) scale(1,1)"><g><path fill="none" stroke="none"/><text fill="#000000" stroke="none" font-family="Arial" font-size="13px" font-style="normal" font-weight="normal" text-decoration="none" x="384" y="93">«include»</text></g></g></g></svg>