<svg version="1.1" xmlns="http://www.w3.org/2000/svg" xmlns:xlink="http://www.w3.org/1999/xlink" width="773.9072265625" height="606"><defs/><g><g transform="translate(-38,-126) scale(1,1)"><path fill="#ffffff" stroke="none" d="M 105.62980930397727 353.68 C 105.62980930397727 348.886167936 109.51565162892273 345 114.30908203125 345 C 119.10251243357727 345 122.98835475852273 348.886167936 122.98835475852273 353.68 C 122.98835475852273 358.473832064 119.10251243357727 362.36 114.30908203125 362.36 C 109.51565162892273 362.36 105.62980930397727 358.473832064 105.62980930397727 353.68 Z"/></g><g transform="translate(-38,-126) scale(1,1)"><path fill="none" stroke="#000000" d="M 105.62980930397727 353.68 C 105.62980930397727 348.886167936 109.51565162892273 345 114.30908203125 345 C 119.10251243357727 345 122.98835475852273 348.886167936 122.98835475852273 353.68 C 122.98835475852273 358.473832064 119.10251243357727 362.36 114.30908203125 362.36 C 109.51565162892273 362.36 105.62980930397727 358.473832064 105.62980930397727 353.68 Z" stroke-miterlimit="10"/></g><g transform="translate(-38,-126) scale(1,1)"><path fill="none" stroke="#000000" d="M 114.30908203125 362.36 L 114.30908203125 379.64" stroke-miterlimit="10"/></g><g transform="translate(-38,-126) scale(1,1)"><path fill="none" stroke="#000000" d="M 105.11926384943182 368.84 L 123.49890021306818 368.84" stroke-miterlimit="10"/></g><g transform="translate(-38,-126) scale(1,1)"><path fill="none" stroke="#000000" d="M 114.30908203125 379.64 L 101.54544566761363 397" stroke-miterlimit="10"/></g><g transform="translate(-38,-126) scale(1,1)"><path fill="none" stroke="#000000" d="M 114.30908203125 379.64 L 127.07271839488637 397" stroke-miterlimit="10"/></g><g transform="translate(-38,-126) scale(1,1)"><g><path fill="none" stroke="none"/><text fill="#000000" stroke="none" font-family="Arial" font-size="13px" font-style="normal" font-weight="bold" text-decoration="none" x="64.825927734375" y="417.5">HR Administrator</text></g></g><g transform="translate(-38,-126) scale(1,1)"><g><path fill="none" stroke="none"/><text fill="#000000" stroke="none" font-family="Arial" font-size="13px" font-style="normal" font-weight="normal" text-decoration="none" x="73.85546875" y="432.5">(from Model1)</text></g></g><g transform="translate(-38,-126) scale(1,1)"><path fill="#C0C0C0" stroke="none" d="M 471 160 C 471 150.6111584 528.0836879999999 143 598.5 143 C 668.9163120000001 143 726 150.6111584 726 160 C 726 169.3888416 668.9163120000001 177 598.5 177 C 528.0836879999999 177 471 169.3888416 471 160 Z" opacity="0.2"/></g><g transform="translate(-38,-126) scale(1,1)"><path fill="#ffffff" stroke="none" d="M 464 153 C 464 143.6111584 521.0836879999999 136 591.5 136 C 661.9163120000001 136 719 143.6111584 719 153 C 719 162.3888416 661.9163120000001 170 591.5 170 C 521.0836879999999 170 464 162.3888416 464 153 Z"/></g><g transform="translate(-38,-126) scale(1,1)"><path fill="none" stroke="#000000" d="M 464 153 C 464 143.6111584 521.0836879999999 136 591.5 136 C 661.9163120000001 136 719 143.6111584 719 153 C 719 162.3888416 661.9163120000001 170 591.5 170 C 521.0836879999999 170 464 162.3888416 464 153 Z" stroke-miterlimit="10"/></g><g transform="translate(-38,-126) scale(1,1)"><g><path fill="none" stroke="none"/><text fill="#000000" stroke="none" font-family="Arial" font-size="13px" font-style="normal" font-weight="bold" text-decoration="none" x="511.6337890625" y="160">assign dependent coverage</text></g></g><g transform="translate(-38,-126) scale(1,1)"><path fill="#ffffff" stroke="none" d="M 751.6361569602273 441.68 C 751.6361569602273 436.886167936 755.5219992851727 433 760.3154296875 433 C 765.1088600898273 433 768.9947024147727 436.886167936 768.9947024147727 441.68 C 768.9947024147727 446.473832064 765.1088600898273 450.36 760.3154296875 450.36 C 755.5219992851727 450.36 751.6361569602273 446.473832064 751.6361569602273 441.68 Z"/></g><g transform="translate(-38,-126) scale(1,1)"><path fill="none" stroke="#000000" d="M 751.6361569602273 441.68 C 751.6361569602273 436.886167936 755.5219992851727 433 760.3154296875 433 C 765.1088600898273 433 768.9947024147727 436.886167936 768.9947024147727 441.68 C 768.9947024147727 446.473832064 765.1088600898273 450.36 760.3154296875 450.36 C 755.5219992851727 450.36 751.6361569602273 446.473832064 751.6361569602273 441.68 Z" stroke-miterlimit="10"/></g><g transform="translate(-38,-126) scale(1,1)"><path fill="none" stroke="#000000" d="M 760.3154296875 450.36 L 760.3154296875 467.64" stroke-miterlimit="10"/></g><g transform="translate(-38,-126) scale(1,1)"><path fill="none" stroke="#000000" d="M 751.1256115056818 456.84 L 769.5052478693182 456.84" stroke-miterlimit="10"/></g><g transform="translate(-38,-126) scale(1,1)"><path fill="none" stroke="#000000" d="M 760.3154296875 467.64 L 747.5517933238636 485" stroke-miterlimit="10"/></g><g transform="translate(-38,-126) scale(1,1)"><path fill="none" stroke="#000000" d="M 760.3154296875 467.64 L 773.0790660511364 485" stroke-miterlimit="10"/></g><g transform="translate(-38,-126) scale(1,1)"><g><path fill="none" stroke="none"/><text fill="#000000" stroke="none" font-family="Arial" font-size="13px" font-style="normal" font-weight="bold" text-decoration="none" x="733.588623046875" y="505.5">New Hire</text></g></g><g transform="translate(-38,-126) scale(1,1)"><path fill="#C0C0C0" stroke="none" d="M 175 176 C 175 166.6111584 222.2339536 159 280.5 159 C 338.7660464 159 386 166.6111584 386 176 C 386 185.3888416 338.7660464 193 280.5 193 C 222.2339536 193 175 185.3888416 175 176 Z" opacity="0.2"/></g><g transform="translate(-38,-126) scale(1,1)"><path fill="#ffffff" stroke="none" d="M 168 169 C 168 159.6111584 215.2339536 152 273.5 152 C 331.7660464 152 379 159.6111584 379 169 C 379 178.3888416 331.7660464 186 273.5 186 C 215.2339536 186 168 178.3888416 168 169 Z"/></g><g transform="translate(-38,-126) scale(1,1)"><path fill="none" stroke="#000000" d="M 168 169 C 168 159.6111584 215.2339536 152 273.5 152 C 331.7660464 152 379 159.6111584 379 169 C 379 178.3888416 331.7660464 186 273.5 186 C 215.2339536 186 168 178.3888416 168 169 Z" stroke-miterlimit="10"/></g><g transform="translate(-38,-126) scale(1,1)"><g><path fill="none" stroke="none"/><text fill="#000000" stroke="none" font-family="Arial" font-size="13px" font-style="normal" font-weight="bold" text-decoration="none" x="216.04736328125" y="176">list out benefit plans</text></g></g><g transform="translate(-38,-126) scale(1,1)"><path fill="#C0C0C0" stroke="none" d="M 303 272 C 303 262.6111584 367.0232736 255 446 255 C 524.9767264 255 589 262.6111584 589 272 C 589 281.3888416 524.9767264 289 446 289 C 367.0232736 289 303 281.3888416 303 272 Z" opacity="0.2"/></g><g transform="translate(-38,-126) scale(1,1)"><path fill="#2b2bff" stroke="none" d="M 296 265 C 296 255.6111584 360.0232736 248 439 248 C 517.9767264 248 582 255.6111584 582 265 C 582 274.3888416 517.9767264 282 439 282 C 360.0232736 282 296 274.3888416 296 265 Z"/></g><g transform="translate(-38,-126) scale(1,1)"><path fill="none" stroke="#000000" d="M 296 265 C 296 255.6111584 360.0232736 248 439 248 C 517.9767264 248 582 255.6111584 582 265 C 582 274.3888416 517.9767264 282 439 282 C 360.0232736 282 296 274.3888416 296 265 Z" stroke-miterlimit="10"/></g><g transform="translate(-38,-126) scale(1,1)"><g><path fill="none" stroke="none"/><text fill="#000000" stroke="none" font-family="Arial" font-size="13px" font-style="normal" font-weight="bold" text-decoration="none" x="354.446044921875" y="272">enroll new hire in benefit plan</text></g></g><g transform="translate(-38,-126) scale(1,1)"><path fill="#C0C0C0" stroke="none" d="M 351 552 C 351 542.6111584 400.02481439999997 535 460.5 535 C 520.9751856 535 570 542.6111584 570 552 C 570 561.3888416 520.9751856 569 460.5 569 C 400.02481439999997 569 351 561.3888416 351 552 Z" opacity="0.2"/></g><g transform="translate(-38,-126) scale(1,1)"><path fill="#2b2bff" stroke="none" d="M 344 545 C 344 535.6111584 393.02481439999997 528 453.5 528 C 513.9751856 528 563 535.6111584 563 545 C 563 554.3888416 513.9751856 562 453.5 562 C 393.02481439999997 562 344 554.3888416 344 545 Z"/></g><g transform="translate(-38,-126) scale(1,1)"><path fill="none" stroke="#000000" d="M 344 545 C 344 535.6111584 393.02481439999997 528 453.5 528 C 513.9751856 528 563 535.6111584 563 545 C 563 554.3888416 513.9751856 562 453.5 562 C 393.02481439999997 562 344 554.3888416 344 545 Z" stroke-miterlimit="10"/></g><g transform="translate(-38,-126) scale(1,1)"><g><path fill="none" stroke="none"/><text fill="#000000" stroke="none" font-family="Arial" font-size="13px" font-style="normal" font-weight="bold" text-decoration="none" x="386.671875" y="552">Complete payroll forms</text></g></g><g transform="translate(-38,-126) scale(1,1)"><path fill="none" stroke="#000000" d="M 727 477 L 624 496 L 516 527" stroke-miterlimit="10"/></g><g transform="translate(-38,-126) scale(1,1)"><path fill="none" stroke="#000000" d="M 524.6068441601752 520.1500194451037 L 516 527 L 526.9296255716389 528.2422901689126" stroke-miterlimit="10"/></g><g transform="translate(-38,-126) scale(1,1)"><path fill="#C0C0C0" stroke="none" d="M 319 632 C 319 622.6111584 373.845112 615 441.5 615 C 509.154888 615 564 622.6111584 564 632 C 564 641.3888416 509.154888 649 441.5 649 C 373.845112 649 319 641.3888416 319 632 Z" opacity="0.2"/></g><g transform="translate(-38,-126) scale(1,1)"><path fill="#ffffff" stroke="none" d="M 312 625 C 312 615.6111584 366.845112 608 434.5 608 C 502.154888 608 557 615.6111584 557 625 C 557 634.3888416 502.154888 642 434.5 642 C 366.845112 642 312 634.3888416 312 625 Z"/></g><g transform="translate(-38,-126) scale(1,1)"><path fill="none" stroke="#000000" d="M 312 625 C 312 615.6111584 366.845112 608 434.5 608 C 502.154888 608 557 615.6111584 557 625 C 557 634.3888416 502.154888 642 434.5 642 C 366.845112 642 312 634.3888416 312 625 Z" stroke-miterlimit="10"/></g><g transform="translate(-38,-126) scale(1,1)"><g><path fill="none" stroke="none"/><text fill="#000000" stroke="none" font-family="Arial" font-size="13px" font-style="normal" font-weight="bold" text-decoration="none" x="360.791015625" y="632">Submit legal identification</text></g></g><g transform="translate(-38,-126) scale(1,1)"><path fill="#C0C0C0" stroke="none" d="M 279 712 C 279 702.6111584 347.276568 695 431.5 695 C 515.723432 695 584 702.6111584 584 712 C 584 721.3888416 515.723432 729 431.5 729 C 347.276568 729 279 721.3888416 279 712 Z" opacity="0.2"/></g><g transform="translate(-38,-126) scale(1,1)"><path fill="#ffffff" stroke="none" d="M 272 705 C 272 695.6111584 340.276568 688 424.5 688 C 508.723432 688 577 695.6111584 577 705 C 577 714.3888416 508.723432 722 424.5 722 C 340.276568 722 272 714.3888416 272 705 Z"/></g><g transform="translate(-38,-126) scale(1,1)"><path fill="none" stroke="#000000" d="M 272 705 C 272 695.6111584 340.276568 688 424.5 688 C 508.723432 688 577 695.6111584 577 705 C 577 714.3888416 508.723432 722 424.5 722 C 340.276568 722 272 714.3888416 272 705 Z" stroke-miterlimit="10"/></g><g transform="translate(-38,-126) scale(1,1)"><g><path fill="none" stroke="none"/><text fill="#000000" stroke="none" font-family="Arial" font-size="13px" font-style="normal" font-weight="bold" text-decoration="none" x="329.4755859375" y="712">Submit nondisclosure agreement</text></g></g><g transform="translate(-38,-126) scale(1,1)"><path fill="none" stroke="#000000" d="M 767 512 L 792 656 L 559 687" stroke-miterlimit="10"/></g><g transform="translate(-38,-126) scale(1,1)"><path fill="none" stroke="#000000" d="M 568.5187316304942 681.486947474708 L 559 687 L 569.6290765098889 689.8324428585457" stroke-miterlimit="10"/></g><g transform="translate(-38,-126) scale(1,1)"><path fill="none" stroke="#000000" d="M 727 504 L 656 576 L 516 607" stroke-miterlimit="10"/></g><g transform="translate(-38,-126) scale(1,1)"><path fill="none" stroke="#000000" d="M 525.0122724993589 600.6929448712335 L 516 607 L 526.8324004490659 608.9128775473296" stroke-miterlimit="10"/></g><g transform="translate(-38,-126) scale(1,1)"><path fill="#C0C0C0" stroke="none" d="M 295 472 C 295 462.6111584 344.02481439999997 455 404.5 455 C 464.97518560000003 455 514 462.6111584 514 472 C 514 481.3888416 464.97518560000003 489 404.5 489 C 344.02481439999997 489 295 481.3888416 295 472 Z" opacity="0.2"/></g><g transform="translate(-38,-126) scale(1,1)"><path fill="#2b2bff" stroke="none" d="M 288 465 C 288 455.6111584 337.02481439999997 448 397.5 448 C 457.97518560000003 448 507 455.6111584 507 465 C 507 474.3888416 457.97518560000003 482 397.5 482 C 337.02481439999997 482 288 474.3888416 288 465 Z"/></g><g transform="translate(-38,-126) scale(1,1)"><path fill="none" stroke="#000000" d="M 288 465 C 288 455.6111584 337.02481439999997 448 397.5 448 C 457.97518560000003 448 507 455.6111584 507 465 C 507 474.3888416 457.97518560000003 482 397.5 482 C 337.02481439999997 482 288 474.3888416 288 465 Z" stroke-miterlimit="10"/></g><g transform="translate(-38,-126) scale(1,1)"><g><path fill="none" stroke="none"/><text fill="#000000" stroke="none" font-family="Arial" font-size="13px" font-style="normal" font-weight="bold" text-decoration="none" x="329.215087890625" y="472">create employee record</text></g></g><g transform="translate(-38,-126) scale(1,1)"><path fill="none" stroke="#000000" d="M 174 407 L 328 447" stroke-miterlimit="10"/></g><g transform="translate(-38,-126) scale(1,1)"><path fill="none" stroke="#000000" d="M 317.1054467484693 448.5194437961184 L 328 447 L 319.2219785059775 440.3707965297119" stroke-miterlimit="10"/></g><g transform="translate(-38,-126) scale(1,1)"><path fill="#C0C0C0" stroke="none" d="M 351 384 C 351 374.6111584 411.8892672 367 487 367 C 562.1107328 367 623 374.6111584 623 384 C 623 393.3888416 562.1107328 401 487 401 C 411.8892672 401 351 393.3888416 351 384 Z" opacity="0.2"/></g><g transform="translate(-38,-126) scale(1,1)"><path fill="#ffffff" stroke="none" d="M 344 377 C 344 367.6111584 404.8892672 360 480 360 C 555.1107328 360 616 367.6111584 616 377 C 616 386.3888416 555.1107328 394 480 394 C 404.8892672 394 344 386.3888416 344 377 Z"/></g><g transform="translate(-38,-126) scale(1,1)"><path fill="none" stroke="#000000" d="M 344 377 C 344 367.6111584 404.8892672 360 480 360 C 555.1107328 360 616 367.6111584 616 377 C 616 386.3888416 555.1107328 394 480 394 C 404.8892672 394 344 386.3888416 344 377 Z" stroke-miterlimit="10"/></g><g transform="translate(-38,-126) scale(1,1)"><g><path fill="none" stroke="none"/><text fill="#000000" stroke="none" font-family="Arial" font-size="13px" font-style="normal" font-weight="bold" text-decoration="none" x="393.998779296875" y="384">enter employee personal data</text></g></g><g transform="translate(-38,-126) scale(1,1)"><path fill="none" stroke="#000000" d="M 408 247 L 304 187" stroke-miterlimit="10" stroke-dasharray="3"/></g><g transform="translate(-38,-126) scale(1,1)"><path fill="none" stroke="#000000" d="M 314.9063530184168 188.43229320939207 L 304 187 L 310.6991719363283 195.72474041834548" stroke-miterlimit="10"/></g><g transform="translate(-38,-126) scale(1,1)"><g><path fill="none" stroke="none"/><text fill="#000000" stroke="none" font-family="Arial" font-size="13px" font-style="normal" font-weight="normal" text-decoration="none" x="314" y="249">«include»</text></g></g><g transform="translate(-38,-126) scale(1,1)"><path fill="none" stroke="#000000" d="M 463 247 L 567 171" stroke-miterlimit="10" stroke-dasharray="3"/></g><g transform="translate(-38,-126) scale(1,1)"><path fill="none" stroke="#000000" d="M 561.2784318507412 180.39487402328456 L 567 171 L 556.3110612323802 173.59741949289597" stroke-miterlimit="10"/></g><g transform="translate(-38,-126) scale(1,1)"><g><path fill="none" stroke="none"/><text fill="#000000" stroke="none" font-family="Arial" font-size="13px" font-style="normal" font-weight="normal" text-decoration="none" x="470" y="191">«include»</text></g></g><g transform="translate(-38,-126) scale(1,1)"><path fill="none" stroke="#000000" d="M 414 447 L 463 395" stroke-miterlimit="10" stroke-dasharray="3"/></g><g transform="translate(-38,-126) scale(1,1)"><path fill="none" stroke="#000000" d="M 459.09406653055873 405.2831747885708 L 463 395 L 452.9667853317696 399.50939058201953" stroke-miterlimit="10"/></g><g transform="translate(-38,-126) scale(1,1)"><g><path fill="none" stroke="none"/><text fill="#000000" stroke="none" font-family="Arial" font-size="13px" font-style="normal" font-weight="normal" text-decoration="none" x="389" y="407">«include»</text></g></g><g transform="translate(-38,-126) scale(1,1)"><path fill="none" stroke="#000000" d="M 446 283 L 473 359" stroke-miterlimit="10" stroke-dasharray="3"/></g><g transform="translate(-38,-126) scale(1,1)"><path fill="none" stroke="#000000" d="M 465.63125618109956 350.8328943602145 L 473 359 L 473.56452705738826 348.0144954962698" stroke-miterlimit="10"/></g><g transform="translate(-38,-126) scale(1,1)"><g><path fill="none" stroke="none"/><text fill="#000000" stroke="none" font-family="Arial" font-size="13px" font-style="normal" font-weight="normal" text-decoration="none" x="460" y="317">«include»</text></g></g><g transform="translate(-38,-126) scale(1,1)"><path fill="#ffffff" stroke="none" d="M 748.2743405539773 177.68 C 748.2743405539773 172.886167936 752.1601828789227 169 756.95361328125 169 C 761.7470436835773 169 765.6328860085227 172.886167936 765.6328860085227 177.68 C 765.6328860085227 182.47383206400002 761.7470436835773 186.36 756.95361328125 186.36 C 752.1601828789227 186.36 748.2743405539773 182.47383206400002 748.2743405539773 177.68 Z"/></g><g transform="translate(-38,-126) scale(1,1)"><path fill="none" stroke="#000000" d="M 748.2743405539773 177.68 C 748.2743405539773 172.886167936 752.1601828789227 169 756.95361328125 169 C 761.7470436835773 169 765.6328860085227 172.886167936 765.6328860085227 177.68 C 765.6328860085227 182.47383206400002 761.7470436835773 186.36 756.95361328125 186.36 C 752.1601828789227 186.36 748.2743405539773 182.47383206400002 748.2743405539773 177.68 Z" stroke-miterlimit="10"/></g><g transform="translate(-38,-126) scale(1,1)"><path fill="none" stroke="#000000" d="M 756.95361328125 186.36 L 756.95361328125 203.64" stroke-miterlimit="10"/></g><g transform="translate(-38,-126) scale(1,1)"><path fill="none" stroke="#000000" d="M 747.7637950994318 192.84 L 766.1434314630682 192.84" stroke-miterlimit="10"/></g><g transform="translate(-38,-126) scale(1,1)"><path fill="none" stroke="#000000" d="M 756.95361328125 203.64 L 744.1899769176136 221" stroke-miterlimit="10"/></g><g transform="translate(-38,-126) scale(1,1)"><path fill="none" stroke="#000000" d="M 756.95361328125 203.64 L 769.7172496448864 221" stroke-miterlimit="10"/></g><g transform="translate(-38,-126) scale(1,1)"><g><path fill="none" stroke="none"/><text fill="#000000" stroke="none" font-family="Arial" font-size="13px" font-style="normal" font-weight="bold" text-decoration="none" x="728.049560546875" y="241.5">Employee</text></g></g><g transform="translate(-38,-126) scale(1,1)"><g><path fill="none" stroke="none"/><text fill="#000000" stroke="none" font-family="Arial" font-size="13px" font-style="normal" font-weight="normal" text-decoration="none" x="716.5" y="256.5">(from Model1)</text></g></g><g transform="translate(-38,-126) scale(1,1)"><path fill="none" stroke="#000000" d="M 759 431 L 757 263" stroke-miterlimit="10"/></g><g transform="translate(-38,-126) scale(1,1)"><path fill="#FFFFFF" stroke="none" d="M 765.6603902929767 283.22369006816797 L 757 263 L 748.8235123160694 283.4241290917026"/></g><g transform="translate(-38,-126) scale(1,1)"><path fill="none" stroke="#000000" d="M 765.6603902929767 283.22369006816797 L 757 263 L 748.8235123160694 283.4241290917026 L 765.6603902929767 283.22369006816797" stroke-miterlimit="10"/></g><g transform="translate(-38,-126) scale(1,1)"><path fill="none" stroke="#000000" d="M 711 222 L 553 247" stroke-miterlimit="10"/></g><g transform="translate(-38,-126) scale(1,1)"><path fill="none" stroke="#000000" d="M 562.3799197061757 241.25394863356604 L 553 247 L 563.6956767174738 249.56953294497043" stroke-miterlimit="10"/></g><g transform="translate(-38,-126) scale(1,1)"><path fill="#C0C0C0" stroke="none" d="M 55 586.5 C 55 571.312168 103.35324159999999 559 163 559 C 222.6467584 559 271 571.312168 271 586.5 C 271 601.687832 222.6467584 614 163 614 C 103.35324159999999 614 55 601.687832 55 586.5 Z" opacity="0.2"/></g><g transform="translate(-38,-126) scale(1,1)"><path fill="#ffffff" stroke="none" d="M 48 579.5 C 48 564.312168 96.35324159999999 552 156 552 C 215.6467584 552 264 564.312168 264 579.5 C 264 594.687832 215.6467584 607 156 607 C 96.35324159999999 607 48 594.687832 48 579.5 Z"/></g><g transform="translate(-38,-126) scale(1,1)"><path fill="none" stroke="#000000" d="M 48 579.5 C 48 564.312168 96.35324159999999 552 156 552 C 215.6467584 552 264 564.312168 264 579.5 C 264 594.687832 215.6467584 607 156 607 C 96.35324159999999 607 48 594.687832 48 579.5 Z" stroke-miterlimit="10"/></g><g transform="translate(-38,-126) scale(1,1)"><g><path fill="none" stroke="none"/><text fill="#000000" stroke="none" font-family="Arial" font-size="13px" font-style="normal" font-weight="bold" text-decoration="none" x="89.517822265625" y="579">create action on record</text></g></g><g transform="translate(-38,-126) scale(1,1)"><g><path fill="none" stroke="none"/><text fill="#000000" stroke="none" font-family="Arial" font-size="13px" font-style="normal" font-weight="normal" text-decoration="none" x="115.54638671875" y="594">(from Model1)</text></g></g><g transform="translate(-38,-126) scale(1,1)"><path fill="none" stroke="#000000" d="M 359 483 L 215 551" stroke-miterlimit="10" stroke-dasharray="3"/></g><g transform="translate(-38,-126) scale(1,1)"><path fill="none" stroke="#000000" d="M 222.3920943627811 542.8540230216541 L 215 551 L 225.98707561187118 550.4669244903156" stroke-miterlimit="10"/></g><g transform="translate(-38,-126) scale(1,1)"><g><path fill="none" stroke="none"/><text fill="#000000" stroke="none" font-family="Arial" font-size="13px" font-style="normal" font-weight="normal" text-decoration="none" x="272" y="551">«include»</text></g></g></g></svg>