<svg version="1.1" xmlns="http://www.w3.org/2000/svg" xmlns:xlink="http://www.w3.org/1999/xlink" width="845.9326171875" height="739"><defs/><g><g transform="translate(-46,-142) scale(1,1)"><path fill="#ffffff" stroke="none" d="M 137.62980930397728 329.68 C 137.62980930397728 324.886167936 141.51565162892274 321 146.30908203125 321 C 151.10251243357726 321 154.98835475852272 324.886167936 154.98835475852272 329.68 C 154.98835475852272 334.473832064 151.10251243357726 338.36 146.30908203125 338.36 C 141.51565162892274 338.36 137.62980930397728 334.473832064 137.62980930397728 329.68 Z"/></g><g transform="translate(-46,-142) scale(1,1)"><path fill="none" stroke="#000000" d="M 137.62980930397728 329.68 C 137.62980930397728 324.886167936 141.51565162892274 321 146.30908203125 321 C 151.10251243357726 321 154.98835475852272 324.886167936 154.98835475852272 329.68 C 154.98835475852272 334.473832064 151.10251243357726 338.36 146.30908203125 338.36 C 141.51565162892274 338.36 137.62980930397728 334.473832064 137.62980930397728 329.68 Z" stroke-miterlimit="10"/></g><g transform="translate(-46,-142) scale(1,1)"><path fill="none" stroke="#000000" d="M 146.30908203125 338.36 L 146.30908203125 355.64" stroke-miterlimit="10"/></g><g transform="translate(-46,-142) scale(1,1)"><path fill="none" stroke="#000000" d="M 137.11926384943183 344.84 L 155.49890021306817 344.84" stroke-miterlimit="10"/></g><g transform="translate(-46,-142) scale(1,1)"><path fill="none" stroke="#000000" d="M 146.30908203125 355.64 L 133.54544566761365 373" stroke-miterlimit="10"/></g><g transform="translate(-46,-142) scale(1,1)"><path fill="none" stroke="#000000" d="M 146.30908203125 355.64 L 159.07271839488635 373" stroke-miterlimit="10"/></g><g transform="translate(-46,-142) scale(1,1)"><g><path fill="none" stroke="none"/><text fill="#000000" stroke="none" font-family="Arial" font-size="13px" font-style="normal" font-weight="bold" text-decoration="none" x="96.825927734375" y="393.5">HR Administrator</text></g></g><g transform="translate(-46,-142) scale(1,1)"><g><path fill="none" stroke="none"/><text fill="#000000" stroke="none" font-family="Arial" font-size="13px" font-style="normal" font-weight="normal" text-decoration="none" x="105.85546875" y="408.5">(from Model1)</text></g></g><g transform="translate(-46,-142) scale(1,1)"><path fill="#C0C0C0" stroke="none" d="M 247 377 C 247 362.6405952 284.6080768 351 331 351 C 377.3919232 351 415 362.6405952 415 377 C 415 391.3594048 377.3919232 403 331 403 C 284.6080768 403 247 391.3594048 247 377 Z" opacity="0.2"/></g><g transform="translate(-46,-142) scale(1,1)"><path fill="#2b2bff" stroke="none" d="M 240 370 C 240 355.6405952 277.6080768 344 324 344 C 370.3919232 344 408 355.6405952 408 370 C 408 384.3594048 370.3919232 396 324 396 C 277.6080768 396 240 384.3594048 240 370 Z"/></g><g transform="translate(-46,-142) scale(1,1)"><path fill="none" stroke="#000000" d="M 240 370 C 240 355.6405952 277.6080768 344 324 344 C 370.3919232 344 408 355.6405952 408 370 C 408 384.3594048 370.3919232 396 324 396 C 277.6080768 396 240 384.3594048 240 370 Z" stroke-miterlimit="10"/></g><g transform="translate(-46,-142) scale(1,1)"><g><path fill="none" stroke="none"/><text fill="#000000" stroke="none" font-family="Arial" font-size="13px" font-style="normal" font-weight="bold" text-decoration="none" x="295.457763671875" y="370.5">dissolving</text><text fill="#000000" stroke="none" font-family="Arial" font-size="13px" font-style="normal" font-weight="bold" text-decoration="none" x="286.425048828125" y="383.5">existing units</text></g></g><g transform="translate(-46,-142) scale(1,1)"><path fill="#C0C0C0" stroke="none" d="M 511 353 C 511 338.6405952 534.2811904 327 563 327 C 591.7188096 327 615 338.6405952 615 353 C 615 367.3594048 591.7188096 379 563 379 C 534.2811904 379 511 367.3594048 511 353 Z" opacity="0.2"/></g><g transform="translate(-46,-142) scale(1,1)"><path fill="#2b2bff" stroke="none" d="M 504 346 C 504 331.6405952 527.2811904 320 556 320 C 584.7188096 320 608 331.6405952 608 346 C 608 360.3594048 584.7188096 372 556 372 C 527.2811904 372 504 360.3594048 504 346 Z"/></g><g transform="translate(-46,-142) scale(1,1)"><path fill="none" stroke="#000000" d="M 504 346 C 504 331.6405952 527.2811904 320 556 320 C 584.7188096 320 608 331.6405952 608 346 C 608 360.3594048 584.7188096 372 556 372 C 527.2811904 372 504 360.3594048 504 346 Z" stroke-miterlimit="10"/></g><g transform="translate(-46,-142) scale(1,1)"><g><path fill="none" stroke="none"/><text fill="#000000" stroke="none" font-family="Arial" font-size="13px" font-style="normal" font-weight="bold" text-decoration="none" x="532.87548828125" y="346.5">creating</text><text fill="#000000" stroke="none" font-family="Arial" font-size="13px" font-style="normal" font-weight="bold" text-decoration="none" x="528.5400390625" y="359.5">new units</text></g></g><g transform="translate(-46,-142) scale(1,1)"><path fill="#C0C0C0" stroke="none" d="M 311 192 C 311 182.6111584 382.634432 175 471 175 C 559.3655679999999 175 631 182.6111584 631 192 C 631 201.3888416 559.3655679999999 209 471 209 C 382.634432 209 311 201.3888416 311 192 Z" opacity="0.2"/></g><g transform="translate(-46,-142) scale(1,1)"><path fill="#2b2bff" stroke="none" d="M 304 185 C 304 175.6111584 375.634432 168 464 168 C 552.3655679999999 168 624 175.6111584 624 185 C 624 194.3888416 552.3655679999999 202 464 202 C 375.634432 202 304 194.3888416 304 185 Z"/></g><g transform="translate(-46,-142) scale(1,1)"><path fill="none" stroke="#000000" d="M 304 185 C 304 175.6111584 375.634432 168 464 168 C 552.3655679999999 168 624 175.6111584 624 185 C 624 194.3888416 552.3655679999999 202 464 202 C 375.634432 202 304 194.3888416 304 185 Z" stroke-miterlimit="10"/></g><g transform="translate(-46,-142) scale(1,1)"><g><path fill="none" stroke="none"/><text fill="#000000" stroke="none" font-family="Arial" font-size="13px" font-style="normal" font-weight="bold" text-decoration="none" x="363.19921875" y="192">transfer employee to different team</text></g></g><g transform="translate(-46,-142) scale(1,1)"><path fill="#C0C0C0" stroke="none" d="M 399 842.5 C 399 822.8938896 431.2354944 807 471 807 C 510.7645056 807 543 822.8938896 543 842.5 C 543 862.1061104 510.7645056 878 471 878 C 431.2354944 878 399 862.1061104 399 842.5 Z" opacity="0.2"/></g><g transform="translate(-46,-142) scale(1,1)"><path fill="#ffffff" stroke="none" d="M 392 835.5 C 392 815.8938896 424.2354944 800 464 800 C 503.7645056 800 536 815.8938896 536 835.5 C 536 855.1061104 503.7645056 871 464 871 C 424.2354944 871 392 855.1061104 392 835.5 Z"/></g><g transform="translate(-46,-142) scale(1,1)"><path fill="none" stroke="#000000" d="M 392 835.5 C 392 815.8938896 424.2354944 800 464 800 C 503.7645056 800 536 815.8938896 536 835.5 C 536 855.1061104 503.7645056 871 464 871 C 424.2354944 871 392 855.1061104 392 835.5 Z" stroke-miterlimit="10"/></g><g transform="translate(-46,-142) scale(1,1)"><g><path fill="none" stroke="none"/><text fill="#000000" stroke="none" font-family="Arial" font-size="13px" font-style="normal" font-weight="bold" text-decoration="none" x="450.996826171875" y="829.5">view</text><text fill="#000000" stroke="none" font-family="Arial" font-size="13px" font-style="normal" font-weight="bold" text-decoration="none" x="428.58642578125" y="842.5">organization</text><text fill="#000000" stroke="none" font-family="Arial" font-size="13px" font-style="normal" font-weight="bold" text-decoration="none" x="449.549560546875" y="855.5">chart</text></g></g><g transform="translate(-46,-142) scale(1,1)"><path fill="#C0C0C0" stroke="none" d="M 351 674.5 C 351 654.8938896 383.2354944 639 423 639 C 462.7645056 639 495 654.8938896 495 674.5 C 495 694.1061104 462.7645056 710 423 710 C 383.2354944 710 351 694.1061104 351 674.5 Z" opacity="0.2"/></g><g transform="translate(-46,-142) scale(1,1)"><path fill="#ffffff" stroke="none" d="M 344 667.5 C 344 647.8938896 376.2354944 632 416 632 C 455.7645056 632 488 647.8938896 488 667.5 C 488 687.1061104 455.7645056 703 416 703 C 376.2354944 703 344 687.1061104 344 667.5 Z"/></g><g transform="translate(-46,-142) scale(1,1)"><path fill="none" stroke="#000000" d="M 344 667.5 C 344 647.8938896 376.2354944 632 416 632 C 455.7645056 632 488 647.8938896 488 667.5 C 488 687.1061104 455.7645056 703 416 703 C 376.2354944 703 344 687.1061104 344 667.5 Z" stroke-miterlimit="10"/></g><g transform="translate(-46,-142) scale(1,1)"><g><path fill="none" stroke="none"/><text fill="#000000" stroke="none" font-family="Arial" font-size="13px" font-style="normal" font-weight="bold" text-decoration="none" x="396.119140625" y="661.5">update</text><text fill="#000000" stroke="none" font-family="Arial" font-size="13px" font-style="normal" font-weight="bold" text-decoration="none" x="380.58642578125" y="674.5">organization</text><text fill="#000000" stroke="none" font-family="Arial" font-size="13px" font-style="normal" font-weight="bold" text-decoration="none" x="401.549560546875" y="687.5">chart</text></g></g><g transform="translate(-46,-142) scale(1,1)"><path fill="none" stroke="#000000" d="M 189 415 L 384 631" stroke-miterlimit="10"/></g><g transform="translate(-46,-142) scale(1,1)"><path fill="none" stroke="#000000" d="M 374.06536964764206 626.277382107135 L 384 631 L 380.31455064626374 620.6357603722682" stroke-miterlimit="10"/></g><g transform="translate(-46,-142) scale(1,1)"><path fill="none" stroke="#000000" d="M 179 415 L 440 799" stroke-miterlimit="10"/></g><g transform="translate(-46,-142) scale(1,1)"><path fill="none" stroke="#000000" d="M 430.8057546753506 792.9613037077393 L 440 799 L 437.76868988083135 788.2286836852641" stroke-miterlimit="10"/></g><g transform="translate(-46,-142) scale(1,1)"><path fill="#ffffff" stroke="none" d="M 804.2743405539773 161.68 C 804.2743405539773 156.886167936 808.1601828789227 153 812.95361328125 153 C 817.7470436835773 153 821.6328860085227 156.886167936 821.6328860085227 161.68 C 821.6328860085227 166.47383206400002 817.7470436835773 170.36 812.95361328125 170.36 C 808.1601828789227 170.36 804.2743405539773 166.47383206400002 804.2743405539773 161.68 Z"/></g><g transform="translate(-46,-142) scale(1,1)"><path fill="none" stroke="#000000" d="M 804.2743405539773 161.68 C 804.2743405539773 156.886167936 808.1601828789227 153 812.95361328125 153 C 817.7470436835773 153 821.6328860085227 156.886167936 821.6328860085227 161.68 C 821.6328860085227 166.47383206400002 817.7470436835773 170.36 812.95361328125 170.36 C 808.1601828789227 170.36 804.2743405539773 166.47383206400002 804.2743405539773 161.68 Z" stroke-miterlimit="10"/></g><g transform="translate(-46,-142) scale(1,1)"><path fill="none" stroke="#000000" d="M 812.95361328125 170.36 L 812.95361328125 187.64" stroke-miterlimit="10"/></g><g transform="translate(-46,-142) scale(1,1)"><path fill="none" stroke="#000000" d="M 803.7637950994318 176.84 L 822.1434314630682 176.84" stroke-miterlimit="10"/></g><g transform="translate(-46,-142) scale(1,1)"><path fill="none" stroke="#000000" d="M 812.95361328125 187.64 L 800.1899769176136 205" stroke-miterlimit="10"/></g><g transform="translate(-46,-142) scale(1,1)"><path fill="none" stroke="#000000" d="M 812.95361328125 187.64 L 825.7172496448864 205" stroke-miterlimit="10"/></g><g transform="translate(-46,-142) scale(1,1)"><g><path fill="none" stroke="none"/><text fill="#000000" stroke="none" font-family="Arial" font-size="13px" font-style="normal" font-weight="bold" text-decoration="none" x="787.299560546875" y="225.5">Manager</text></g></g><g transform="translate(-46,-142) scale(1,1)"><g><path fill="none" stroke="none"/><text fill="#000000" stroke="none" font-family="Arial" font-size="13px" font-style="normal" font-weight="normal" text-decoration="none" x="772.5" y="240.5">(from Model1)</text></g></g><g transform="translate(-46,-142) scale(1,1)"><path fill="none" stroke="#000000" d="M 767 197 L 625 191" stroke-miterlimit="10"/></g><g transform="translate(-46,-142) scale(1,1)"><path fill="none" stroke="#000000" d="M 635.3313233518155 187.22326095682638 L 625 191 L 634.9759065888998 195.63479101249962" stroke-miterlimit="10"/></g><g transform="translate(-46,-142) scale(1,1)"><path fill="#C0C0C0" stroke="none" d="M 311 304 C 311 294.6111584 369.8745488 287 442.5 287 C 515.1254512 287 574 294.6111584 574 304 C 574 313.3888416 515.1254512 321 442.5 321 C 369.8745488 321 311 313.3888416 311 304 Z" opacity="0.2"/></g><g transform="translate(-46,-142) scale(1,1)"><path fill="#ffffff" stroke="none" d="M 304 297 C 304 287.6111584 362.8745488 280 435.5 280 C 508.1254512 280 567 287.6111584 567 297 C 567 306.3888416 508.1254512 314 435.5 314 C 362.8745488 314 304 306.3888416 304 297 Z"/></g><g transform="translate(-46,-142) scale(1,1)"><path fill="none" stroke="#000000" d="M 304 297 C 304 287.6111584 362.8745488 280 435.5 280 C 508.1254512 280 567 287.6111584 567 297 C 567 306.3888416 508.1254512 314 435.5 314 C 362.8745488 314 304 306.3888416 304 297 Z" stroke-miterlimit="10"/></g><g transform="translate(-46,-142) scale(1,1)"><g><path fill="none" stroke="none"/><text fill="#000000" stroke="none" font-family="Arial" font-size="13px" font-style="italic" font-weight="bold" text-decoration="none" x="354.196044921875" y="304">manage organizational units</text></g></g><g transform="translate(-46,-142) scale(1,1)"><path fill="none" stroke="#000000" d="M 365 343 L 408 315" stroke-miterlimit="10"/></g><g transform="translate(-46,-142) scale(1,1)"><path fill="#FFFFFF" stroke="none" d="M 395.5614376759069 333.1461336738616 L 408 315 L 386.3733540593172 319.0358624055274"/></g><g transform="translate(-46,-142) scale(1,1)"><path fill="none" stroke="#000000" d="M 395.5614376759069 333.1461336738616 L 408 315 L 386.3733540593172 319.0358624055274 L 395.5614376759069 333.1461336738616" stroke-miterlimit="10"/></g><g transform="translate(-46,-142) scale(1,1)"><path fill="none" stroke="#000000" d="M 503 325 L 479 315" stroke-miterlimit="10"/></g><g transform="translate(-46,-142) scale(1,1)"><path fill="#FFFFFF" stroke="none" d="M 500.9999518571646 315.04602480245063 L 479 315 L 494.52377069406305 330.58885959389426"/></g><g transform="translate(-46,-142) scale(1,1)"><path fill="none" stroke="#000000" d="M 500.9999518571646 315.04602480245063 L 479 315 L 494.52377069406305 330.58885959389426 L 500.9999518571646 315.04602480245063" stroke-miterlimit="10"/></g><g transform="translate(-46,-142) scale(1,1)"><path fill="#C0C0C0" stroke="none" d="M 391 424 C 391 414.6111584 418.3106272 407 452 407 C 485.6893728 407 513 414.6111584 513 424 C 513 433.3888416 485.6893728 441 452 441 C 418.3106272 441 391 433.3888416 391 424 Z" opacity="0.2"/></g><g transform="translate(-46,-142) scale(1,1)"><path fill="#2b2bff" stroke="none" d="M 384 417 C 384 407.6111584 411.3106272 400 445 400 C 478.6893728 400 506 407.6111584 506 417 C 506 426.3888416 478.6893728 434 445 434 C 411.3106272 434 384 426.3888416 384 417 Z"/></g><g transform="translate(-46,-142) scale(1,1)"><path fill="none" stroke="#000000" d="M 384 417 C 384 407.6111584 411.3106272 400 445 400 C 478.6893728 400 506 407.6111584 506 417 C 506 426.3888416 478.6893728 434 445 434 C 411.3106272 434 384 426.3888416 384 417 Z" stroke-miterlimit="10"/></g><g transform="translate(-46,-142) scale(1,1)"><g><path fill="none" stroke="none"/><text fill="#000000" stroke="none" font-family="Arial" font-size="13px" font-style="normal" font-weight="bold" text-decoration="none" x="409.583251953125" y="424">update units</text></g></g><g transform="translate(-46,-142) scale(1,1)"><path fill="none" stroke="#000000" d="M 444 399 L 437 315" stroke-miterlimit="10"/></g><g transform="translate(-46,-142) scale(1,1)"><path fill="#FFFFFF" stroke="none" d="M 447.07788254832633 334.5559781995721 L 437 315 L 430.29797429226943 335.9543038875768"/></g><g transform="translate(-46,-142) scale(1,1)"><path fill="none" stroke="#000000" d="M 447.07788254832633 334.5559781995721 L 437 315 L 430.29797429226943 335.9543038875768 L 447.07788254832633 334.5559781995721" stroke-miterlimit="10"/></g><g transform="translate(-46,-142) scale(1,1)"><path fill="none" stroke="#000000" d="M 206 353 L 361 315" stroke-miterlimit="10"/></g><g transform="translate(-46,-142) scale(1,1)"><path fill="none" stroke="#000000" d="M 352.1319503609339 321.50827900439583 L 361 315 L 350.1272937464551 313.33139018217975" stroke-miterlimit="10"/></g><g transform="translate(-46,-142) scale(1,1)"><path fill="#ffffff" stroke="none" d="M 824.2870358664773 289.68 C 824.2870358664773 284.886167936 828.1728781914227 281 832.96630859375 281 C 837.7597389960773 281 841.6455813210227 284.886167936 841.6455813210227 289.68 C 841.6455813210227 294.473832064 837.7597389960773 298.36 832.96630859375 298.36 C 828.1728781914227 298.36 824.2870358664773 294.473832064 824.2870358664773 289.68 Z"/></g><g transform="translate(-46,-142) scale(1,1)"><path fill="none" stroke="#000000" d="M 824.2870358664773 289.68 C 824.2870358664773 284.886167936 828.1728781914227 281 832.96630859375 281 C 837.7597389960773 281 841.6455813210227 284.886167936 841.6455813210227 289.68 C 841.6455813210227 294.473832064 837.7597389960773 298.36 832.96630859375 298.36 C 828.1728781914227 298.36 824.2870358664773 294.473832064 824.2870358664773 289.68 Z" stroke-miterlimit="10"/></g><g transform="translate(-46,-142) scale(1,1)"><path fill="none" stroke="#000000" d="M 832.96630859375 298.36 L 832.96630859375 315.64" stroke-miterlimit="10"/></g><g transform="translate(-46,-142) scale(1,1)"><path fill="none" stroke="#000000" d="M 823.7764904119318 304.84 L 842.1561267755682 304.84" stroke-miterlimit="10"/></g><g transform="translate(-46,-142) scale(1,1)"><path fill="none" stroke="#000000" d="M 832.96630859375 315.64 L 820.2026722301136 333" stroke-miterlimit="10"/></g><g transform="translate(-46,-142) scale(1,1)"><path fill="none" stroke="#000000" d="M 832.96630859375 315.64 L 845.7299449573864 333" stroke-miterlimit="10"/></g><g transform="translate(-46,-142) scale(1,1)"><g><path fill="none" stroke="none"/><text fill="#000000" stroke="none" font-family="Arial" font-size="13px" font-style="normal" font-weight="bold" text-decoration="none" x="809.47998046875" y="353.5">Account</text><text fill="#000000" stroke="none" font-family="Arial" font-size="13px" font-style="normal" font-weight="bold" text-decoration="none" x="795.0263671875" y="366.5">Management</text><text fill="#000000" stroke="none" font-family="Arial" font-size="13px" font-style="normal" font-weight="bold" text-decoration="none" x="811.29541015625" y="379.5">System</text></g></g><g transform="translate(-46,-142) scale(1,1)"><path fill="none" stroke="#000000" d="M 568 309 L 783 328" stroke-miterlimit="10"/></g><g transform="translate(-46,-142) scale(1,1)"><path fill="none" stroke="#000000" d="M 772.5062178176235 331.2985656744768 L 783 328 L 773.2473373019353 322.9122136151587" stroke-miterlimit="10"/></g><g transform="translate(-46,-142) scale(1,1)"><path fill="#C0C0C0" stroke="none" d="M 415 482.5 C 415 462.8938896 441.862912 447 475 447 C 508.137088 447 535 462.8938896 535 482.5 C 535 502.1061104 508.137088 518 475 518 C 441.862912 518 415 502.1061104 415 482.5 Z" opacity="0.2"/></g><g transform="translate(-46,-142) scale(1,1)"><path fill="#2b2bff" stroke="none" d="M 408 475.5 C 408 455.8938896 434.862912 440 468 440 C 501.137088 440 528 455.8938896 528 475.5 C 528 495.1061104 501.137088 511 468 511 C 434.862912 511 408 495.1061104 408 475.5 Z"/></g><g transform="translate(-46,-142) scale(1,1)"><path fill="none" stroke="#000000" d="M 408 475.5 C 408 455.8938896 434.862912 440 468 440 C 501.137088 440 528 455.8938896 528 475.5 C 528 495.1061104 501.137088 511 468 511 C 434.862912 511 408 495.1061104 408 475.5 Z" stroke-miterlimit="10"/></g><g transform="translate(-46,-142) scale(1,1)"><g><path fill="none" stroke="none"/><text fill="#000000" stroke="none" font-family="Arial" font-size="13px" font-style="normal" font-weight="bold" text-decoration="none" x="449.2109375" y="469.5">assign</text><text fill="#000000" stroke="none" font-family="Arial" font-size="13px" font-style="normal" font-weight="bold" text-decoration="none" x="435.119140625" y="482.5">positions to</text><text fill="#000000" stroke="none" font-family="Arial" font-size="13px" font-style="normal" font-weight="bold" text-decoration="none" x="454.27001953125" y="495.5">units</text></g></g><g transform="translate(-46,-142) scale(1,1)"><path fill="#C0C0C0" stroke="none" d="M 455 562.5 C 455 542.8938896 487.2354944 527 527 527 C 566.7645056 527 599 542.8938896 599 562.5 C 599 582.1061104 566.7645056 598 527 598 C 487.2354944 598 455 582.1061104 455 562.5 Z" opacity="0.2"/></g><g transform="translate(-46,-142) scale(1,1)"><path fill="#2b2bff" stroke="none" d="M 448 555.5 C 448 535.8938896 480.2354944 520 520 520 C 559.7645056 520 592 535.8938896 592 555.5 C 592 575.1061104 559.7645056 591 520 591 C 480.2354944 591 448 575.1061104 448 555.5 Z"/></g><g transform="translate(-46,-142) scale(1,1)"><path fill="none" stroke="#000000" d="M 448 555.5 C 448 535.8938896 480.2354944 520 520 520 C 559.7645056 520 592 535.8938896 592 555.5 C 592 575.1061104 559.7645056 591 520 591 C 480.2354944 591 448 575.1061104 448 555.5 Z" stroke-miterlimit="10"/></g><g transform="translate(-46,-142) scale(1,1)"><g><path fill="none" stroke="none"/><text fill="#000000" stroke="none" font-family="Arial" font-size="13px" font-style="normal" font-weight="bold" text-decoration="none" x="493.98095703125" y="549.5">unassign</text><text fill="#000000" stroke="none" font-family="Arial" font-size="13px" font-style="normal" font-weight="bold" text-decoration="none" x="487.119140625" y="562.5">positions to</text><text fill="#000000" stroke="none" font-family="Arial" font-size="13px" font-style="normal" font-weight="bold" text-decoration="none" x="506.27001953125" y="575.5">units</text></g></g><g transform="translate(-46,-142) scale(1,1)"><path fill="none" stroke="#000000" d="M 206 387 L 407 455" stroke-miterlimit="10"/></g><g transform="translate(-46,-142) scale(1,1)"><path fill="none" stroke="#000000" d="M 396.0242970555423 455.73071531735866 L 407 455 L 398.7223122636636 447.755699775706" stroke-miterlimit="10"/></g><g transform="translate(-46,-142) scale(1,1)"><path fill="none" stroke="#000000" d="M 206 397 L 448 519" stroke-miterlimit="10"/></g><g transform="translate(-46,-142) scale(1,1)"><path fill="none" stroke="#000000" d="M 437.03030697360674 518.1840129249191 L 448 519 L 440.82024566765284 510.66626567935225" stroke-miterlimit="10"/></g><g transform="translate(-46,-142) scale(1,1)"><path fill="#C0C0C0" stroke="none" d="M 63 544 C 63 534.6111584 96.1309248 527 137 527 C 177.8690752 527 211 534.6111584 211 544 C 211 553.3888416 177.8690752 561 137 561 C 96.1309248 561 63 553.3888416 63 544 Z" opacity="0.2"/></g><g transform="translate(-46,-142) scale(1,1)"><path fill="#ffffff" stroke="none" d="M 56 537 C 56 527.6111584 89.1309248 520 130 520 C 170.8690752 520 204 527.6111584 204 537 C 204 546.3888416 170.8690752 554 130 554 C 89.1309248 554 56 546.3888416 56 537 Z"/></g><g transform="translate(-46,-142) scale(1,1)"><path fill="none" stroke="#000000" d="M 56 537 C 56 527.6111584 89.1309248 520 130 520 C 170.8690752 520 204 527.6111584 204 537 C 204 546.3888416 170.8690752 554 130 554 C 89.1309248 554 56 546.3888416 56 537 Z" stroke-miterlimit="10"/></g><g transform="translate(-46,-142) scale(1,1)"><g><path fill="none" stroke="none"/><text fill="#000000" stroke="none" font-family="Arial" font-size="13px" font-style="normal" font-weight="bold" text-decoration="none" x="85.550537109375" y="544">set head of unit</text></g></g><g transform="translate(-46,-142) scale(1,1)"><path fill="#C0C0C0" stroke="none" d="M 159 744 C 159 734.6111584 200.8613712 727 252.5 727 C 304.1386288 727 346 734.6111584 346 744 C 346 753.3888416 304.1386288 761 252.5 761 C 200.8613712 761 159 753.3888416 159 744 Z" opacity="0.2"/></g><g transform="translate(-46,-142) scale(1,1)"><path fill="#ffffff" stroke="none" d="M 152 737 C 152 727.6111584 193.8613712 720 245.5 720 C 297.1386288 720 339 727.6111584 339 737 C 339 746.3888416 297.1386288 754 245.5 754 C 193.8613712 754 152 746.3888416 152 737 Z"/></g><g transform="translate(-46,-142) scale(1,1)"><path fill="none" stroke="#000000" d="M 152 737 C 152 727.6111584 193.8613712 720 245.5 720 C 297.1386288 720 339 727.6111584 339 737 C 339 746.3888416 297.1386288 754 245.5 754 C 193.8613712 754 152 746.3888416 152 737 Z" stroke-miterlimit="10"/></g><g transform="translate(-46,-142) scale(1,1)"><g><path fill="none" stroke="none"/><text fill="#000000" stroke="none" font-family="Arial" font-size="13px" font-style="normal" font-weight="bold" text-decoration="none" x="188.396484375" y="744">change head of unit</text></g></g><g transform="translate(-46,-142) scale(1,1)"><path fill="none" stroke="#000000" d="M 141 415 L 132 519" stroke-miterlimit="10"/></g><g transform="translate(-46,-142) scale(1,1)"><path fill="none" stroke="#000000" d="M 128.6823441250342 508.51223763163443 L 132 519 L 137.0700309233127 509.23809514302394" stroke-miterlimit="10"/></g><g transform="translate(-46,-142) scale(1,1)"><path fill="none" stroke="#000000" d="M 159 415 L 240 719" stroke-miterlimit="10"/></g><g transform="translate(-46,-142) scale(1,1)"><path fill="none" stroke="#000000" d="M 233.3158637365251 710.2637352139888 L 240 719 L 241.45107399415176 708.0961298492922" stroke-miterlimit="10"/></g><g transform="translate(-46,-142) scale(1,1)"><path fill="#C0C0C0" stroke="none" d="M 599 682.5 C 599 667.312168 647.3532416 655 707 655 C 766.6467584 655 815 667.312168 815 682.5 C 815 697.687832 766.6467584 710 707 710 C 647.3532416 710 599 697.687832 599 682.5 Z" opacity="0.2"/></g><g transform="translate(-46,-142) scale(1,1)"><path fill="#ffffff" stroke="none" d="M 592 675.5 C 592 660.312168 640.3532416 648 700 648 C 759.6467584 648 808 660.312168 808 675.5 C 808 690.687832 759.6467584 703 700 703 C 640.3532416 703 592 690.687832 592 675.5 Z"/></g><g transform="translate(-46,-142) scale(1,1)"><path fill="none" stroke="#000000" d="M 592 675.5 C 592 660.312168 640.3532416 648 700 648 C 759.6467584 648 808 660.312168 808 675.5 C 808 690.687832 759.6467584 703 700 703 C 640.3532416 703 592 690.687832 592 675.5 Z" stroke-miterlimit="10"/></g><g transform="translate(-46,-142) scale(1,1)"><g><path fill="none" stroke="none"/><text fill="#000000" stroke="none" font-family="Arial" font-size="13px" font-style="normal" font-weight="bold" text-decoration="none" x="633.517822265625" y="675">create action on record</text></g></g><g transform="translate(-46,-142) scale(1,1)"><g><path fill="none" stroke="none"/><text fill="#000000" stroke="none" font-family="Arial" font-size="13px" font-style="normal" font-weight="normal" text-decoration="none" x="659.54638671875" y="690">(from Model1)</text></g></g><g transform="translate(-46,-142) scale(1,1)"><path fill="none" stroke="#000000" d="M 340 724 L 591 690" stroke-miterlimit="10" stroke-dasharray="3"/></g><g transform="translate(-46,-142) scale(1,1)"><path fill="none" stroke="#000000" d="M 581.494351452282 695.5355799774972 L 591 690 L 580.3642453124438 687.1927375922213" stroke-miterlimit="10"/></g><g transform="translate(-46,-142) scale(1,1)"><g><path fill="none" stroke="none"/><text fill="#000000" stroke="none" font-family="Arial" font-size="13px" font-style="normal" font-weight="normal" text-decoration="none" x="433" y="684">«include»</text></g></g><g transform="translate(-46,-142) scale(1,1)"><path fill="none" stroke="#000000" d="M 204 555 L 591 649" stroke-miterlimit="10" stroke-dasharray="3"/></g><g transform="translate(-46,-142) scale(1,1)"><path fill="none" stroke="#000000" d="M 580.1308891406227 650.6918714864219 L 591 649 L 582.1180442049209 642.5107118068111" stroke-miterlimit="10"/></g><g transform="translate(-46,-142) scale(1,1)"><g><path fill="none" stroke="none"/><text fill="#000000" stroke="none" font-family="Arial" font-size="13px" font-style="normal" font-weight="normal" text-decoration="none" x="377" y="579">«include»</text></g></g><g transform="translate(-46,-142) scale(1,1)"><path fill="none" stroke="#000000" d="M 487 203 L 704 376 L 700 647" stroke-miterlimit="10" stroke-dasharray="3"/></g><g transform="translate(-46,-142) scale(1,1)"><path fill="none" stroke="#000000" d="M 695.9409269596271 636.7763056553456 L 700 647 L 704.3590455277046 636.9005583279371" stroke-miterlimit="10"/></g><g transform="translate(-46,-142) scale(1,1)"><g><path fill="none" stroke="none"/><text fill="#000000" stroke="none" font-family="Arial" font-size="13px" font-style="normal" font-weight="normal" text-decoration="none" x="706" y="383">«include»</text></g></g><g transform="translate(-46,-142) scale(1,1)"><path fill="none" stroke="#000000" d="M 448 315 L 680 647" stroke-miterlimit="10" stroke-dasharray="3"/></g><g transform="translate(-46,-142) scale(1,1)"><path fill="none" stroke="#000000" d="M 670.7283032079214 641.0809089721682 L 680 647 L 677.629349729456 636.2584909209753" stroke-miterlimit="10"/></g><g transform="translate(-46,-142) scale(1,1)"><g><path fill="none" stroke="none"/><text fill="#000000" stroke="none" font-family="Arial" font-size="13px" font-style="normal" font-weight="normal" text-decoration="none" x="561" y="470">«include»</text></g></g></g></svg>