<svg version="1.1" xmlns="http://www.w3.org/2000/svg" xmlns:xlink="http://www.w3.org/1999/xlink" width="797.9072265625" height="691"><defs/><g><g transform="translate(-22,-6) scale(1,1)"><path fill="#ffffff" stroke="none" d="M 81.62980930397727 201.68 C 81.62980930397727 196.886167936 85.51565162892273 193 90.30908203125 193 C 95.10251243357727 193 98.98835475852273 196.886167936 98.98835475852273 201.68 C 98.98835475852273 206.47383206400002 95.10251243357727 210.36 90.30908203125 210.36 C 85.51565162892273 210.36 81.62980930397727 206.47383206400002 81.62980930397727 201.68 Z"/></g><g transform="translate(-22,-6) scale(1,1)"><path fill="none" stroke="#000000" d="M 81.62980930397727 201.68 C 81.62980930397727 196.886167936 85.51565162892273 193 90.30908203125 193 C 95.10251243357727 193 98.98835475852273 196.886167936 98.98835475852273 201.68 C 98.98835475852273 206.47383206400002 95.10251243357727 210.36 90.30908203125 210.36 C 85.51565162892273 210.36 81.62980930397727 206.47383206400002 81.62980930397727 201.68 Z" stroke-miterlimit="10"/></g><g transform="translate(-22,-6) scale(1,1)"><path fill="none" stroke="#000000" d="M 90.30908203125 210.36 L 90.30908203125 227.64" stroke-miterlimit="10"/></g><g transform="translate(-22,-6) scale(1,1)"><path fill="none" stroke="#000000" d="M 81.11926384943182 216.84 L 99.49890021306818 216.84" stroke-miterlimit="10"/></g><g transform="translate(-22,-6) scale(1,1)"><path fill="none" stroke="#000000" d="M 90.30908203125 227.64 L 77.54544566761363 245" stroke-miterlimit="10"/></g><g transform="translate(-22,-6) scale(1,1)"><path fill="none" stroke="#000000" d="M 90.30908203125 227.64 L 103.07271839488637 245" stroke-miterlimit="10"/></g><g transform="translate(-22,-6) scale(1,1)"><g><path fill="none" stroke="none"/><text fill="#000000" stroke="none" font-family="Arial" font-size="13px" font-style="normal" font-weight="bold" text-decoration="none" x="40.825927734375" y="265.5">HR Administrator</text></g></g><g transform="translate(-22,-6) scale(1,1)"><g><path fill="none" stroke="none"/><text fill="#000000" stroke="none" font-family="Arial" font-size="13px" font-style="normal" font-weight="normal" text-decoration="none" x="52.035888671875" y="280.5">(from HRMS)</text></g></g><g transform="translate(-22,-6) scale(1,1)"><path fill="#C0C0C0" stroke="none" d="M 495 658.5 C 495 638.8938896 523.6537728 623 559 623 C 594.3462272 623 623 638.8938896 623 658.5 C 623 678.1061104 594.3462272 694 559 694 C 523.6537728 694 495 678.1061104 495 658.5 Z" opacity="0.2"/></g><g transform="translate(-22,-6) scale(1,1)"><path fill="#a3e0ff" stroke="none" d="M 488 651.5 C 488 631.8938896 516.6537728 616 552 616 C 587.3462272 616 616 631.8938896 616 651.5 C 616 671.1061104 587.3462272 687 552 687 C 516.6537728 687 488 671.1061104 488 651.5 Z"/></g><g transform="translate(-22,-6) scale(1,1)"><path fill="none" stroke="#000000" d="M 488 651.5 C 488 631.8938896 516.6537728 616 552 616 C 587.3462272 616 616 631.8938896 616 651.5 C 616 671.1061104 587.3462272 687 552 687 C 516.6537728 687 488 671.1061104 488 651.5 Z" stroke-miterlimit="10"/></g><g transform="translate(-22,-6) scale(1,1)"><g><path fill="none" stroke="none"/><text fill="#000000" stroke="none" font-family="Arial" font-size="13px" font-style="normal" font-weight="bold" text-decoration="none" x="528.516845703125" y="645.5">dissolve</text><text fill="#000000" stroke="none" font-family="Arial" font-size="13px" font-style="normal" font-weight="bold" text-decoration="none" x="529.9609375" y="658.5">existing</text><text fill="#000000" stroke="none" font-family="Arial" font-size="13px" font-style="normal" font-weight="bold" text-decoration="none" x="538.27001953125" y="671.5">units</text></g></g><g transform="translate(-22,-6) scale(1,1)"><path fill="#C0C0C0" stroke="none" d="M 343 657 C 343 642.6405952 366.2811904 631 395 631 C 423.7188096 631 447 642.6405952 447 657 C 447 671.3594048 423.7188096 683 395 683 C 366.2811904 683 343 671.3594048 343 657 Z" opacity="0.2"/></g><g transform="translate(-22,-6) scale(1,1)"><path fill="#a3e0ff" stroke="none" d="M 336 650 C 336 635.6405952 359.2811904 624 388 624 C 416.7188096 624 440 635.6405952 440 650 C 440 664.3594048 416.7188096 676 388 676 C 359.2811904 676 336 664.3594048 336 650 Z"/></g><g transform="translate(-22,-6) scale(1,1)"><path fill="none" stroke="#000000" d="M 336 650 C 336 635.6405952 359.2811904 624 388 624 C 416.7188096 624 440 635.6405952 440 650 C 440 664.3594048 416.7188096 676 388 676 C 359.2811904 676 336 664.3594048 336 650 Z" stroke-miterlimit="10"/></g><g transform="translate(-22,-6) scale(1,1)"><g><path fill="none" stroke="none"/><text fill="#000000" stroke="none" font-family="Arial" font-size="13px" font-style="normal" font-weight="bold" text-decoration="none" x="369.9345703125" y="650.5">create</text><text fill="#000000" stroke="none" font-family="Arial" font-size="13px" font-style="normal" font-weight="bold" text-decoration="none" x="360.5400390625" y="663.5">new units</text></g></g><g transform="translate(-22,-6) scale(1,1)"><path fill="#C0C0C0" stroke="none" d="M 543 281 C 543 266.6405952 584.1897984 255 635 255 C 685.8102016 255 727 266.6405952 727 281 C 727 295.3594048 685.8102016 307 635 307 C 584.1897984 307 543 295.3594048 543 281 Z" opacity="0.2"/></g><g transform="translate(-22,-6) scale(1,1)"><path fill="#a3e0ff" stroke="none" d="M 536 274 C 536 259.6405952 577.1897984 248 628 248 C 678.8102016 248 720 259.6405952 720 274 C 720 288.3594048 678.8102016 300 628 300 C 577.1897984 300 536 288.3594048 536 274 Z"/></g><g transform="translate(-22,-6) scale(1,1)"><path fill="none" stroke="#000000" d="M 536 274 C 536 259.6405952 577.1897984 248 628 248 C 678.8102016 248 720 259.6405952 720 274 C 720 288.3594048 678.8102016 300 628 300 C 577.1897984 300 536 288.3594048 536 274 Z" stroke-miterlimit="10"/></g><g transform="translate(-22,-6) scale(1,1)"><g><path fill="none" stroke="none"/><text fill="#000000" stroke="none" font-family="Arial" font-size="13px" font-style="normal" font-weight="bold" text-decoration="none" x="575.974609375" y="274.5">transfer employee</text><text fill="#000000" stroke="none" font-family="Arial" font-size="13px" font-style="normal" font-weight="bold" text-decoration="none" x="581.030517578125" y="287.5">to different team</text></g></g><g transform="translate(-22,-6) scale(1,1)"><path fill="#C0C0C0" stroke="none" d="M 551 58.5 C 551 38.893889599999994 583.2354944 23 623 23 C 662.7645056 23 695 38.893889599999994 695 58.5 C 695 78.1061104 662.7645056 94 623 94 C 583.2354944 94 551 78.1061104 551 58.5 Z" opacity="0.2"/></g><g transform="translate(-22,-6) scale(1,1)"><path fill="#ffffff" stroke="none" d="M 544 51.5 C 544 31.893889599999998 576.2354944 16 616 16 C 655.7645056 16 688 31.893889599999998 688 51.5 C 688 71.1061104 655.7645056 87 616 87 C 576.2354944 87 544 71.1061104 544 51.5 Z"/></g><g transform="translate(-22,-6) scale(1,1)"><path fill="none" stroke="#000000" d="M 544 51.5 C 544 31.893889599999998 576.2354944 16 616 16 C 655.7645056 16 688 31.893889599999998 688 51.5 C 688 71.1061104 655.7645056 87 616 87 C 576.2354944 87 544 71.1061104 544 51.5 Z" stroke-miterlimit="10"/></g><g transform="translate(-22,-6) scale(1,1)"><g><path fill="none" stroke="none"/><text fill="#000000" stroke="none" font-family="Arial" font-size="13px" font-style="normal" font-weight="bold" text-decoration="none" x="602.996826171875" y="45.5">view</text><text fill="#000000" stroke="none" font-family="Arial" font-size="13px" font-style="normal" font-weight="bold" text-decoration="none" x="580.58642578125" y="58.5">organization</text><text fill="#000000" stroke="none" font-family="Arial" font-size="13px" font-style="normal" font-weight="bold" text-decoration="none" x="601.549560546875" y="71.5">chart</text></g></g><g transform="translate(-22,-6) scale(1,1)"><path fill="#C0C0C0" stroke="none" d="M 375 138.5 C 375 118.8938896 407.2354944 103 447 103 C 486.7645056 103 519 118.8938896 519 138.5 C 519 158.1061104 486.7645056 174 447 174 C 407.2354944 174 375 158.1061104 375 138.5 Z" opacity="0.2"/></g><g transform="translate(-22,-6) scale(1,1)"><path fill="#ffffff" stroke="none" d="M 368 131.5 C 368 111.8938896 400.2354944 96 440 96 C 479.7645056 96 512 111.8938896 512 131.5 C 512 151.1061104 479.7645056 167 440 167 C 400.2354944 167 368 151.1061104 368 131.5 Z"/></g><g transform="translate(-22,-6) scale(1,1)"><path fill="none" stroke="#000000" d="M 368 131.5 C 368 111.8938896 400.2354944 96 440 96 C 479.7645056 96 512 111.8938896 512 131.5 C 512 151.1061104 479.7645056 167 440 167 C 400.2354944 167 368 151.1061104 368 131.5 Z" stroke-miterlimit="10"/></g><g transform="translate(-22,-6) scale(1,1)"><g><path fill="none" stroke="none"/><text fill="#000000" stroke="none" font-family="Arial" font-size="13px" font-style="normal" font-weight="bold" text-decoration="none" x="420.119140625" y="125.5">update</text><text fill="#000000" stroke="none" font-family="Arial" font-size="13px" font-style="normal" font-weight="bold" text-decoration="none" x="404.58642578125" y="138.5">organization</text><text fill="#000000" stroke="none" font-family="Arial" font-size="13px" font-style="normal" font-weight="bold" text-decoration="none" x="425.549560546875" y="151.5">chart</text></g></g><g transform="translate(-22,-6) scale(1,1)"><path fill="#ffffff" stroke="none" d="M 756.2743405539773 321.68 C 756.2743405539773 316.886167936 760.1601828789227 313 764.95361328125 313 C 769.7470436835773 313 773.6328860085227 316.886167936 773.6328860085227 321.68 C 773.6328860085227 326.473832064 769.7470436835773 330.36 764.95361328125 330.36 C 760.1601828789227 330.36 756.2743405539773 326.473832064 756.2743405539773 321.68 Z"/></g><g transform="translate(-22,-6) scale(1,1)"><path fill="none" stroke="#000000" d="M 756.2743405539773 321.68 C 756.2743405539773 316.886167936 760.1601828789227 313 764.95361328125 313 C 769.7470436835773 313 773.6328860085227 316.886167936 773.6328860085227 321.68 C 773.6328860085227 326.473832064 769.7470436835773 330.36 764.95361328125 330.36 C 760.1601828789227 330.36 756.2743405539773 326.473832064 756.2743405539773 321.68 Z" stroke-miterlimit="10"/></g><g transform="translate(-22,-6) scale(1,1)"><path fill="none" stroke="#000000" d="M 764.95361328125 330.36 L 764.95361328125 347.64" stroke-miterlimit="10"/></g><g transform="translate(-22,-6) scale(1,1)"><path fill="none" stroke="#000000" d="M 755.7637950994318 336.84 L 774.1434314630682 336.84" stroke-miterlimit="10"/></g><g transform="translate(-22,-6) scale(1,1)"><path fill="none" stroke="#000000" d="M 764.95361328125 347.64 L 752.1899769176136 365" stroke-miterlimit="10"/></g><g transform="translate(-22,-6) scale(1,1)"><path fill="none" stroke="#000000" d="M 764.95361328125 347.64 L 777.7172496448864 365" stroke-miterlimit="10"/></g><g transform="translate(-22,-6) scale(1,1)"><g><path fill="none" stroke="none"/><text fill="#000000" stroke="none" font-family="Arial" font-size="13px" font-style="normal" font-weight="bold" text-decoration="none" x="739.299560546875" y="385.5">Manager</text></g></g><g transform="translate(-22,-6) scale(1,1)"><g><path fill="none" stroke="none"/><text fill="#000000" stroke="none" font-family="Arial" font-size="13px" font-style="normal" font-weight="normal" text-decoration="none" x="726.680419921875" y="400.5">(from HRMS)</text></g></g><g transform="translate(-22,-6) scale(1,1)"><path fill="#C0C0C0" stroke="none" d="M 327 560 C 327 550.6111584 385.8745488 543 458.5 543 C 531.1254512 543 590 550.6111584 590 560 C 590 569.3888416 531.1254512 577 458.5 577 C 385.8745488 577 327 569.3888416 327 560 Z" opacity="0.2"/></g><g transform="translate(-22,-6) scale(1,1)"><path fill="#ffffff" stroke="none" d="M 320 553 C 320 543.6111584 378.8745488 536 451.5 536 C 524.1254512 536 583 543.6111584 583 553 C 583 562.3888416 524.1254512 570 451.5 570 C 378.8745488 570 320 562.3888416 320 553 Z"/></g><g transform="translate(-22,-6) scale(1,1)"><path fill="none" stroke="#000000" d="M 320 553 C 320 543.6111584 378.8745488 536 451.5 536 C 524.1254512 536 583 543.6111584 583 553 C 583 562.3888416 524.1254512 570 451.5 570 C 378.8745488 570 320 562.3888416 320 553 Z" stroke-miterlimit="10"/></g><g transform="translate(-22,-6) scale(1,1)"><g><path fill="none" stroke="none"/><text fill="#000000" stroke="none" font-family="Arial" font-size="13px" font-style="italic" font-weight="bold" text-decoration="none" x="370.196044921875" y="560">manage organizational units</text></g></g><g transform="translate(-22,-6) scale(1,1)"><path fill="#ffffff" stroke="none" d="M 744.2870358664773 505.68 C 744.2870358664773 500.886167936 748.1728781914227 497 752.96630859375 497 C 757.7597389960773 497 761.6455813210227 500.886167936 761.6455813210227 505.68 C 761.6455813210227 510.473832064 757.7597389960773 514.36 752.96630859375 514.36 C 748.1728781914227 514.36 744.2870358664773 510.473832064 744.2870358664773 505.68 Z"/></g><g transform="translate(-22,-6) scale(1,1)"><path fill="none" stroke="#000000" d="M 744.2870358664773 505.68 C 744.2870358664773 500.886167936 748.1728781914227 497 752.96630859375 497 C 757.7597389960773 497 761.6455813210227 500.886167936 761.6455813210227 505.68 C 761.6455813210227 510.473832064 757.7597389960773 514.36 752.96630859375 514.36 C 748.1728781914227 514.36 744.2870358664773 510.473832064 744.2870358664773 505.68 Z" stroke-miterlimit="10"/></g><g transform="translate(-22,-6) scale(1,1)"><path fill="none" stroke="#000000" d="M 752.96630859375 514.36 L 752.96630859375 531.64" stroke-miterlimit="10"/></g><g transform="translate(-22,-6) scale(1,1)"><path fill="none" stroke="#000000" d="M 743.7764904119318 520.84 L 762.1561267755682 520.84" stroke-miterlimit="10"/></g><g transform="translate(-22,-6) scale(1,1)"><path fill="none" stroke="#000000" d="M 752.96630859375 531.64 L 740.2026722301136 549" stroke-miterlimit="10"/></g><g transform="translate(-22,-6) scale(1,1)"><path fill="none" stroke="#000000" d="M 752.96630859375 531.64 L 765.7299449573864 549" stroke-miterlimit="10"/></g><g transform="translate(-22,-6) scale(1,1)"><g><path fill="none" stroke="none"/><text fill="#000000" stroke="none" font-family="Arial" font-size="13px" font-style="normal" font-weight="bold" text-decoration="none" x="729.47998046875" y="569.5">Account</text><text fill="#000000" stroke="none" font-family="Arial" font-size="13px" font-style="normal" font-weight="bold" text-decoration="none" x="715.0263671875" y="582.5">Management</text><text fill="#000000" stroke="none" font-family="Arial" font-size="13px" font-style="normal" font-weight="bold" text-decoration="none" x="731.29541015625" y="595.5">System</text></g></g><g transform="translate(-22,-6) scale(1,1)"><path fill="#C0C0C0" stroke="none" d="M 391 370.5 C 391 350.8938896 417.862912 335 451 335 C 484.137088 335 511 350.8938896 511 370.5 C 511 390.1061104 484.137088 406 451 406 C 417.862912 406 391 390.1061104 391 370.5 Z" opacity="0.2"/></g><g transform="translate(-22,-6) scale(1,1)"><path fill="#a3e0ff" stroke="none" d="M 384 363.5 C 384 343.8938896 410.862912 328 444 328 C 477.137088 328 504 343.8938896 504 363.5 C 504 383.1061104 477.137088 399 444 399 C 410.862912 399 384 383.1061104 384 363.5 Z"/></g><g transform="translate(-22,-6) scale(1,1)"><path fill="none" stroke="#000000" d="M 384 363.5 C 384 343.8938896 410.862912 328 444 328 C 477.137088 328 504 343.8938896 504 363.5 C 504 383.1061104 477.137088 399 444 399 C 410.862912 399 384 383.1061104 384 363.5 Z" stroke-miterlimit="10"/></g><g transform="translate(-22,-6) scale(1,1)"><g><path fill="none" stroke="none"/><text fill="#000000" stroke="none" font-family="Arial" font-size="13px" font-style="normal" font-weight="bold" text-decoration="none" x="425.2109375" y="357.5">assign</text><text fill="#000000" stroke="none" font-family="Arial" font-size="13px" font-style="normal" font-weight="bold" text-decoration="none" x="411.119140625" y="370.5">positions to</text><text fill="#000000" stroke="none" font-family="Arial" font-size="13px" font-style="normal" font-weight="bold" text-decoration="none" x="430.27001953125" y="383.5">units</text></g></g><g transform="translate(-22,-6) scale(1,1)"><path fill="#C0C0C0" stroke="none" d="M 383 458.5 C 383 438.8938896 415.2354944 423 455 423 C 494.7645056 423 527 438.8938896 527 458.5 C 527 478.1061104 494.7645056 494 455 494 C 415.2354944 494 383 478.1061104 383 458.5 Z" opacity="0.2"/></g><g transform="translate(-22,-6) scale(1,1)"><path fill="#a3e0ff" stroke="none" d="M 376 451.5 C 376 431.8938896 408.2354944 416 448 416 C 487.7645056 416 520 431.8938896 520 451.5 C 520 471.1061104 487.7645056 487 448 487 C 408.2354944 487 376 471.1061104 376 451.5 Z"/></g><g transform="translate(-22,-6) scale(1,1)"><path fill="none" stroke="#000000" d="M 376 451.5 C 376 431.8938896 408.2354944 416 448 416 C 487.7645056 416 520 431.8938896 520 451.5 C 520 471.1061104 487.7645056 487 448 487 C 408.2354944 487 376 471.1061104 376 451.5 Z" stroke-miterlimit="10"/></g><g transform="translate(-22,-6) scale(1,1)"><g><path fill="none" stroke="none"/><text fill="#000000" stroke="none" font-family="Arial" font-size="13px" font-style="normal" font-weight="bold" text-decoration="none" x="421.98095703125" y="445.5">unassign</text><text fill="#000000" stroke="none" font-family="Arial" font-size="13px" font-style="normal" font-weight="bold" text-decoration="none" x="415.119140625" y="458.5">positions to</text><text fill="#000000" stroke="none" font-family="Arial" font-size="13px" font-style="normal" font-weight="bold" text-decoration="none" x="434.27001953125" y="471.5">units</text></g></g><g transform="translate(-22,-6) scale(1,1)"><path fill="#C0C0C0" stroke="none" d="M 375 217 C 375 202.6405952 408.1309248 191 449 191 C 489.8690752 191 523 202.6405952 523 217 C 523 231.3594048 489.8690752 243 449 243 C 408.1309248 243 375 231.3594048 375 217 Z" opacity="0.2"/></g><g transform="translate(-22,-6) scale(1,1)"><path fill="#ffffff" stroke="none" d="M 368 210 C 368 195.6405952 401.1309248 184 442 184 C 482.8690752 184 516 195.6405952 516 210 C 516 224.3594048 482.8690752 236 442 236 C 401.1309248 236 368 224.3594048 368 210 Z"/></g><g transform="translate(-22,-6) scale(1,1)"><path fill="none" stroke="#000000" d="M 368 210 C 368 195.6405952 401.1309248 184 442 184 C 482.8690752 184 516 195.6405952 516 210 C 516 224.3594048 482.8690752 236 442 236 C 401.1309248 236 368 224.3594048 368 210 Z" stroke-miterlimit="10"/></g><g transform="translate(-22,-6) scale(1,1)"><g><path fill="none" stroke="none"/><text fill="#000000" stroke="none" font-family="Arial" font-size="13px" font-style="normal" font-weight="bold" text-decoration="none" x="409.83642578125" y="210.5">set head of</text><text fill="#000000" stroke="none" font-family="Arial" font-size="13px" font-style="normal" font-weight="bold" text-decoration="none" x="431.52001953125" y="223.5">unit</text></g></g><g transform="translate(-22,-6) scale(1,1)"><path fill="#C0C0C0" stroke="none" d="M 375 289 C 375 274.6405952 407.2354944 263 447 263 C 486.7645056 263 519 274.6405952 519 289 C 519 303.3594048 486.7645056 315 447 315 C 407.2354944 315 375 303.3594048 375 289 Z" opacity="0.2"/></g><g transform="translate(-22,-6) scale(1,1)"><path fill="#ffffff" stroke="none" d="M 368 282 C 368 267.6405952 400.2354944 256 440 256 C 479.7645056 256 512 267.6405952 512 282 C 512 296.3594048 479.7645056 308 440 308 C 400.2354944 308 368 296.3594048 368 282 Z"/></g><g transform="translate(-22,-6) scale(1,1)"><path fill="none" stroke="#000000" d="M 368 282 C 368 267.6405952 400.2354944 256 440 256 C 479.7645056 256 512 267.6405952 512 282 C 512 296.3594048 479.7645056 308 440 308 C 400.2354944 308 368 296.3594048 368 282 Z" stroke-miterlimit="10"/></g><g transform="translate(-22,-6) scale(1,1)"><g><path fill="none" stroke="none"/><text fill="#000000" stroke="none" font-family="Arial" font-size="13px" font-style="normal" font-weight="bold" text-decoration="none" x="402.4091796875" y="282.5">change head</text><text fill="#000000" stroke="none" font-family="Arial" font-size="13px" font-style="normal" font-weight="bold" text-decoration="none" x="422.293212890625" y="295.5">of unit</text></g></g><g transform="translate(-22,-6) scale(1,1)"><path fill="#C0C0C0" stroke="none" d="M 383 58.5 C 383 38.893889599999994 413.4446336 23 451 23 C 488.5553664 23 519 38.893889599999994 519 58.5 C 519 78.1061104 488.5553664 94 451 94 C 413.4446336 94 383 78.1061104 383 58.5 Z" opacity="0.2"/></g><g transform="translate(-22,-6) scale(1,1)"><path fill="#ffffff" stroke="none" d="M 376 51.5 C 376 31.893889599999998 406.4446336 16 444 16 C 481.5553664 16 512 31.893889599999998 512 51.5 C 512 71.1061104 481.5553664 87 444 87 C 406.4446336 87 376 71.1061104 376 51.5 Z"/></g><g transform="translate(-22,-6) scale(1,1)"><path fill="none" stroke="#000000" d="M 376 51.5 C 376 31.893889599999998 406.4446336 16 444 16 C 481.5553664 16 512 31.893889599999998 512 51.5 C 512 71.1061104 481.5553664 87 444 87 C 406.4446336 87 376 71.1061104 376 51.5 Z" stroke-miterlimit="10"/></g><g transform="translate(-22,-6) scale(1,1)"><g><path fill="none" stroke="none"/><text fill="#000000" stroke="none" font-family="Arial" font-size="13px" font-style="normal" font-weight="bold" text-decoration="none" x="425.9345703125" y="45.5">create</text><text fill="#000000" stroke="none" font-family="Arial" font-size="13px" font-style="normal" font-weight="bold" text-decoration="none" x="408.58642578125" y="58.5">organization</text><text fill="#000000" stroke="none" font-family="Arial" font-size="13px" font-style="normal" font-weight="bold" text-decoration="none" x="429.549560546875" y="71.5">chart</text></g></g><g transform="translate(-22,-6) scale(1,1)"><path fill="#ffffff" stroke="none" d="M 756.2743405539773 129.68 C 756.2743405539773 124.886167936 760.1601828789227 121 764.95361328125 121 C 769.7470436835773 121 773.6328860085227 124.886167936 773.6328860085227 129.68 C 773.6328860085227 134.47383206400002 769.7470436835773 138.36 764.95361328125 138.36 C 760.1601828789227 138.36 756.2743405539773 134.47383206400002 756.2743405539773 129.68 Z"/></g><g transform="translate(-22,-6) scale(1,1)"><path fill="none" stroke="#000000" d="M 756.2743405539773 129.68 C 756.2743405539773 124.886167936 760.1601828789227 121 764.95361328125 121 C 769.7470436835773 121 773.6328860085227 124.886167936 773.6328860085227 129.68 C 773.6328860085227 134.47383206400002 769.7470436835773 138.36 764.95361328125 138.36 C 760.1601828789227 138.36 756.2743405539773 134.47383206400002 756.2743405539773 129.68 Z" stroke-miterlimit="10"/></g><g transform="translate(-22,-6) scale(1,1)"><path fill="none" stroke="#000000" d="M 764.95361328125 138.36 L 764.95361328125 155.64" stroke-miterlimit="10"/></g><g transform="translate(-22,-6) scale(1,1)"><path fill="none" stroke="#000000" d="M 755.7637950994318 144.84 L 774.1434314630682 144.84" stroke-miterlimit="10"/></g><g transform="translate(-22,-6) scale(1,1)"><path fill="none" stroke="#000000" d="M 764.95361328125 155.64 L 752.1899769176136 173" stroke-miterlimit="10"/></g><g transform="translate(-22,-6) scale(1,1)"><path fill="none" stroke="#000000" d="M 764.95361328125 155.64 L 777.7172496448864 173" stroke-miterlimit="10"/></g><g transform="translate(-22,-6) scale(1,1)"><g><path fill="none" stroke="none"/><text fill="#000000" stroke="none" font-family="Arial" font-size="13px" font-style="normal" font-weight="bold" text-decoration="none" x="747.61181640625" y="193.5">Guest</text></g></g><g transform="translate(-22,-6) scale(1,1)"><g><path fill="none" stroke="none"/><text fill="#000000" stroke="none" font-family="Arial" font-size="13px" font-style="normal" font-weight="normal" text-decoration="none" x="726.680419921875" y="208.5">(from HRMS)</text></g></g><g transform="translate(-22,-6) scale(1,1)"><path fill="none" stroke="#000000" d="M 719 132 L 663 88" stroke-miterlimit="10"/></g><g transform="translate(-22,-6) scale(1,1)"><path fill="none" stroke="#000000" d="M 673.5918284049461 90.9686985431627 L 663 88 L 668.3903668191327 97.58874056147067" stroke-miterlimit="10"/></g><g transform="translate(-22,-6) scale(1,1)"><path fill="none" stroke="#000000" d="M 719 331 L 671 301" stroke-miterlimit="10"/></g><g transform="translate(-22,-6) scale(1,1)"><path fill="none" stroke="#000000" d="M 681.8489709920335 302.8165429843569 L 671 301 L 677.3868910948074 309.95587081991863" stroke-miterlimit="10"/></g><g transform="translate(-22,-6) scale(1,1)"><path fill="none" stroke="#000000" d="M 584 551 L 703 549" stroke-miterlimit="10"/></g><g transform="translate(-22,-6) scale(1,1)"><path fill="none" stroke="#000000" d="M 692.9094983507877 553.3797004997195 L 703 549 L 692.7680219353501 544.9618537811857" stroke-miterlimit="10"/></g><g transform="translate(-22,-6) scale(1,1)"><path fill="none" stroke="#000000" d="M 406 623 L 439 571" stroke-miterlimit="10"/></g><g transform="translate(-22,-6) scale(1,1)"><path fill="#FFFFFF" stroke="none" d="M 435.21762024885425 592.6724157264049 L 439 571 L 421.0007415041072 583.6501657537771"/></g><g transform="translate(-22,-6) scale(1,1)"><path fill="none" stroke="#000000" d="M 435.21762024885425 592.6724157264049 L 439 571 L 421.0007415041072 583.6501657537771 L 435.21762024885425 592.6724157264049" stroke-miterlimit="10"/></g><g transform="translate(-22,-6) scale(1,1)"><path fill="none" stroke="#000000" d="M 515 615 L 470 571" stroke-miterlimit="10"/></g><g transform="translate(-22,-6) scale(1,1)"><path fill="#FFFFFF" stroke="none" d="M 490.41865676668004 579.1901438231885 L 470 571 L 478.64686442617034 591.2294768987097"/></g><g transform="translate(-22,-6) scale(1,1)"><path fill="none" stroke="#000000" d="M 490.41865676668004 579.1901438231885 L 470 571 L 478.64686442617034 591.2294768987097 L 490.41865676668004 579.1901438231885" stroke-miterlimit="10"/></g><g transform="translate(-22,-6) scale(1,1)"><path fill="none" stroke="#000000" d="M 150 207 L 375 88" stroke-miterlimit="10"/></g><g transform="translate(-22,-6) scale(1,1)"><path fill="none" stroke="#000000" d="M 367.9844708782007 96.47244658532505 L 375 88 L 364.04834735063986 89.03019621808816" stroke-miterlimit="10"/></g><g transform="translate(-22,-6) scale(1,1)"><path fill="none" stroke="#000000" d="M 150 221 L 367 154" stroke-miterlimit="10"/></g><g transform="translate(-22,-6) scale(1,1)"><path fill="none" stroke="#000000" d="M 358.53150233134784 161.02029538096747 L 367 154 L 356.04776940221893 152.9759663418483" stroke-miterlimit="10"/></g><g transform="translate(-22,-6) scale(1,1)"><path fill="none" stroke="#000000" d="M 150 234 L 367 216" stroke-miterlimit="10"/></g><g transform="translate(-22,-6) scale(1,1)"><path fill="none" stroke="#000000" d="M 357.22008981848137 221.03521169777682 L 367 216 L 356.52412685504504 212.64499152746063" stroke-miterlimit="10"/></g><g transform="translate(-22,-6) scale(1,1)"><path fill="none" stroke="#000000" d="M 150 246 L 367 273" stroke-miterlimit="10"/></g><g transform="translate(-22,-6) scale(1,1)"><path fill="none" stroke="#000000" d="M 356.3953321337718 275.92250225782396 L 367 273 L 357.43484627501863 267.56788860409927" stroke-miterlimit="10"/></g><g transform="translate(-22,-6) scale(1,1)"><path fill="none" stroke="#000000" d="M 145 287 L 430 535" stroke-miterlimit="10"/></g><g transform="translate(-22,-6) scale(1,1)"><path fill="none" stroke="#000000" d="M 419.57020713858697 531.5043711770245 L 430 535 L 425.0968055865609 525.1532398960867" stroke-miterlimit="10"/></g><g transform="translate(-22,-6) scale(1,1)"><path fill="none" stroke="#000000" d="M 150 260 L 383 342" stroke-miterlimit="10"/></g><g transform="translate(-22,-6) scale(1,1)"><path fill="none" stroke="#000000" d="M 372.01621553946774 342.5970585604191 L 383 342 L 374.8111073680284 334.655475681704" stroke-miterlimit="10"/></g><g transform="translate(-22,-6) scale(1,1)"><path fill="none" stroke="#000000" d="M 150 274 L 387 415" stroke-miterlimit="10"/></g><g transform="translate(-22,-6) scale(1,1)"><path fill="none" stroke="#000000" d="M 376.1138338442065 413.4215873706612 L 387 415 L 380.41842436383087 406.186211816399" stroke-miterlimit="10"/></g></g></svg>