<svg version="1.1" xmlns="http://www.w3.org/2000/svg" xmlns:xlink="http://www.w3.org/1999/xlink" width="813.9326171875" height="939"><defs/><g><g transform="translate(-22,2) scale(1,1)"><path fill="#ffffff" stroke="none" d="M 81.62980930397727 201.68 C 81.62980930397727 196.886167936 85.51565162892273 193 90.30908203125 193 C 95.10251243357727 193 98.98835475852273 196.886167936 98.98835475852273 201.68 C 98.98835475852273 206.47383206400002 95.10251243357727 210.36 90.30908203125 210.36 C 85.51565162892273 210.36 81.62980930397727 206.47383206400002 81.62980930397727 201.68 Z"/></g><g transform="translate(-22,2) scale(1,1)"><path fill="none" stroke="#000000" d="M 81.62980930397727 201.68 C 81.62980930397727 196.886167936 85.51565162892273 193 90.30908203125 193 C 95.10251243357727 193 98.98835475852273 196.886167936 98.98835475852273 201.68 C 98.98835475852273 206.47383206400002 95.10251243357727 210.36 90.30908203125 210.36 C 85.51565162892273 210.36 81.62980930397727 206.47383206400002 81.62980930397727 201.68 Z" stroke-miterlimit="10"/></g><g transform="translate(-22,2) scale(1,1)"><path fill="none" stroke="#000000" d="M 90.30908203125 210.36 L 90.30908203125 227.64" stroke-miterlimit="10"/></g><g transform="translate(-22,2) scale(1,1)"><path fill="none" stroke="#000000" d="M 81.11926384943182 216.84 L 99.49890021306818 216.84" stroke-miterlimit="10"/></g><g transform="translate(-22,2) scale(1,1)"><path fill="none" stroke="#000000" d="M 90.30908203125 227.64 L 77.54544566761363 245" stroke-miterlimit="10"/></g><g transform="translate(-22,2) scale(1,1)"><path fill="none" stroke="#000000" d="M 90.30908203125 227.64 L 103.07271839488637 245" stroke-miterlimit="10"/></g><g transform="translate(-22,2) scale(1,1)"><g><path fill="none" stroke="none"/><text fill="#000000" stroke="none" font-family="Arial" font-size="13px" font-style="normal" font-weight="bold" text-decoration="none" x="40.825927734375" y="265.5">HR Administrator</text></g></g><g transform="translate(-22,2) scale(1,1)"><g><path fill="none" stroke="none"/><text fill="#000000" stroke="none" font-family="Arial" font-size="13px" font-style="normal" font-weight="normal" text-decoration="none" x="49.85546875" y="280.5">(from Model1)</text></g></g><g transform="translate(-22,2) scale(1,1)"><path fill="#C0C0C0" stroke="none" d="M 479 682.5 C 479 662.8938896 507.6537728 647 543 647 C 578.3462272 647 607 662.8938896 607 682.5 C 607 702.1061104 578.3462272 718 543 718 C 507.6537728 718 479 702.1061104 479 682.5 Z" opacity="0.2"/></g><g transform="translate(-22,2) scale(1,1)"><path fill="#a3e0ff" stroke="none" d="M 472 675.5 C 472 655.8938896 500.6537728 640 536 640 C 571.3462272 640 600 655.8938896 600 675.5 C 600 695.1061104 571.3462272 711 536 711 C 500.6537728 711 472 695.1061104 472 675.5 Z"/></g><g transform="translate(-22,2) scale(1,1)"><path fill="none" stroke="#000000" d="M 472 675.5 C 472 655.8938896 500.6537728 640 536 640 C 571.3462272 640 600 655.8938896 600 675.5 C 600 695.1061104 571.3462272 711 536 711 C 500.6537728 711 472 695.1061104 472 675.5 Z" stroke-miterlimit="10"/></g><g transform="translate(-22,2) scale(1,1)"><g><path fill="none" stroke="none"/><text fill="#000000" stroke="none" font-family="Arial" font-size="13px" font-style="normal" font-weight="bold" text-decoration="none" x="512.516845703125" y="669.5">dissolve</text><text fill="#000000" stroke="none" font-family="Arial" font-size="13px" font-style="normal" font-weight="bold" text-decoration="none" x="513.9609375" y="682.5">existing</text><text fill="#000000" stroke="none" font-family="Arial" font-size="13px" font-style="normal" font-weight="bold" text-decoration="none" x="522.27001953125" y="695.5">units</text></g></g><g transform="translate(-22,2) scale(1,1)"><path fill="#C0C0C0" stroke="none" d="M 327 689 C 327 674.6405952 350.2811904 663 379 663 C 407.7188096 663 431 674.6405952 431 689 C 431 703.3594048 407.7188096 715 379 715 C 350.2811904 715 327 703.3594048 327 689 Z" opacity="0.2"/></g><g transform="translate(-22,2) scale(1,1)"><path fill="#a3e0ff" stroke="none" d="M 320 682 C 320 667.6405952 343.2811904 656 372 656 C 400.7188096 656 424 667.6405952 424 682 C 424 696.3594048 400.7188096 708 372 708 C 343.2811904 708 320 696.3594048 320 682 Z"/></g><g transform="translate(-22,2) scale(1,1)"><path fill="none" stroke="#000000" d="M 320 682 C 320 667.6405952 343.2811904 656 372 656 C 400.7188096 656 424 667.6405952 424 682 C 424 696.3594048 400.7188096 708 372 708 C 343.2811904 708 320 696.3594048 320 682 Z" stroke-miterlimit="10"/></g><g transform="translate(-22,2) scale(1,1)"><g><path fill="none" stroke="none"/><text fill="#000000" stroke="none" font-family="Arial" font-size="13px" font-style="normal" font-weight="bold" text-decoration="none" x="353.9345703125" y="682.5">create</text><text fill="#000000" stroke="none" font-family="Arial" font-size="13px" font-style="normal" font-weight="bold" text-decoration="none" x="344.5400390625" y="695.5">new units</text></g></g><g transform="translate(-22,2) scale(1,1)"><path fill="#C0C0C0" stroke="none" d="M 319 497 C 319 482.6405952 374.5166848 471 443 471 C 511.4833152 471 567 482.6405952 567 497 C 567 511.3594048 511.4833152 523 443 523 C 374.5166848 523 319 511.3594048 319 497 Z" opacity="0.2"/></g><g transform="translate(-22,2) scale(1,1)"><path fill="#a3e0ff" stroke="none" d="M 312 490 C 312 475.6405952 367.5166848 464 436 464 C 504.4833152 464 560 475.6405952 560 490 C 560 504.3594048 504.4833152 516 436 516 C 367.5166848 516 312 504.3594048 312 490 Z"/></g><g transform="translate(-22,2) scale(1,1)"><path fill="none" stroke="#000000" d="M 312 490 C 312 475.6405952 367.5166848 464 436 464 C 504.4833152 464 560 475.6405952 560 490 C 560 504.3594048 504.4833152 516 436 516 C 367.5166848 516 312 504.3594048 312 490 Z" stroke-miterlimit="10"/></g><g transform="translate(-22,2) scale(1,1)"><g><path fill="none" stroke="none"/><text fill="#000000" stroke="none" font-family="Arial" font-size="13px" font-style="normal" font-weight="bold" text-decoration="none" x="376.747802734375" y="490.5">transfer employee to</text><text fill="#000000" stroke="none" font-family="Arial" font-size="13px" font-style="normal" font-weight="bold" text-decoration="none" x="396.25732421875" y="503.5">different team</text></g></g><g transform="translate(-22,2) scale(1,1)"><path fill="#C0C0C0" stroke="none" d="M 375 250.5 C 375 230.8938896 407.2354944 215 447 215 C 486.7645056 215 519 230.8938896 519 250.5 C 519 270.1061104 486.7645056 286 447 286 C 407.2354944 286 375 270.1061104 375 250.5 Z" opacity="0.2"/></g><g transform="translate(-22,2) scale(1,1)"><path fill="#ffffff" stroke="none" d="M 368 243.5 C 368 223.8938896 400.2354944 208 440 208 C 479.7645056 208 512 223.8938896 512 243.5 C 512 263.1061104 479.7645056 279 440 279 C 400.2354944 279 368 263.1061104 368 243.5 Z"/></g><g transform="translate(-22,2) scale(1,1)"><path fill="none" stroke="#000000" d="M 368 243.5 C 368 223.8938896 400.2354944 208 440 208 C 479.7645056 208 512 223.8938896 512 243.5 C 512 263.1061104 479.7645056 279 440 279 C 400.2354944 279 368 263.1061104 368 243.5 Z" stroke-miterlimit="10"/></g><g transform="translate(-22,2) scale(1,1)"><g><path fill="none" stroke="none"/><text fill="#000000" stroke="none" font-family="Arial" font-size="13px" font-style="normal" font-weight="bold" text-decoration="none" x="426.996826171875" y="237.5">view</text><text fill="#000000" stroke="none" font-family="Arial" font-size="13px" font-style="normal" font-weight="bold" text-decoration="none" x="404.58642578125" y="250.5">organization</text><text fill="#000000" stroke="none" font-family="Arial" font-size="13px" font-style="normal" font-weight="bold" text-decoration="none" x="425.549560546875" y="263.5">chart</text></g></g><g transform="translate(-22,2) scale(1,1)"><path fill="#C0C0C0" stroke="none" d="M 367 154.5 C 367 134.8938896 399.2354944 119 439 119 C 478.7645056 119 511 134.8938896 511 154.5 C 511 174.1061104 478.7645056 190 439 190 C 399.2354944 190 367 174.1061104 367 154.5 Z" opacity="0.2"/></g><g transform="translate(-22,2) scale(1,1)"><path fill="#ffffff" stroke="none" d="M 360 147.5 C 360 127.8938896 392.2354944 112 432 112 C 471.7645056 112 504 127.8938896 504 147.5 C 504 167.1061104 471.7645056 183 432 183 C 392.2354944 183 360 167.1061104 360 147.5 Z"/></g><g transform="translate(-22,2) scale(1,1)"><path fill="none" stroke="#000000" d="M 360 147.5 C 360 127.8938896 392.2354944 112 432 112 C 471.7645056 112 504 127.8938896 504 147.5 C 504 167.1061104 471.7645056 183 432 183 C 392.2354944 183 360 167.1061104 360 147.5 Z" stroke-miterlimit="10"/></g><g transform="translate(-22,2) scale(1,1)"><g><path fill="none" stroke="none"/><text fill="#000000" stroke="none" font-family="Arial" font-size="13px" font-style="normal" font-weight="bold" text-decoration="none" x="412.119140625" y="141.5">update</text><text fill="#000000" stroke="none" font-family="Arial" font-size="13px" font-style="normal" font-weight="bold" text-decoration="none" x="396.58642578125" y="154.5">organization</text><text fill="#000000" stroke="none" font-family="Arial" font-size="13px" font-style="normal" font-weight="bold" text-decoration="none" x="417.549560546875" y="167.5">chart</text></g></g><g transform="translate(-22,2) scale(1,1)"><path fill="#ffffff" stroke="none" d="M 764.2743405539773 457.68 C 764.2743405539773 452.886167936 768.1601828789227 449 772.95361328125 449 C 777.7470436835773 449 781.6328860085227 452.886167936 781.6328860085227 457.68 C 781.6328860085227 462.473832064 777.7470436835773 466.36 772.95361328125 466.36 C 768.1601828789227 466.36 764.2743405539773 462.473832064 764.2743405539773 457.68 Z"/></g><g transform="translate(-22,2) scale(1,1)"><path fill="none" stroke="#000000" d="M 764.2743405539773 457.68 C 764.2743405539773 452.886167936 768.1601828789227 449 772.95361328125 449 C 777.7470436835773 449 781.6328860085227 452.886167936 781.6328860085227 457.68 C 781.6328860085227 462.473832064 777.7470436835773 466.36 772.95361328125 466.36 C 768.1601828789227 466.36 764.2743405539773 462.473832064 764.2743405539773 457.68 Z" stroke-miterlimit="10"/></g><g transform="translate(-22,2) scale(1,1)"><path fill="none" stroke="#000000" d="M 772.95361328125 466.36 L 772.95361328125 483.64" stroke-miterlimit="10"/></g><g transform="translate(-22,2) scale(1,1)"><path fill="none" stroke="#000000" d="M 763.7637950994318 472.84 L 782.1434314630682 472.84" stroke-miterlimit="10"/></g><g transform="translate(-22,2) scale(1,1)"><path fill="none" stroke="#000000" d="M 772.95361328125 483.64 L 760.1899769176136 501" stroke-miterlimit="10"/></g><g transform="translate(-22,2) scale(1,1)"><path fill="none" stroke="#000000" d="M 772.95361328125 483.64 L 785.7172496448864 501" stroke-miterlimit="10"/></g><g transform="translate(-22,2) scale(1,1)"><g><path fill="none" stroke="none"/><text fill="#000000" stroke="none" font-family="Arial" font-size="13px" font-style="normal" font-weight="bold" text-decoration="none" x="747.299560546875" y="521.5">Manager</text></g></g><g transform="translate(-22,2) scale(1,1)"><g><path fill="none" stroke="none"/><text fill="#000000" stroke="none" font-family="Arial" font-size="13px" font-style="normal" font-weight="normal" text-decoration="none" x="732.5" y="536.5">(from Model1)</text></g></g><g transform="translate(-22,2) scale(1,1)"><path fill="#C0C0C0" stroke="none" d="M 327 600 C 327 590.6111584 385.8745488 583 458.5 583 C 531.1254512 583 590 590.6111584 590 600 C 590 609.3888416 531.1254512 617 458.5 617 C 385.8745488 617 327 609.3888416 327 600 Z" opacity="0.2"/></g><g transform="translate(-22,2) scale(1,1)"><path fill="#ffffff" stroke="none" d="M 320 593 C 320 583.6111584 378.8745488 576 451.5 576 C 524.1254512 576 583 583.6111584 583 593 C 583 602.3888416 524.1254512 610 451.5 610 C 378.8745488 610 320 602.3888416 320 593 Z"/></g><g transform="translate(-22,2) scale(1,1)"><path fill="none" stroke="#000000" d="M 320 593 C 320 583.6111584 378.8745488 576 451.5 576 C 524.1254512 576 583 583.6111584 583 593 C 583 602.3888416 524.1254512 610 451.5 610 C 378.8745488 610 320 602.3888416 320 593 Z" stroke-miterlimit="10"/></g><g transform="translate(-22,2) scale(1,1)"><g><path fill="none" stroke="none"/><text fill="#000000" stroke="none" font-family="Arial" font-size="13px" font-style="italic" font-weight="bold" text-decoration="none" x="370.196044921875" y="600">manage organizational units</text></g></g><g transform="translate(-22,2) scale(1,1)"><path fill="#ffffff" stroke="none" d="M 768.2870358664773 553.6800000000001 C 768.2870358664773 548.8861679360001 772.1728781914227 545 776.96630859375 545 C 781.7597389960773 545 785.6455813210227 548.8861679360001 785.6455813210227 553.6800000000001 C 785.6455813210227 558.473832064 781.7597389960773 562.36 776.96630859375 562.36 C 772.1728781914227 562.36 768.2870358664773 558.473832064 768.2870358664773 553.6800000000001 Z"/></g><g transform="translate(-22,2) scale(1,1)"><path fill="none" stroke="#000000" d="M 768.2870358664773 553.6800000000001 C 768.2870358664773 548.8861679360001 772.1728781914227 545 776.96630859375 545 C 781.7597389960773 545 785.6455813210227 548.8861679360001 785.6455813210227 553.6800000000001 C 785.6455813210227 558.473832064 781.7597389960773 562.36 776.96630859375 562.36 C 772.1728781914227 562.36 768.2870358664773 558.473832064 768.2870358664773 553.6800000000001 Z" stroke-miterlimit="10"/></g><g transform="translate(-22,2) scale(1,1)"><path fill="none" stroke="#000000" d="M 776.96630859375 562.36 L 776.96630859375 579.64" stroke-miterlimit="10"/></g><g transform="translate(-22,2) scale(1,1)"><path fill="none" stroke="#000000" d="M 767.7764904119318 568.84 L 786.1561267755682 568.84" stroke-miterlimit="10"/></g><g transform="translate(-22,2) scale(1,1)"><path fill="none" stroke="#000000" d="M 776.96630859375 579.64 L 764.2026722301136 597" stroke-miterlimit="10"/></g><g transform="translate(-22,2) scale(1,1)"><path fill="none" stroke="#000000" d="M 776.96630859375 579.64 L 789.7299449573864 597" stroke-miterlimit="10"/></g><g transform="translate(-22,2) scale(1,1)"><g><path fill="none" stroke="none"/><text fill="#000000" stroke="none" font-family="Arial" font-size="13px" font-style="normal" font-weight="bold" text-decoration="none" x="753.47998046875" y="617.5">Account</text><text fill="#000000" stroke="none" font-family="Arial" font-size="13px" font-style="normal" font-weight="bold" text-decoration="none" x="739.0263671875" y="630.5">Management</text><text fill="#000000" stroke="none" font-family="Arial" font-size="13px" font-style="normal" font-weight="bold" text-decoration="none" x="755.29541015625" y="643.5">System</text></g></g><g transform="translate(-22,2) scale(1,1)"><path fill="#C0C0C0" stroke="none" d="M 407 786.5 C 407 766.8938896 433.862912 751 467 751 C 500.137088 751 527 766.8938896 527 786.5 C 527 806.1061104 500.137088 822 467 822 C 433.862912 822 407 806.1061104 407 786.5 Z" opacity="0.2"/></g><g transform="translate(-22,2) scale(1,1)"><path fill="#a3e0ff" stroke="none" d="M 400 779.5 C 400 759.8938896 426.862912 744 460 744 C 493.137088 744 520 759.8938896 520 779.5 C 520 799.1061104 493.137088 815 460 815 C 426.862912 815 400 799.1061104 400 779.5 Z"/></g><g transform="translate(-22,2) scale(1,1)"><path fill="none" stroke="#000000" d="M 400 779.5 C 400 759.8938896 426.862912 744 460 744 C 493.137088 744 520 759.8938896 520 779.5 C 520 799.1061104 493.137088 815 460 815 C 426.862912 815 400 799.1061104 400 779.5 Z" stroke-miterlimit="10"/></g><g transform="translate(-22,2) scale(1,1)"><g><path fill="none" stroke="none"/><text fill="#000000" stroke="none" font-family="Arial" font-size="13px" font-style="normal" font-weight="bold" text-decoration="none" x="441.2109375" y="773.5">assign</text><text fill="#000000" stroke="none" font-family="Arial" font-size="13px" font-style="normal" font-weight="bold" text-decoration="none" x="427.119140625" y="786.5">positions to</text><text fill="#000000" stroke="none" font-family="Arial" font-size="13px" font-style="normal" font-weight="bold" text-decoration="none" x="446.27001953125" y="799.5">units</text></g></g><g transform="translate(-22,2) scale(1,1)"><path fill="#C0C0C0" stroke="none" d="M 391 898.5 C 391 878.8938896 423.2354944 863 463 863 C 502.7645056 863 535 878.8938896 535 898.5 C 535 918.1061104 502.7645056 934 463 934 C 423.2354944 934 391 918.1061104 391 898.5 Z" opacity="0.2"/></g><g transform="translate(-22,2) scale(1,1)"><path fill="#a3e0ff" stroke="none" d="M 384 891.5 C 384 871.8938896 416.2354944 856 456 856 C 495.7645056 856 528 871.8938896 528 891.5 C 528 911.1061104 495.7645056 927 456 927 C 416.2354944 927 384 911.1061104 384 891.5 Z"/></g><g transform="translate(-22,2) scale(1,1)"><path fill="none" stroke="#000000" d="M 384 891.5 C 384 871.8938896 416.2354944 856 456 856 C 495.7645056 856 528 871.8938896 528 891.5 C 528 911.1061104 495.7645056 927 456 927 C 416.2354944 927 384 911.1061104 384 891.5 Z" stroke-miterlimit="10"/></g><g transform="translate(-22,2) scale(1,1)"><g><path fill="none" stroke="none"/><text fill="#000000" stroke="none" font-family="Arial" font-size="13px" font-style="normal" font-weight="bold" text-decoration="none" x="429.98095703125" y="885.5">unassign</text><text fill="#000000" stroke="none" font-family="Arial" font-size="13px" font-style="normal" font-weight="bold" text-decoration="none" x="423.119140625" y="898.5">positions to</text><text fill="#000000" stroke="none" font-family="Arial" font-size="13px" font-style="normal" font-weight="bold" text-decoration="none" x="442.27001953125" y="911.5">units</text></g></g><g transform="translate(-22,2) scale(1,1)"><path fill="#C0C0C0" stroke="none" d="M 375 329 C 375 314.6405952 408.1309248 303 449 303 C 489.8690752 303 523 314.6405952 523 329 C 523 343.3594048 489.8690752 355 449 355 C 408.1309248 355 375 343.3594048 375 329 Z" opacity="0.2"/></g><g transform="translate(-22,2) scale(1,1)"><path fill="#ffffff" stroke="none" d="M 368 322 C 368 307.6405952 401.1309248 296 442 296 C 482.8690752 296 516 307.6405952 516 322 C 516 336.3594048 482.8690752 348 442 348 C 401.1309248 348 368 336.3594048 368 322 Z"/></g><g transform="translate(-22,2) scale(1,1)"><path fill="none" stroke="#000000" d="M 368 322 C 368 307.6405952 401.1309248 296 442 296 C 482.8690752 296 516 307.6405952 516 322 C 516 336.3594048 482.8690752 348 442 348 C 401.1309248 348 368 336.3594048 368 322 Z" stroke-miterlimit="10"/></g><g transform="translate(-22,2) scale(1,1)"><g><path fill="none" stroke="none"/><text fill="#000000" stroke="none" font-family="Arial" font-size="13px" font-style="normal" font-weight="bold" text-decoration="none" x="409.83642578125" y="322.5">set head of</text><text fill="#000000" stroke="none" font-family="Arial" font-size="13px" font-style="normal" font-weight="bold" text-decoration="none" x="431.52001953125" y="335.5">unit</text></g></g><g transform="translate(-22,2) scale(1,1)"><path fill="#C0C0C0" stroke="none" d="M 375 417 C 375 402.6405952 407.2354944 391 447 391 C 486.7645056 391 519 402.6405952 519 417 C 519 431.3594048 486.7645056 443 447 443 C 407.2354944 443 375 431.3594048 375 417 Z" opacity="0.2"/></g><g transform="translate(-22,2) scale(1,1)"><path fill="#ffffff" stroke="none" d="M 368 410 C 368 395.6405952 400.2354944 384 440 384 C 479.7645056 384 512 395.6405952 512 410 C 512 424.3594048 479.7645056 436 440 436 C 400.2354944 436 368 424.3594048 368 410 Z"/></g><g transform="translate(-22,2) scale(1,1)"><path fill="none" stroke="#000000" d="M 368 410 C 368 395.6405952 400.2354944 384 440 384 C 479.7645056 384 512 395.6405952 512 410 C 512 424.3594048 479.7645056 436 440 436 C 400.2354944 436 368 424.3594048 368 410 Z" stroke-miterlimit="10"/></g><g transform="translate(-22,2) scale(1,1)"><g><path fill="none" stroke="none"/><text fill="#000000" stroke="none" font-family="Arial" font-size="13px" font-style="normal" font-weight="bold" text-decoration="none" x="402.4091796875" y="410.5">change head</text><text fill="#000000" stroke="none" font-family="Arial" font-size="13px" font-style="normal" font-weight="bold" text-decoration="none" x="422.293212890625" y="423.5">of unit</text></g></g><g transform="translate(-22,2) scale(1,1)"><path fill="#C0C0C0" stroke="none" d="M 375 50.5 C 375 30.893889599999998 405.4446336 15 443 15 C 480.5553664 15 511 30.893889599999998 511 50.5 C 511 70.1061104 480.5553664 86 443 86 C 405.4446336 86 375 70.1061104 375 50.5 Z" opacity="0.2"/></g><g transform="translate(-22,2) scale(1,1)"><path fill="#ffffff" stroke="none" d="M 368 43.5 C 368 23.893889599999998 398.4446336 8 436 8 C 473.5553664 8 504 23.893889599999998 504 43.5 C 504 63.106110400000006 473.5553664 79 436 79 C 398.4446336 79 368 63.106110400000006 368 43.5 Z"/></g><g transform="translate(-22,2) scale(1,1)"><path fill="none" stroke="#000000" d="M 368 43.5 C 368 23.893889599999998 398.4446336 8 436 8 C 473.5553664 8 504 23.893889599999998 504 43.5 C 504 63.106110400000006 473.5553664 79 436 79 C 398.4446336 79 368 63.106110400000006 368 43.5 Z" stroke-miterlimit="10"/></g><g transform="translate(-22,2) scale(1,1)"><g><path fill="none" stroke="none"/><text fill="#000000" stroke="none" font-family="Arial" font-size="13px" font-style="normal" font-weight="bold" text-decoration="none" x="417.9345703125" y="37.5">create</text><text fill="#000000" stroke="none" font-family="Arial" font-size="13px" font-style="normal" font-weight="bold" text-decoration="none" x="400.58642578125" y="50.5">organization</text><text fill="#000000" stroke="none" font-family="Arial" font-size="13px" font-style="normal" font-weight="bold" text-decoration="none" x="421.549560546875" y="63.5">chart</text></g></g><g transform="translate(-22,2) scale(1,1)"><path fill="#ffffff" stroke="none" d="M 772.2743405539773 209.68 C 772.2743405539773 204.886167936 776.1601828789227 201 780.95361328125 201 C 785.7470436835773 201 789.6328860085227 204.886167936 789.6328860085227 209.68 C 789.6328860085227 214.47383206400002 785.7470436835773 218.36 780.95361328125 218.36 C 776.1601828789227 218.36 772.2743405539773 214.47383206400002 772.2743405539773 209.68 Z"/></g><g transform="translate(-22,2) scale(1,1)"><path fill="none" stroke="#000000" d="M 772.2743405539773 209.68 C 772.2743405539773 204.886167936 776.1601828789227 201 780.95361328125 201 C 785.7470436835773 201 789.6328860085227 204.886167936 789.6328860085227 209.68 C 789.6328860085227 214.47383206400002 785.7470436835773 218.36 780.95361328125 218.36 C 776.1601828789227 218.36 772.2743405539773 214.47383206400002 772.2743405539773 209.68 Z" stroke-miterlimit="10"/></g><g transform="translate(-22,2) scale(1,1)"><path fill="none" stroke="#000000" d="M 780.95361328125 218.36 L 780.95361328125 235.64" stroke-miterlimit="10"/></g><g transform="translate(-22,2) scale(1,1)"><path fill="none" stroke="#000000" d="M 771.7637950994318 224.84 L 790.1434314630682 224.84" stroke-miterlimit="10"/></g><g transform="translate(-22,2) scale(1,1)"><path fill="none" stroke="#000000" d="M 780.95361328125 235.64 L 768.1899769176136 253" stroke-miterlimit="10"/></g><g transform="translate(-22,2) scale(1,1)"><path fill="none" stroke="#000000" d="M 780.95361328125 235.64 L 793.7172496448864 253" stroke-miterlimit="10"/></g><g transform="translate(-22,2) scale(1,1)"><g><path fill="none" stroke="none"/><text fill="#000000" stroke="none" font-family="Arial" font-size="13px" font-style="normal" font-weight="bold" text-decoration="none" x="763.61181640625" y="273.5">Guest</text></g></g><g transform="translate(-22,2) scale(1,1)"><g><path fill="none" stroke="none"/><text fill="#000000" stroke="none" font-family="Arial" font-size="13px" font-style="normal" font-weight="normal" text-decoration="none" x="740.5" y="288.5">(from Model1)</text></g></g><g transform="translate(-22,2) scale(1,1)"><path fill="none" stroke="#000000" d="M 118 191 L 200 48 L 367 44" stroke-miterlimit="10"/></g><g transform="translate(-22,2) scale(1,1)"><path fill="none" stroke="#000000" d="M 356.94103692935926 48.451658336337836 L 367 44 L 356.7394412038948 40.035036798194994" stroke-miterlimit="10"/></g><g transform="translate(-22,2) scale(1,1)"><path fill="none" stroke="#000000" d="M 150 191 L 208 144 L 359 146" stroke-miterlimit="10"/></g><g transform="translate(-22,2) scale(1,1)"><path fill="none" stroke="#000000" d="M 348.78246613659775 150.07455540522247 L 359 146 L 348.893966760832 141.6562582755382" stroke-miterlimit="10"/></g><g transform="translate(-22,2) scale(1,1)"><path fill="none" stroke="#000000" d="M 150 280 L 208 320 L 367 321" stroke-miterlimit="10"/></g><g transform="translate(-22,2) scale(1,1)"><path fill="none" stroke="#000000" d="M 356.811051699892 325.1455195739167 L 367 321 L 356.8640005615764 316.72665056609253" stroke-miterlimit="10"/></g><g transform="translate(-22,2) scale(1,1)"><path fill="none" stroke="#000000" d="M 113 287 L 256 592 L 319 592" stroke-miterlimit="10"/></g><g transform="translate(-22,2) scale(1,1)"><path fill="none" stroke="#000000" d="M 308.83732514237585 596.209517756016 L 319 592 L 308.83732514237585 587.790482243984" stroke-miterlimit="10"/></g><g transform="translate(-22,2) scale(1,1)"><path fill="none" stroke="#000000" d="M 735 246 L 513 244" stroke-miterlimit="10"/></g><g transform="translate(-22,2) scale(1,1)"><path fill="none" stroke="#000000" d="M 523.2001845144815 239.88220497468237 L 513 244 L 523.1243404254823 248.3008988536056" stroke-miterlimit="10"/></g><g transform="translate(-22,2) scale(1,1)"><path fill="none" stroke="#000000" d="M 727 494 L 561 492" stroke-miterlimit="10"/></g><g transform="translate(-22,2) scale(1,1)"><path fill="none" stroke="#000000" d="M 571.212650737095 487.91322071526815 L 561 492 L 571.1112239355363 496.3316452446431" stroke-miterlimit="10"/></g><g transform="translate(-22,2) scale(1,1)"><path fill="none" stroke="#000000" d="M 584 594 L 727 596" stroke-miterlimit="10"/></g><g transform="translate(-22,2) scale(1,1)"><path fill="none" stroke="#000000" d="M 716.7794503329278 600.0669846942067 L 727 596 L 716.8971875667039 591.6487724792148" stroke-miterlimit="10"/></g><g transform="translate(-22,2) scale(1,1)"><path fill="none" stroke="#000000" d="M 105 287 L 256 776 L 399 778" stroke-miterlimit="10"/></g><g transform="translate(-22,2) scale(1,1)"><path fill="none" stroke="#000000" d="M 388.7794503329278 782.0669846942067 L 399 778 L 388.89718756670396 773.6487724792148" stroke-miterlimit="10"/></g><g transform="translate(-22,2) scale(1,1)"><path fill="none" stroke="#000000" d="M 102 287 L 256 888 L 383 890" stroke-miterlimit="10"/></g><g transform="translate(-22,2) scale(1,1)"><path fill="none" stroke="#000000" d="M 372.7723016826776 894.0489735896693 L 383 890 L 372.90486848179063 885.6309818459915" stroke-miterlimit="10"/></g><g transform="translate(-22,2) scale(1,1)"><path fill="none" stroke="#000000" d="M 396 655 L 435 611" stroke-miterlimit="10"/></g><g transform="translate(-22,2) scale(1,1)"><path fill="#FFFFFF" stroke="none" d="M 427.8184022594604 631.7948227665704 L 435 611 L 415.21768334609607 620.6260037297249"/></g><g transform="translate(-22,2) scale(1,1)"><path fill="none" stroke="#000000" d="M 427.8184022594604 631.7948227665704 L 435 611 L 415.21768334609607 620.6260037297249 L 427.8184022594604 631.7948227665704" stroke-miterlimit="10"/></g><g transform="translate(-22,2) scale(1,1)"><path fill="none" stroke="#000000" d="M 499 639 L 470 611" stroke-miterlimit="10"/></g><g transform="translate(-22,2) scale(1,1)"><path fill="#FFFFFF" stroke="none" d="M 490.4699021500085 619.0612099568909 L 470 611 L 478.77427039541004 631.1745428455822"/></g><g transform="translate(-22,2) scale(1,1)"><path fill="none" stroke="#000000" d="M 490.4699021500085 619.0612099568909 L 470 611 L 478.77427039541004 631.1745428455822 L 490.4699021500085 619.0612099568909" stroke-miterlimit="10"/></g></g></svg>