<svg version="1.1" xmlns="http://www.w3.org/2000/svg" xmlns:xlink="http://www.w3.org/1999/xlink" width="733.9326171875" height="211"><defs/><g><g transform="translate(-54,-102) scale(1,1)"><path fill="#ffffff" stroke="none" d="M 113.62980930397728 121.68 C 113.62980930397728 116.886167936 117.51565162892274 113 122.30908203125 113 C 127.10251243357726 113 130.98835475852272 116.886167936 130.98835475852272 121.68 C 130.98835475852272 126.473832064 127.10251243357726 130.36 122.30908203125 130.36 C 117.51565162892274 130.36 113.62980930397728 126.473832064 113.62980930397728 121.68 Z"/></g><g transform="translate(-54,-102) scale(1,1)"><path fill="none" stroke="#000000" d="M 113.62980930397728 121.68 C 113.62980930397728 116.886167936 117.51565162892274 113 122.30908203125 113 C 127.10251243357726 113 130.98835475852272 116.886167936 130.98835475852272 121.68 C 130.98835475852272 126.473832064 127.10251243357726 130.36 122.30908203125 130.36 C 117.51565162892274 130.36 113.62980930397728 126.473832064 113.62980930397728 121.68 Z" stroke-miterlimit="10"/></g><g transform="translate(-54,-102) scale(1,1)"><path fill="none" stroke="#000000" d="M 122.30908203125 130.36 L 122.30908203125 147.64" stroke-miterlimit="10"/></g><g transform="translate(-54,-102) scale(1,1)"><path fill="none" stroke="#000000" d="M 113.11926384943183 136.84 L 131.49890021306817 136.84" stroke-miterlimit="10"/></g><g transform="translate(-54,-102) scale(1,1)"><path fill="none" stroke="#000000" d="M 122.30908203125 147.64 L 109.54544566761365 165" stroke-miterlimit="10"/></g><g transform="translate(-54,-102) scale(1,1)"><path fill="none" stroke="#000000" d="M 122.30908203125 147.64 L 135.07271839488635 165" stroke-miterlimit="10"/></g><g transform="translate(-54,-102) scale(1,1)"><g><path fill="none" stroke="none"/><text fill="#000000" stroke="none" font-family="Arial" font-size="13px" font-style="normal" font-weight="bold" text-decoration="none" x="72.80908203125" y="185.5">HR Administrator</text></g></g><g transform="translate(-54,-102) scale(1,1)"><g><path fill="none" stroke="none"/><text fill="#000000" stroke="none" font-family="Arial" font-size="13px" font-style="normal" font-weight="normal" text-decoration="none" x="82.30908203125" y="200.5">(from Model1)</text></g></g><g transform="translate(-54,-102) scale(1,1)"><path fill="#C0C0C0" stroke="none" d="M 479 281 C 479 266.6405952 527.3532416 255 587 255 C 646.6467584 255 695 266.6405952 695 281 C 695 295.3594048 646.6467584 307 587 307 C 527.3532416 307 479 295.3594048 479 281 Z" opacity="0.2"/></g><g transform="translate(-54,-102) scale(1,1)"><path fill="#a3e0ff" stroke="none" d="M 472 274 C 472 259.6405952 520.3532416 248 580 248 C 639.6467584 248 688 259.6405952 688 274 C 688 288.3594048 639.6467584 300 580 300 C 520.3532416 300 472 288.3594048 472 274 Z"/></g><g transform="translate(-54,-102) scale(1,1)"><path fill="none" stroke="#000000" d="M 472 274 C 472 259.6405952 520.3532416 248 580 248 C 639.6467584 248 688 259.6405952 688 274 C 688 288.3594048 639.6467584 300 580 300 C 520.3532416 300 472 288.3594048 472 274 Z" stroke-miterlimit="10"/></g><g transform="translate(-54,-102) scale(1,1)"><g><path fill="none" stroke="none"/><text fill="#000000" stroke="none" font-family="Arial" font-size="13px" font-style="normal" font-weight="bold" text-decoration="none" x="520" y="281">issue bulk payments</text></g></g><g transform="translate(-54,-102) scale(1,1)"><path fill="#C0C0C0" stroke="none" d="M 223 274.5 C 223 254.8938896 271.5770992 239 331.5 239 C 391.4229008 239 440 254.8938896 440 274.5 C 440 294.1061104 391.4229008 310 331.5 310 C 271.5770992 310 223 294.1061104 223 274.5 Z" opacity="0.2"/></g><g transform="translate(-54,-102) scale(1,1)"><path fill="#a3e0ff" stroke="none" d="M 216 267.5 C 216 247.8938896 264.5770992 232 324.5 232 C 384.4229008 232 433 247.8938896 433 267.5 C 433 287.1061104 384.4229008 303 324.5 303 C 264.5770992 303 216 287.1061104 216 267.5 Z"/></g><g transform="translate(-54,-102) scale(1,1)"><path fill="none" stroke="#000000" d="M 216 267.5 C 216 247.8938896 264.5770992 232 324.5 232 C 384.4229008 232 433 247.8938896 433 267.5 C 433 287.1061104 384.4229008 303 324.5 303 C 264.5770992 303 216 287.1061104 216 267.5 Z" stroke-miterlimit="10"/></g><g transform="translate(-54,-102) scale(1,1)"><g><path fill="none" stroke="none"/><text fill="#000000" stroke="none" font-family="Arial" font-size="13px" font-style="normal" font-weight="bold" text-decoration="none" x="280" y="261.5">issue individual</text><text fill="#000000" stroke="none" font-family="Arial" font-size="13px" font-style="normal" font-weight="bold" text-decoration="none" x="267.5" y="274.5">payment to specific</text><text fill="#000000" stroke="none" font-family="Arial" font-size="13px" font-style="normal" font-weight="bold" text-decoration="none" x="296.5" y="287.5">employee</text></g></g><g transform="translate(-54,-102) scale(1,1)"><path fill="#C0C0C0" stroke="none" d="M 367 168 C 367 158.6111584 398.340064 151 437 151 C 475.659936 151 507 158.6111584 507 168 C 507 177.3888416 475.659936 185 437 185 C 398.340064 185 367 177.3888416 367 168 Z" opacity="0.2"/></g><g transform="translate(-54,-102) scale(1,1)"><path fill="#ffffff" stroke="none" d="M 360 161 C 360 151.6111584 391.340064 144 430 144 C 468.659936 144 500 151.6111584 500 161 C 500 170.3888416 468.659936 178 430 178 C 391.340064 178 360 170.3888416 360 161 Z"/></g><g transform="translate(-54,-102) scale(1,1)"><path fill="none" stroke="#000000" d="M 360 161 C 360 151.6111584 391.340064 144 430 144 C 468.659936 144 500 151.6111584 500 161 C 500 170.3888416 468.659936 178 430 178 C 391.340064 178 360 170.3888416 360 161 Z" stroke-miterlimit="10"/></g><g transform="translate(-54,-102) scale(1,1)"><g><path fill="none" stroke="none"/><text fill="#000000" stroke="none" font-family="Arial" font-size="13px" font-style="italic" font-weight="bold" text-decoration="none" x="387.5" y="168">issue payment</text></g></g><g transform="translate(-54,-102) scale(1,1)"><path fill="none" stroke="#000000" d="M 182 159 L 359 161" stroke-miterlimit="10"/></g><g transform="translate(-54,-102) scale(1,1)"><path fill="none" stroke="#000000" d="M 348.7904117151747 165.0944238977368 L 359 161 L 348.8855359875354 156.67592579381926" stroke-miterlimit="10"/></g><g transform="translate(-54,-102) scale(1,1)"><path fill="none" stroke="#000000" d="M 360 231 L 412 179" stroke-miterlimit="10"/></g><g transform="translate(-54,-102) scale(1,1)"><path fill="#FFFFFF" stroke="none" d="M 403.580964487968 199.3253497152483 L 412 179 L 391.6746502847517 187.41903551203197"/></g><g transform="translate(-54,-102) scale(1,1)"><path fill="none" stroke="#000000" d="M 403.580964487968 199.3253497152483 L 412 179 L 391.6746502847517 187.41903551203197 L 403.580964487968 199.3253497152483" stroke-miterlimit="10"/></g><g transform="translate(-54,-102) scale(1,1)"><path fill="none" stroke="#000000" d="M 544 247 L 454 179" stroke-miterlimit="10"/></g><g transform="translate(-54,-102) scale(1,1)"><path fill="#FFFFFF" stroke="none" d="M 475.2922055707711 184.53552002363142 L 454 179 L 465.14165919940655 197.9700666916139"/></g><g transform="translate(-54,-102) scale(1,1)"><path fill="none" stroke="#000000" d="M 475.2922055707711 184.53552002363142 L 454 179 L 465.14165919940655 197.9700666916139 L 475.2922055707711 184.53552002363142" stroke-miterlimit="10"/></g><g transform="translate(-54,-102) scale(1,1)"><path fill="#ffffff" stroke="none" d="M 692.2870358664773 121.68 C 692.2870358664773 116.886167936 696.1728781914227 113 700.96630859375 113 C 705.7597389960773 113 709.6455813210227 116.886167936 709.6455813210227 121.68 C 709.6455813210227 126.473832064 705.7597389960773 130.36 700.96630859375 130.36 C 696.1728781914227 130.36 692.2870358664773 126.473832064 692.2870358664773 121.68 Z"/></g><g transform="translate(-54,-102) scale(1,1)"><path fill="none" stroke="#000000" d="M 692.2870358664773 121.68 C 692.2870358664773 116.886167936 696.1728781914227 113 700.96630859375 113 C 705.7597389960773 113 709.6455813210227 116.886167936 709.6455813210227 121.68 C 709.6455813210227 126.473832064 705.7597389960773 130.36 700.96630859375 130.36 C 696.1728781914227 130.36 692.2870358664773 126.473832064 692.2870358664773 121.68 Z" stroke-miterlimit="10"/></g><g transform="translate(-54,-102) scale(1,1)"><path fill="none" stroke="#000000" d="M 700.96630859375 130.36 L 700.96630859375 147.64" stroke-miterlimit="10"/></g><g transform="translate(-54,-102) scale(1,1)"><path fill="none" stroke="#000000" d="M 691.7764904119318 136.84 L 710.1561267755682 136.84" stroke-miterlimit="10"/></g><g transform="translate(-54,-102) scale(1,1)"><path fill="none" stroke="#000000" d="M 700.96630859375 147.64 L 688.2026722301136 165" stroke-miterlimit="10"/></g><g transform="translate(-54,-102) scale(1,1)"><path fill="none" stroke="#000000" d="M 700.96630859375 147.64 L 713.7299449573864 165" stroke-miterlimit="10"/></g><g transform="translate(-54,-102) scale(1,1)"><g><path fill="none" stroke="none"/><text fill="#000000" stroke="none" font-family="Arial" font-size="13px" font-style="normal" font-weight="bold" text-decoration="none" x="668.46630859375" y="185.5">Accounting</text><text fill="#000000" stroke="none" font-family="Arial" font-size="13px" font-style="normal" font-weight="bold" text-decoration="none" x="638.96630859375" y="198.5">Management System</text></g></g><g transform="translate(-54,-102) scale(1,1)"><path fill="none" stroke="#000000" d="M 501 160 L 623 159" stroke-miterlimit="10"/></g><g transform="translate(-54,-102) scale(1,1)"><path fill="none" stroke="#000000" d="M 612.8721696059863 163.29267416770614 L 623 159 L 612.8031634362763 154.873921463095" stroke-miterlimit="10"/></g></g></svg>