<svg version="1.1" xmlns="http://www.w3.org/2000/svg" xmlns:xlink="http://www.w3.org/1999/xlink" width="773.9326171875" height="387"><defs/><g><g transform="translate(-6,-206) scale(1,1)"><path fill="#ffffff" stroke="none" d="M 65.62980930397727 429.68 C 65.62980930397727 424.886167936 69.51565162892273 421 74.30908203125 421 C 79.10251243357727 421 82.98835475852273 424.886167936 82.98835475852273 429.68 C 82.98835475852273 434.473832064 79.10251243357727 438.36 74.30908203125 438.36 C 69.51565162892273 438.36 65.62980930397727 434.473832064 65.62980930397727 429.68 Z"/></g><g transform="translate(-6,-206) scale(1,1)"><path fill="none" stroke="#000000" d="M 65.62980930397727 429.68 C 65.62980930397727 424.886167936 69.51565162892273 421 74.30908203125 421 C 79.10251243357727 421 82.98835475852273 424.886167936 82.98835475852273 429.68 C 82.98835475852273 434.473832064 79.10251243357727 438.36 74.30908203125 438.36 C 69.51565162892273 438.36 65.62980930397727 434.473832064 65.62980930397727 429.68 Z" stroke-miterlimit="10"/></g><g transform="translate(-6,-206) scale(1,1)"><path fill="none" stroke="#000000" d="M 74.30908203125 438.36 L 74.30908203125 455.64" stroke-miterlimit="10"/></g><g transform="translate(-6,-206) scale(1,1)"><path fill="none" stroke="#000000" d="M 65.11926384943182 444.84 L 83.49890021306818 444.84" stroke-miterlimit="10"/></g><g transform="translate(-6,-206) scale(1,1)"><path fill="none" stroke="#000000" d="M 74.30908203125 455.64 L 61.545445667613635 473" stroke-miterlimit="10"/></g><g transform="translate(-6,-206) scale(1,1)"><path fill="none" stroke="#000000" d="M 74.30908203125 455.64 L 87.07271839488637 473" stroke-miterlimit="10"/></g><g transform="translate(-6,-206) scale(1,1)"><g><path fill="none" stroke="none"/><text fill="#000000" stroke="none" font-family="Arial" font-size="13px" font-style="normal" font-weight="bold" text-decoration="none" x="24.825927734375" y="493.5">HR Administrator</text></g></g><g transform="translate(-6,-206) scale(1,1)"><g><path fill="none" stroke="none"/><text fill="#000000" stroke="none" font-family="Arial" font-size="13px" font-style="normal" font-weight="normal" text-decoration="none" x="33.85546875" y="508.5">(from Model1)</text></g></g><g transform="translate(-6,-206) scale(1,1)"><path fill="#C0C0C0" stroke="none" d="M 423 545 C 423 530.6405952 471.3532416 519 531 519 C 590.6467584 519 639 530.6405952 639 545 C 639 559.3594048 590.6467584 571 531 571 C 471.3532416 571 423 559.3594048 423 545 Z" opacity="0.2"/></g><g transform="translate(-6,-206) scale(1,1)"><path fill="#2b2bff" stroke="none" d="M 416 538 C 416 523.6405952 464.3532416 512 524 512 C 583.6467584 512 632 523.6405952 632 538 C 632 552.3594048 583.6467584 564 524 564 C 464.3532416 564 416 552.3594048 416 538 Z"/></g><g transform="translate(-6,-206) scale(1,1)"><path fill="none" stroke="#000000" d="M 416 538 C 416 523.6405952 464.3532416 512 524 512 C 583.6467584 512 632 523.6405952 632 538 C 632 552.3594048 583.6467584 564 524 564 C 464.3532416 564 416 552.3594048 416 538 Z" stroke-miterlimit="10"/></g><g transform="translate(-6,-206) scale(1,1)"><g><path fill="none" stroke="none"/><text fill="#000000" stroke="none" font-family="Arial" font-size="13px" font-style="normal" font-weight="bold" text-decoration="none" x="465.109619140625" y="545">issue bulk payments</text></g></g><g transform="translate(-6,-206) scale(1,1)"><path fill="#C0C0C0" stroke="none" d="M 191 554.5 C 191 534.8938896 239.5770992 519 299.5 519 C 359.4229008 519 408 534.8938896 408 554.5 C 408 574.1061104 359.4229008 590 299.5 590 C 239.5770992 590 191 574.1061104 191 554.5 Z" opacity="0.2"/></g><g transform="translate(-6,-206) scale(1,1)"><path fill="#2b2bff" stroke="none" d="M 184 547.5 C 184 527.8938896 232.5770992 512 292.5 512 C 352.4229008 512 401 527.8938896 401 547.5 C 401 567.1061104 352.4229008 583 292.5 583 C 232.5770992 583 184 567.1061104 184 547.5 Z"/></g><g transform="translate(-6,-206) scale(1,1)"><path fill="none" stroke="#000000" d="M 184 547.5 C 184 527.8938896 232.5770992 512 292.5 512 C 352.4229008 512 401 527.8938896 401 547.5 C 401 567.1061104 352.4229008 583 292.5 583 C 232.5770992 583 184 567.1061104 184 547.5 Z" stroke-miterlimit="10"/></g><g transform="translate(-6,-206) scale(1,1)"><g><path fill="none" stroke="none"/><text fill="#000000" stroke="none" font-family="Arial" font-size="13px" font-style="normal" font-weight="bold" text-decoration="none" x="248.418701171875" y="541.5">issue individual</text><text fill="#000000" stroke="none" font-family="Arial" font-size="13px" font-style="normal" font-weight="bold" text-decoration="none" x="236.86279296875" y="554.5">payment to specific</text><text fill="#000000" stroke="none" font-family="Arial" font-size="13px" font-style="normal" font-weight="bold" text-decoration="none" x="264.31640625" y="567.5">employee</text></g></g><g transform="translate(-6,-206) scale(1,1)"><path fill="#C0C0C0" stroke="none" d="M 375 400 C 375 390.6111584 406.340064 383 445 383 C 483.659936 383 515 390.6111584 515 400 C 515 409.3888416 483.659936 417 445 417 C 406.340064 417 375 409.3888416 375 400 Z" opacity="0.2"/></g><g transform="translate(-6,-206) scale(1,1)"><path fill="#ffffff" stroke="none" d="M 368 393 C 368 383.6111584 399.340064 376 438 376 C 476.659936 376 508 383.6111584 508 393 C 508 402.3888416 476.659936 410 438 410 C 399.340064 410 368 402.3888416 368 393 Z"/></g><g transform="translate(-6,-206) scale(1,1)"><path fill="none" stroke="#000000" d="M 368 393 C 368 383.6111584 399.340064 376 438 376 C 476.659936 376 508 383.6111584 508 393 C 508 402.3888416 476.659936 410 438 410 C 399.340064 410 368 402.3888416 368 393 Z" stroke-miterlimit="10"/></g><g transform="translate(-6,-206) scale(1,1)"><g><path fill="none" stroke="none"/><text fill="#000000" stroke="none" font-family="Arial" font-size="13px" font-style="italic" font-weight="bold" text-decoration="none" x="396.089599609375" y="400">issue payment</text></g></g><g transform="translate(-6,-206) scale(1,1)"><path fill="#C0C0C0" stroke="none" d="M 359 250.5 C 359 235.31216799999999 407.3532416 223 467 223 C 526.6467584 223 575 235.31216799999999 575 250.5 C 575 265.687832 526.6467584 278 467 278 C 407.3532416 278 359 265.687832 359 250.5 Z" opacity="0.2"/></g><g transform="translate(-6,-206) scale(1,1)"><path fill="#ffffff" stroke="none" d="M 352 243.5 C 352 228.31216799999999 400.3532416 216 460 216 C 519.6467584 216 568 228.31216799999999 568 243.5 C 568 258.687832 519.6467584 271 460 271 C 400.3532416 271 352 258.687832 352 243.5 Z"/></g><g transform="translate(-6,-206) scale(1,1)"><path fill="none" stroke="#000000" d="M 352 243.5 C 352 228.31216799999999 400.3532416 216 460 216 C 519.6467584 216 568 228.31216799999999 568 243.5 C 568 258.687832 519.6467584 271 460 271 C 400.3532416 271 352 258.687832 352 243.5 Z" stroke-miterlimit="10"/></g><g transform="translate(-6,-206) scale(1,1)"><g><path fill="none" stroke="none"/><text fill="#000000" stroke="none" font-family="Arial" font-size="13px" font-style="normal" font-weight="bold" text-decoration="none" x="393.517822265625" y="243">create action on record</text></g></g><g transform="translate(-6,-206) scale(1,1)"><g><path fill="none" stroke="none"/><text fill="#000000" stroke="none" font-family="Arial" font-size="13px" font-style="normal" font-weight="normal" text-decoration="none" x="419.54638671875" y="258">(from Model1)</text></g></g><g transform="translate(-6,-206) scale(1,1)"><path fill="none" stroke="#000000" d="M 134 455 L 367 407" stroke-miterlimit="10"/></g><g transform="translate(-6,-206) scale(1,1)"><path fill="none" stroke="#000000" d="M 357.8957055911002 413.17347740872805 L 367 407 L 356.1969839463346 404.92759942476175" stroke-miterlimit="10"/></g><g transform="translate(-6,-206) scale(1,1)"><path fill="none" stroke="#000000" d="M 326 511 L 421 411" stroke-miterlimit="10"/></g><g transform="translate(-6,-206) scale(1,1)"><path fill="#FFFFFF" stroke="none" d="M 413.1047222980292 431.5344732099161 L 421 411 L 400.8971303427603 419.9372608524107"/></g><g transform="translate(-6,-206) scale(1,1)"><path fill="none" stroke="#000000" d="M 413.1047222980292 431.5344732099161 L 421 411 L 400.8971303427603 419.9372608524107 L 413.1047222980292 431.5344732099161" stroke-miterlimit="10"/></g><g transform="translate(-6,-206) scale(1,1)"><path fill="none" stroke="#000000" d="M 508 511 L 449 411" stroke-miterlimit="10"/></g><g transform="translate(-6,-206) scale(1,1)"><path fill="#FFFFFF" stroke="none" d="M 466.57935979218837 424.2274755451216 L 449 411 L 452.07724686203983 432.78372217390927"/></g><g transform="translate(-6,-206) scale(1,1)"><path fill="none" stroke="#000000" d="M 466.57935979218837 424.2274755451216 L 449 411 L 452.07724686203983 432.78372217390927 L 466.57935979218837 424.2274755451216" stroke-miterlimit="10"/></g><g transform="translate(-6,-206) scale(1,1)"><path fill="none" stroke="#000000" d="M 441 375 L 456 272" stroke-miterlimit="10" stroke-dasharray="3"/></g><g transform="translate(-6,-206) scale(1,1)"><path fill="none" stroke="#000000" d="M 458.7010246217091 282.6632296230045 L 456 272 L 450.3698708503866 281.44995480193813" stroke-miterlimit="10"/></g><g transform="translate(-6,-206) scale(1,1)"><g><path fill="none" stroke="none"/><text fill="#000000" stroke="none" font-family="Arial" font-size="13px" font-style="normal" font-weight="normal" text-decoration="none" x="391" y="325">«include»</text></g></g><g transform="translate(-6,-206) scale(1,1)"><path fill="#ffffff" stroke="none" d="M 684.2870358664773 369.68 C 684.2870358664773 364.886167936 688.1728781914227 361 692.96630859375 361 C 697.7597389960773 361 701.6455813210227 364.886167936 701.6455813210227 369.68 C 701.6455813210227 374.473832064 697.7597389960773 378.36 692.96630859375 378.36 C 688.1728781914227 378.36 684.2870358664773 374.473832064 684.2870358664773 369.68 Z"/></g><g transform="translate(-6,-206) scale(1,1)"><path fill="none" stroke="#000000" d="M 684.2870358664773 369.68 C 684.2870358664773 364.886167936 688.1728781914227 361 692.96630859375 361 C 697.7597389960773 361 701.6455813210227 364.886167936 701.6455813210227 369.68 C 701.6455813210227 374.473832064 697.7597389960773 378.36 692.96630859375 378.36 C 688.1728781914227 378.36 684.2870358664773 374.473832064 684.2870358664773 369.68 Z" stroke-miterlimit="10"/></g><g transform="translate(-6,-206) scale(1,1)"><path fill="none" stroke="#000000" d="M 692.96630859375 378.36 L 692.96630859375 395.64" stroke-miterlimit="10"/></g><g transform="translate(-6,-206) scale(1,1)"><path fill="none" stroke="#000000" d="M 683.7764904119318 384.84 L 702.1561267755682 384.84" stroke-miterlimit="10"/></g><g transform="translate(-6,-206) scale(1,1)"><path fill="none" stroke="#000000" d="M 692.96630859375 395.64 L 680.2026722301136 413" stroke-miterlimit="10"/></g><g transform="translate(-6,-206) scale(1,1)"><path fill="none" stroke="#000000" d="M 692.96630859375 395.64 L 705.7299449573864 413" stroke-miterlimit="10"/></g><g transform="translate(-6,-206) scale(1,1)"><g><path fill="none" stroke="none"/><text fill="#000000" stroke="none" font-family="Arial" font-size="13px" font-style="normal" font-weight="bold" text-decoration="none" x="629.734130859375" y="433.5">Account Management</text><text fill="#000000" stroke="none" font-family="Arial" font-size="13px" font-style="normal" font-weight="bold" text-decoration="none" x="671.29541015625" y="446.5">System</text></g></g><g transform="translate(-6,-206) scale(1,1)"><path fill="none" stroke="#000000" d="M 509 397 L 615 402" stroke-miterlimit="10"/></g><g transform="translate(-6,-206) scale(1,1)"><path fill="none" stroke="#000000" d="M 604.6502706144214 405.7260034413955 L 615 402 L 605.0469538678765 397.31631846814685" stroke-miterlimit="10"/></g></g></svg>