<svg version="1.1" xmlns="http://www.w3.org/2000/svg" xmlns:xlink="http://www.w3.org/1999/xlink" width="1077.9072265625" height="686"><defs/><g><g transform="translate(-70,-54) scale(1,1)"><path fill="#ffffff" stroke="none" d="M 129.62980930397728 329.68 C 129.62980930397728 324.886167936 133.51565162892274 321 138.30908203125 321 C 143.10251243357726 321 146.98835475852272 324.886167936 146.98835475852272 329.68 C 146.98835475852272 334.473832064 143.10251243357726 338.36 138.30908203125 338.36 C 133.51565162892274 338.36 129.62980930397728 334.473832064 129.62980930397728 329.68 Z"/></g><g transform="translate(-70,-54) scale(1,1)"><path fill="none" stroke="#000000" d="M 129.62980930397728 329.68 C 129.62980930397728 324.886167936 133.51565162892274 321 138.30908203125 321 C 143.10251243357726 321 146.98835475852272 324.886167936 146.98835475852272 329.68 C 146.98835475852272 334.473832064 143.10251243357726 338.36 138.30908203125 338.36 C 133.51565162892274 338.36 129.62980930397728 334.473832064 129.62980930397728 329.68 Z" stroke-miterlimit="10"/></g><g transform="translate(-70,-54) scale(1,1)"><path fill="none" stroke="#000000" d="M 138.30908203125 338.36 L 138.30908203125 355.64" stroke-miterlimit="10"/></g><g transform="translate(-70,-54) scale(1,1)"><path fill="none" stroke="#000000" d="M 129.11926384943183 344.84 L 147.49890021306817 344.84" stroke-miterlimit="10"/></g><g transform="translate(-70,-54) scale(1,1)"><path fill="none" stroke="#000000" d="M 138.30908203125 355.64 L 125.54544566761365 373" stroke-miterlimit="10"/></g><g transform="translate(-70,-54) scale(1,1)"><path fill="none" stroke="#000000" d="M 138.30908203125 355.64 L 151.07271839488635 373" stroke-miterlimit="10"/></g><g transform="translate(-70,-54) scale(1,1)"><g><path fill="none" stroke="none"/><text fill="#000000" stroke="none" font-family="Arial" font-size="13px" font-style="normal" font-weight="bold" text-decoration="none" x="88.825927734375" y="393.5">HR Administrator</text></g></g><g transform="translate(-70,-54) scale(1,1)"><g><path fill="none" stroke="none"/><text fill="#000000" stroke="none" font-family="Arial" font-size="13px" font-style="normal" font-weight="normal" text-decoration="none" x="97.85546875" y="408.5">(from Model1)</text></g></g><g transform="translate(-70,-54) scale(1,1)"><path fill="#C0C0C0" stroke="none" d="M 199 144 C 199 134.6111584 238.62279519999998 127 287.5 127 C 336.3772048 127 376 134.6111584 376 144 C 376 153.3888416 336.3772048 161 287.5 161 C 238.62279519999998 161 199 153.3888416 199 144 Z" opacity="0.2"/></g><g transform="translate(-70,-54) scale(1,1)"><path fill="#a3e0ff" stroke="none" d="M 192 137 C 192 127.6111584 231.62279519999998 120 280.5 120 C 329.3772048 120 369 127.6111584 369 137 C 369 146.3888416 329.3772048 154 280.5 154 C 231.62279519999998 154 192 146.3888416 192 137 Z"/></g><g transform="translate(-70,-54) scale(1,1)"><path fill="none" stroke="#000000" d="M 192 137 C 192 127.6111584 231.62279519999998 120 280.5 120 C 329.3772048 120 369 127.6111584 369 137 C 369 146.3888416 329.3772048 154 280.5 154 C 231.62279519999998 154 192 146.3888416 192 137 Z" stroke-miterlimit="10"/></g><g transform="translate(-70,-54) scale(1,1)"><g><path fill="none" stroke="none"/><text fill="#000000" stroke="none" font-family="Arial" font-size="13px" font-style="normal" font-weight="bold" text-decoration="none" x="226.66552734375" y="144">promote employee</text></g></g><g transform="translate(-70,-54) scale(1,1)"><path fill="#C0C0C0" stroke="none" d="M 343 88 C 343 78.6111584 396.725824 71 463 71 C 529.274176 71 583 78.6111584 583 88 C 583 97.3888416 529.274176 105 463 105 C 396.725824 105 343 97.3888416 343 88 Z" opacity="0.2"/></g><g transform="translate(-70,-54) scale(1,1)"><path fill="#ffffff" stroke="none" d="M 336 81 C 336 71.6111584 389.725824 64 456 64 C 522.274176 64 576 71.6111584 576 81 C 576 90.3888416 522.274176 98 456 98 C 389.725824 98 336 90.3888416 336 81 Z"/></g><g transform="translate(-70,-54) scale(1,1)"><path fill="none" stroke="#000000" d="M 336 81 C 336 71.6111584 389.725824 64 456 64 C 522.274176 64 576 71.6111584 576 81 C 576 90.3888416 522.274176 98 456 98 C 389.725824 98 336 90.3888416 336 81 Z" stroke-miterlimit="10"/></g><g transform="translate(-70,-54) scale(1,1)"><g><path fill="none" stroke="none"/><text fill="#000000" stroke="none" font-family="Arial" font-size="13px" font-style="italic" font-weight="bold" text-decoration="none" x="381.919677734375" y="88">update employee position</text></g></g><g transform="translate(-70,-54) scale(1,1)"><path fill="#C0C0C0" stroke="none" d="M 767 520 C 767 510.6111584 820.2781088 503 886 503 C 951.7218912 503 1005 510.6111584 1005 520 C 1005 529.3888416 951.7218912 537 886 537 C 820.2781088 537 767 529.3888416 767 520 Z" opacity="0.2"/></g><g transform="translate(-70,-54) scale(1,1)"><path fill="#ffffff" stroke="none" d="M 760 513 C 760 503.6111584 813.2781088 496 879 496 C 944.7218912 496 998 503.6111584 998 513 C 998 522.3888416 944.7218912 530 879 530 C 813.2781088 530 760 522.3888416 760 513 Z"/></g><g transform="translate(-70,-54) scale(1,1)"><path fill="none" stroke="#000000" d="M 760 513 C 760 503.6111584 813.2781088 496 879 496 C 944.7218912 496 998 503.6111584 998 513 C 998 522.3888416 944.7218912 530 879 530 C 813.2781088 530 760 522.3888416 760 513 Z" stroke-miterlimit="10"/></g><g transform="translate(-70,-54) scale(1,1)"><g><path fill="none" stroke="none"/><text fill="#000000" stroke="none" font-family="Arial" font-size="13px" font-style="normal" font-weight="bold" text-decoration="none" x="813.23193359375" y="520">grant leave of absence</text></g></g><g transform="translate(-70,-54) scale(1,1)"><path fill="#C0C0C0" stroke="none" d="M 375 545 C 375 530.6405952 423.8009568 519 484 519 C 544.1990432 519 593 530.6405952 593 545 C 593 559.3594048 544.1990432 571 484 571 C 423.8009568 571 375 559.3594048 375 545 Z" opacity="0.2"/></g><g transform="translate(-70,-54) scale(1,1)"><path fill="#ffffff" stroke="none" d="M 368 538 C 368 523.6405952 416.8009568 512 477 512 C 537.1990432 512 586 523.6405952 586 538 C 586 552.3594048 537.1990432 564 477 564 C 416.8009568 564 368 552.3594048 368 538 Z"/></g><g transform="translate(-70,-54) scale(1,1)"><path fill="none" stroke="#000000" d="M 368 538 C 368 523.6405952 416.8009568 512 477 512 C 537.1990432 512 586 523.6405952 586 538 C 586 552.3594048 537.1990432 564 477 564 C 416.8009568 564 368 552.3594048 368 538 Z" stroke-miterlimit="10"/></g><g transform="translate(-70,-54) scale(1,1)"><g><path fill="none" stroke="none"/><text fill="#000000" stroke="none" font-family="Arial" font-size="13px" font-style="normal" font-weight="bold" text-decoration="none" x="411.235107421875" y="545">log business expenses</text></g></g><g transform="translate(-70,-54) scale(1,1)"><path fill="#C0C0C0" stroke="none" d="M 775 225 C 775 210.6405952 821.5623808 199 879 199 C 936.4376192 199 983 210.6405952 983 225 C 983 239.3594048 936.4376192 251 879 251 C 821.5623808 251 775 239.3594048 775 225 Z" opacity="0.2"/></g><g transform="translate(-70,-54) scale(1,1)"><path fill="#a3e0ff" stroke="none" d="M 768 218 C 768 203.6405952 814.5623808 192 872 192 C 929.4376192 192 976 203.6405952 976 218 C 976 232.3594048 929.4376192 244 872 244 C 814.5623808 244 768 232.3594048 768 218 Z"/></g><g transform="translate(-70,-54) scale(1,1)"><path fill="none" stroke="#000000" d="M 768 218 C 768 203.6405952 814.5623808 192 872 192 C 929.4376192 192 976 203.6405952 976 218 C 976 232.3594048 929.4376192 244 872 244 C 814.5623808 244 768 232.3594048 768 218 Z" stroke-miterlimit="10"/></g><g transform="translate(-70,-54) scale(1,1)"><g><path fill="none" stroke="none"/><text fill="#000000" stroke="none" font-family="Arial" font-size="13px" font-style="normal" font-weight="bold" text-decoration="none" x="837.67822265625" y="218.5">report office</text><text fill="#000000" stroke="none" font-family="Arial" font-size="13px" font-style="normal" font-weight="bold" text-decoration="none" x="846.345947265625" y="231.5">incidents</text></g></g><g transform="translate(-70,-54) scale(1,1)"><path fill="#ffffff" stroke="none" d="M 1084.2743405539773 297.68 C 1084.2743405539773 292.886167936 1088.1601828789228 289 1092.95361328125 289 C 1097.7470436835772 289 1101.6328860085227 292.886167936 1101.6328860085227 297.68 C 1101.6328860085227 302.473832064 1097.7470436835772 306.36 1092.95361328125 306.36 C 1088.1601828789228 306.36 1084.2743405539773 302.473832064 1084.2743405539773 297.68 Z"/></g><g transform="translate(-70,-54) scale(1,1)"><path fill="none" stroke="#000000" d="M 1084.2743405539773 297.68 C 1084.2743405539773 292.886167936 1088.1601828789228 289 1092.95361328125 289 C 1097.7470436835772 289 1101.6328860085227 292.886167936 1101.6328860085227 297.68 C 1101.6328860085227 302.473832064 1097.7470436835772 306.36 1092.95361328125 306.36 C 1088.1601828789228 306.36 1084.2743405539773 302.473832064 1084.2743405539773 297.68 Z" stroke-miterlimit="10"/></g><g transform="translate(-70,-54) scale(1,1)"><path fill="none" stroke="#000000" d="M 1092.95361328125 306.36 L 1092.95361328125 323.64" stroke-miterlimit="10"/></g><g transform="translate(-70,-54) scale(1,1)"><path fill="none" stroke="#000000" d="M 1083.7637950994317 312.84 L 1102.1434314630683 312.84" stroke-miterlimit="10"/></g><g transform="translate(-70,-54) scale(1,1)"><path fill="none" stroke="#000000" d="M 1092.95361328125 323.64 L 1080.1899769176136 341" stroke-miterlimit="10"/></g><g transform="translate(-70,-54) scale(1,1)"><path fill="none" stroke="#000000" d="M 1092.95361328125 323.64 L 1105.7172496448864 341" stroke-miterlimit="10"/></g><g transform="translate(-70,-54) scale(1,1)"><g><path fill="none" stroke="none"/><text fill="#000000" stroke="none" font-family="Arial" font-size="13px" font-style="normal" font-weight="bold" text-decoration="none" x="1064.049560546875" y="361.5">Employee</text></g></g><g transform="translate(-70,-54) scale(1,1)"><g><path fill="none" stroke="none"/><text fill="#000000" stroke="none" font-family="Arial" font-size="13px" font-style="normal" font-weight="normal" text-decoration="none" x="1052.5" y="376.5">(from Model1)</text></g></g><g transform="translate(-70,-54) scale(1,1)"><path fill="none" stroke="#000000" d="M 138 319 L 136 80 L 335 81" stroke-miterlimit="10"/></g><g transform="translate(-70,-54) scale(1,1)"><path fill="none" stroke="#000000" d="M 324.81630036482545 85.15839653478903 L 335 81 L 324.85860654178913 76.73946731901306" stroke-miterlimit="10"/></g><g transform="translate(-70,-54) scale(1,1)"><path fill="none" stroke="#000000" d="M 1068 287 L 1032 216 L 977 217" stroke-miterlimit="10"/></g><g transform="translate(-70,-54) scale(1,1)"><path fill="none" stroke="#000000" d="M 987.0844714540991 212.60643248698065 L 977 217 L 987.2375195319325 221.02407676781877" stroke-miterlimit="10"/></g><g transform="translate(-70,-54) scale(1,1)"><path fill="none" stroke="#000000" d="M 158 415 L 208 536 L 367 537" stroke-miterlimit="10"/></g><g transform="translate(-70,-54) scale(1,1)"><path fill="none" stroke="#000000" d="M 356.811051699892 541.1455195739167 L 367 537 L 356.8640005615764 532.7266505660925" stroke-miterlimit="10"/></g><g transform="translate(-70,-54) scale(1,1)"><path fill="none" stroke="#000000" d="M 140 415 L 152 712 L 271 712" stroke-miterlimit="10"/></g><g transform="translate(-70,-54) scale(1,1)"><path fill="none" stroke="#000000" d="M 260.83732514237585 716.209517756016 L 271 712 L 260.83732514237585 707.790482243984" stroke-miterlimit="10"/></g><g transform="translate(-70,-54) scale(1,1)"><path fill="#C0C0C0" stroke="none" d="M 287 456 C 287 446.6111584 323.936504 439 369.5 439 C 415.063496 439 452 446.6111584 452 456 C 452 465.3888416 415.063496 473 369.5 473 C 323.936504 473 287 465.3888416 287 456 Z" opacity="0.2"/></g><g transform="translate(-70,-54) scale(1,1)"><path fill="#ffffff" stroke="none" d="M 280 449 C 280 439.6111584 316.936504 432 362.5 432 C 408.063496 432 445 439.6111584 445 449 C 445 458.3888416 408.063496 466 362.5 466 C 316.936504 466 280 458.3888416 280 449 Z"/></g><g transform="translate(-70,-54) scale(1,1)"><path fill="none" stroke="#000000" d="M 280 449 C 280 439.6111584 316.936504 432 362.5 432 C 408.063496 432 445 439.6111584 445 449 C 445 458.3888416 408.063496 466 362.5 466 C 316.936504 466 280 458.3888416 280 449 Z" stroke-miterlimit="10"/></g><g transform="translate(-70,-54) scale(1,1)"><g><path fill="none" stroke="none"/><text fill="#000000" stroke="none" font-family="Arial" font-size="13px" font-style="normal" font-weight="bold" text-decoration="none" x="313.3564453125" y="456">schedule training</text></g></g><g transform="translate(-70,-54) scale(1,1)"><path fill="#C0C0C0" stroke="none" d="M 359 632 C 359 622.6111584 422.3517008 615 500.5 615 C 578.6482992 615 642 622.6111584 642 632 C 642 641.3888416 578.6482992 649 500.5 649 C 422.3517008 649 359 641.3888416 359 632 Z" opacity="0.2"/></g><g transform="translate(-70,-54) scale(1,1)"><path fill="#ffffff" stroke="none" d="M 352 625 C 352 615.6111584 415.3517008 608 493.5 608 C 571.6482992 608 635 615.6111584 635 625 C 635 634.3888416 571.6482992 642 493.5 642 C 415.3517008 642 352 634.3888416 352 625 Z"/></g><g transform="translate(-70,-54) scale(1,1)"><path fill="none" stroke="#000000" d="M 352 625 C 352 615.6111584 415.3517008 608 493.5 608 C 571.6482992 608 635 615.6111584 635 625 C 635 634.3888416 571.6482992 642 493.5 642 C 415.3517008 642 352 634.3888416 352 625 Z" stroke-miterlimit="10"/></g><g transform="translate(-70,-54) scale(1,1)"><g><path fill="none" stroke="none"/><text fill="#000000" stroke="none" font-family="Arial" font-size="13px" font-style="normal" font-weight="bold" text-decoration="none" x="404.9755859375" y="632">handle office policy awareness</text></g></g><g transform="translate(-70,-54) scale(1,1)"><path fill="none" stroke="#000000" d="M 184 415 L 216 448 L 279 448" stroke-miterlimit="10"/></g><g transform="translate(-70,-54) scale(1,1)"><path fill="none" stroke="#000000" d="M 268.83732514237585 452.209517756016 L 279 448 L 268.83732514237585 443.790482243984" stroke-miterlimit="10"/></g><g transform="translate(-70,-54) scale(1,1)"><path fill="none" stroke="#000000" d="M 145 415 L 176 616 L 351 621" stroke-miterlimit="10"/></g><g transform="translate(-70,-54) scale(1,1)"><path fill="none" stroke="#000000" d="M 340.7212477597107 624.9175569405878 L 351 621 L 340.96169351038094 616.5019556671291" stroke-miterlimit="10"/></g><g transform="translate(-70,-54) scale(1,1)"><path fill="#ffffff" stroke="none" d="M 1084.2743405539773 481.68 C 1084.2743405539773 476.886167936 1088.1601828789228 473 1092.95361328125 473 C 1097.7470436835772 473 1101.6328860085227 476.886167936 1101.6328860085227 481.68 C 1101.6328860085227 486.473832064 1097.7470436835772 490.36 1092.95361328125 490.36 C 1088.1601828789228 490.36 1084.2743405539773 486.473832064 1084.2743405539773 481.68 Z"/></g><g transform="translate(-70,-54) scale(1,1)"><path fill="none" stroke="#000000" d="M 1084.2743405539773 481.68 C 1084.2743405539773 476.886167936 1088.1601828789228 473 1092.95361328125 473 C 1097.7470436835772 473 1101.6328860085227 476.886167936 1101.6328860085227 481.68 C 1101.6328860085227 486.473832064 1097.7470436835772 490.36 1092.95361328125 490.36 C 1088.1601828789228 490.36 1084.2743405539773 486.473832064 1084.2743405539773 481.68 Z" stroke-miterlimit="10"/></g><g transform="translate(-70,-54) scale(1,1)"><path fill="none" stroke="#000000" d="M 1092.95361328125 490.36 L 1092.95361328125 507.64" stroke-miterlimit="10"/></g><g transform="translate(-70,-54) scale(1,1)"><path fill="none" stroke="#000000" d="M 1083.7637950994317 496.84 L 1102.1434314630683 496.84" stroke-miterlimit="10"/></g><g transform="translate(-70,-54) scale(1,1)"><path fill="none" stroke="#000000" d="M 1092.95361328125 507.64 L 1080.1899769176136 525" stroke-miterlimit="10"/></g><g transform="translate(-70,-54) scale(1,1)"><path fill="none" stroke="#000000" d="M 1092.95361328125 507.64 L 1105.7172496448864 525" stroke-miterlimit="10"/></g><g transform="translate(-70,-54) scale(1,1)"><g><path fill="none" stroke="none"/><text fill="#000000" stroke="none" font-family="Arial" font-size="13px" font-style="normal" font-weight="bold" text-decoration="none" x="1067.299560546875" y="545.5">Manager</text></g></g><g transform="translate(-70,-54) scale(1,1)"><g><path fill="none" stroke="none"/><text fill="#000000" stroke="none" font-family="Arial" font-size="13px" font-style="normal" font-weight="normal" text-decoration="none" x="1052.5" y="560.5">(from Model1)</text></g></g><g transform="translate(-70,-54) scale(1,1)"><path fill="#C0C0C0" stroke="none" d="M 807 640 C 807 630.6111584 837.4446336 623 875 623 C 912.5553664 623 943 630.6111584 943 640 C 943 649.3888416 912.5553664 657 875 657 C 837.4446336 657 807 649.3888416 807 640 Z" opacity="0.2"/></g><g transform="translate(-70,-54) scale(1,1)"><path fill="#a3e0ff" stroke="none" d="M 800 633 C 800 623.6111584 830.4446336 616 868 616 C 905.5553664 616 936 623.6111584 936 633 C 936 642.3888416 905.5553664 650 868 650 C 830.4446336 650 800 642.3888416 800 633 Z"/></g><g transform="translate(-70,-54) scale(1,1)"><path fill="none" stroke="#000000" d="M 800 633 C 800 623.6111584 830.4446336 616 868 616 C 905.5553664 616 936 623.6111584 936 633 C 936 642.3888416 905.5553664 650 868 650 C 830.4446336 650 800 642.3888416 800 633 Z" stroke-miterlimit="10"/></g><g transform="translate(-70,-54) scale(1,1)"><g><path fill="none" stroke="none"/><text fill="#000000" stroke="none" font-family="Arial" font-size="13px" font-style="normal" font-weight="bold" text-decoration="none" x="828.266845703125" y="640">submit review</text></g></g><g transform="translate(-70,-54) scale(1,1)"><path fill="#C0C0C0" stroke="none" d="M 807 96 C 807 86.6111584 832.743624 79 864.5 79 C 896.256376 79 922 86.6111584 922 96 C 922 105.3888416 896.256376 113 864.5 113 C 832.743624 113 807 105.3888416 807 96 Z" opacity="0.2"/></g><g transform="translate(-70,-54) scale(1,1)"><path fill="#a3e0ff" stroke="none" d="M 800 89 C 800 79.6111584 825.743624 72 857.5 72 C 889.256376 72 915 79.6111584 915 89 C 915 98.3888416 889.256376 106 857.5 106 C 825.743624 106 800 98.3888416 800 89 Z"/></g><g transform="translate(-70,-54) scale(1,1)"><path fill="none" stroke="#000000" d="M 800 89 C 800 79.6111584 825.743624 72 857.5 72 C 889.256376 72 915 79.6111584 915 89 C 915 98.3888416 889.256376 106 857.5 106 C 825.743624 106 800 98.3888416 800 89 Z" stroke-miterlimit="10"/></g><g transform="translate(-70,-54) scale(1,1)"><g><path fill="none" stroke="none"/><text fill="#000000" stroke="none" font-family="Arial" font-size="13px" font-style="normal" font-weight="bold" text-decoration="none" x="823.908203125" y="96">view review</text></g></g><g transform="translate(-70,-54) scale(1,1)"><path fill="none" stroke="#000000" d="M 1092 471 L 1092 383" stroke-miterlimit="10"/></g><g transform="translate(-70,-54) scale(1,1)"><path fill="#FFFFFF" stroke="none" d="M 1100.419035512032 403.3253497152483 L 1092 383 L 1083.580964487968 403.3253497152483"/></g><g transform="translate(-70,-54) scale(1,1)"><path fill="none" stroke="#000000" d="M 1100.419035512032 403.3253497152483 L 1092 383 L 1083.580964487968 403.3253497152483 L 1100.419035512032 403.3253497152483" stroke-miterlimit="10"/></g><g transform="translate(-70,-54) scale(1,1)"><path fill="none" stroke="#000000" d="M 1079 287 L 1024 88 L 916 89" stroke-miterlimit="10"/></g><g transform="translate(-70,-54) scale(1,1)"><path fill="none" stroke="#000000" d="M 926.1232638973091 84.69656787372706 L 916 89 L 926.2012145883918 93.11524251066459" stroke-miterlimit="10"/></g><g transform="translate(-70,-54) scale(1,1)"><path fill="none" stroke="#000000" d="M 1047 542 L 903 615" stroke-miterlimit="10"/></g><g transform="translate(-70,-54) scale(1,1)"><path fill="none" stroke="#000000" d="M 910.1610705116752 606.6502054440355 L 903 615 L 913.9678378713976 614.1594451673235" stroke-miterlimit="10"/></g><g transform="translate(-70,-54) scale(1,1)"><path fill="#C0C0C0" stroke="none" d="M 279 720 C 279 710.6111584 333.1735392 703 400 703 C 466.8264608 703 521 710.6111584 521 720 C 521 729.3888416 466.8264608 737 400 737 C 333.1735392 737 279 729.3888416 279 720 Z" opacity="0.2"/></g><g transform="translate(-70,-54) scale(1,1)"><path fill="#a3e0ff" stroke="none" d="M 272 713 C 272 703.6111584 326.1735392 696 393 696 C 459.8264608 696 514 703.6111584 514 713 C 514 722.3888416 459.8264608 730 393 730 C 326.1735392 730 272 722.3888416 272 713 Z"/></g><g transform="translate(-70,-54) scale(1,1)"><path fill="none" stroke="#000000" d="M 272 713 C 272 703.6111584 326.1735392 696 393 696 C 459.8264608 696 514 703.6111584 514 713 C 514 722.3888416 459.8264608 730 393 730 C 326.1735392 730 272 722.3888416 272 713 Z" stroke-miterlimit="10"/></g><g transform="translate(-70,-54) scale(1,1)"><g><path fill="none" stroke="none"/><text fill="#000000" stroke="none" font-family="Arial" font-size="13px" font-style="normal" font-weight="bold" text-decoration="none" x="317.84375" y="720">schedule company events</text></g></g><g transform="translate(-70,-54) scale(1,1)"><path fill="none" stroke="#000000" d="M 337 119 L 399 99" stroke-miterlimit="10"/></g><g transform="translate(-70,-54) scale(1,1)"><path fill="#FFFFFF" stroke="none" d="M 382.24085682346345 113.25240751551642 L 399 99 L 377.071522210539 97.22747021545054"/></g><g transform="translate(-70,-54) scale(1,1)"><path fill="none" stroke="#000000" d="M 382.24085682346345 113.25240751551642 L 399 99 L 377.071522210539 97.22747021545054 L 382.24085682346345 113.25240751551642" stroke-miterlimit="10"/></g><g transform="translate(-70,-54) scale(1,1)"><path fill="#C0C0C0" stroke="none" d="M 495 168 C 495 158.6111584 536.413656 151 587.5 151 C 638.586344 151 680 158.6111584 680 168 C 680 177.3888416 638.586344 185 587.5 185 C 536.413656 185 495 177.3888416 495 168 Z" opacity="0.2"/></g><g transform="translate(-70,-54) scale(1,1)"><path fill="#a3e0ff" stroke="none" d="M 488 161 C 488 151.6111584 529.413656 144 580.5 144 C 631.586344 144 673 151.6111584 673 161 C 673 170.3888416 631.586344 178 580.5 178 C 529.413656 178 488 170.3888416 488 161 Z"/></g><g transform="translate(-70,-54) scale(1,1)"><path fill="none" stroke="#000000" d="M 488 161 C 488 151.6111584 529.413656 144 580.5 144 C 631.586344 144 673 151.6111584 673 161 C 673 170.3888416 631.586344 178 580.5 178 C 529.413656 178 488 170.3888416 488 161 Z" stroke-miterlimit="10"/></g><g transform="translate(-70,-54) scale(1,1)"><g><path fill="none" stroke="none"/><text fill="#000000" stroke="none" font-family="Arial" font-size="13px" font-style="normal" font-weight="bold" text-decoration="none" x="523.41552734375" y="168">terminate employee</text></g></g><g transform="translate(-70,-54) scale(1,1)"><path fill="none" stroke="#000000" d="M 552 143 L 484 99" stroke-miterlimit="10"/></g><g transform="translate(-70,-54) scale(1,1)"><path fill="#FFFFFF" stroke="none" d="M 505.6382088573663 102.973401243896 L 484 99 L 496.4909052518406 117.11014317970846"/></g><g transform="translate(-70,-54) scale(1,1)"><path fill="none" stroke="#000000" d="M 505.6382088573663 102.973401243896 L 484 99 L 496.4909052518406 117.11014317970846 L 505.6382088573663 102.973401243896" stroke-miterlimit="10"/></g><g transform="translate(-70,-54) scale(1,1)"><path fill="none" stroke="#000000" d="M 1047 518 L 999 516" stroke-miterlimit="10"/></g><g transform="translate(-70,-54) scale(1,1)"><path fill="none" stroke="#000000" d="M 1009.329109078495 512.2172092782506 L 999 516 L 1008.9786200441779 520.6289461018607" stroke-miterlimit="10"/></g><g transform="translate(-70,-54) scale(1,1)"><path fill="none" stroke="#000000" d="M 799 88 L 577 83" stroke-miterlimit="10" stroke-dasharray="3"/></g><g transform="translate(-70,-54) scale(1,1)"><path fill="none" stroke="#000000" d="M 587.2548831792164 79.02038054826565 L 577 83 L 587.065313337163 87.4372815354366" stroke-miterlimit="10"/></g><g transform="translate(-70,-54) scale(1,1)"><g><path fill="none" stroke="none"/><text fill="#000000" stroke="none" font-family="Arial" font-size="13px" font-style="normal" font-weight="normal" text-decoration="none" x="660" y="121">«include»</text></g></g><g transform="translate(-70,-54) scale(1,1)"><path fill="#C0C0C0" stroke="none" d="M 311 208 C 311 198.6111584 348.6080768 191 395 191 C 441.3919232 191 479 198.6111584 479 208 C 479 217.3888416 441.3919232 225 395 225 C 348.6080768 225 311 217.3888416 311 208 Z" opacity="0.2"/></g><g transform="translate(-70,-54) scale(1,1)"><path fill="#a3e0ff" stroke="none" d="M 304 201 C 304 191.6111584 341.6080768 184 388 184 C 434.3919232 184 472 191.6111584 472 201 C 472 210.3888416 434.3919232 218 388 218 C 341.6080768 218 304 210.3888416 304 201 Z"/></g><g transform="translate(-70,-54) scale(1,1)"><path fill="none" stroke="#000000" d="M 304 201 C 304 191.6111584 341.6080768 184 388 184 C 434.3919232 184 472 191.6111584 472 201 C 472 210.3888416 434.3919232 218 388 218 C 341.6080768 218 304 210.3888416 304 201 Z" stroke-miterlimit="10"/></g><g transform="translate(-70,-54) scale(1,1)"><g><path fill="none" stroke="none"/><text fill="#000000" stroke="none" font-family="Arial" font-size="13px" font-style="normal" font-weight="bold" text-decoration="none" x="336.330078125" y="208">demote employee</text></g></g><g transform="translate(-70,-54) scale(1,1)"><path fill="none" stroke="#000000" d="M 398 183 L 446 99" stroke-miterlimit="10"/></g><g transform="translate(-70,-54) scale(1,1)"><path fill="#FFFFFF" stroke="none" d="M 443.22557241716936 120.8243568424737 L 446 99 L 428.6060327239213 112.47033416061765"/></g><g transform="translate(-70,-54) scale(1,1)"><path fill="none" stroke="#000000" d="M 443.22557241716936 120.8243568424737 L 446 99 L 428.6060327239213 112.47033416061765 L 443.22557241716936 120.8243568424737" stroke-miterlimit="10"/></g><g transform="translate(-70,-54) scale(1,1)"><path fill="#C0C0C0" stroke="none" d="M 759 369 C 759 354.6405952 809.5918176 343 872 343 C 934.4081824 343 985 354.6405952 985 369 C 985 383.3594048 934.4081824 395 872 395 C 809.5918176 395 759 383.3594048 759 369 Z" opacity="0.2"/></g><g transform="translate(-70,-54) scale(1,1)"><path fill="#a3e0ff" stroke="none" d="M 752 362 C 752 347.6405952 802.5918176 336 865 336 C 927.4081824 336 978 347.6405952 978 362 C 978 376.3594048 927.4081824 388 865 388 C 802.5918176 388 752 376.3594048 752 362 Z"/></g><g transform="translate(-70,-54) scale(1,1)"><path fill="none" stroke="#000000" d="M 752 362 C 752 347.6405952 802.5918176 336 865 336 C 927.4081824 336 978 347.6405952 978 362 C 978 376.3594048 927.4081824 388 865 388 C 802.5918176 388 752 376.3594048 752 362 Z" stroke-miterlimit="10"/></g><g transform="translate(-70,-54) scale(1,1)"><g><path fill="none" stroke="none"/><text fill="#000000" stroke="none" font-family="Arial" font-size="13px" font-style="normal" font-weight="bold" text-decoration="none" x="811.52099609375" y="362.5">manage employee</text><text fill="#000000" stroke="none" font-family="Arial" font-size="13px" font-style="normal" font-weight="bold" text-decoration="none" x="849.8291015625" y="375.5">shifts</text></g></g><g transform="translate(-70,-54) scale(1,1)"><path fill="none" stroke="#000000" d="M 1047 488 L 904 389" stroke-miterlimit="10"/></g><g transform="translate(-70,-54) scale(1,1)"><path fill="none" stroke="#000000" d="M 914.7517714269408 391.32366331098535 L 904 389 L 909.9595724013654 398.2457285701497" stroke-miterlimit="10"/></g><g transform="translate(-70,-54) scale(1,1)"><path fill="#C0C0C0" stroke="none" d="M 367 314.5 C 367 299.312168 415.3532416 287 475 287 C 534.6467584 287 583 299.312168 583 314.5 C 583 329.687832 534.6467584 342 475 342 C 415.3532416 342 367 329.687832 367 314.5 Z" opacity="0.2"/></g><g transform="translate(-70,-54) scale(1,1)"><path fill="#ffffff" stroke="none" d="M 360 307.5 C 360 292.312168 408.3532416 280 468 280 C 527.6467584 280 576 292.312168 576 307.5 C 576 322.687832 527.6467584 335 468 335 C 408.3532416 335 360 322.687832 360 307.5 Z"/></g><g transform="translate(-70,-54) scale(1,1)"><path fill="none" stroke="#000000" d="M 360 307.5 C 360 292.312168 408.3532416 280 468 280 C 527.6467584 280 576 292.312168 576 307.5 C 576 322.687832 527.6467584 335 468 335 C 408.3532416 335 360 322.687832 360 307.5 Z" stroke-miterlimit="10"/></g><g transform="translate(-70,-54) scale(1,1)"><g><path fill="none" stroke="none"/><text fill="#000000" stroke="none" font-family="Arial" font-size="13px" font-style="normal" font-weight="bold" text-decoration="none" x="401.517822265625" y="307">create action on record</text></g></g><g transform="translate(-70,-54) scale(1,1)"><g><path fill="none" stroke="none"/><text fill="#000000" stroke="none" font-family="Arial" font-size="13px" font-style="normal" font-weight="normal" text-decoration="none" x="427.54638671875" y="322">(from Model1)</text></g></g><g transform="translate(-70,-54) scale(1,1)"><path fill="none" stroke="#000000" d="M 846 615 L 504 336" stroke-miterlimit="10" stroke-dasharray="3"/></g><g transform="translate(-70,-54) scale(1,1)"><path fill="none" stroke="#000000" d="M 514.5356499479956 339.1622903366549 L 504 336 L 509.213752581306 345.6859064635647" stroke-miterlimit="10"/></g><g transform="translate(-70,-54) scale(1,1)"><g><path fill="none" stroke="none"/><text fill="#000000" stroke="none" font-family="Arial" font-size="13px" font-style="normal" font-weight="normal" text-decoration="none" x="629" y="505">«include»</text></g></g><g transform="translate(-70,-54) scale(1,1)"><path fill="none" stroke="#000000" d="M 843 495 L 526 336" stroke-miterlimit="10" stroke-dasharray="3"/></g><g transform="translate(-70,-54) scale(1,1)"><path fill="none" stroke="#000000" d="M 536.9713342454495 336.79361506703697 L 526 336 L 533.1967342480679 344.31907543917515" stroke-miterlimit="10"/></g><g transform="translate(-70,-54) scale(1,1)"><g><path fill="none" stroke="none"/><text fill="#000000" stroke="none" font-family="Arial" font-size="13px" font-style="normal" font-weight="normal" text-decoration="none" x="643" y="448">«include»</text></g></g><g transform="translate(-70,-54) scale(1,1)"><path fill="none" stroke="#000000" d="M 457 99 L 467 279" stroke-miterlimit="10" stroke-dasharray="3"/></g><g transform="translate(-70,-54) scale(1,1)"><path fill="none" stroke="#000000" d="M 462.2332396407341 269.0864741046724 L 467 279 L 470.6393128117264 268.6194700396173" stroke-miterlimit="10"/></g><g transform="translate(-70,-54) scale(1,1)"><g><path fill="none" stroke="none"/><text fill="#000000" stroke="none" font-family="Arial" font-size="13px" font-style="normal" font-weight="normal" text-decoration="none" x="464" y="194">«include»</text></g></g><g transform="translate(-70,-54) scale(1,1)"><path fill="none" stroke="#000000" d="M 476 511 L 469 336" stroke-miterlimit="10" stroke-dasharray="3"/></g><g transform="translate(-70,-54) scale(1,1)"><path fill="none" stroke="#000000" d="M 473.6123363560042 345.9863082938132 L 469 336 L 465.20002800086905 346.32280062801857" stroke-miterlimit="10"/></g><g transform="translate(-70,-54) scale(1,1)"><g><path fill="none" stroke="none"/><text fill="#000000" stroke="none" font-family="Arial" font-size="13px" font-style="normal" font-weight="normal" text-decoration="none" x="415" y="431">«include»</text></g></g><g transform="translate(-70,-54) scale(1,1)"><path fill="none" stroke="#000000" d="M 375 431 L 446 336" stroke-miterlimit="10" stroke-dasharray="3"/></g><g transform="translate(-70,-54) scale(1,1)"><path fill="none" stroke="#000000" d="M 443.2879825402058 346.6604390762187 L 446 336 L 436.5442453022629 341.6203828247035" stroke-miterlimit="10"/></g><g transform="translate(-70,-54) scale(1,1)"><g><path fill="none" stroke="none"/><text fill="#000000" stroke="none" font-family="Arial" font-size="13px" font-style="normal" font-weight="normal" text-decoration="none" x="359" y="371">«include»</text></g></g></g></svg>