<svg version="1.1" xmlns="http://www.w3.org/2000/svg" xmlns:xlink="http://www.w3.org/1999/xlink" width="1221.9072265625" height="566"><defs/><g><g transform="translate(-30,-14) scale(1,1)"><path fill="#ffffff" stroke="none" d="M 89.62980930397727 305.68 C 89.62980930397727 300.886167936 93.51565162892273 297 98.30908203125 297 C 103.10251243357727 297 106.98835475852273 300.886167936 106.98835475852273 305.68 C 106.98835475852273 310.473832064 103.10251243357727 314.36 98.30908203125 314.36 C 93.51565162892273 314.36 89.62980930397727 310.473832064 89.62980930397727 305.68 Z"/></g><g transform="translate(-30,-14) scale(1,1)"><path fill="none" stroke="#000000" d="M 89.62980930397727 305.68 C 89.62980930397727 300.886167936 93.51565162892273 297 98.30908203125 297 C 103.10251243357727 297 106.98835475852273 300.886167936 106.98835475852273 305.68 C 106.98835475852273 310.473832064 103.10251243357727 314.36 98.30908203125 314.36 C 93.51565162892273 314.36 89.62980930397727 310.473832064 89.62980930397727 305.68 Z" stroke-miterlimit="10"/></g><g transform="translate(-30,-14) scale(1,1)"><path fill="none" stroke="#000000" d="M 98.30908203125 314.36 L 98.30908203125 331.64" stroke-miterlimit="10"/></g><g transform="translate(-30,-14) scale(1,1)"><path fill="none" stroke="#000000" d="M 89.11926384943182 320.84 L 107.49890021306818 320.84" stroke-miterlimit="10"/></g><g transform="translate(-30,-14) scale(1,1)"><path fill="none" stroke="#000000" d="M 98.30908203125 331.64 L 85.54544566761363 349" stroke-miterlimit="10"/></g><g transform="translate(-30,-14) scale(1,1)"><path fill="none" stroke="#000000" d="M 98.30908203125 331.64 L 111.07271839488637 349" stroke-miterlimit="10"/></g><g transform="translate(-30,-14) scale(1,1)"><g><path fill="none" stroke="none"/><text fill="#000000" stroke="none" font-family="Arial" font-size="13px" font-style="normal" font-weight="bold" text-decoration="none" x="48.825927734375" y="369.5">HR Administrator</text></g></g><g transform="translate(-30,-14) scale(1,1)"><g><path fill="none" stroke="none"/><text fill="#000000" stroke="none" font-family="Arial" font-size="13px" font-style="normal" font-weight="normal" text-decoration="none" x="60.035888671875" y="384.5">(from HRMS)</text></g></g><g transform="translate(-30,-14) scale(1,1)"><path fill="#C0C0C0" stroke="none" d="M 143 80 C 143 70.6111584 182.62279519999998 63 231.5 63 C 280.3772048 63 320 70.6111584 320 80 C 320 89.3888416 280.3772048 97 231.5 97 C 182.62279519999998 97 143 89.3888416 143 80 Z" opacity="0.2"/></g><g transform="translate(-30,-14) scale(1,1)"><path fill="#a3e0ff" stroke="none" d="M 136 73 C 136 63.6111584 175.62279519999998 56 224.5 56 C 273.3772048 56 313 63.6111584 313 73 C 313 82.3888416 273.3772048 90 224.5 90 C 175.62279519999998 90 136 82.3888416 136 73 Z"/></g><g transform="translate(-30,-14) scale(1,1)"><path fill="none" stroke="#000000" d="M 136 73 C 136 63.6111584 175.62279519999998 56 224.5 56 C 273.3772048 56 313 63.6111584 313 73 C 313 82.3888416 273.3772048 90 224.5 90 C 175.62279519999998 90 136 82.3888416 136 73 Z" stroke-miterlimit="10"/></g><g transform="translate(-30,-14) scale(1,1)"><g><path fill="none" stroke="none"/><text fill="#000000" stroke="none" font-family="Arial" font-size="13px" font-style="normal" font-weight="bold" text-decoration="none" x="170.66552734375" y="80">promote employee</text></g></g><g transform="translate(-30,-14) scale(1,1)"><path fill="#C0C0C0" stroke="none" d="M 287 152 C 287 142.6111584 340.725824 135 407 135 C 473.274176 135 527 142.6111584 527 152 C 527 161.3888416 473.274176 169 407 169 C 340.725824 169 287 161.3888416 287 152 Z" opacity="0.2"/></g><g transform="translate(-30,-14) scale(1,1)"><path fill="#ffffff" stroke="none" d="M 280 145 C 280 135.6111584 333.725824 128 400 128 C 466.274176 128 520 135.6111584 520 145 C 520 154.3888416 466.274176 162 400 162 C 333.725824 162 280 154.3888416 280 145 Z"/></g><g transform="translate(-30,-14) scale(1,1)"><path fill="none" stroke="#000000" d="M 280 145 C 280 135.6111584 333.725824 128 400 128 C 466.274176 128 520 135.6111584 520 145 C 520 154.3888416 466.274176 162 400 162 C 333.725824 162 280 154.3888416 280 145 Z" stroke-miterlimit="10"/></g><g transform="translate(-30,-14) scale(1,1)"><g><path fill="none" stroke="none"/><text fill="#000000" stroke="none" font-family="Arial" font-size="13px" font-style="italic" font-weight="bold" text-decoration="none" x="325.919677734375" y="152">update employee position</text></g></g><g transform="translate(-30,-14) scale(1,1)"><path fill="#C0C0C0" stroke="none" d="M 839 504 C 839 494.6111584 892.2781088 487 958 487 C 1023.7218912 487 1077 494.6111584 1077 504 C 1077 513.3888416 1023.7218912 521 958 521 C 892.2781088 521 839 513.3888416 839 504 Z" opacity="0.2"/></g><g transform="translate(-30,-14) scale(1,1)"><path fill="#ffffff" stroke="none" d="M 832 497 C 832 487.6111584 885.2781088 480 951 480 C 1016.7218912 480 1070 487.6111584 1070 497 C 1070 506.3888416 1016.7218912 514 951 514 C 885.2781088 514 832 506.3888416 832 497 Z"/></g><g transform="translate(-30,-14) scale(1,1)"><path fill="none" stroke="#000000" d="M 832 497 C 832 487.6111584 885.2781088 480 951 480 C 1016.7218912 480 1070 487.6111584 1070 497 C 1070 506.3888416 1016.7218912 514 951 514 C 885.2781088 514 832 506.3888416 832 497 Z" stroke-miterlimit="10"/></g><g transform="translate(-30,-14) scale(1,1)"><g><path fill="none" stroke="none"/><text fill="#000000" stroke="none" font-family="Arial" font-size="13px" font-style="normal" font-weight="bold" text-decoration="none" x="885.23193359375" y="504">grant leave of absence</text></g></g><g transform="translate(-30,-14) scale(1,1)"><path fill="#C0C0C0" stroke="none" d="M 298 347 C 298 332.6405952 346.8009568 321 407 321 C 467.1990432 321 516 332.6405952 516 347 C 516 361.3594048 467.1990432 373 407 373 C 346.8009568 373 298 361.3594048 298 347 Z" opacity="0.2"/></g><g transform="translate(-30,-14) scale(1,1)"><path fill="#ffffff" stroke="none" d="M 291 340 C 291 325.6405952 339.8009568 314 400 314 C 460.1990432 314 509 325.6405952 509 340 C 509 354.3594048 460.1990432 366 400 366 C 339.8009568 366 291 354.3594048 291 340 Z"/></g><g transform="translate(-30,-14) scale(1,1)"><path fill="none" stroke="#000000" d="M 291 340 C 291 325.6405952 339.8009568 314 400 314 C 460.1990432 314 509 325.6405952 509 340 C 509 354.3594048 460.1990432 366 400 366 C 339.8009568 366 291 354.3594048 291 340 Z" stroke-miterlimit="10"/></g><g transform="translate(-30,-14) scale(1,1)"><g><path fill="none" stroke="none"/><text fill="#000000" stroke="none" font-family="Arial" font-size="13px" font-style="normal" font-weight="bold" text-decoration="none" x="334.235107421875" y="347">log business expenses</text></g></g><g transform="translate(-30,-14) scale(1,1)"><path fill="#C0C0C0" stroke="none" d="M 837 65 C 837 50.6405952 883.5623808 39 941 39 C 998.4376192 39 1045 50.6405952 1045 65 C 1045 79.3594048 998.4376192 91 941 91 C 883.5623808 91 837 79.3594048 837 65 Z" opacity="0.2"/></g><g transform="translate(-30,-14) scale(1,1)"><path fill="#a3e0ff" stroke="none" d="M 830 58 C 830 43.6405952 876.5623808 32 934 32 C 991.4376192 32 1038 43.6405952 1038 58 C 1038 72.3594048 991.4376192 84 934 84 C 876.5623808 84 830 72.3594048 830 58 Z"/></g><g transform="translate(-30,-14) scale(1,1)"><path fill="none" stroke="#000000" d="M 830 58 C 830 43.6405952 876.5623808 32 934 32 C 991.4376192 32 1038 43.6405952 1038 58 C 1038 72.3594048 991.4376192 84 934 84 C 876.5623808 84 830 72.3594048 830 58 Z" stroke-miterlimit="10"/></g><g transform="translate(-30,-14) scale(1,1)"><g><path fill="none" stroke="none"/><text fill="#000000" stroke="none" font-family="Arial" font-size="13px" font-style="normal" font-weight="bold" text-decoration="none" x="899.67822265625" y="58.5">report office</text><text fill="#000000" stroke="none" font-family="Arial" font-size="13px" font-style="normal" font-weight="bold" text-decoration="none" x="908.345947265625" y="71.5">incidents</text></g></g><g transform="translate(-30,-14) scale(1,1)"><path fill="#ffffff" stroke="none" d="M 1188.2743405539773 105.68 C 1188.2743405539773 100.886167936 1192.1601828789228 97 1196.95361328125 97 C 1201.7470436835772 97 1205.6328860085227 100.886167936 1205.6328860085227 105.68 C 1205.6328860085227 110.473832064 1201.7470436835772 114.36 1196.95361328125 114.36 C 1192.1601828789228 114.36 1188.2743405539773 110.473832064 1188.2743405539773 105.68 Z"/></g><g transform="translate(-30,-14) scale(1,1)"><path fill="none" stroke="#000000" d="M 1188.2743405539773 105.68 C 1188.2743405539773 100.886167936 1192.1601828789228 97 1196.95361328125 97 C 1201.7470436835772 97 1205.6328860085227 100.886167936 1205.6328860085227 105.68 C 1205.6328860085227 110.473832064 1201.7470436835772 114.36 1196.95361328125 114.36 C 1192.1601828789228 114.36 1188.2743405539773 110.473832064 1188.2743405539773 105.68 Z" stroke-miterlimit="10"/></g><g transform="translate(-30,-14) scale(1,1)"><path fill="none" stroke="#000000" d="M 1196.95361328125 114.36 L 1196.95361328125 131.64" stroke-miterlimit="10"/></g><g transform="translate(-30,-14) scale(1,1)"><path fill="none" stroke="#000000" d="M 1187.7637950994317 120.84 L 1206.1434314630683 120.84" stroke-miterlimit="10"/></g><g transform="translate(-30,-14) scale(1,1)"><path fill="none" stroke="#000000" d="M 1196.95361328125 131.64 L 1184.1899769176136 149" stroke-miterlimit="10"/></g><g transform="translate(-30,-14) scale(1,1)"><path fill="none" stroke="#000000" d="M 1196.95361328125 131.64 L 1209.7172496448864 149" stroke-miterlimit="10"/></g><g transform="translate(-30,-14) scale(1,1)"><g><path fill="none" stroke="none"/><text fill="#000000" stroke="none" font-family="Arial" font-size="13px" font-style="normal" font-weight="bold" text-decoration="none" x="1168.049560546875" y="169.5">Employee</text></g></g><g transform="translate(-30,-14) scale(1,1)"><g><path fill="none" stroke="none"/><text fill="#000000" stroke="none" font-family="Arial" font-size="13px" font-style="normal" font-weight="normal" text-decoration="none" x="1158.680419921875" y="184.5">(from HRMS)</text></g></g><g transform="translate(-30,-14) scale(1,1)"><path fill="none" stroke="#000000" d="M 1151 128 L 1017 85" stroke-miterlimit="10"/></g><g transform="translate(-30,-14) scale(1,1)"><path fill="none" stroke="#000000" d="M 1027.9628727413215 84.09699321287663 L 1017 85 L 1025.390443879306 92.11339943404114" stroke-miterlimit="10"/></g><g transform="translate(-30,-14) scale(1,1)"><path fill="#C0C0C0" stroke="none" d="M 325 245 C 325 235.6111584 361.936504 228 407.5 228 C 453.063496 228 490 235.6111584 490 245 C 490 254.3888416 453.063496 262 407.5 262 C 361.936504 262 325 254.3888416 325 245 Z" opacity="0.2"/></g><g transform="translate(-30,-14) scale(1,1)"><path fill="#ffffff" stroke="none" d="M 318 238 C 318 228.6111584 354.936504 221 400.5 221 C 446.063496 221 483 228.6111584 483 238 C 483 247.3888416 446.063496 255 400.5 255 C 354.936504 255 318 247.3888416 318 238 Z"/></g><g transform="translate(-30,-14) scale(1,1)"><path fill="none" stroke="#000000" d="M 318 238 C 318 228.6111584 354.936504 221 400.5 221 C 446.063496 221 483 228.6111584 483 238 C 483 247.3888416 446.063496 255 400.5 255 C 354.936504 255 318 247.3888416 318 238 Z" stroke-miterlimit="10"/></g><g transform="translate(-30,-14) scale(1,1)"><g><path fill="none" stroke="none"/><text fill="#000000" stroke="none" font-family="Arial" font-size="13px" font-style="normal" font-weight="bold" text-decoration="none" x="351.3564453125" y="245">schedule training</text></g></g><g transform="translate(-30,-14) scale(1,1)"><path fill="#C0C0C0" stroke="none" d="M 295 458 C 295 443.6405952 345.1441024 432 407 432 C 468.8558976 432 519 443.6405952 519 458 C 519 472.3594048 468.8558976 484 407 484 C 345.1441024 484 295 472.3594048 295 458 Z" opacity="0.2"/></g><g transform="translate(-30,-14) scale(1,1)"><path fill="#ffffff" stroke="none" d="M 288 451 C 288 436.6405952 338.1441024 425 400 425 C 461.8558976 425 512 436.6405952 512 451 C 512 465.3594048 461.8558976 477 400 477 C 338.1441024 477 288 465.3594048 288 451 Z"/></g><g transform="translate(-30,-14) scale(1,1)"><path fill="none" stroke="#000000" d="M 288 451 C 288 436.6405952 338.1441024 425 400 425 C 461.8558976 425 512 436.6405952 512 451 C 512 465.3594048 461.8558976 477 400 477 C 338.1441024 477 288 465.3594048 288 451 Z" stroke-miterlimit="10"/></g><g transform="translate(-30,-14) scale(1,1)"><g><path fill="none" stroke="none"/><text fill="#000000" stroke="none" font-family="Arial" font-size="13px" font-style="normal" font-weight="bold" text-decoration="none" x="344.715087890625" y="451.5">handle office policy</text><text fill="#000000" stroke="none" font-family="Arial" font-size="13px" font-style="normal" font-weight="bold" text-decoration="none" x="368.56640625" y="464.5">awareness</text></g></g><g transform="translate(-30,-14) scale(1,1)"><path fill="#ffffff" stroke="none" d="M 1188.2743405539773 409.68 C 1188.2743405539773 404.886167936 1192.1601828789228 401 1196.95361328125 401 C 1201.7470436835772 401 1205.6328860085227 404.886167936 1205.6328860085227 409.68 C 1205.6328860085227 414.473832064 1201.7470436835772 418.36 1196.95361328125 418.36 C 1192.1601828789228 418.36 1188.2743405539773 414.473832064 1188.2743405539773 409.68 Z"/></g><g transform="translate(-30,-14) scale(1,1)"><path fill="none" stroke="#000000" d="M 1188.2743405539773 409.68 C 1188.2743405539773 404.886167936 1192.1601828789228 401 1196.95361328125 401 C 1201.7470436835772 401 1205.6328860085227 404.886167936 1205.6328860085227 409.68 C 1205.6328860085227 414.473832064 1201.7470436835772 418.36 1196.95361328125 418.36 C 1192.1601828789228 418.36 1188.2743405539773 414.473832064 1188.2743405539773 409.68 Z" stroke-miterlimit="10"/></g><g transform="translate(-30,-14) scale(1,1)"><path fill="none" stroke="#000000" d="M 1196.95361328125 418.36 L 1196.95361328125 435.64" stroke-miterlimit="10"/></g><g transform="translate(-30,-14) scale(1,1)"><path fill="none" stroke="#000000" d="M 1187.7637950994317 424.84 L 1206.1434314630683 424.84" stroke-miterlimit="10"/></g><g transform="translate(-30,-14) scale(1,1)"><path fill="none" stroke="#000000" d="M 1196.95361328125 435.64 L 1184.1899769176136 453" stroke-miterlimit="10"/></g><g transform="translate(-30,-14) scale(1,1)"><path fill="none" stroke="#000000" d="M 1196.95361328125 435.64 L 1209.7172496448864 453" stroke-miterlimit="10"/></g><g transform="translate(-30,-14) scale(1,1)"><g><path fill="none" stroke="none"/><text fill="#000000" stroke="none" font-family="Arial" font-size="13px" font-style="normal" font-weight="bold" text-decoration="none" x="1171.299560546875" y="473.5">Manager</text></g></g><g transform="translate(-30,-14) scale(1,1)"><g><path fill="none" stroke="none"/><text fill="#000000" stroke="none" font-family="Arial" font-size="13px" font-style="normal" font-weight="normal" text-decoration="none" x="1158.680419921875" y="488.5">(from HRMS)</text></g></g><g transform="translate(-30,-14) scale(1,1)"><path fill="#C0C0C0" stroke="none" d="M 887 424 C 887 414.6111584 917.4446336 407 955 407 C 992.5553664 407 1023 414.6111584 1023 424 C 1023 433.3888416 992.5553664 441 955 441 C 917.4446336 441 887 433.3888416 887 424 Z" opacity="0.2"/></g><g transform="translate(-30,-14) scale(1,1)"><path fill="#a3e0ff" stroke="none" d="M 880 417 C 880 407.6111584 910.4446336 400 948 400 C 985.5553664 400 1016 407.6111584 1016 417 C 1016 426.3888416 985.5553664 434 948 434 C 910.4446336 434 880 426.3888416 880 417 Z"/></g><g transform="translate(-30,-14) scale(1,1)"><path fill="none" stroke="#000000" d="M 880 417 C 880 407.6111584 910.4446336 400 948 400 C 985.5553664 400 1016 407.6111584 1016 417 C 1016 426.3888416 985.5553664 434 948 434 C 910.4446336 434 880 426.3888416 880 417 Z" stroke-miterlimit="10"/></g><g transform="translate(-30,-14) scale(1,1)"><g><path fill="none" stroke="none"/><text fill="#000000" stroke="none" font-family="Arial" font-size="13px" font-style="normal" font-weight="bold" text-decoration="none" x="908.266845703125" y="424">submit review</text></g></g><g transform="translate(-30,-14) scale(1,1)"><path fill="#C0C0C0" stroke="none" d="M 879 152 C 879 142.6111584 904.743624 135 936.5 135 C 968.256376 135 994 142.6111584 994 152 C 994 161.3888416 968.256376 169 936.5 169 C 904.743624 169 879 161.3888416 879 152 Z" opacity="0.2"/></g><g transform="translate(-30,-14) scale(1,1)"><path fill="#a3e0ff" stroke="none" d="M 872 145 C 872 135.6111584 897.743624 128 929.5 128 C 961.256376 128 987 135.6111584 987 145 C 987 154.3888416 961.256376 162 929.5 162 C 897.743624 162 872 154.3888416 872 145 Z"/></g><g transform="translate(-30,-14) scale(1,1)"><path fill="none" stroke="#000000" d="M 872 145 C 872 135.6111584 897.743624 128 929.5 128 C 961.256376 128 987 135.6111584 987 145 C 987 154.3888416 961.256376 162 929.5 162 C 897.743624 162 872 154.3888416 872 145 Z" stroke-miterlimit="10"/></g><g transform="translate(-30,-14) scale(1,1)"><g><path fill="none" stroke="none"/><text fill="#000000" stroke="none" font-family="Arial" font-size="13px" font-style="normal" font-weight="bold" text-decoration="none" x="895.908203125" y="152">view review</text></g></g><g transform="translate(-30,-14) scale(1,1)"><path fill="none" stroke="#000000" d="M 1196 399 L 1196 191" stroke-miterlimit="10"/></g><g transform="translate(-30,-14) scale(1,1)"><path fill="#FFFFFF" stroke="none" d="M 1204.419035512032 211.3253497152483 L 1196 191 L 1187.580964487968 211.3253497152483"/></g><g transform="translate(-30,-14) scale(1,1)"><path fill="none" stroke="#000000" d="M 1204.419035512032 211.3253497152483 L 1196 191 L 1187.580964487968 211.3253497152483 L 1204.419035512032 211.3253497152483" stroke-miterlimit="10"/></g><g transform="translate(-30,-14) scale(1,1)"><path fill="none" stroke="#000000" d="M 1151 143 L 988 145" stroke-miterlimit="10"/></g><g transform="translate(-30,-14) scale(1,1)"><path fill="none" stroke="#000000" d="M 998.1102633045333 140.66611307104037 L 988 145 L 998.2135565785801 149.08451490585392" stroke-miterlimit="10"/></g><g transform="translate(-30,-14) scale(1,1)"><path fill="none" stroke="#000000" d="M 1151 442 L 1017 425" stroke-miterlimit="10"/></g><g transform="translate(-30,-14) scale(1,1)"><path fill="none" stroke="#000000" d="M 1027.6116622166955 422.1029972387384 L 1017 425 L 1026.5520686106906 430.4550880154822" stroke-miterlimit="10"/></g><g transform="translate(-30,-14) scale(1,1)"><path fill="#C0C0C0" stroke="none" d="M 286 560 C 286 550.6111584 340.1735392 543 407 543 C 473.8264608 543 528 550.6111584 528 560 C 528 569.3888416 473.8264608 577 407 577 C 340.1735392 577 286 569.3888416 286 560 Z" opacity="0.2"/></g><g transform="translate(-30,-14) scale(1,1)"><path fill="#a3e0ff" stroke="none" d="M 279 553 C 279 543.6111584 333.1735392 536 400 536 C 466.8264608 536 521 543.6111584 521 553 C 521 562.3888416 466.8264608 570 400 570 C 333.1735392 570 279 562.3888416 279 553 Z"/></g><g transform="translate(-30,-14) scale(1,1)"><path fill="none" stroke="#000000" d="M 279 553 C 279 543.6111584 333.1735392 536 400 536 C 466.8264608 536 521 543.6111584 521 553 C 521 562.3888416 466.8264608 570 400 570 C 333.1735392 570 279 562.3888416 279 553 Z" stroke-miterlimit="10"/></g><g transform="translate(-30,-14) scale(1,1)"><g><path fill="none" stroke="none"/><text fill="#000000" stroke="none" font-family="Arial" font-size="13px" font-style="normal" font-weight="bold" text-decoration="none" x="324.84375" y="560">schedule company events</text></g></g><g transform="translate(-30,-14) scale(1,1)"><path fill="none" stroke="#000000" d="M 268 91 L 356 127" stroke-miterlimit="10"/></g><g transform="translate(-30,-14) scale(1,1)"><path fill="#FFFFFF" stroke="none" d="M 334.0002110630934 127.0963676893998 L 356 127 L 340.37565781137863 111.5119423047024"/></g><g transform="translate(-30,-14) scale(1,1)"><path fill="none" stroke="#000000" d="M 334.0002110630934 127.0963676893998 L 356 127 L 340.37565781137863 111.5119423047024 L 334.0002110630934 127.0963676893998" stroke-miterlimit="10"/></g><g transform="translate(-30,-14) scale(1,1)"><path fill="#C0C0C0" stroke="none" d="M 495 80 C 495 70.6111584 536.413656 63 587.5 63 C 638.586344 63 680 70.6111584 680 80 C 680 89.3888416 638.586344 97 587.5 97 C 536.413656 97 495 89.3888416 495 80 Z" opacity="0.2"/></g><g transform="translate(-30,-14) scale(1,1)"><path fill="#a3e0ff" stroke="none" d="M 488 73 C 488 63.6111584 529.413656 56 580.5 56 C 631.586344 56 673 63.6111584 673 73 C 673 82.3888416 631.586344 90 580.5 90 C 529.413656 90 488 82.3888416 488 73 Z"/></g><g transform="translate(-30,-14) scale(1,1)"><path fill="none" stroke="#000000" d="M 488 73 C 488 63.6111584 529.413656 56 580.5 56 C 631.586344 56 673 63.6111584 673 73 C 673 82.3888416 631.586344 90 580.5 90 C 529.413656 90 488 82.3888416 488 73 Z" stroke-miterlimit="10"/></g><g transform="translate(-30,-14) scale(1,1)"><g><path fill="none" stroke="none"/><text fill="#000000" stroke="none" font-family="Arial" font-size="13px" font-style="normal" font-weight="bold" text-decoration="none" x="523.41552734375" y="80">terminate employee</text></g></g><g transform="translate(-30,-14) scale(1,1)"><path fill="none" stroke="#000000" d="M 535 91 L 445 127" stroke-miterlimit="10"/></g><g transform="translate(-30,-14) scale(1,1)"><path fill="#FFFFFF" stroke="none" d="M 460.7448621516366 111.63447638946332 L 445 127 L 466.9983647377622 127.26823285477717"/></g><g transform="translate(-30,-14) scale(1,1)"><path fill="none" stroke="#000000" d="M 460.7448621516366 111.63447638946332 L 445 127 L 466.9983647377622 127.26823285477717 L 460.7448621516366 111.63447638946332" stroke-miterlimit="10"/></g><g transform="translate(-30,-14) scale(1,1)"><path fill="none" stroke="#000000" d="M 1151 456 L 1039 479" stroke-miterlimit="10"/></g><g transform="translate(-30,-14) scale(1,1)"><path fill="none" stroke="#000000" d="M 1048.1081510533447 472.8322139799231 L 1039 479 L 1049.8017186935954 481.07915205418743" stroke-miterlimit="10"/></g><g transform="translate(-30,-14) scale(1,1)"><path fill="#C0C0C0" stroke="none" d="M 327 48 C 327 38.6111584 364.6080768 31 411 31 C 457.3919232 31 495 38.6111584 495 48 C 495 57.3888416 457.3919232 65 411 65 C 364.6080768 65 327 57.3888416 327 48 Z" opacity="0.2"/></g><g transform="translate(-30,-14) scale(1,1)"><path fill="#a3e0ff" stroke="none" d="M 320 41 C 320 31.6111584 357.6080768 24 404 24 C 450.3919232 24 488 31.6111584 488 41 C 488 50.3888416 450.3919232 58 404 58 C 357.6080768 58 320 50.3888416 320 41 Z"/></g><g transform="translate(-30,-14) scale(1,1)"><path fill="none" stroke="#000000" d="M 320 41 C 320 31.6111584 357.6080768 24 404 24 C 450.3919232 24 488 31.6111584 488 41 C 488 50.3888416 450.3919232 58 404 58 C 357.6080768 58 320 50.3888416 320 41 Z" stroke-miterlimit="10"/></g><g transform="translate(-30,-14) scale(1,1)"><g><path fill="none" stroke="none"/><text fill="#000000" stroke="none" font-family="Arial" font-size="13px" font-style="normal" font-weight="bold" text-decoration="none" x="352.330078125" y="48">demote employee</text></g></g><g transform="translate(-30,-14) scale(1,1)"><path fill="none" stroke="#000000" d="M 403 59 L 401 127" stroke-miterlimit="10"/></g><g transform="translate(-30,-14) scale(1,1)"><path fill="#FFFFFF" stroke="none" d="M 393.18214958358766 106.43592416697018 L 401 127 L 410.01294242662254 106.93094748588297"/></g><g transform="translate(-30,-14) scale(1,1)"><path fill="none" stroke="#000000" d="M 393.18214958358766 106.43592416697018 L 401 127 L 410.01294242662254 106.93094748588297 L 393.18214958358766 106.43592416697018" stroke-miterlimit="10"/></g><g transform="translate(-30,-14) scale(1,1)"><path fill="#C0C0C0" stroke="none" d="M 839 329 C 839 314.6405952 889.5918176 303 952 303 C 1014.4081824 303 1065 314.6405952 1065 329 C 1065 343.3594048 1014.4081824 355 952 355 C 889.5918176 355 839 343.3594048 839 329 Z" opacity="0.2"/></g><g transform="translate(-30,-14) scale(1,1)"><path fill="#a3e0ff" stroke="none" d="M 832 322 C 832 307.6405952 882.5918176 296 945 296 C 1007.4081824 296 1058 307.6405952 1058 322 C 1058 336.3594048 1007.4081824 348 945 348 C 882.5918176 348 832 336.3594048 832 322 Z"/></g><g transform="translate(-30,-14) scale(1,1)"><path fill="none" stroke="#000000" d="M 832 322 C 832 307.6405952 882.5918176 296 945 296 C 1007.4081824 296 1058 307.6405952 1058 322 C 1058 336.3594048 1007.4081824 348 945 348 C 882.5918176 348 832 336.3594048 832 322 Z" stroke-miterlimit="10"/></g><g transform="translate(-30,-14) scale(1,1)"><g><path fill="none" stroke="none"/><text fill="#000000" stroke="none" font-family="Arial" font-size="13px" font-style="normal" font-weight="bold" text-decoration="none" x="891.52099609375" y="322.5">manage employee</text><text fill="#000000" stroke="none" font-family="Arial" font-size="13px" font-style="normal" font-weight="bold" text-decoration="none" x="929.8291015625" y="335.5">shifts</text></g></g><g transform="translate(-30,-14) scale(1,1)"><path fill="none" stroke="#000000" d="M 1151 425 L 999 349" stroke-miterlimit="10"/></g><g transform="translate(-30,-14) scale(1,1)"><path fill="none" stroke="#000000" d="M 1009.9723262969391 349.77977922099745 L 999 349 L 1006.2072191549614 357.3099935049528" stroke-miterlimit="10"/></g><g transform="translate(-30,-14) scale(1,1)"><path fill="#C0C0C0" stroke="none" d="M 567 258.5 C 567 243.31216799999999 615.3532416 231 675 231 C 734.6467584 231 783 243.31216799999999 783 258.5 C 783 273.687832 734.6467584 286 675 286 C 615.3532416 286 567 273.687832 567 258.5 Z" opacity="0.2"/></g><g transform="translate(-30,-14) scale(1,1)"><path fill="#ffffff" stroke="none" d="M 560 251.5 C 560 236.31216799999999 608.3532416 224 668 224 C 727.6467584 224 776 236.31216799999999 776 251.5 C 776 266.687832 727.6467584 279 668 279 C 608.3532416 279 560 266.687832 560 251.5 Z"/></g><g transform="translate(-30,-14) scale(1,1)"><path fill="none" stroke="#000000" d="M 560 251.5 C 560 236.31216799999999 608.3532416 224 668 224 C 727.6467584 224 776 236.31216799999999 776 251.5 C 776 266.687832 727.6467584 279 668 279 C 608.3532416 279 560 266.687832 560 251.5 Z" stroke-miterlimit="10"/></g><g transform="translate(-30,-14) scale(1,1)"><g><path fill="none" stroke="none"/><text fill="#000000" stroke="none" font-family="Arial" font-size="13px" font-style="normal" font-weight="bold" text-decoration="none" x="601.517822265625" y="251">create action on record</text></g></g><g transform="translate(-30,-14) scale(1,1)"><g><path fill="none" stroke="none"/><text fill="#000000" stroke="none" font-family="Arial" font-size="13px" font-style="normal" font-weight="normal" text-decoration="none" x="629.726806640625" y="266">(from HRMS)</text></g></g><g transform="translate(-30,-14) scale(1,1)"><path fill="none" stroke="#000000" d="M 446 163 L 597 223" stroke-miterlimit="10" stroke-dasharray="3"/></g><g transform="translate(-30,-14) scale(1,1)"><path fill="none" stroke="#000000" d="M 586.0011529145976 223.15925699964257 L 597 223 L 589.1100289362794 215.33525234507675" stroke-miterlimit="10"/></g><g transform="translate(-30,-14) scale(1,1)"><g><path fill="none" stroke="none"/><text fill="#000000" stroke="none" font-family="Arial" font-size="13px" font-style="normal" font-weight="normal" text-decoration="none" x="556" y="188">«include»</text></g></g><g transform="translate(-30,-14) scale(1,1)"><path fill="none" stroke="#000000" d="M 481 313 L 581 280" stroke-miterlimit="10" stroke-dasharray="3"/></g><g transform="translate(-30,-14) scale(1,1)"><path fill="none" stroke="#000000" d="M 572.6684007614905 287.1822318348037 L 581 280 L 570.0300648458776 279.18727451476485" stroke-miterlimit="10"/></g><g transform="translate(-30,-14) scale(1,1)"><g><path fill="none" stroke="none"/><text fill="#000000" stroke="none" font-family="Arial" font-size="13px" font-style="normal" font-weight="normal" text-decoration="none" x="494" y="274">«include»</text></g></g><g transform="translate(-30,-14) scale(1,1)"><path fill="none" stroke="#000000" d="M 484 242 L 559 246" stroke-miterlimit="10" stroke-dasharray="3"/></g><g transform="translate(-30,-14) scale(1,1)"><path fill="none" stroke="#000000" d="M 548.6275589694955 249.66230351946774 L 559 246 L 549.0759369564937 241.25521626325167" stroke-miterlimit="10"/></g><g transform="translate(-30,-14) scale(1,1)"><g><path fill="none" stroke="none"/><text fill="#000000" stroke="none" font-family="Arial" font-size="13px" font-style="normal" font-weight="normal" text-decoration="none" x="495" y="221">«include»</text></g></g><g transform="translate(-30,-14) scale(1,1)"><path fill="#C0C0C0" stroke="none" d="M 826 241 C 826 226.6405952 877.7111056 215 941.5 215 C 1005.2888944 215 1057 226.6405952 1057 241 C 1057 255.3594048 1005.2888944 267 941.5 267 C 877.7111056 267 826 255.3594048 826 241 Z" opacity="0.2"/></g><g transform="translate(-30,-14) scale(1,1)"><path fill="#ffffff" stroke="none" d="M 819 234 C 819 219.6405952 870.7111056 208 934.5 208 C 998.2888944 208 1050 219.6405952 1050 234 C 1050 248.3594048 998.2888944 260 934.5 260 C 870.7111056 260 819 248.3594048 819 234 Z"/></g><g transform="translate(-30,-14) scale(1,1)"><path fill="none" stroke="#000000" d="M 819 234 C 819 219.6405952 870.7111056 208 934.5 208 C 998.2888944 208 1050 219.6405952 1050 234 C 1050 248.3594048 998.2888944 260 934.5 260 C 870.7111056 260 819 248.3594048 819 234 Z" stroke-miterlimit="10"/></g><g transform="translate(-30,-14) scale(1,1)"><g><path fill="none" stroke="none"/><text fill="#000000" stroke="none" font-family="Arial" font-size="13px" font-style="normal" font-weight="bold" text-decoration="none" x="888.247802734375" y="234.5">request leave of</text><text fill="#000000" stroke="none" font-family="Arial" font-size="13px" font-style="normal" font-weight="bold" text-decoration="none" x="909.925048828125" y="247.5">absence</text></g></g><g transform="translate(-30,-14) scale(1,1)"><path fill="none" stroke="#000000" d="M 1151 159 L 1012 207" stroke-miterlimit="10"/></g><g transform="translate(-30,-14) scale(1,1)"><path fill="none" stroke="#000000" d="M 1020.2320206441866 199.70384785563746 L 1012 207 L 1022.9800762782195 207.66175896252446" stroke-miterlimit="10"/></g><g transform="translate(-30,-14) scale(1,1)"><path fill="none" stroke="#000000" d="M 521 145 L 871 145" stroke-miterlimit="10" stroke-dasharray="3"/></g><g transform="translate(-30,-14) scale(1,1)"><path fill="none" stroke="#000000" d="M 860.8373251423759 149.209517756016 L 871 145 L 860.8373251423758 140.790482243984" stroke-miterlimit="10"/></g><g transform="translate(-30,-14) scale(1,1)"><g><path fill="none" stroke="none"/><text fill="#000000" stroke="none" font-family="Arial" font-size="13px" font-style="normal" font-weight="normal" text-decoration="none" x="669" y="122">«include»</text></g></g><g transform="translate(-30,-14) scale(1,1)"><path fill="none" stroke="#000000" d="M 158 304 L 373 163" stroke-miterlimit="10"/></g><g transform="translate(-30,-14) scale(1,1)"><path fill="none" stroke="#000000" d="M 366.8103235991644 172.0932890668305 L 373 163 L 362.1933114811735 165.05316420606417" stroke-miterlimit="10"/></g><g transform="translate(-30,-14) scale(1,1)"><path fill="none" stroke="#000000" d="M 158 322 L 348 256" stroke-miterlimit="10"/></g><g transform="translate(-30,-14) scale(1,1)"><path fill="none" stroke="#000000" d="M 339.78131350086744 263.31116900563626 L 348 256 L 337.01873386173077 255.35828822630333" stroke-miterlimit="10"/></g><g transform="translate(-30,-14) scale(1,1)"><path fill="none" stroke="#000000" d="M 158 342 L 290 341" stroke-miterlimit="10"/></g><g transform="translate(-30,-14) scale(1,1)"><path fill="none" stroke="#000000" d="M 279.8695061294084 345.28638471650714 L 290 341 L 279.80572738751937 336.8675907871525" stroke-miterlimit="10"/></g><g transform="translate(-30,-14) scale(1,1)"><path fill="none" stroke="#000000" d="M 158 364 L 325 424" stroke-miterlimit="10"/></g><g transform="translate(-30,-14) scale(1,1)"><path fill="none" stroke="#000000" d="M 314.012553595908 424.5253774997137 L 325 424 L 316.85920414701235 416.60220013247323" stroke-miterlimit="10"/></g><g transform="translate(-30,-14) scale(1,1)"><path fill="none" stroke="#000000" d="M 158 384 L 374 535" stroke-miterlimit="10"/></g><g transform="translate(-30,-14) scale(1,1)"><path fill="none" stroke="#000000" d="M 363.25893528440855 532.6273371972662 L 374 535 L 368.08264625972384 525.7271943451597" stroke-miterlimit="10"/></g><g transform="translate(-30,-14) scale(1,1)"><path fill="none" stroke="#000000" d="M 918 399 L 717 280" stroke-miterlimit="10" stroke-dasharray="3"/></g><g transform="translate(-30,-14) scale(1,1)"><path fill="none" stroke="#000000" d="M 727.8895226394453 281.55508735606975 L 717 280 L 723.6004424874218 288.7996681170506" stroke-miterlimit="10"/></g><g transform="translate(-30,-14) scale(1,1)"><g><path fill="none" stroke="none"/><text fill="#000000" stroke="none" font-family="Arial" font-size="13px" font-style="normal" font-weight="normal" text-decoration="none" x="896" y="380">«include»</text></g></g><g transform="translate(-30,-14) scale(1,1)"><path fill="none" stroke="#000000" d="M 930 479 L 701 280" stroke-miterlimit="10" stroke-dasharray="3"/></g><g transform="translate(-30,-14) scale(1,1)"><path fill="none" stroke="#000000" d="M 711.4321388798778 283.48862127364674 L 701 280 L 705.9098083846542 289.8434639038287" stroke-miterlimit="10"/></g><g transform="translate(-30,-14) scale(1,1)"><g><path fill="none" stroke="none"/><text fill="#000000" stroke="none" font-family="Arial" font-size="13px" font-style="normal" font-weight="normal" text-decoration="none" x="832" y="468">«include»</text></g></g></g></svg>