<svg version="1.1" xmlns="http://www.w3.org/2000/svg" xmlns:xlink="http://www.w3.org/1999/xlink" width="1238" height="702"><defs/><g><g transform="translate(2,-86) scale(1,1)"><path fill="#ffffff" stroke="none" d="M 129.62980930397728 329.68 C 129.62980930397728 324.886167936 133.51565162892274 321 138.30908203125 321 C 143.10251243357726 321 146.98835475852272 324.886167936 146.98835475852272 329.68 C 146.98835475852272 334.473832064 143.10251243357726 338.36 138.30908203125 338.36 C 133.51565162892274 338.36 129.62980930397728 334.473832064 129.62980930397728 329.68 Z"/></g><g transform="translate(2,-86) scale(1,1)"><path fill="none" stroke="#000000" d="M 129.62980930397728 329.68 C 129.62980930397728 324.886167936 133.51565162892274 321 138.30908203125 321 C 143.10251243357726 321 146.98835475852272 324.886167936 146.98835475852272 329.68 C 146.98835475852272 334.473832064 143.10251243357726 338.36 138.30908203125 338.36 C 133.51565162892274 338.36 129.62980930397728 334.473832064 129.62980930397728 329.68 Z" stroke-miterlimit="10"/></g><g transform="translate(2,-86) scale(1,1)"><path fill="none" stroke="#000000" d="M 138.30908203125 338.36 L 138.30908203125 355.64" stroke-miterlimit="10"/></g><g transform="translate(2,-86) scale(1,1)"><path fill="none" stroke="#000000" d="M 129.11926384943183 344.84 L 147.49890021306817 344.84" stroke-miterlimit="10"/></g><g transform="translate(2,-86) scale(1,1)"><path fill="none" stroke="#000000" d="M 138.30908203125 355.64 L 125.54544566761365 373" stroke-miterlimit="10"/></g><g transform="translate(2,-86) scale(1,1)"><path fill="none" stroke="#000000" d="M 138.30908203125 355.64 L 151.07271839488635 373" stroke-miterlimit="10"/></g><g transform="translate(2,-86) scale(1,1)"><g><path fill="none" stroke="none"/><text fill="#000000" stroke="none" font-family="Arial" font-size="13px" font-style="normal" font-weight="bold" text-decoration="none" x="88.825927734375" y="393.5">HR Administrator</text></g></g><g transform="translate(2,-86) scale(1,1)"><g><path fill="none" stroke="none"/><text fill="#000000" stroke="none" font-family="Arial" font-size="13px" font-style="normal" font-weight="normal" text-decoration="none" x="97.85546875" y="408.5">(from Model1)</text></g></g><g transform="translate(2,-86) scale(1,1)"><path fill="#C0C0C0" stroke="none" d="M 343 304 C 343 294.6111584 382.6227952 287 431.5 287 C 480.3772048 287 520 294.6111584 520 304 C 520 313.3888416 480.3772048 321 431.5 321 C 382.6227952 321 343 313.3888416 343 304 Z" opacity="0.2"/></g><g transform="translate(2,-86) scale(1,1)"><path fill="#2b2bff" stroke="none" d="M 336 297 C 336 287.6111584 375.6227952 280 424.5 280 C 473.3772048 280 513 287.6111584 513 297 C 513 306.3888416 473.3772048 314 424.5 314 C 375.6227952 314 336 306.3888416 336 297 Z"/></g><g transform="translate(2,-86) scale(1,1)"><path fill="none" stroke="#000000" d="M 336 297 C 336 287.6111584 375.6227952 280 424.5 280 C 473.3772048 280 513 287.6111584 513 297 C 513 306.3888416 473.3772048 314 424.5 314 C 375.6227952 314 336 306.3888416 336 297 Z" stroke-miterlimit="10"/></g><g transform="translate(2,-86) scale(1,1)"><g><path fill="none" stroke="none"/><text fill="#000000" stroke="none" font-family="Arial" font-size="13px" font-style="normal" font-weight="bold" text-decoration="none" x="370.66552734375" y="304">promote employee</text></g></g><g transform="translate(2,-86) scale(1,1)"><path fill="#C0C0C0" stroke="none" d="M 367 208 C 367 198.6111584 420.725824 191 487 191 C 553.274176 191 607 198.6111584 607 208 C 607 217.3888416 553.274176 225 487 225 C 420.725824 225 367 217.3888416 367 208 Z" opacity="0.2"/></g><g transform="translate(2,-86) scale(1,1)"><path fill="#ffffff" stroke="none" d="M 360 201 C 360 191.6111584 413.725824 184 480 184 C 546.274176 184 600 191.6111584 600 201 C 600 210.3888416 546.274176 218 480 218 C 413.725824 218 360 210.3888416 360 201 Z"/></g><g transform="translate(2,-86) scale(1,1)"><path fill="none" stroke="#000000" d="M 360 201 C 360 191.6111584 413.725824 184 480 184 C 546.274176 184 600 191.6111584 600 201 C 600 210.3888416 546.274176 218 480 218 C 413.725824 218 360 210.3888416 360 201 Z" stroke-miterlimit="10"/></g><g transform="translate(2,-86) scale(1,1)"><g><path fill="none" stroke="none"/><text fill="#000000" stroke="none" font-family="Arial" font-size="13px" font-style="italic" font-weight="bold" text-decoration="none" x="405.919677734375" y="208">update employee position</text></g></g><g transform="translate(2,-86) scale(1,1)"><path fill="#C0C0C0" stroke="none" d="M 367 464 C 367 454.6111584 420.2781088 447 486 447 C 551.7218912 447 605 454.6111584 605 464 C 605 473.3888416 551.7218912 481 486 481 C 420.2781088 481 367 473.3888416 367 464 Z" opacity="0.2"/></g><g transform="translate(2,-86) scale(1,1)"><path fill="#ffffff" stroke="none" d="M 360 457 C 360 447.6111584 413.2781088 440 479 440 C 544.7218912 440 598 447.6111584 598 457 C 598 466.3888416 544.7218912 474 479 474 C 413.2781088 474 360 466.3888416 360 457 Z"/></g><g transform="translate(2,-86) scale(1,1)"><path fill="none" stroke="#000000" d="M 360 457 C 360 447.6111584 413.2781088 440 479 440 C 544.7218912 440 598 447.6111584 598 457 C 598 466.3888416 544.7218912 474 479 474 C 413.2781088 474 360 466.3888416 360 457 Z" stroke-miterlimit="10"/></g><g transform="translate(2,-86) scale(1,1)"><g><path fill="none" stroke="none"/><text fill="#000000" stroke="none" font-family="Arial" font-size="13px" font-style="normal" font-weight="bold" text-decoration="none" x="413.23193359375" y="464">grant leave of absence</text></g></g><g transform="translate(2,-86) scale(1,1)"><path fill="#C0C0C0" stroke="none" d="M 271 705 C 271 690.6405952 319.8009568 679 380 679 C 440.1990432 679 489 690.6405952 489 705 C 489 719.3594048 440.1990432 731 380 731 C 319.8009568 731 271 719.3594048 271 705 Z" opacity="0.2"/></g><g transform="translate(2,-86) scale(1,1)"><path fill="#ffffff" stroke="none" d="M 264 698 C 264 683.6405952 312.8009568 672 373 672 C 433.1990432 672 482 683.6405952 482 698 C 482 712.3594048 433.1990432 724 373 724 C 312.8009568 724 264 712.3594048 264 698 Z"/></g><g transform="translate(2,-86) scale(1,1)"><path fill="none" stroke="#000000" d="M 264 698 C 264 683.6405952 312.8009568 672 373 672 C 433.1990432 672 482 683.6405952 482 698 C 482 712.3594048 433.1990432 724 373 724 C 312.8009568 724 264 712.3594048 264 698 Z" stroke-miterlimit="10"/></g><g transform="translate(2,-86) scale(1,1)"><g><path fill="none" stroke="none"/><text fill="#000000" stroke="none" font-family="Arial" font-size="13px" font-style="normal" font-weight="bold" text-decoration="none" x="307.235107421875" y="705">log business expenses</text></g></g><g transform="translate(2,-86) scale(1,1)"><path fill="#C0C0C0" stroke="none" d="M 351 400 C 351 390.6111584 411.2176944 383 485.5 383 C 559.7823056 383 620 390.6111584 620 400 C 620 409.3888416 559.7823056 417 485.5 417 C 411.2176944 417 351 409.3888416 351 400 Z" opacity="0.2"/></g><g transform="translate(2,-86) scale(1,1)"><path fill="#2b2bff" stroke="none" d="M 344 393 C 344 383.6111584 404.2176944 376 478.5 376 C 552.7823056 376 613 383.6111584 613 393 C 613 402.3888416 552.7823056 410 478.5 410 C 404.2176944 410 344 402.3888416 344 393 Z"/></g><g transform="translate(2,-86) scale(1,1)"><path fill="none" stroke="#000000" d="M 344 393 C 344 383.6111584 404.2176944 376 478.5 376 C 552.7823056 376 613 383.6111584 613 393 C 613 402.3888416 552.7823056 410 478.5 410 C 404.2176944 410 344 402.3888416 344 393 Z" stroke-miterlimit="10"/></g><g transform="translate(2,-86) scale(1,1)"><g><path fill="none" stroke="none"/><text fill="#000000" stroke="none" font-family="Arial" font-size="13px" font-style="normal" font-weight="bold" text-decoration="none" x="416.71826171875" y="400">report office incidents</text></g></g><g transform="translate(2,-86) scale(1,1)"><path fill="#ffffff" stroke="none" d="M 828.2743405539773 345.68 C 828.2743405539773 340.886167936 832.1601828789227 337 836.95361328125 337 C 841.7470436835773 337 845.6328860085227 340.886167936 845.6328860085227 345.68 C 845.6328860085227 350.473832064 841.7470436835773 354.36 836.95361328125 354.36 C 832.1601828789227 354.36 828.2743405539773 350.473832064 828.2743405539773 345.68 Z"/></g><g transform="translate(2,-86) scale(1,1)"><path fill="none" stroke="#000000" d="M 828.2743405539773 345.68 C 828.2743405539773 340.886167936 832.1601828789227 337 836.95361328125 337 C 841.7470436835773 337 845.6328860085227 340.886167936 845.6328860085227 345.68 C 845.6328860085227 350.473832064 841.7470436835773 354.36 836.95361328125 354.36 C 832.1601828789227 354.36 828.2743405539773 350.473832064 828.2743405539773 345.68 Z" stroke-miterlimit="10"/></g><g transform="translate(2,-86) scale(1,1)"><path fill="none" stroke="#000000" d="M 836.95361328125 354.36 L 836.95361328125 371.64" stroke-miterlimit="10"/></g><g transform="translate(2,-86) scale(1,1)"><path fill="none" stroke="#000000" d="M 827.7637950994318 360.84 L 846.1434314630682 360.84" stroke-miterlimit="10"/></g><g transform="translate(2,-86) scale(1,1)"><path fill="none" stroke="#000000" d="M 836.95361328125 371.64 L 824.1899769176136 389" stroke-miterlimit="10"/></g><g transform="translate(2,-86) scale(1,1)"><path fill="none" stroke="#000000" d="M 836.95361328125 371.64 L 849.7172496448864 389" stroke-miterlimit="10"/></g><g transform="translate(2,-86) scale(1,1)"><g><path fill="none" stroke="none"/><text fill="#000000" stroke="none" font-family="Arial" font-size="13px" font-style="normal" font-weight="bold" text-decoration="none" x="808.049560546875" y="409.5">Employee</text></g></g><g transform="translate(2,-86) scale(1,1)"><g><path fill="none" stroke="none"/><text fill="#000000" stroke="none" font-family="Arial" font-size="13px" font-style="normal" font-weight="normal" text-decoration="none" x="796.5" y="424.5">(from Model1)</text></g></g><g transform="translate(2,-86) scale(1,1)"><path fill="none" stroke="#000000" d="M 198 338 L 443 219" stroke-miterlimit="10"/></g><g transform="translate(2,-86) scale(1,1)"><path fill="none" stroke="#000000" d="M 435.6977460414267 227.2266084825097 L 443 219 L 432.0194360637971 219.6536173520959" stroke-miterlimit="10"/></g><g transform="translate(2,-86) scale(1,1)"><path fill="none" stroke="#000000" d="M 791 384 L 614 389" stroke-miterlimit="10"/></g><g transform="translate(2,-86) scale(1,1)"><path fill="none" stroke="#000000" d="M 624.039756949302 384.5051940643737 L 614 389 L 624.2774879775152 392.92087246311735" stroke-miterlimit="10"/></g><g transform="translate(2,-86) scale(1,1)"><path fill="none" stroke="#000000" d="M 172 415 L 354 671" stroke-miterlimit="10"/></g><g transform="translate(2,-86) scale(1,1)"><path fill="none" stroke="#000000" d="M 344.68059307253293 665.1563149879311 L 354 671 L 351.5422934641033 660.278074865799" stroke-miterlimit="10"/></g><g transform="translate(2,-86) scale(1,1)"><path fill="none" stroke="#000000" d="M 160 319 L 249 131" stroke-miterlimit="10"/></g><g transform="translate(2,-86) scale(1,1)"><path fill="none" stroke="#000000" d="M 248.45631049394632 141.9865554984721 L 249 131 L 240.84688556855752 138.3842213582614" stroke-miterlimit="10"/></g><g transform="translate(2,-86) scale(1,1)"><path fill="#C0C0C0" stroke="none" d="M 15 688 C 15 678.6111584 51.936504 671 97.5 671 C 143.063496 671 180 678.6111584 180 688 C 180 697.3888416 143.063496 705 97.5 705 C 51.936504 705 15 697.3888416 15 688 Z" opacity="0.2"/></g><g transform="translate(2,-86) scale(1,1)"><path fill="#ffffff" stroke="none" d="M 8 681 C 8 671.6111584 44.936504 664 90.5 664 C 136.063496 664 173 671.6111584 173 681 C 173 690.3888416 136.063496 698 90.5 698 C 44.936504 698 8 690.3888416 8 681 Z"/></g><g transform="translate(2,-86) scale(1,1)"><path fill="none" stroke="#000000" d="M 8 681 C 8 671.6111584 44.936504 664 90.5 664 C 136.063496 664 173 671.6111584 173 681 C 173 690.3888416 136.063496 698 90.5 698 C 44.936504 698 8 690.3888416 8 681 Z" stroke-miterlimit="10"/></g><g transform="translate(2,-86) scale(1,1)"><g><path fill="none" stroke="none"/><text fill="#000000" stroke="none" font-family="Arial" font-size="13px" font-style="normal" font-weight="bold" text-decoration="none" x="41.3564453125" y="688">schedule training</text></g></g><g transform="translate(2,-86) scale(1,1)"><path fill="#C0C0C0" stroke="none" d="M 95 768 C 95 758.6111584 158.3517008 751 236.5 751 C 314.6482992 751 378 758.6111584 378 768 C 378 777.3888416 314.6482992 785 236.5 785 C 158.3517008 785 95 777.3888416 95 768 Z" opacity="0.2"/></g><g transform="translate(2,-86) scale(1,1)"><path fill="#ffffff" stroke="none" d="M 88 761 C 88 751.6111584 151.3517008 744 229.5 744 C 307.6482992 744 371 751.6111584 371 761 C 371 770.3888416 307.6482992 778 229.5 778 C 151.3517008 778 88 770.3888416 88 761 Z"/></g><g transform="translate(2,-86) scale(1,1)"><path fill="none" stroke="#000000" d="M 88 761 C 88 751.6111584 151.3517008 744 229.5 744 C 307.6482992 744 371 751.6111584 371 761 C 371 770.3888416 307.6482992 778 229.5 778 C 151.3517008 778 88 770.3888416 88 761 Z" stroke-miterlimit="10"/></g><g transform="translate(2,-86) scale(1,1)"><g><path fill="none" stroke="none"/><text fill="#000000" stroke="none" font-family="Arial" font-size="13px" font-style="normal" font-weight="bold" text-decoration="none" x="140.9755859375" y="768">handle office policy awareness</text></g></g><g transform="translate(2,-86) scale(1,1)"><path fill="none" stroke="#000000" d="M 131 415 L 93 663" stroke-miterlimit="10"/></g><g transform="translate(2,-86) scale(1,1)"><path fill="none" stroke="#000000" d="M 90.37826448638107 652.3169993495915 L 93 663 L 98.70017524316663 653.5921308365183" stroke-miterlimit="10"/></g><g transform="translate(2,-86) scale(1,1)"><path fill="none" stroke="#000000" d="M 149 415 L 225 743" stroke-miterlimit="10"/></g><g transform="translate(2,-86) scale(1,1)"><path fill="none" stroke="#000000" d="M 218.60513648881042 734.0498200759283 L 225 743 L 226.80688156362623 732.1494157293247" stroke-miterlimit="10"/></g><g transform="translate(2,-86) scale(1,1)"><path fill="#ffffff" stroke="none" d="M 828.2743405539773 529.6800000000001 C 828.2743405539773 524.8861679360001 832.1601828789227 521 836.95361328125 521 C 841.7470436835773 521 845.6328860085227 524.8861679360001 845.6328860085227 529.6800000000001 C 845.6328860085227 534.473832064 841.7470436835773 538.36 836.95361328125 538.36 C 832.1601828789227 538.36 828.2743405539773 534.473832064 828.2743405539773 529.6800000000001 Z"/></g><g transform="translate(2,-86) scale(1,1)"><path fill="none" stroke="#000000" d="M 828.2743405539773 529.6800000000001 C 828.2743405539773 524.8861679360001 832.1601828789227 521 836.95361328125 521 C 841.7470436835773 521 845.6328860085227 524.8861679360001 845.6328860085227 529.6800000000001 C 845.6328860085227 534.473832064 841.7470436835773 538.36 836.95361328125 538.36 C 832.1601828789227 538.36 828.2743405539773 534.473832064 828.2743405539773 529.6800000000001 Z" stroke-miterlimit="10"/></g><g transform="translate(2,-86) scale(1,1)"><path fill="none" stroke="#000000" d="M 836.95361328125 538.36 L 836.95361328125 555.64" stroke-miterlimit="10"/></g><g transform="translate(2,-86) scale(1,1)"><path fill="none" stroke="#000000" d="M 827.7637950994318 544.84 L 846.1434314630682 544.84" stroke-miterlimit="10"/></g><g transform="translate(2,-86) scale(1,1)"><path fill="none" stroke="#000000" d="M 836.95361328125 555.64 L 824.1899769176136 573" stroke-miterlimit="10"/></g><g transform="translate(2,-86) scale(1,1)"><path fill="none" stroke="#000000" d="M 836.95361328125 555.64 L 849.7172496448864 573" stroke-miterlimit="10"/></g><g transform="translate(2,-86) scale(1,1)"><g><path fill="none" stroke="none"/><text fill="#000000" stroke="none" font-family="Arial" font-size="13px" font-style="normal" font-weight="bold" text-decoration="none" x="811.299560546875" y="593.5">Manager</text></g></g><g transform="translate(2,-86) scale(1,1)"><g><path fill="none" stroke="none"/><text fill="#000000" stroke="none" font-family="Arial" font-size="13px" font-style="normal" font-weight="normal" text-decoration="none" x="796.5" y="608.5">(from Model1)</text></g></g><g transform="translate(2,-86) scale(1,1)"><path fill="#C0C0C0" stroke="none" d="M 647 704 C 647 694.6111584 677.4446336 687 715 687 C 752.5553664 687 783 694.6111584 783 704 C 783 713.3888416 752.5553664 721 715 721 C 677.4446336 721 647 713.3888416 647 704 Z" opacity="0.2"/></g><g transform="translate(2,-86) scale(1,1)"><path fill="#2b2bff" stroke="none" d="M 640 697 C 640 687.6111584 670.4446336 680 708 680 C 745.5553664 680 776 687.6111584 776 697 C 776 706.3888416 745.5553664 714 708 714 C 670.4446336 714 640 706.3888416 640 697 Z"/></g><g transform="translate(2,-86) scale(1,1)"><path fill="none" stroke="#000000" d="M 640 697 C 640 687.6111584 670.4446336 680 708 680 C 745.5553664 680 776 687.6111584 776 697 C 776 706.3888416 745.5553664 714 708 714 C 670.4446336 714 640 706.3888416 640 697 Z" stroke-miterlimit="10"/></g><g transform="translate(2,-86) scale(1,1)"><g><path fill="none" stroke="none"/><text fill="#000000" stroke="none" font-family="Arial" font-size="13px" font-style="normal" font-weight="bold" text-decoration="none" x="668.266845703125" y="704">submit review</text></g></g><g transform="translate(2,-86) scale(1,1)"><path fill="#C0C0C0" stroke="none" d="M 703 128 C 703 118.6111584 728.743624 111 760.5 111 C 792.256376 111 818 118.6111584 818 128 C 818 137.3888416 792.256376 145 760.5 145 C 728.743624 145 703 137.3888416 703 128 Z" opacity="0.2"/></g><g transform="translate(2,-86) scale(1,1)"><path fill="#2b2bff" stroke="none" d="M 696 121 C 696 111.6111584 721.743624 104 753.5 104 C 785.256376 104 811 111.6111584 811 121 C 811 130.3888416 785.256376 138 753.5 138 C 721.743624 138 696 130.3888416 696 121 Z"/></g><g transform="translate(2,-86) scale(1,1)"><path fill="none" stroke="#000000" d="M 696 121 C 696 111.6111584 721.743624 104 753.5 104 C 785.256376 104 811 111.6111584 811 121 C 811 130.3888416 785.256376 138 753.5 138 C 721.743624 138 696 130.3888416 696 121 Z" stroke-miterlimit="10"/></g><g transform="translate(2,-86) scale(1,1)"><g><path fill="none" stroke="none"/><text fill="#000000" stroke="none" font-family="Arial" font-size="13px" font-style="normal" font-weight="bold" text-decoration="none" x="719.908203125" y="128">view review</text></g></g><g transform="translate(2,-86) scale(1,1)"><path fill="none" stroke="#000000" d="M 836 519 L 836 431" stroke-miterlimit="10"/></g><g transform="translate(2,-86) scale(1,1)"><path fill="#FFFFFF" stroke="none" d="M 844.419035512032 451.3253497152483 L 836 431 L 827.580964487968 451.3253497152483"/></g><g transform="translate(2,-86) scale(1,1)"><path fill="none" stroke="#000000" d="M 844.419035512032 451.3253497152483 L 836 431 L 827.580964487968 451.3253497152483 L 844.419035512032 451.3253497152483" stroke-miterlimit="10"/></g><g transform="translate(2,-86) scale(1,1)"><path fill="none" stroke="#000000" d="M 821 335 L 759 139" stroke-miterlimit="10"/></g><g transform="translate(2,-86) scale(1,1)"><path fill="none" stroke="#000000" d="M 766.0785354540976 147.41987742340012 L 759 139 L 758.0515279976161 149.95903284330757" stroke-miterlimit="10"/></g><g transform="translate(2,-86) scale(1,1)"><path fill="none" stroke="#000000" d="M 791 613 L 726 679" stroke-miterlimit="10"/></g><g transform="translate(2,-86) scale(1,1)"><path fill="none" stroke="#000000" d="M 730.1318197030992 668.805488440289 L 726 679 L 736.1302459854579 674.7130294759453" stroke-miterlimit="10"/></g><g transform="translate(2,-86) scale(1,1)"><path fill="#C0C0C0" stroke="none" d="M 143 120 C 143 110.6111584 197.1735392 103 264 103 C 330.8264608 103 385 110.6111584 385 120 C 385 129.3888416 330.8264608 137 264 137 C 197.1735392 137 143 129.3888416 143 120 Z" opacity="0.2"/></g><g transform="translate(2,-86) scale(1,1)"><path fill="#2b2bff" stroke="none" d="M 136 113 C 136 103.6111584 190.1735392 96 257 96 C 323.8264608 96 378 103.6111584 378 113 C 378 122.3888416 323.8264608 130 257 130 C 190.1735392 130 136 122.3888416 136 113 Z"/></g><g transform="translate(2,-86) scale(1,1)"><path fill="none" stroke="#000000" d="M 136 113 C 136 103.6111584 190.1735392 96 257 96 C 323.8264608 96 378 103.6111584 378 113 C 378 122.3888416 323.8264608 130 257 130 C 190.1735392 130 136 122.3888416 136 113 Z" stroke-miterlimit="10"/></g><g transform="translate(2,-86) scale(1,1)"><g><path fill="none" stroke="none"/><text fill="#000000" stroke="none" font-family="Arial" font-size="13px" font-style="normal" font-weight="bold" text-decoration="none" x="181.84375" y="120">schedule company events</text></g></g><g transform="translate(2,-86) scale(1,1)"><path fill="none" stroke="#000000" d="M 435 279 L 470 219" stroke-miterlimit="10"/></g><g transform="translate(2,-86) scale(1,1)"><path fill="#FFFFFF" stroke="none" d="M 467.03083043605 240.79871629478473 L 470 219 L 452.48645995363427 232.31450018004222"/></g><g transform="translate(2,-86) scale(1,1)"><path fill="none" stroke="#000000" d="M 467.03083043605 240.79871629478473 L 470 219 L 452.48645995363427 232.31450018004222 L 467.03083043605 240.79871629478473" stroke-miterlimit="10"/></g><g transform="translate(2,-86) scale(1,1)"><path fill="#C0C0C0" stroke="none" d="M 543 296 C 543 286.6111584 584.413656 279 635.5 279 C 686.586344 279 728 286.6111584 728 296 C 728 305.3888416 686.586344 313 635.5 313 C 584.413656 313 543 305.3888416 543 296 Z" opacity="0.2"/></g><g transform="translate(2,-86) scale(1,1)"><path fill="#2b2bff" stroke="none" d="M 536 289 C 536 279.6111584 577.413656 272 628.5 272 C 679.586344 272 721 279.6111584 721 289 C 721 298.3888416 679.586344 306 628.5 306 C 577.413656 306 536 298.3888416 536 289 Z"/></g><g transform="translate(2,-86) scale(1,1)"><path fill="none" stroke="#000000" d="M 536 289 C 536 279.6111584 577.413656 272 628.5 272 C 679.586344 272 721 279.6111584 721 289 C 721 298.3888416 679.586344 306 628.5 306 C 577.413656 306 536 298.3888416 536 289 Z" stroke-miterlimit="10"/></g><g transform="translate(2,-86) scale(1,1)"><g><path fill="none" stroke="none"/><text fill="#000000" stroke="none" font-family="Arial" font-size="13px" font-style="normal" font-weight="bold" text-decoration="none" x="571.41552734375" y="296">terminate employee</text></g></g><g transform="translate(2,-86) scale(1,1)"><path fill="none" stroke="#000000" d="M 598 271 L 510 219" stroke-miterlimit="10"/></g><g transform="translate(2,-86) scale(1,1)"><path fill="#FFFFFF" stroke="none" d="M 531.7816429098964 222.09193016508496 L 510 219 L 523.2156226202848 236.5882721936584"/></g><g transform="translate(2,-86) scale(1,1)"><path fill="none" stroke="#000000" d="M 531.7816429098964 222.09193016508496 L 510 219 L 523.2156226202848 236.5882721936584 L 531.7816429098964 222.09193016508496" stroke-miterlimit="10"/></g><g transform="translate(2,-86) scale(1,1)"><path fill="none" stroke="#000000" d="M 791 553 L 537 475" stroke-miterlimit="10"/></g><g transform="translate(2,-86) scale(1,1)"><path fill="none" stroke="#000000" d="M 547.9506566371667 473.95926986452935 L 537 475 L 545.4791909027625 482.00737623040953" stroke-miterlimit="10"/></g><g transform="translate(2,-86) scale(1,1)"><path fill="none" stroke="#000000" d="M 695 138 L 541 183" stroke-miterlimit="10" stroke-dasharray="3"/></g><g transform="translate(2,-86) scale(1,1)"><path fill="none" stroke="#000000" d="M 549.5740679259682 176.10903786101795 L 541 183 L 551.9354276301801 184.19013551543222" stroke-miterlimit="10"/></g><g transform="translate(2,-86) scale(1,1)"><g><path fill="none" stroke="none"/><text fill="#000000" stroke="none" font-family="Arial" font-size="13px" font-style="normal" font-weight="normal" text-decoration="none" x="599" y="195">«include»</text></g></g><g transform="translate(2,-86) scale(1,1)"><path fill="#C0C0C0" stroke="none" d="M 479 336 C 479 326.6111584 516.6080768 319 563 319 C 609.3919232 319 647 326.6111584 647 336 C 647 345.3888416 609.3919232 353 563 353 C 516.6080768 353 479 345.3888416 479 336 Z" opacity="0.2"/></g><g transform="translate(2,-86) scale(1,1)"><path fill="#2b2bff" stroke="none" d="M 472 329 C 472 319.6111584 509.6080768 312 556 312 C 602.3919232 312 640 319.6111584 640 329 C 640 338.3888416 602.3919232 346 556 346 C 509.6080768 346 472 338.3888416 472 329 Z"/></g><g transform="translate(2,-86) scale(1,1)"><path fill="none" stroke="#000000" d="M 472 329 C 472 319.6111584 509.6080768 312 556 312 C 602.3919232 312 640 319.6111584 640 329 C 640 338.3888416 602.3919232 346 556 346 C 509.6080768 346 472 338.3888416 472 329 Z" stroke-miterlimit="10"/></g><g transform="translate(2,-86) scale(1,1)"><g><path fill="none" stroke="none"/><text fill="#000000" stroke="none" font-family="Arial" font-size="13px" font-style="normal" font-weight="bold" text-decoration="none" x="504.330078125" y="336">demote employee</text></g></g><g transform="translate(2,-86) scale(1,1)"><path fill="none" stroke="#000000" d="M 545 311 L 491 219" stroke-miterlimit="10"/></g><g transform="translate(2,-86) scale(1,1)"><path fill="#FFFFFF" stroke="none" d="M 508.54941269631234 232.26718184146546 L 491 219 L 494.0279944760685 240.790622970739"/></g><g transform="translate(2,-86) scale(1,1)"><path fill="none" stroke="#000000" d="M 508.54941269631234 232.26718184146546 L 491 219 L 494.0279944760685 240.790622970739 L 508.54941269631234 232.26718184146546" stroke-miterlimit="10"/></g><g transform="translate(2,-86) scale(1,1)"><path fill="#C0C0C0" stroke="none" d="M 1007 465 C 1007 450.6405952 1057.5918176 439 1120 439 C 1182.4081824 439 1233 450.6405952 1233 465 C 1233 479.3594048 1182.4081824 491 1120 491 C 1057.5918176 491 1007 479.3594048 1007 465 Z" opacity="0.2"/></g><g transform="translate(2,-86) scale(1,1)"><path fill="#2b2bff" stroke="none" d="M 1000 458 C 1000 443.6405952 1050.5918176 432 1113 432 C 1175.4081824 432 1226 443.6405952 1226 458 C 1226 472.3594048 1175.4081824 484 1113 484 C 1050.5918176 484 1000 472.3594048 1000 458 Z"/></g><g transform="translate(2,-86) scale(1,1)"><path fill="none" stroke="#000000" d="M 1000 458 C 1000 443.6405952 1050.5918176 432 1113 432 C 1175.4081824 432 1226 443.6405952 1226 458 C 1226 472.3594048 1175.4081824 484 1113 484 C 1050.5918176 484 1000 472.3594048 1000 458 Z" stroke-miterlimit="10"/></g><g transform="translate(2,-86) scale(1,1)"><g><path fill="none" stroke="none"/><text fill="#000000" stroke="none" font-family="Arial" font-size="13px" font-style="normal" font-weight="bold" text-decoration="none" x="1059.52099609375" y="458.5">manage employee</text><text fill="#000000" stroke="none" font-family="Arial" font-size="13px" font-style="normal" font-weight="bold" text-decoration="none" x="1097.8291015625" y="471.5">shifts</text></g></g><g transform="translate(2,-86) scale(1,1)"><path fill="none" stroke="#000000" d="M 883 549 L 1044 485" stroke-miterlimit="10"/></g><g transform="translate(2,-86) scale(1,1)"><path fill="none" stroke="#000000" d="M 1036.1111181065573 492.66586867036693 L 1044 485 L 1033.001130396665 484.8423058376689" stroke-miterlimit="10"/></g><g transform="translate(2,-86) scale(1,1)"><path fill="#C0C0C0" stroke="none" d="M 399 578.5 C 399 563.312168 447.3532416 551 507 551 C 566.6467584 551 615 563.312168 615 578.5 C 615 593.687832 566.6467584 606 507 606 C 447.3532416 606 399 593.687832 399 578.5 Z" opacity="0.2"/></g><g transform="translate(2,-86) scale(1,1)"><path fill="#ffffff" stroke="none" d="M 392 571.5 C 392 556.312168 440.3532416 544 500 544 C 559.6467584 544 608 556.312168 608 571.5 C 608 586.687832 559.6467584 599 500 599 C 440.3532416 599 392 586.687832 392 571.5 Z"/></g><g transform="translate(2,-86) scale(1,1)"><path fill="none" stroke="#000000" d="M 392 571.5 C 392 556.312168 440.3532416 544 500 544 C 559.6467584 544 608 556.312168 608 571.5 C 608 586.687832 559.6467584 599 500 599 C 440.3532416 599 392 586.687832 392 571.5 Z" stroke-miterlimit="10"/></g><g transform="translate(2,-86) scale(1,1)"><g><path fill="none" stroke="none"/><text fill="#000000" stroke="none" font-family="Arial" font-size="13px" font-style="normal" font-weight="bold" text-decoration="none" x="433.517822265625" y="571">create action on record</text></g></g><g transform="translate(2,-86) scale(1,1)"><g><path fill="none" stroke="none"/><text fill="#000000" stroke="none" font-family="Arial" font-size="13px" font-style="normal" font-weight="normal" text-decoration="none" x="459.54638671875" y="586">(from Model1)</text></g></g><g transform="translate(2,-86) scale(1,1)"><path fill="none" stroke="#000000" d="M 678 679 L 548 600" stroke-miterlimit="10" stroke-dasharray="3"/></g><g transform="translate(2,-86) scale(1,1)"><path fill="none" stroke="#000000" d="M 558.8709017128025 601.6803261441122 L 548 600 L 554.4987183076283 608.8750583298419" stroke-miterlimit="10"/></g><g transform="translate(2,-86) scale(1,1)"><g><path fill="none" stroke="none"/><text fill="#000000" stroke="none" font-family="Arial" font-size="13px" font-style="normal" font-weight="normal" text-decoration="none" x="570" y="671">«include»</text></g></g><g transform="translate(2,-86) scale(1,1)"><path fill="none" stroke="#000000" d="M 482 475 L 495 543" stroke-miterlimit="10" stroke-dasharray="3"/></g><g transform="translate(2,-86) scale(1,1)"><path fill="none" stroke="#000000" d="M 488.95705702742566 533.8085452603946 L 495 543 L 497.2263340211133 532.2276540704249" stroke-miterlimit="10"/></g><g transform="translate(2,-86) scale(1,1)"><g><path fill="none" stroke="none"/><text fill="#000000" stroke="none" font-family="Arial" font-size="13px" font-style="normal" font-weight="normal" text-decoration="none" x="490" y="509">«include»</text></g></g><g transform="translate(2,-86) scale(1,1)"><path fill="none" stroke="#000000" d="M 359 205 L 256 208 L 304 520 L 392 543" stroke-miterlimit="10" stroke-dasharray="3"/></g><g transform="translate(2,-86) scale(1,1)"><path fill="none" stroke="#000000" d="M 381.1031495160843 544.502880411472 L 392 543 L 383.23206619898303 536.3574600595116" stroke-miterlimit="10"/></g><g transform="translate(2,-86) scale(1,1)"><g><path fill="none" stroke="none"/><text fill="#000000" stroke="none" font-family="Arial" font-size="13px" font-style="normal" font-weight="normal" text-decoration="none" x="282" y="366">«include»</text></g></g><g transform="translate(2,-86) scale(1,1)"><path fill="none" stroke="#000000" d="M 400 671 L 471 600" stroke-miterlimit="10" stroke-dasharray="3"/></g><g transform="translate(2,-86) scale(1,1)"><path fill="none" stroke="#000000" d="M 466.790482243984 610.1626748576241 L 471 600 L 460.83732514237585 604.209517756016" stroke-miterlimit="10"/></g><g transform="translate(2,-86) scale(1,1)"><g><path fill="none" stroke="none"/><text fill="#000000" stroke="none" font-family="Arial" font-size="13px" font-style="normal" font-weight="normal" text-decoration="none" x="387" y="620">«include»</text></g></g><g transform="translate(2,-86) scale(1,1)"><path fill="none" stroke="#000000" d="M 157 663 L 392 600" stroke-miterlimit="10" stroke-dasharray="3"/></g><g transform="translate(2,-86) scale(1,1)"><path fill="none" stroke="#000000" d="M 383.2739624617775 606.6974822792996 L 392 600 L 381.09392454726503 598.5655948204039" stroke-miterlimit="10"/></g><g transform="translate(2,-86) scale(1,1)"><g><path fill="none" stroke="none"/><text fill="#000000" stroke="none" font-family="Arial" font-size="13px" font-style="normal" font-weight="normal" text-decoration="none" x="239" y="608">«include»</text></g></g></g></svg>