<svg version="1.1" xmlns="http://www.w3.org/2000/svg" xmlns:xlink="http://www.w3.org/1999/xlink" width="820.3017578125" height="552"><defs/><g><g transform="translate(-46,-30) scale(1,1)"><path fill="#ffffff" stroke="none" d="M 105.62980930397727 425.68 C 105.62980930397727 420.886167936 109.51565162892273 417 114.30908203125 417 C 119.10251243357727 417 122.98835475852273 420.886167936 122.98835475852273 425.68 C 122.98835475852273 430.473832064 119.10251243357727 434.36 114.30908203125 434.36 C 109.51565162892273 434.36 105.62980930397727 430.473832064 105.62980930397727 425.68 Z"/></g><g transform="translate(-46,-30) scale(1,1)"><path fill="none" stroke="#000000" d="M 105.62980930397727 425.68 C 105.62980930397727 420.886167936 109.51565162892273 417 114.30908203125 417 C 119.10251243357727 417 122.98835475852273 420.886167936 122.98835475852273 425.68 C 122.98835475852273 430.473832064 119.10251243357727 434.36 114.30908203125 434.36 C 109.51565162892273 434.36 105.62980930397727 430.473832064 105.62980930397727 425.68 Z" stroke-miterlimit="10"/></g><g transform="translate(-46,-30) scale(1,1)"><path fill="none" stroke="#000000" d="M 114.30908203125 434.36 L 114.30908203125 451.64" stroke-miterlimit="10"/></g><g transform="translate(-46,-30) scale(1,1)"><path fill="none" stroke="#000000" d="M 105.11926384943182 440.84 L 123.49890021306818 440.84" stroke-miterlimit="10"/></g><g transform="translate(-46,-30) scale(1,1)"><path fill="none" stroke="#000000" d="M 114.30908203125 451.64 L 101.54544566761363 469" stroke-miterlimit="10"/></g><g transform="translate(-46,-30) scale(1,1)"><path fill="none" stroke="#000000" d="M 114.30908203125 451.64 L 127.07271839488637 469" stroke-miterlimit="10"/></g><g transform="translate(-46,-30) scale(1,1)"><g><path fill="none" stroke="none"/><text fill="#000000" stroke="none" font-family="Arial" font-size="13px" font-style="normal" font-weight="bold" text-decoration="none" x="64.825927734375" y="489.5">HR Administrator</text></g></g><g transform="translate(-46,-30) scale(1,1)"><g><path fill="none" stroke="none"/><text fill="#000000" stroke="none" font-family="Arial" font-size="13px" font-style="normal" font-weight="normal" text-decoration="none" x="76.035888671875" y="504.5">(from HRMS)</text></g></g><g transform="translate(-46,-30) scale(1,1)"><path fill="#C0C0C0" stroke="none" d="M 351 353 C 351 338.6405952 385.0263552 327 427 327 C 468.9736448 327 503 338.6405952 503 353 C 503 367.3594048 468.9736448 379 427 379 C 385.0263552 379 351 367.3594048 351 353 Z" opacity="0.2"/></g><g transform="translate(-46,-30) scale(1,1)"><path fill="#a3e0ff" stroke="none" d="M 344 346 C 344 331.6405952 378.0263552 320 420 320 C 461.9736448 320 496 331.6405952 496 346 C 496 360.3594048 461.9736448 372 420 372 C 378.0263552 372 344 360.3594048 344 346 Z"/></g><g transform="translate(-46,-30) scale(1,1)"><path fill="none" stroke="#000000" d="M 344 346 C 344 331.6405952 378.0263552 320 420 320 C 461.9736448 320 496 331.6405952 496 346 C 496 360.3594048 461.9736448 372 420 372 C 378.0263552 372 344 360.3594048 344 346 Z" stroke-miterlimit="10"/></g><g transform="translate(-46,-30) scale(1,1)"><g><path fill="none" stroke="none"/><text fill="#000000" stroke="none" font-family="Arial" font-size="13px" font-style="normal" font-weight="bold" text-decoration="none" x="401.575927734375" y="346.5">list job</text><text fill="#000000" stroke="none" font-family="Arial" font-size="13px" font-style="normal" font-weight="bold" text-decoration="none" x="393.615966796875" y="359.5">openings</text></g></g><g transform="translate(-46,-30) scale(1,1)"><path fill="#ffffff" stroke="none" d="M 633.4325436789773 217.68 C 633.4325436789773 212.886167936 637.3183860039227 209 642.11181640625 209 C 646.9052468085773 209 650.7910891335227 212.886167936 650.7910891335227 217.68 C 650.7910891335227 222.47383206400002 646.9052468085773 226.36 642.11181640625 226.36 C 637.3183860039227 226.36 633.4325436789773 222.47383206400002 633.4325436789773 217.68 Z"/></g><g transform="translate(-46,-30) scale(1,1)"><path fill="none" stroke="#000000" d="M 633.4325436789773 217.68 C 633.4325436789773 212.886167936 637.3183860039227 209 642.11181640625 209 C 646.9052468085773 209 650.7910891335227 212.886167936 650.7910891335227 217.68 C 650.7910891335227 222.47383206400002 646.9052468085773 226.36 642.11181640625 226.36 C 637.3183860039227 226.36 633.4325436789773 222.47383206400002 633.4325436789773 217.68 Z" stroke-miterlimit="10"/></g><g transform="translate(-46,-30) scale(1,1)"><path fill="none" stroke="#000000" d="M 642.11181640625 226.36 L 642.11181640625 243.64" stroke-miterlimit="10"/></g><g transform="translate(-46,-30) scale(1,1)"><path fill="none" stroke="#000000" d="M 632.9219982244318 232.84 L 651.3016345880682 232.84" stroke-miterlimit="10"/></g><g transform="translate(-46,-30) scale(1,1)"><path fill="none" stroke="#000000" d="M 642.11181640625 243.64 L 629.3481800426136 261" stroke-miterlimit="10"/></g><g transform="translate(-46,-30) scale(1,1)"><path fill="none" stroke="#000000" d="M 642.11181640625 243.64 L 654.8754527698864 261" stroke-miterlimit="10"/></g><g transform="translate(-46,-30) scale(1,1)"><g><path fill="none" stroke="none"/><text fill="#000000" stroke="none" font-family="Arial" font-size="13px" font-style="normal" font-weight="bold" text-decoration="none" x="615.372314453125" y="281.5">Applicant</text></g></g><g transform="translate(-46,-30) scale(1,1)"><path fill="#C0C0C0" stroke="none" d="M 335 168 C 335 158.6111584 374.6227952 151 423.5 151 C 472.3772048 151 512 158.6111584 512 168 C 512 177.3888416 472.3772048 185 423.5 185 C 374.6227952 185 335 177.3888416 335 168 Z" opacity="0.2"/></g><g transform="translate(-46,-30) scale(1,1)"><path fill="#a3e0ff" stroke="none" d="M 328 161 C 328 151.6111584 367.6227952 144 416.5 144 C 465.3772048 144 505 151.6111584 505 161 C 505 170.3888416 465.3772048 178 416.5 178 C 367.6227952 178 328 170.3888416 328 161 Z"/></g><g transform="translate(-46,-30) scale(1,1)"><path fill="none" stroke="#000000" d="M 328 161 C 328 151.6111584 367.6227952 144 416.5 144 C 465.3772048 144 505 151.6111584 505 161 C 505 170.3888416 465.3772048 178 416.5 178 C 367.6227952 178 328 170.3888416 328 161 Z" stroke-miterlimit="10"/></g><g transform="translate(-46,-30) scale(1,1)"><g><path fill="none" stroke="none"/><text fill="#000000" stroke="none" font-family="Arial" font-size="13px" font-style="normal" font-weight="bold" text-decoration="none" x="364.471435546875" y="168">submit application</text></g></g><g transform="translate(-46,-30) scale(1,1)"><path fill="#C0C0C0" stroke="none" d="M 359 457 C 359 442.6405952 393.0263552 431 435 431 C 476.9736448 431 511 442.6405952 511 457 C 511 471.3594048 476.9736448 483 435 483 C 393.0263552 483 359 471.3594048 359 457 Z" opacity="0.2"/></g><g transform="translate(-46,-30) scale(1,1)"><path fill="#a3e0ff" stroke="none" d="M 352 450 C 352 435.6405952 386.0263552 424 428 424 C 469.9736448 424 504 435.6405952 504 450 C 504 464.3594048 469.9736448 476 428 476 C 386.0263552 476 352 464.3594048 352 450 Z"/></g><g transform="translate(-46,-30) scale(1,1)"><path fill="none" stroke="#000000" d="M 352 450 C 352 435.6405952 386.0263552 424 428 424 C 469.9736448 424 504 435.6405952 504 450 C 504 464.3594048 469.9736448 476 428 476 C 386.0263552 476 352 464.3594048 352 450 Z" stroke-miterlimit="10"/></g><g transform="translate(-46,-30) scale(1,1)"><g><path fill="none" stroke="none"/><text fill="#000000" stroke="none" font-family="Arial" font-size="13px" font-style="normal" font-weight="bold" text-decoration="none" x="395.845947265625" y="450.5">remove job</text><text fill="#000000" stroke="none" font-family="Arial" font-size="13px" font-style="normal" font-weight="bold" text-decoration="none" x="401.615966796875" y="463.5">openings</text></g></g><g transform="translate(-46,-30) scale(1,1)"><path fill="#C0C0C0" stroke="none" d="M 359 553 C 359 538.6405952 391.2354944 527 431 527 C 470.7645056 527 503 538.6405952 503 553 C 503 567.3594048 470.7645056 579 431 579 C 391.2354944 579 359 567.3594048 359 553 Z" opacity="0.2"/></g><g transform="translate(-46,-30) scale(1,1)"><path fill="#a3e0ff" stroke="none" d="M 352 546 C 352 531.6405952 384.2354944 520 424 520 C 463.7645056 520 496 531.6405952 496 546 C 496 560.3594048 463.7645056 572 424 572 C 384.2354944 572 352 560.3594048 352 546 Z"/></g><g transform="translate(-46,-30) scale(1,1)"><path fill="none" stroke="#000000" d="M 352 546 C 352 531.6405952 384.2354944 520 424 520 C 463.7645056 520 496 531.6405952 496 546 C 496 560.3594048 463.7645056 572 424 572 C 384.2354944 572 352 560.3594048 352 546 Z" stroke-miterlimit="10"/></g><g transform="translate(-46,-30) scale(1,1)"><g><path fill="none" stroke="none"/><text fill="#000000" stroke="none" font-family="Arial" font-size="13px" font-style="normal" font-weight="bold" text-decoration="none" x="403.04638671875" y="546.5">receive</text><text fill="#000000" stroke="none" font-family="Arial" font-size="13px" font-style="normal" font-weight="bold" text-decoration="none" x="389.671875" y="559.5">applications</text></g></g><g transform="translate(-46,-30) scale(1,1)"><path fill="#C0C0C0" stroke="none" d="M 335 96 C 335 86.6111584 372.6080768 79 419 79 C 465.3919232 79 503 86.6111584 503 96 C 503 105.3888416 465.3919232 113 419 113 C 372.6080768 113 335 105.3888416 335 96 Z" opacity="0.2"/></g><g transform="translate(-46,-30) scale(1,1)"><path fill="#a3e0ff" stroke="none" d="M 328 89 C 328 79.6111584 365.6080768 72 412 72 C 458.3919232 72 496 79.6111584 496 89 C 496 98.3888416 458.3919232 106 412 106 C 365.6080768 106 328 98.3888416 328 89 Z"/></g><g transform="translate(-46,-30) scale(1,1)"><path fill="none" stroke="#000000" d="M 328 89 C 328 79.6111584 365.6080768 72 412 72 C 458.3919232 72 496 79.6111584 496 89 C 496 98.3888416 458.3919232 106 412 106 C 365.6080768 106 328 98.3888416 328 89 Z" stroke-miterlimit="10"/></g><g transform="translate(-46,-30) scale(1,1)"><g><path fill="none" stroke="none"/><text fill="#000000" stroke="none" font-family="Arial" font-size="13px" font-style="normal" font-weight="bold" text-decoration="none" x="362.5009765625" y="96">view job postings</text></g></g><g transform="translate(-46,-30) scale(1,1)"><path fill="#ffffff" stroke="none" d="M 636.2743405539773 49.68 C 636.2743405539773 44.886167936 640.1601828789227 41 644.95361328125 41 C 649.7470436835773 41 653.6328860085227 44.886167936 653.6328860085227 49.68 C 653.6328860085227 54.473832064 649.7470436835773 58.36 644.95361328125 58.36 C 640.1601828789227 58.36 636.2743405539773 54.473832064 636.2743405539773 49.68 Z"/></g><g transform="translate(-46,-30) scale(1,1)"><path fill="none" stroke="#000000" d="M 636.2743405539773 49.68 C 636.2743405539773 44.886167936 640.1601828789227 41 644.95361328125 41 C 649.7470436835773 41 653.6328860085227 44.886167936 653.6328860085227 49.68 C 653.6328860085227 54.473832064 649.7470436835773 58.36 644.95361328125 58.36 C 640.1601828789227 58.36 636.2743405539773 54.473832064 636.2743405539773 49.68 Z" stroke-miterlimit="10"/></g><g transform="translate(-46,-30) scale(1,1)"><path fill="none" stroke="#000000" d="M 644.95361328125 58.36 L 644.95361328125 75.64" stroke-miterlimit="10"/></g><g transform="translate(-46,-30) scale(1,1)"><path fill="none" stroke="#000000" d="M 635.7637950994318 64.84 L 654.1434314630682 64.84" stroke-miterlimit="10"/></g><g transform="translate(-46,-30) scale(1,1)"><path fill="none" stroke="#000000" d="M 644.95361328125 75.64 L 632.1899769176136 93" stroke-miterlimit="10"/></g><g transform="translate(-46,-30) scale(1,1)"><path fill="none" stroke="#000000" d="M 644.95361328125 75.64 L 657.7172496448864 93" stroke-miterlimit="10"/></g><g transform="translate(-46,-30) scale(1,1)"><g><path fill="none" stroke="none"/><text fill="#000000" stroke="none" font-family="Arial" font-size="13px" font-style="normal" font-weight="bold" text-decoration="none" x="627.61181640625" y="113.5">Guest</text></g></g><g transform="translate(-46,-30) scale(1,1)"><g><path fill="none" stroke="none"/><text fill="#000000" stroke="none" font-family="Arial" font-size="13px" font-style="normal" font-weight="normal" text-decoration="none" x="606.680419921875" y="128.5">(from HRMS)</text></g></g><g transform="translate(-46,-30) scale(1,1)"><path fill="none" stroke="#000000" d="M 643 207 L 643 135" stroke-miterlimit="10"/></g><g transform="translate(-46,-30) scale(1,1)"><path fill="#FFFFFF" stroke="none" d="M 651.419035512032 155.3253497152483 L 643 135 L 634.580964487968 155.3253497152483"/></g><g transform="translate(-46,-30) scale(1,1)"><path fill="none" stroke="#000000" d="M 651.419035512032 155.3253497152483 L 643 135 L 634.580964487968 155.3253497152483 L 651.419035512032 155.3253497152483" stroke-miterlimit="10"/></g><g transform="translate(-46,-30) scale(1,1)"><path fill="none" stroke="#000000" d="M 599 87 L 497 88" stroke-miterlimit="10"/></g><g transform="translate(-46,-30) scale(1,1)"><path fill="none" stroke="#000000" d="M 507.12091869183536 83.69105525293519 L 497 88 L 507.20345428924213 92.10968618842679" stroke-miterlimit="10"/></g><g transform="translate(-46,-30) scale(1,1)"><path fill="#ffffff" stroke="none" d="M 760 200 L 845.3017578125 200 L 855.3017578125 210 L 855.3017578125 288 L 760 288 L 760 200"/></g><g transform="translate(-46,-30) scale(1,1)"><path fill="none" stroke="#000000" d="M 760 200 L 845.3017578125 200 L 855.3017578125 210 L 855.3017578125 288 L 760 288 L 760 200 L 760 200" stroke-miterlimit="10"/></g><g transform="translate(-46,-30) scale(1,1)"><path fill="none" stroke="#000000" d="M 845.3017578125 200 L 845.3017578125 210 L 855.3017578125 210 L 845.3017578125 200" stroke-miterlimit="10"/></g><g transform="translate(-46,-30) scale(1,1)"><g><path fill="none" stroke="none"/><text fill="#000000" stroke="none" font-family="Arial" font-size="13px" font-style="normal" font-weight="normal" text-decoration="none" x="765" y="218">Guest</text><text fill="#000000" stroke="none" font-family="Arial" font-size="13px" font-style="normal" font-weight="normal" text-decoration="none" x="765" y="231">becomes an</text><text fill="#000000" stroke="none" font-family="Arial" font-size="13px" font-style="normal" font-weight="normal" text-decoration="none" x="765" y="244">applicant once</text><text fill="#000000" stroke="none" font-family="Arial" font-size="13px" font-style="normal" font-weight="normal" text-decoration="none" x="765" y="257">he logs on to</text><text fill="#000000" stroke="none" font-family="Arial" font-size="13px" font-style="normal" font-weight="normal" text-decoration="none" x="765" y="270">the</text><text fill="#000000" stroke="none" font-family="Arial" font-size="13px" font-style="normal" font-weight="normal" text-decoration="none" x="765" y="283">system/portal</text></g></g><g transform="translate(-46,-30) scale(1,1)"><path fill="none" stroke="#000000" d="M 759 245 L 677 246" stroke-miterlimit="10" stroke-dasharray="3"/></g><g transform="translate(-46,-30) scale(1,1)"><path fill="none" stroke="#000000" d="M 174 440 L 349 373" stroke-miterlimit="10"/></g><g transform="translate(-46,-30) scale(1,1)"><path fill="none" stroke="#000000" d="M 341.0142378126998 380.56489274794336 L 349 373 L 338.0040264433972 372.70240036543663" stroke-miterlimit="10"/></g><g transform="translate(-46,-30) scale(1,1)"><path fill="none" stroke="#000000" d="M 174 461 L 351 453" stroke-miterlimit="10"/></g><g transform="translate(-46,-30) scale(1,1)"><path fill="none" stroke="#000000" d="M 341.0377562540824 457.6640861427428 L 351 453 L 340.65762295185675 449.25363683100005" stroke-miterlimit="10"/></g><g transform="translate(-46,-30) scale(1,1)"><path fill="none" stroke="#000000" d="M 174 479 L 351 526" stroke-miterlimit="10"/></g><g transform="translate(-46,-30) scale(1,1)"><path fill="none" stroke="#000000" d="M 340.09736789145694 527.4603469128143 L 351 526 L 342.2580536983312 519.3232961082028" stroke-miterlimit="10"/></g><g transform="translate(-46,-30) scale(1,1)"><path fill="#C0C0C0" stroke="none" d="M 311 264 C 311 254.6111584 359.3532416 247 419 247 C 478.6467584 247 527 254.6111584 527 264 C 527 273.3888416 478.6467584 281 419 281 C 359.3532416 281 311 273.3888416 311 264 Z" opacity="0.2"/></g><g transform="translate(-46,-30) scale(1,1)"><path fill="#ffffff" stroke="none" d="M 304 257 C 304 247.6111584 352.3532416 240 412 240 C 471.6467584 240 520 247.6111584 520 257 C 520 266.3888416 471.6467584 274 412 274 C 352.3532416 274 304 266.3888416 304 257 Z"/></g><g transform="translate(-46,-30) scale(1,1)"><path fill="none" stroke="#000000" d="M 304 257 C 304 247.6111584 352.3532416 240 412 240 C 471.6467584 240 520 247.6111584 520 257 C 520 266.3888416 471.6467584 274 412 274 C 352.3532416 274 304 266.3888416 304 257 Z" stroke-miterlimit="10"/></g><g transform="translate(-46,-30) scale(1,1)"><g><path fill="none" stroke="none"/><text fill="#000000" stroke="none" font-family="Arial" font-size="13px" font-style="normal" font-weight="bold" text-decoration="none" x="345.879638671875" y="264">View application status</text></g></g><g transform="translate(-46,-30) scale(1,1)"><path fill="none" stroke="#000000" d="M 607 249 L 521 252" stroke-miterlimit="10"/></g><g transform="translate(-46,-30) scale(1,1)"><path fill="none" stroke="#000000" d="M 531.0097427688365 247.43874472302588 L 521 252 L 531.3032515268486 255.85266245270603" stroke-miterlimit="10"/></g><g transform="translate(-46,-30) scale(1,1)"><path fill="none" stroke="#000000" d="M 599 102 L 471 143" stroke-miterlimit="10"/></g><g transform="translate(-46,-30) scale(1,1)"><path fill="none" stroke="#000000" d="M 479.39420342490814 135.89103742721483 L 471 143 L 481.96239380682965 143.90880252199415" stroke-miterlimit="10"/></g></g></svg>