<svg version="1.1" xmlns="http://www.w3.org/2000/svg" xmlns:xlink="http://www.w3.org/1999/xlink" width="820.3017578125" height="520"><defs/><g><g transform="translate(-46,-30) scale(1,1)"><path fill="#ffffff" stroke="none" d="M 105.62980930397727 313.68 C 105.62980930397727 308.886167936 109.51565162892273 305 114.30908203125 305 C 119.10251243357727 305 122.98835475852273 308.886167936 122.98835475852273 313.68 C 122.98835475852273 318.473832064 119.10251243357727 322.36 114.30908203125 322.36 C 109.51565162892273 322.36 105.62980930397727 318.473832064 105.62980930397727 313.68 Z"/></g><g transform="translate(-46,-30) scale(1,1)"><path fill="none" stroke="#000000" d="M 105.62980930397727 313.68 C 105.62980930397727 308.886167936 109.51565162892273 305 114.30908203125 305 C 119.10251243357727 305 122.98835475852273 308.886167936 122.98835475852273 313.68 C 122.98835475852273 318.473832064 119.10251243357727 322.36 114.30908203125 322.36 C 109.51565162892273 322.36 105.62980930397727 318.473832064 105.62980930397727 313.68 Z" stroke-miterlimit="10"/></g><g transform="translate(-46,-30) scale(1,1)"><path fill="none" stroke="#000000" d="M 114.30908203125 322.36 L 114.30908203125 339.64" stroke-miterlimit="10"/></g><g transform="translate(-46,-30) scale(1,1)"><path fill="none" stroke="#000000" d="M 105.11926384943182 328.84 L 123.49890021306818 328.84" stroke-miterlimit="10"/></g><g transform="translate(-46,-30) scale(1,1)"><path fill="none" stroke="#000000" d="M 114.30908203125 339.64 L 101.54544566761363 357" stroke-miterlimit="10"/></g><g transform="translate(-46,-30) scale(1,1)"><path fill="none" stroke="#000000" d="M 114.30908203125 339.64 L 127.07271839488637 357" stroke-miterlimit="10"/></g><g transform="translate(-46,-30) scale(1,1)"><g><path fill="none" stroke="none"/><text fill="#000000" stroke="none" font-family="Arial" font-size="13px" font-style="normal" font-weight="bold" text-decoration="none" x="64.825927734375" y="377.5">HR Administrator</text></g></g><g transform="translate(-46,-30) scale(1,1)"><g><path fill="none" stroke="none"/><text fill="#000000" stroke="none" font-family="Arial" font-size="13px" font-style="normal" font-weight="normal" text-decoration="none" x="73.85546875" y="392.5">(from Model1)</text></g></g><g transform="translate(-46,-30) scale(1,1)"><path fill="#C0C0C0" stroke="none" d="M 351 361 C 351 346.6405952 385.0263552 335 427 335 C 468.9736448 335 503 346.6405952 503 361 C 503 375.3594048 468.9736448 387 427 387 C 385.0263552 387 351 375.3594048 351 361 Z" opacity="0.2"/></g><g transform="translate(-46,-30) scale(1,1)"><path fill="#a3e0ff" stroke="none" d="M 344 354 C 344 339.6405952 378.0263552 328 420 328 C 461.9736448 328 496 339.6405952 496 354 C 496 368.3594048 461.9736448 380 420 380 C 378.0263552 380 344 368.3594048 344 354 Z"/></g><g transform="translate(-46,-30) scale(1,1)"><path fill="none" stroke="#000000" d="M 344 354 C 344 339.6405952 378.0263552 328 420 328 C 461.9736448 328 496 339.6405952 496 354 C 496 368.3594048 461.9736448 380 420 380 C 378.0263552 380 344 368.3594048 344 354 Z" stroke-miterlimit="10"/></g><g transform="translate(-46,-30) scale(1,1)"><g><path fill="none" stroke="none"/><text fill="#000000" stroke="none" font-family="Arial" font-size="13px" font-style="normal" font-weight="bold" text-decoration="none" x="401.575927734375" y="354.5">list job</text><text fill="#000000" stroke="none" font-family="Arial" font-size="13px" font-style="normal" font-weight="bold" text-decoration="none" x="393.615966796875" y="367.5">openings</text></g></g><g transform="translate(-46,-30) scale(1,1)"><path fill="#ffffff" stroke="none" d="M 633.4325436789773 217.68 C 633.4325436789773 212.886167936 637.3183860039227 209 642.11181640625 209 C 646.9052468085773 209 650.7910891335227 212.886167936 650.7910891335227 217.68 C 650.7910891335227 222.47383206400002 646.9052468085773 226.36 642.11181640625 226.36 C 637.3183860039227 226.36 633.4325436789773 222.47383206400002 633.4325436789773 217.68 Z"/></g><g transform="translate(-46,-30) scale(1,1)"><path fill="none" stroke="#000000" d="M 633.4325436789773 217.68 C 633.4325436789773 212.886167936 637.3183860039227 209 642.11181640625 209 C 646.9052468085773 209 650.7910891335227 212.886167936 650.7910891335227 217.68 C 650.7910891335227 222.47383206400002 646.9052468085773 226.36 642.11181640625 226.36 C 637.3183860039227 226.36 633.4325436789773 222.47383206400002 633.4325436789773 217.68 Z" stroke-miterlimit="10"/></g><g transform="translate(-46,-30) scale(1,1)"><path fill="none" stroke="#000000" d="M 642.11181640625 226.36 L 642.11181640625 243.64" stroke-miterlimit="10"/></g><g transform="translate(-46,-30) scale(1,1)"><path fill="none" stroke="#000000" d="M 632.9219982244318 232.84 L 651.3016345880682 232.84" stroke-miterlimit="10"/></g><g transform="translate(-46,-30) scale(1,1)"><path fill="none" stroke="#000000" d="M 642.11181640625 243.64 L 629.3481800426136 261" stroke-miterlimit="10"/></g><g transform="translate(-46,-30) scale(1,1)"><path fill="none" stroke="#000000" d="M 642.11181640625 243.64 L 654.8754527698864 261" stroke-miterlimit="10"/></g><g transform="translate(-46,-30) scale(1,1)"><g><path fill="none" stroke="none"/><text fill="#000000" stroke="none" font-family="Arial" font-size="13px" font-style="normal" font-weight="bold" text-decoration="none" x="615.372314453125" y="281.5">Applicant</text></g></g><g transform="translate(-46,-30) scale(1,1)"><path fill="#C0C0C0" stroke="none" d="M 335 256 C 335 246.6111584 374.6227952 239 423.5 239 C 472.3772048 239 512 246.6111584 512 256 C 512 265.3888416 472.3772048 273 423.5 273 C 374.6227952 273 335 265.3888416 335 256 Z" opacity="0.2"/></g><g transform="translate(-46,-30) scale(1,1)"><path fill="#a3e0ff" stroke="none" d="M 328 249 C 328 239.6111584 367.6227952 232 416.5 232 C 465.3772048 232 505 239.6111584 505 249 C 505 258.3888416 465.3772048 266 416.5 266 C 367.6227952 266 328 258.3888416 328 249 Z"/></g><g transform="translate(-46,-30) scale(1,1)"><path fill="none" stroke="#000000" d="M 328 249 C 328 239.6111584 367.6227952 232 416.5 232 C 465.3772048 232 505 239.6111584 505 249 C 505 258.3888416 465.3772048 266 416.5 266 C 367.6227952 266 328 258.3888416 328 249 Z" stroke-miterlimit="10"/></g><g transform="translate(-46,-30) scale(1,1)"><g><path fill="none" stroke="none"/><text fill="#000000" stroke="none" font-family="Arial" font-size="13px" font-style="normal" font-weight="bold" text-decoration="none" x="364.471435546875" y="256">submit application</text></g></g><g transform="translate(-46,-30) scale(1,1)"><path fill="none" stroke="#000000" d="M 607 247 L 506 248" stroke-miterlimit="10"/></g><g transform="translate(-46,-30) scale(1,1)"><path fill="none" stroke="#000000" d="M 516.1205004218276 243.6900729458855 L 506 248 L 516.2038531236593 252.10869583089186" stroke-miterlimit="10"/></g><g transform="translate(-46,-30) scale(1,1)"><path fill="#C0C0C0" stroke="none" d="M 351 441 C 351 426.6405952 385.0263552 415 427 415 C 468.9736448 415 503 426.6405952 503 441 C 503 455.3594048 468.9736448 467 427 467 C 385.0263552 467 351 455.3594048 351 441 Z" opacity="0.2"/></g><g transform="translate(-46,-30) scale(1,1)"><path fill="#a3e0ff" stroke="none" d="M 344 434 C 344 419.6405952 378.0263552 408 420 408 C 461.9736448 408 496 419.6405952 496 434 C 496 448.3594048 461.9736448 460 420 460 C 378.0263552 460 344 448.3594048 344 434 Z"/></g><g transform="translate(-46,-30) scale(1,1)"><path fill="none" stroke="#000000" d="M 344 434 C 344 419.6405952 378.0263552 408 420 408 C 461.9736448 408 496 419.6405952 496 434 C 496 448.3594048 461.9736448 460 420 460 C 378.0263552 460 344 448.3594048 344 434 Z" stroke-miterlimit="10"/></g><g transform="translate(-46,-30) scale(1,1)"><g><path fill="none" stroke="none"/><text fill="#000000" stroke="none" font-family="Arial" font-size="13px" font-style="normal" font-weight="bold" text-decoration="none" x="387.845947265625" y="434.5">remove job</text><text fill="#000000" stroke="none" font-family="Arial" font-size="13px" font-style="normal" font-weight="bold" text-decoration="none" x="393.615966796875" y="447.5">openings</text></g></g><g transform="translate(-46,-30) scale(1,1)"><path fill="#C0C0C0" stroke="none" d="M 351 521 C 351 506.6405952 383.2354944 495 423 495 C 462.7645056 495 495 506.6405952 495 521 C 495 535.3594048 462.7645056 547 423 547 C 383.2354944 547 351 535.3594048 351 521 Z" opacity="0.2"/></g><g transform="translate(-46,-30) scale(1,1)"><path fill="#a3e0ff" stroke="none" d="M 344 514 C 344 499.6405952 376.2354944 488 416 488 C 455.7645056 488 488 499.6405952 488 514 C 488 528.3594048 455.7645056 540 416 540 C 376.2354944 540 344 528.3594048 344 514 Z"/></g><g transform="translate(-46,-30) scale(1,1)"><path fill="none" stroke="#000000" d="M 344 514 C 344 499.6405952 376.2354944 488 416 488 C 455.7645056 488 488 499.6405952 488 514 C 488 528.3594048 455.7645056 540 416 540 C 376.2354944 540 344 528.3594048 344 514 Z" stroke-miterlimit="10"/></g><g transform="translate(-46,-30) scale(1,1)"><g><path fill="none" stroke="none"/><text fill="#000000" stroke="none" font-family="Arial" font-size="13px" font-style="normal" font-weight="bold" text-decoration="none" x="395.04638671875" y="514.5">receive</text><text fill="#000000" stroke="none" font-family="Arial" font-size="13px" font-style="normal" font-weight="bold" text-decoration="none" x="381.671875" y="527.5">applications</text></g></g><g transform="translate(-46,-30) scale(1,1)"><path fill="#C0C0C0" stroke="none" d="M 335 96 C 335 86.6111584 372.6080768 79 419 79 C 465.3919232 79 503 86.6111584 503 96 C 503 105.3888416 465.3919232 113 419 113 C 372.6080768 113 335 105.3888416 335 96 Z" opacity="0.2"/></g><g transform="translate(-46,-30) scale(1,1)"><path fill="#a3e0ff" stroke="none" d="M 328 89 C 328 79.6111584 365.6080768 72 412 72 C 458.3919232 72 496 79.6111584 496 89 C 496 98.3888416 458.3919232 106 412 106 C 365.6080768 106 328 98.3888416 328 89 Z"/></g><g transform="translate(-46,-30) scale(1,1)"><path fill="none" stroke="#000000" d="M 328 89 C 328 79.6111584 365.6080768 72 412 72 C 458.3919232 72 496 79.6111584 496 89 C 496 98.3888416 458.3919232 106 412 106 C 365.6080768 106 328 98.3888416 328 89 Z" stroke-miterlimit="10"/></g><g transform="translate(-46,-30) scale(1,1)"><g><path fill="none" stroke="none"/><text fill="#000000" stroke="none" font-family="Arial" font-size="13px" font-style="normal" font-weight="bold" text-decoration="none" x="362.5009765625" y="96">view job postings</text></g></g><g transform="translate(-46,-30) scale(1,1)"><path fill="#ffffff" stroke="none" d="M 636.2743405539773 49.68 C 636.2743405539773 44.886167936 640.1601828789227 41 644.95361328125 41 C 649.7470436835773 41 653.6328860085227 44.886167936 653.6328860085227 49.68 C 653.6328860085227 54.473832064 649.7470436835773 58.36 644.95361328125 58.36 C 640.1601828789227 58.36 636.2743405539773 54.473832064 636.2743405539773 49.68 Z"/></g><g transform="translate(-46,-30) scale(1,1)"><path fill="none" stroke="#000000" d="M 636.2743405539773 49.68 C 636.2743405539773 44.886167936 640.1601828789227 41 644.95361328125 41 C 649.7470436835773 41 653.6328860085227 44.886167936 653.6328860085227 49.68 C 653.6328860085227 54.473832064 649.7470436835773 58.36 644.95361328125 58.36 C 640.1601828789227 58.36 636.2743405539773 54.473832064 636.2743405539773 49.68 Z" stroke-miterlimit="10"/></g><g transform="translate(-46,-30) scale(1,1)"><path fill="none" stroke="#000000" d="M 644.95361328125 58.36 L 644.95361328125 75.64" stroke-miterlimit="10"/></g><g transform="translate(-46,-30) scale(1,1)"><path fill="none" stroke="#000000" d="M 635.7637950994318 64.84 L 654.1434314630682 64.84" stroke-miterlimit="10"/></g><g transform="translate(-46,-30) scale(1,1)"><path fill="none" stroke="#000000" d="M 644.95361328125 75.64 L 632.1899769176136 93" stroke-miterlimit="10"/></g><g transform="translate(-46,-30) scale(1,1)"><path fill="none" stroke="#000000" d="M 644.95361328125 75.64 L 657.7172496448864 93" stroke-miterlimit="10"/></g><g transform="translate(-46,-30) scale(1,1)"><g><path fill="none" stroke="none"/><text fill="#000000" stroke="none" font-family="Arial" font-size="13px" font-style="normal" font-weight="bold" text-decoration="none" x="627.61181640625" y="113.5">Guest</text></g></g><g transform="translate(-46,-30) scale(1,1)"><g><path fill="none" stroke="none"/><text fill="#000000" stroke="none" font-family="Arial" font-size="13px" font-style="normal" font-weight="normal" text-decoration="none" x="604.5" y="128.5">(from Model1)</text></g></g><g transform="translate(-46,-30) scale(1,1)"><path fill="none" stroke="#000000" d="M 643 207 L 643 135" stroke-miterlimit="10"/></g><g transform="translate(-46,-30) scale(1,1)"><path fill="#FFFFFF" stroke="none" d="M 651.419035512032 155.3253497152483 L 643 135 L 634.580964487968 155.3253497152483"/></g><g transform="translate(-46,-30) scale(1,1)"><path fill="none" stroke="#000000" d="M 651.419035512032 155.3253497152483 L 643 135 L 634.580964487968 155.3253497152483 L 651.419035512032 155.3253497152483" stroke-miterlimit="10"/></g><g transform="translate(-46,-30) scale(1,1)"><path fill="none" stroke="#000000" d="M 599 87 L 497 88" stroke-miterlimit="10"/></g><g transform="translate(-46,-30) scale(1,1)"><path fill="none" stroke="#000000" d="M 507.12091869183536 83.69105525293519 L 497 88 L 507.20345428924213 92.10968618842679" stroke-miterlimit="10"/></g><g transform="translate(-46,-30) scale(1,1)"><path fill="#ffffff" stroke="none" d="M 760 200 L 845.3017578125 200 L 855.3017578125 210 L 855.3017578125 288 L 760 288 L 760 200"/></g><g transform="translate(-46,-30) scale(1,1)"><path fill="none" stroke="#000000" d="M 760 200 L 845.3017578125 200 L 855.3017578125 210 L 855.3017578125 288 L 760 288 L 760 200 L 760 200" stroke-miterlimit="10"/></g><g transform="translate(-46,-30) scale(1,1)"><path fill="none" stroke="#000000" d="M 845.3017578125 200 L 845.3017578125 210 L 855.3017578125 210 L 845.3017578125 200" stroke-miterlimit="10"/></g><g transform="translate(-46,-30) scale(1,1)"><g><path fill="none" stroke="none"/><text fill="#000000" stroke="none" font-family="Arial" font-size="13px" font-style="normal" font-weight="normal" text-decoration="none" x="765" y="218">Guest</text><text fill="#000000" stroke="none" font-family="Arial" font-size="13px" font-style="normal" font-weight="normal" text-decoration="none" x="765" y="231">becomes an</text><text fill="#000000" stroke="none" font-family="Arial" font-size="13px" font-style="normal" font-weight="normal" text-decoration="none" x="765" y="244">applicant once</text><text fill="#000000" stroke="none" font-family="Arial" font-size="13px" font-style="normal" font-weight="normal" text-decoration="none" x="765" y="257">he logs on to</text><text fill="#000000" stroke="none" font-family="Arial" font-size="13px" font-style="normal" font-weight="normal" text-decoration="none" x="765" y="270">the</text><text fill="#000000" stroke="none" font-family="Arial" font-size="13px" font-style="normal" font-weight="normal" text-decoration="none" x="765" y="283">system/portal</text></g></g><g transform="translate(-46,-30) scale(1,1)"><path fill="none" stroke="#000000" d="M 759 245 L 677 246" stroke-miterlimit="10" stroke-dasharray="3"/></g><g transform="translate(-46,-30) scale(1,1)"><path fill="none" stroke="#000000" d="M 174 352 L 343 353" stroke-miterlimit="10"/></g><g transform="translate(-46,-30) scale(1,1)"><path fill="none" stroke="#000000" d="M 332.81259509640756 357.1493109464417 L 343 353 L 332.86241100249623 348.73042281745717" stroke-miterlimit="10"/></g><g transform="translate(-46,-30) scale(1,1)"><path fill="none" stroke="#000000" d="M 174 367 L 343 413" stroke-miterlimit="10"/></g><g transform="translate(-46,-30) scale(1,1)"><path fill="none" stroke="#000000" d="M 332.0885175956684 414.3926779024462 L 343 413 L 334.29964481027105 406.2691887879278" stroke-miterlimit="10"/></g><g transform="translate(-46,-30) scale(1,1)"><path fill="none" stroke="#000000" d="M 174 383 L 366 487" stroke-miterlimit="10"/></g><g transform="translate(-46,-30) scale(1,1)"><path fill="none" stroke="#000000" d="M 355.05911926849234 485.8610843670736 L 366 487 L 359.0689640098393 478.45829407535604" stroke-miterlimit="10"/></g></g></svg>