<svg version="1.1" xmlns="http://www.w3.org/2000/svg" xmlns:xlink="http://www.w3.org/1999/xlink" width="661.9072265625" height="450"><defs/><g><g transform="translate(-30,-190) scale(1,1)"><path fill="#ffffff" stroke="none" d="M 89.62980930397727 329.68 C 89.62980930397727 324.886167936 93.51565162892273 321 98.30908203125 321 C 103.10251243357727 321 106.98835475852273 324.886167936 106.98835475852273 329.68 C 106.98835475852273 334.473832064 103.10251243357727 338.36 98.30908203125 338.36 C 93.51565162892273 338.36 89.62980930397727 334.473832064 89.62980930397727 329.68 Z"/></g><g transform="translate(-30,-190) scale(1,1)"><path fill="none" stroke="#000000" d="M 89.62980930397727 329.68 C 89.62980930397727 324.886167936 93.51565162892273 321 98.30908203125 321 C 103.10251243357727 321 106.98835475852273 324.886167936 106.98835475852273 329.68 C 106.98835475852273 334.473832064 103.10251243357727 338.36 98.30908203125 338.36 C 93.51565162892273 338.36 89.62980930397727 334.473832064 89.62980930397727 329.68 Z" stroke-miterlimit="10"/></g><g transform="translate(-30,-190) scale(1,1)"><path fill="none" stroke="#000000" d="M 98.30908203125 338.36 L 98.30908203125 355.64" stroke-miterlimit="10"/></g><g transform="translate(-30,-190) scale(1,1)"><path fill="none" stroke="#000000" d="M 89.11926384943182 344.84 L 107.49890021306818 344.84" stroke-miterlimit="10"/></g><g transform="translate(-30,-190) scale(1,1)"><path fill="none" stroke="#000000" d="M 98.30908203125 355.64 L 85.54544566761363 373" stroke-miterlimit="10"/></g><g transform="translate(-30,-190) scale(1,1)"><path fill="none" stroke="#000000" d="M 98.30908203125 355.64 L 111.07271839488637 373" stroke-miterlimit="10"/></g><g transform="translate(-30,-190) scale(1,1)"><g><path fill="none" stroke="none"/><text fill="#000000" stroke="none" font-family="Arial" font-size="13px" font-style="normal" font-weight="bold" text-decoration="none" x="48.825927734375" y="393.5">HR Administrator</text></g></g><g transform="translate(-30,-190) scale(1,1)"><g><path fill="none" stroke="none"/><text fill="#000000" stroke="none" font-family="Arial" font-size="13px" font-style="normal" font-weight="normal" text-decoration="none" x="57.85546875" y="408.5">(from Model1)</text></g></g><g transform="translate(-30,-190) scale(1,1)"><path fill="#C0C0C0" stroke="none" d="M 239 320 C 239 310.6111584 298.0984064 303 371 303 C 443.9015936 303 503 310.6111584 503 320 C 503 329.3888416 443.9015936 337 371 337 C 298.0984064 337 239 329.3888416 239 320 Z" opacity="0.2"/></g><g transform="translate(-30,-190) scale(1,1)"><path fill="#2b2bff" stroke="none" d="M 232 313 C 232 303.6111584 291.0984064 296 364 296 C 436.9015936 296 496 303.6111584 496 313 C 496 322.3888416 436.9015936 330 364 330 C 291.0984064 330 232 322.3888416 232 313 Z"/></g><g transform="translate(-30,-190) scale(1,1)"><path fill="none" stroke="#000000" d="M 232 313 C 232 303.6111584 291.0984064 296 364 296 C 436.9015936 296 496 303.6111584 496 313 C 496 322.3888416 436.9015936 330 364 330 C 291.0984064 330 232 322.3888416 232 313 Z" stroke-miterlimit="10"/></g><g transform="translate(-30,-190) scale(1,1)"><g><path fill="none" stroke="none"/><text fill="#000000" stroke="none" font-family="Arial" font-size="13px" font-style="normal" font-weight="bold" text-decoration="none" x="301.48193359375" y="320">list job opening online</text></g></g><g transform="translate(-30,-190) scale(1,1)"><path fill="#ffffff" stroke="none" d="M 633.4325436789773 345.68 C 633.4325436789773 340.886167936 637.3183860039227 337 642.11181640625 337 C 646.9052468085773 337 650.7910891335227 340.886167936 650.7910891335227 345.68 C 650.7910891335227 350.473832064 646.9052468085773 354.36 642.11181640625 354.36 C 637.3183860039227 354.36 633.4325436789773 350.473832064 633.4325436789773 345.68 Z"/></g><g transform="translate(-30,-190) scale(1,1)"><path fill="none" stroke="#000000" d="M 633.4325436789773 345.68 C 633.4325436789773 340.886167936 637.3183860039227 337 642.11181640625 337 C 646.9052468085773 337 650.7910891335227 340.886167936 650.7910891335227 345.68 C 650.7910891335227 350.473832064 646.9052468085773 354.36 642.11181640625 354.36 C 637.3183860039227 354.36 633.4325436789773 350.473832064 633.4325436789773 345.68 Z" stroke-miterlimit="10"/></g><g transform="translate(-30,-190) scale(1,1)"><path fill="none" stroke="#000000" d="M 642.11181640625 354.36 L 642.11181640625 371.64" stroke-miterlimit="10"/></g><g transform="translate(-30,-190) scale(1,1)"><path fill="none" stroke="#000000" d="M 632.9219982244318 360.84 L 651.3016345880682 360.84" stroke-miterlimit="10"/></g><g transform="translate(-30,-190) scale(1,1)"><path fill="none" stroke="#000000" d="M 642.11181640625 371.64 L 629.3481800426136 389" stroke-miterlimit="10"/></g><g transform="translate(-30,-190) scale(1,1)"><path fill="none" stroke="#000000" d="M 642.11181640625 371.64 L 654.8754527698864 389" stroke-miterlimit="10"/></g><g transform="translate(-30,-190) scale(1,1)"><g><path fill="none" stroke="none"/><text fill="#000000" stroke="none" font-family="Arial" font-size="13px" font-style="normal" font-weight="bold" text-decoration="none" x="615.372314453125" y="409.5">Applicant</text></g></g><g transform="translate(-30,-190) scale(1,1)"><path fill="none" stroke="#000000" d="M 158 355 L 275 331" stroke-miterlimit="10"/></g><g transform="translate(-30,-190) scale(1,1)"><path fill="none" stroke="#000000" d="M 265.8904942046924 337.1657849593752 L 275 331 L 264.1987383227676 328.918475034992" stroke-miterlimit="10"/></g><g transform="translate(-30,-190) scale(1,1)"><path fill="#C0C0C0" stroke="none" d="M 287 224 C 287 214.6111584 326.6227952 207 375.5 207 C 424.3772048 207 464 214.6111584 464 224 C 464 233.3888416 424.3772048 241 375.5 241 C 326.6227952 241 287 233.3888416 287 224 Z" opacity="0.2"/></g><g transform="translate(-30,-190) scale(1,1)"><path fill="#2b2bff" stroke="none" d="M 280 217 C 280 207.6111584 319.6227952 200 368.5 200 C 417.3772048 200 457 207.6111584 457 217 C 457 226.3888416 417.3772048 234 368.5 234 C 319.6227952 234 280 226.3888416 280 217 Z"/></g><g transform="translate(-30,-190) scale(1,1)"><path fill="none" stroke="#000000" d="M 280 217 C 280 207.6111584 319.6227952 200 368.5 200 C 417.3772048 200 457 207.6111584 457 217 C 457 226.3888416 417.3772048 234 368.5 234 C 319.6227952 234 280 226.3888416 280 217 Z" stroke-miterlimit="10"/></g><g transform="translate(-30,-190) scale(1,1)"><g><path fill="none" stroke="none"/><text fill="#000000" stroke="none" font-family="Arial" font-size="13px" font-style="normal" font-weight="bold" text-decoration="none" x="316.471435546875" y="224">submit application</text></g></g><g transform="translate(-30,-190) scale(1,1)"><path fill="none" stroke="#000000" d="M 607 355 L 399 235" stroke-miterlimit="10"/></g><g transform="translate(-30,-190) scale(1,1)"><path fill="none" stroke="#000000" d="M 409.9063530184168 236.43229320939207 L 399 235 L 405.6991719363283 243.72474041834548" stroke-miterlimit="10"/></g><g transform="translate(-30,-190) scale(1,1)"><path fill="#C0C0C0" stroke="none" d="M 303 400 C 303 390.6111584 337.697928 383 380.5 383 C 423.302072 383 458 390.6111584 458 400 C 458 409.3888416 423.302072 417 380.5 417 C 337.697928 417 303 409.3888416 303 400 Z" opacity="0.2"/></g><g transform="translate(-30,-190) scale(1,1)"><path fill="#2b2bff" stroke="none" d="M 296 393 C 296 383.6111584 330.697928 376 373.5 376 C 416.302072 376 451 383.6111584 451 393 C 451 402.3888416 416.302072 410 373.5 410 C 330.697928 410 296 402.3888416 296 393 Z"/></g><g transform="translate(-30,-190) scale(1,1)"><path fill="none" stroke="#000000" d="M 296 393 C 296 383.6111584 330.697928 376 373.5 376 C 416.302072 376 451 383.6111584 451 393 C 451 402.3888416 416.302072 410 373.5 410 C 330.697928 410 296 402.3888416 296 393 Z" stroke-miterlimit="10"/></g><g transform="translate(-30,-190) scale(1,1)"><g><path fill="none" stroke="none"/><text fill="#000000" stroke="none" font-family="Arial" font-size="13px" font-style="normal" font-weight="bold" text-decoration="none" x="326.885986328125" y="400">remove opening</text></g></g><g transform="translate(-30,-190) scale(1,1)"><path fill="none" stroke="#000000" d="M 158 373 L 295 386" stroke-miterlimit="10"/></g><g transform="translate(-30,-190) scale(1,1)"><path fill="none" stroke="#000000" d="M 284.485114877901 389.23066415293545 L 295 386 L 285.28042889648935 380.8492779570432" stroke-miterlimit="10"/></g><g transform="translate(-30,-190) scale(1,1)"><path fill="#C0C0C0" stroke="none" d="M 279 488 C 279 478.6111584 320.1897984 471 371 471 C 421.8102016 471 463 478.6111584 463 488 C 463 497.3888416 421.8102016 505 371 505 C 320.1897984 505 279 497.3888416 279 488 Z" opacity="0.2"/></g><g transform="translate(-30,-190) scale(1,1)"><path fill="#2b2bff" stroke="none" d="M 272 481 C 272 471.6111584 313.1897984 464 364 464 C 414.8102016 464 456 471.6111584 456 481 C 456 490.3888416 414.8102016 498 364 498 C 313.1897984 498 272 490.3888416 272 481 Z"/></g><g transform="translate(-30,-190) scale(1,1)"><path fill="none" stroke="#000000" d="M 272 481 C 272 471.6111584 313.1897984 464 364 464 C 414.8102016 464 456 471.6111584 456 481 C 456 490.3888416 414.8102016 498 364 498 C 313.1897984 498 272 490.3888416 272 481 Z" stroke-miterlimit="10"/></g><g transform="translate(-30,-190) scale(1,1)"><g><path fill="none" stroke="none"/><text fill="#000000" stroke="none" font-family="Arial" font-size="13px" font-style="normal" font-weight="bold" text-decoration="none" x="309.44189453125" y="488">collect applications</text></g></g><g transform="translate(-30,-190) scale(1,1)"><path fill="none" stroke="#000000" d="M 158 393 L 322 463" stroke-miterlimit="10"/></g><g transform="translate(-30,-190) scale(1,1)"><path fill="none" stroke="#000000" d="M 311.00063203944006 462.8820827908741 L 322 463 L 314.30565238451356 455.1388922681305" stroke-miterlimit="10"/></g><g transform="translate(-30,-190) scale(1,1)"><path fill="#C0C0C0" stroke="none" d="M 303 592 C 303 582.6111584 340.6080768 575 387 575 C 433.3919232 575 471 582.6111584 471 592 C 471 601.3888416 433.3919232 609 387 609 C 340.6080768 609 303 601.3888416 303 592 Z" opacity="0.2"/></g><g transform="translate(-30,-190) scale(1,1)"><path fill="#2b2bff" stroke="none" d="M 296 585 C 296 575.6111584 333.6080768 568 380 568 C 426.3919232 568 464 575.6111584 464 585 C 464 594.3888416 426.3919232 602 380 602 C 333.6080768 602 296 594.3888416 296 585 Z"/></g><g transform="translate(-30,-190) scale(1,1)"><path fill="none" stroke="#000000" d="M 296 585 C 296 575.6111584 333.6080768 568 380 568 C 426.3919232 568 464 575.6111584 464 585 C 464 594.3888416 426.3919232 602 380 602 C 333.6080768 602 296 594.3888416 296 585 Z" stroke-miterlimit="10"/></g><g transform="translate(-30,-190) scale(1,1)"><g><path fill="none" stroke="none"/><text fill="#000000" stroke="none" font-family="Arial" font-size="13px" font-style="normal" font-weight="bold" text-decoration="none" x="330.5009765625" y="592">view job postings</text></g></g><g transform="translate(-30,-190) scale(1,1)"><path fill="#ffffff" stroke="none" d="M 628.2743405539773 545.6800000000001 C 628.2743405539773 540.8861679360001 632.1601828789227 537 636.95361328125 537 C 641.7470436835773 537 645.6328860085227 540.8861679360001 645.6328860085227 545.6800000000001 C 645.6328860085227 550.473832064 641.7470436835773 554.36 636.95361328125 554.36 C 632.1601828789227 554.36 628.2743405539773 550.473832064 628.2743405539773 545.6800000000001 Z"/></g><g transform="translate(-30,-190) scale(1,1)"><path fill="none" stroke="#000000" d="M 628.2743405539773 545.6800000000001 C 628.2743405539773 540.8861679360001 632.1601828789227 537 636.95361328125 537 C 641.7470436835773 537 645.6328860085227 540.8861679360001 645.6328860085227 545.6800000000001 C 645.6328860085227 550.473832064 641.7470436835773 554.36 636.95361328125 554.36 C 632.1601828789227 554.36 628.2743405539773 550.473832064 628.2743405539773 545.6800000000001 Z" stroke-miterlimit="10"/></g><g transform="translate(-30,-190) scale(1,1)"><path fill="none" stroke="#000000" d="M 636.95361328125 554.36 L 636.95361328125 571.64" stroke-miterlimit="10"/></g><g transform="translate(-30,-190) scale(1,1)"><path fill="none" stroke="#000000" d="M 627.7637950994318 560.84 L 646.1434314630682 560.84" stroke-miterlimit="10"/></g><g transform="translate(-30,-190) scale(1,1)"><path fill="none" stroke="#000000" d="M 636.95361328125 571.64 L 624.1899769176136 589" stroke-miterlimit="10"/></g><g transform="translate(-30,-190) scale(1,1)"><path fill="none" stroke="#000000" d="M 636.95361328125 571.64 L 649.7172496448864 589" stroke-miterlimit="10"/></g><g transform="translate(-30,-190) scale(1,1)"><g><path fill="none" stroke="none"/><text fill="#000000" stroke="none" font-family="Arial" font-size="13px" font-style="normal" font-weight="bold" text-decoration="none" x="619.61181640625" y="609.5">Guest</text></g></g><g transform="translate(-30,-190) scale(1,1)"><g><path fill="none" stroke="none"/><text fill="#000000" stroke="none" font-family="Arial" font-size="13px" font-style="normal" font-weight="normal" text-decoration="none" x="596.5" y="624.5">(from Model1)</text></g></g><g transform="translate(-30,-190) scale(1,1)"><path fill="none" stroke="#000000" d="M 641 416 L 637 535" stroke-miterlimit="10"/></g><g transform="translate(-30,-190) scale(1,1)"><path fill="#FFFFFF" stroke="none" d="M 629.268536037648 514.4032899472063 L 637 535 L 646.097102752185 514.968956055258"/></g><g transform="translate(-30,-190) scale(1,1)"><path fill="none" stroke="#000000" d="M 629.268536037648 514.4032899472063 L 637 535 L 646.097102752185 514.968956055258 L 629.268536037648 514.4032899472063" stroke-miterlimit="10"/></g><g transform="translate(-30,-190) scale(1,1)"><path fill="none" stroke="#000000" d="M 591 583 L 465 584" stroke-miterlimit="10"/></g><g transform="translate(-30,-190) scale(1,1)"><path fill="none" stroke="#000000" d="M 475.12894698971 579.709961203014 L 465 584 L 475.1957626276051 588.1287315778009" stroke-miterlimit="10"/></g></g></svg>